<svg width="550" height="131" viewBox="0 0 550 131" fill="none" xmlns="http://www.w3.org/2000/svg">
<path d="M59.4205 34.1337H76.7414V65.9094L68.0112 74.6168L59.281 66.0486C58.1727 52.2281 49.028 45.1827 39.4686 45.1827C29.7698 45.1827 21.8728 52.5064 20.6291 65.9094H3.44775C4.69141 45.8787 19.5168 32.75 36.419 32.75C45.9373 32.75 54.056 36.6391 59.4205 43.6271V34.1296V34.1337ZM59.4205 77.7976H57.7582C54.7086 87.3361 47.5052 92.3059 39.6082 92.3059C31.0175 92.3059 23.9496 87.4753 21.3186 76.5531L12.453 68.9551L3.99775 77.7976C6.91193 94.3773 21.5978 104.743 36.4231 104.743C45.9742 104.743 54.056 100.71 59.4205 93.6691V103.363H76.7414V77.7976H59.4205ZM156.122 69.2294V73.3764H103.277C104.988 84.7243 112.898 92.5842 123.294 92.5842C130.637 92.5842 136.732 88.9899 140.615 81.8054H155.437C150.45 95.9002 137.705 104.747 122.047 104.747C101.401 104.747 85.7466 89.1291 85.7466 68.6808C85.7425 48.4987 100.847 32.75 121.349 32.75C142.963 32.75 156.122 49.6081 156.122 69.2294ZM103.638 61.6314H140.866C139.006 51.2906 131.495 44.7733 121.915 44.7733C112.475 44.7733 105.748 51.569 103.638 61.6314ZM180.929 52.5105C180.929 48.0893 185.227 44.0774 194.093 44.0774C205.035 44.0774 210.441 49.0554 211.413 56.7926H225.681C224.568 41.3182 211.27 32.75 194.228 32.75C177.601 32.75 164.577 42.1452 164.577 55.5522C164.577 84.016 209.743 69.5078 209.743 84.8471C209.743 89.1291 204.895 93.4153 194.918 93.4153C184.669 93.4153 178.43 88.0238 177.601 80.7001H163.329C164.298 96.0394 177.736 104.743 195.611 104.743C212.932 104.743 226.37 95.3475 226.37 81.8054C226.37 53.3375 180.929 67.7106 180.929 52.5105ZM269.598 45.1868C279.437 45.1868 286.64 50.9917 288.996 61.3571H304.101C301.182 43.6639 286.772 32.75 268.347 32.75C247.291 32.75 232.326 48.2244 232.326 68.8159C232.326 89.4075 247.705 104.747 268.905 104.747C286.636 104.747 300.907 93.1369 303.818 76.1397H288.992C286.636 86.2267 279.433 92.1708 269.594 92.1708C257.819 92.1708 249.647 82.3581 249.647 68.6767C249.647 54.7212 257.823 45.1868 269.598 45.1868ZM366.029 34.1337H383.35V103.359H366.029V93.5504C360.529 100.809 352.382 104.747 343.032 104.747C324.192 104.747 309.917 89.1291 309.917 68.6808C309.917 48.3636 324.323 32.75 343.307 32.75C352.542 32.75 360.587 36.6063 366.029 43.7663V34.1337ZM366.029 68.6767C366.029 54.582 357.857 45.1868 346.631 45.1868C335.41 45.1868 327.238 54.582 327.238 68.6767C327.238 82.9107 335.41 92.31 346.631 92.31C357.857 92.31 366.029 82.9107 366.029 68.6767ZM469.248 68.6767C469.248 89.1291 454.838 104.743 435.859 104.743C426.624 104.743 418.579 100.841 413.136 93.6486V131H395.815V34.1337H413.136V43.8645C418.628 36.6473 426.784 32.75 436.129 32.75C454.973 32.75 469.248 48.3636 469.248 68.6767ZM451.928 68.6767C451.928 54.582 443.756 45.1868 432.534 45.1868C421.312 45.1868 413.136 54.582 413.136 68.6767C413.136 82.9107 421.312 92.31 432.534 92.31C443.756 92.31 451.928 82.9107 451.928 68.6767ZM546.556 73.3764H493.703C495.419 84.7243 503.324 92.5842 513.721 92.5842C521.063 92.5842 527.163 88.9899 531.041 81.8054H545.867C540.876 95.9002 528.131 104.747 512.473 104.747C491.831 104.747 476.177 89.1291 476.177 68.6808C476.177 48.5028 491.277 32.75 511.783 32.75C533.397 32.75 546.556 49.6081 546.556 69.2294V73.3764ZM494.064 61.6273H531.288C529.432 51.2906 521.925 44.7733 512.341 44.7733C502.905 44.7733 496.178 51.569 494.064 61.6314V61.6273Z" fill="black"/>
</svg>
