<?xml version="1.0" standalone="no"?>
<!DOCTYPE svg PUBLIC "-//W3C//DTD SVG 20010904//EN"
 "http://www.w3.org/TR/2001/REC-SVG-20010904/DTD/svg10.dtd">
<svg version="1.0" xmlns="http://www.w3.org/2000/svg"
 width="1000.000000pt" height="194.000000pt" viewBox="0 0 1000.000000 194.000000"
 preserveAspectRatio="xMidYMid meet">

<g transform="translate(0.000000,194.000000) scale(0.100000,-0.100000)"
fill="#FFFFFF" stroke="none">
<path d="M847 1854 c-4 -4 -7 -33 -7 -64 0 -141 -54 -350 -131 -504 -68 -135
-126 -214 -238 -326 -86 -86 -140 -127 -279 -214 l-42 -26 31 -63 c75 -149
219 -313 352 -400 351 -232 804 -230 1150 5 74 50 182 152 236 222 50 65 131
204 131 226 0 8 -27 30 -60 48 -207 114 -392 310 -501 531 -77 157 -115 297
-128 476 l-6 90 -251 3 c-138 1 -253 -1 -257 -4z m419 -195 c57 -393 264 -721
597 -948 26 -17 47 -36 47 -40 0 -11 -71 -115 -109 -161 l-29 -35 -59 40
c-394 267 -655 700 -699 1163 l-7 73 124 -3 123 -3 12 -86z m-330 -166 c21
-89 47 -182 74 -254 l30 -82 -46 -86 c-65 -122 -143 -228 -267 -358 -120 -126
-153 -183 -159 -272 -3 -30 -9 -56 -16 -59 -29 -9 -252 250 -252 293 0 7 19
25 43 40 244 161 442 422 537 708 18 53 36 97 41 97 5 0 11 -12 15 -27z m241
-580 c39 -60 106 -147 148 -196 42 -48 74 -91 71 -96 -10 -15 -128 -58 -194
-71 -111 -22 -281 5 -370 60 l-33 20 76 88 c42 48 109 135 148 195 39 59 74
107 77 107 3 0 38 -48 77 -107z m-257 -454 c59 -19 98 -23 185 -23 126 0 218
23 322 79 l62 34 96 -71 c52 -39 95 -75 95 -79 0 -13 -144 -102 -210 -130
-223 -94 -454 -101 -677 -21 -72 26 -80 31 -100 72 -34 66 -28 166 13 211 15
17 19 16 77 -16 34 -18 96 -44 137 -56z"/>
<path d="M2651 1158 c-95 -255 -199 -534 -232 -621 -32 -86 -59 -160 -59 -163
0 -2 57 -3 126 -2 l126 3 17 45 c10 25 32 84 51 133 l33 87 256 -2 256 -3 49
-132 49 -133 129 0 c70 0 128 2 128 4 0 7 -420 1129 -444 1186 l-23 55 -144 3
-145 3 -173 -463z m404 -63 c46 -126 83 -230 81 -232 -2 -2 -79 -2 -172 -1
l-169 3 84 233 c46 128 86 231 87 229 2 -2 42 -106 89 -232z"/>
<path d="M3702 998 l3 -623 122 -3 123 -3 2 427 3 427 140 -206 c77 -114 207
-306 290 -427 l149 -221 111 3 110 3 0 620 0 620 -122 3 -123 3 -2 -407 -3
-406 -270 406 -270 405 -133 1 -132 0 2 -622z"/>
<path d="M4975 1608 c-3 -7 -4 -287 -3 -623 l3 -610 240 -3 c293 -3 379 9 505
70 204 99 310 287 310 553 0 311 -149 520 -426 601 -80 23 -621 34 -629 12z
m583 -236 c83 -32 136 -82 178 -167 32 -66 37 -86 42 -170 9 -168 -37 -294
-134 -367 -76 -58 -120 -70 -281 -76 l-143 -4 0 407 0 407 143 -4 c113 -4 153
-9 195 -26z"/>
<path d="M6172 1188 c4 -367 7 -442 21 -491 50 -171 159 -279 328 -323 83 -22
244 -22 326 -1 186 49 304 171 338 353 12 59 15 168 15 485 l0 409 -124 0
-124 0 -4 -417 c-4 -362 -7 -424 -21 -462 -39 -102 -106 -151 -217 -159 -94
-6 -146 11 -200 66 -74 77 -74 73 -77 550 l-4 422 -130 0 -130 0 3 -432z"/>
<path d="M7400 996 l0 -627 128 3 127 3 3 228 2 227 88 -1 87 0 140 -227 140
-227 143 -3 c82 -1 142 1 142 7 0 8 -102 171 -236 378 -30 46 -55 88 -56 94
-2 6 20 19 47 30 62 23 137 87 170 144 35 58 58 174 49 244 -20 168 -104 270
-264 323 -60 20 -90 22 -387 26 l-323 4 0 -626z m636 377 c61 -33 79 -65 79
-148 0 -82 -17 -113 -80 -148 -36 -19 -59 -22 -207 -25 l-168 -4 0 177 0 177
168 -4 c149 -3 171 -6 208 -25z"/>
<path d="M8550 995 l0 -625 125 0 125 0 0 625 0 625 -125 0 -125 0 0 -625z"/>
<path d="M9020 995 l0 -625 413 2 412 3 3 107 3 108 -288 2 -288 3 -3 513 -2
512 -125 0 -125 0 0 -625z"/>
</g>
</svg>
