<svg width="1095" height="200" viewBox="0 0 1095 200" fill="none" xmlns="http://www.w3.org/2000/svg">
<g clip-path="url(#clip0_4_271)">
<path d="M79.3356 0.480316C78.8846 0.93129 78.5464 4.20094 78.5464 7.69608C78.5464 23.5933 72.4581 47.1573 63.7766 64.5202C56.1099 79.7409 49.5706 88.6479 36.943 101.275C27.2468 110.972 21.1585 115.594 5.48681 125.403L0.751465 128.335L4.2466 135.438C12.7026 152.237 28.938 170.727 43.9333 180.536C83.5072 206.693 134.581 206.468 173.591 179.972C181.935 174.335 194.111 162.835 200.2 154.943C205.837 147.614 214.969 131.942 214.969 129.462C214.969 128.56 211.925 126.08 208.205 124.05C184.866 111.197 164.008 89.0989 151.719 64.1819C143.037 46.4808 138.753 30.6963 137.287 10.5147L136.611 0.367569L108.311 0.0293274C92.7524 -0.0834198 79.7866 0.142075 79.3356 0.480316ZM126.576 22.4658C133.003 66.7751 156.341 103.756 193.886 129.349C196.817 131.266 199.185 133.408 199.185 133.859C199.185 135.099 191.18 146.825 186.896 152.011L183.626 155.957L176.974 151.448C132.552 121.344 103.125 72.5252 98.1642 20.3237L97.375 12.0932L111.356 12.4314L125.223 12.7697L126.576 22.4658ZM89.37 41.1817C91.7377 51.2161 94.6691 61.7015 97.7132 69.8192L101.096 79.0644L95.9093 88.7606C88.5808 102.516 79.7866 114.467 65.8061 129.124C52.2765 143.33 48.5559 149.756 47.8794 159.791C47.5412 163.173 46.8647 166.105 46.0755 166.443C42.8058 167.458 17.6634 138.256 17.6634 133.408C17.6634 132.619 19.8056 130.589 22.5115 128.898C50.0216 110.746 72.3453 81.3194 83.0562 49.0739C85.0857 43.0984 87.1151 38.1376 87.6788 38.1376C88.2426 38.1376 88.919 39.4905 89.37 41.1817ZM116.542 106.575C120.939 113.339 128.493 123.148 133.228 128.673C137.964 134.085 141.572 138.933 141.233 139.496C140.106 141.188 126.802 146.036 119.361 147.501C106.846 149.982 87.6788 146.938 77.6444 140.737L73.9238 138.482L82.4925 128.56C87.2278 123.148 94.7818 113.339 99.1789 106.575C103.576 99.9225 107.522 94.5107 107.86 94.5107C108.199 94.5107 112.145 99.9225 116.542 106.575ZM87.5661 157.761C94.2181 159.904 98.6152 160.354 108.424 160.354C122.63 160.354 133.003 157.761 144.728 151.448L151.719 147.614L162.542 155.619C168.405 160.016 173.253 164.075 173.253 164.526C173.253 165.992 157.018 176.026 149.577 179.183C124.434 189.781 98.3897 190.57 73.2473 181.551C65.1296 178.619 64.2276 178.056 61.9727 173.433C58.1393 165.992 58.8158 154.717 63.4384 149.644C65.1296 147.727 65.5806 147.84 72.1198 151.448C75.9532 153.477 82.9435 156.408 87.5661 157.761Z" fill="white"/>
<path d="M282.73 78.9517C272.019 107.702 260.293 139.158 256.573 148.967C252.965 158.663 249.921 167.007 249.921 167.345C249.921 167.57 256.347 167.683 264.127 167.57L278.333 167.232L280.249 162.158C281.377 159.34 283.857 152.688 285.999 147.163L289.72 137.354L318.583 137.58L347.446 137.918L352.971 152.801L358.495 167.796H373.04C380.932 167.796 387.471 167.57 387.471 167.345C387.471 166.556 340.118 40.0543 337.412 33.6277L334.819 27.4267L318.583 27.0885L302.235 26.7502L282.73 78.9517ZM328.279 86.0547C333.466 100.261 337.637 111.986 337.412 112.212C337.186 112.437 328.505 112.437 318.019 112.325L298.965 111.986L308.436 85.7165C313.622 71.285 318.132 59.6721 318.245 59.8976C318.47 60.1231 322.98 71.8487 328.279 86.0547Z" fill="white"/>
<path d="M401.226 96.9911L401.564 167.232L415.32 167.57L429.187 167.909L429.413 119.766L429.751 71.6232L445.535 94.8489C454.217 107.702 468.874 129.349 478.232 142.992L495.031 167.909L507.546 167.57L519.948 167.232V97.3294V27.4267L506.193 27.0884L492.325 26.7502L492.1 72.6379L491.761 118.413L461.32 72.6379L430.878 26.9757L415.883 26.8629H401.001L401.226 96.9911Z" fill="white"/>
<path d="M544.752 28.2159C544.414 29.0051 544.301 60.574 544.414 98.4568L544.752 167.232L571.811 167.57C604.846 167.908 614.542 166.556 628.748 159.678C651.748 148.516 663.699 127.32 663.699 97.3293C663.699 62.2652 646.9 38.7013 615.669 29.5688C606.65 26.9757 545.654 25.7354 544.752 28.2159ZM610.483 54.824C619.841 58.4319 625.817 64.0692 630.552 73.6526C634.16 81.0939 634.724 83.3488 635.287 92.8195C636.302 111.761 631.116 125.967 620.179 134.197C611.611 140.737 606.65 142.09 588.498 142.766L572.375 143.217V97.3293V51.4416L588.498 51.8926C601.238 52.3436 605.748 52.9073 610.483 54.824Z" fill="white"/>
<path d="M679.709 75.5693C680.16 116.947 680.499 125.403 682.077 130.928C687.714 150.207 700.004 162.384 719.058 167.345C728.416 169.825 746.568 169.825 755.813 167.458C776.784 161.933 790.088 148.178 793.921 127.658C795.274 121.006 795.612 108.717 795.612 72.9762V26.8629H781.632H767.651L767.2 73.8781C766.749 114.692 766.411 121.683 764.833 125.967C760.436 137.467 752.882 142.992 740.367 143.894C729.769 144.57 723.906 142.653 717.818 136.452C709.474 127.771 709.474 128.222 709.136 74.4419L708.685 26.8629H694.028H679.371L679.709 75.5693Z" fill="white"/>
<path d="M818.162 97.2166V167.909L832.593 167.57L846.912 167.232L847.25 141.526L847.476 115.932L857.397 116.045H867.206L882.991 141.639L898.775 167.232L914.898 167.57C924.143 167.683 930.908 167.458 930.908 166.781C930.908 165.879 919.408 147.501 904.3 124.163C900.917 118.977 898.099 114.241 897.986 113.565C897.761 112.888 900.241 111.423 903.285 110.182C910.275 107.589 918.731 100.374 922.452 93.947C926.398 87.4077 928.991 74.3291 927.977 66.4369C925.722 47.4955 916.251 35.9954 898.212 30.0198C891.447 27.7649 888.064 27.5394 854.579 27.0884L818.162 26.6375V97.2166ZM889.868 54.7113C896.746 58.4319 898.775 62.0398 898.775 71.3977C898.775 80.6429 896.859 84.138 889.756 88.0842C885.697 90.2263 883.104 90.5646 866.417 90.9028L847.476 91.3538V71.3977V51.4416L866.417 51.8926C883.216 52.2309 885.697 52.5691 889.868 54.7113Z" fill="white"/>
<path d="M947.82 97.3294V167.796H961.913H976.007V97.3294V26.863H961.913H947.82V97.3294Z" fill="white"/>
<path d="M1000.81 97.3294V167.796L1047.37 167.57L1093.83 167.232L1094.16 155.168L1094.5 142.992L1062.03 142.766L1029.56 142.428L1029.22 84.5891L1029 26.863H1014.9H1000.81V97.3294Z" fill="white"/>
</g>
<defs>
<clipPath id="clip0_4_271">
<rect width="1093.75" height="200" fill="white" transform="translate(0.751465)"/>
</clipPath>
</defs>
</svg>
