<svg width="1094" height="200" viewBox="0 0 1094 200" fill="none" xmlns="http://www.w3.org/2000/svg">
<g clip-path="url(#clip0_4_270)">
<path d="M78.5841 0.480316C78.1332 0.93129 77.7949 4.20094 77.7949 7.69608C77.7949 23.5933 71.7066 47.1573 63.0252 64.5202C55.3584 79.7409 48.8191 88.6479 36.1915 101.275C26.4954 110.972 20.4071 115.594 4.73534 125.403L0 128.335L3.49513 135.438C11.9511 152.237 28.1866 170.727 43.1818 180.536C82.7558 206.693 133.83 206.468 172.84 179.972C181.183 174.335 193.36 162.835 199.448 154.943C205.085 147.614 214.218 131.942 214.218 129.462C214.218 128.56 211.174 126.08 207.453 124.05C184.115 111.197 163.257 89.0989 150.967 64.1819C142.286 46.4808 138.001 30.6963 136.536 10.5147L135.859 0.367569L107.56 0.0293274C92.0009 -0.0834198 79.0351 0.142075 78.5841 0.480316ZM125.825 22.4658C132.251 66.7751 155.59 103.756 193.134 129.349C196.066 131.266 198.433 133.408 198.433 133.859C198.433 135.099 190.428 146.825 186.144 152.011L182.874 155.957L176.222 151.448C131.8 121.344 102.374 72.5252 97.4128 20.3237L96.6235 12.0932L110.604 12.4314L124.472 12.7697L125.825 22.4658ZM88.6186 41.1817C90.9862 51.2161 93.9176 61.7015 96.9618 69.8192L100.344 79.0644L95.1578 88.7606C87.8293 102.516 79.0351 114.467 65.0546 129.124C51.525 143.33 47.8044 149.756 47.1279 159.791C46.7897 163.173 46.1132 166.105 45.324 166.443C42.0544 167.458 16.9119 138.256 16.9119 133.408C16.9119 132.619 19.0541 130.589 21.76 128.898C49.2701 110.746 71.5939 81.3194 82.3048 49.0739C84.3342 43.0984 86.3636 38.1376 86.9274 38.1376C87.4911 38.1376 88.1676 39.4905 88.6186 41.1817ZM115.79 106.575C120.188 113.339 127.742 123.148 132.477 128.673C137.212 134.085 140.82 138.933 140.482 139.496C139.354 141.188 126.05 146.036 118.609 147.501C106.094 149.982 86.9274 146.938 76.8929 140.737L73.1723 138.482L81.741 128.56C86.4764 123.148 94.0304 113.339 98.4275 106.575C102.825 99.9225 106.771 94.5107 107.109 94.5107C107.447 94.5107 111.393 99.9225 115.79 106.575ZM86.8146 157.761C93.4666 159.904 97.8637 160.354 107.673 160.354C121.879 160.354 132.251 157.761 143.977 151.448L150.967 147.614L161.791 155.619C167.654 160.016 172.502 164.075 172.502 164.526C172.502 165.992 156.266 176.026 148.825 179.183C123.683 189.781 97.6383 190.57 72.4958 181.551C64.3781 178.619 63.4761 178.056 61.2212 173.433C57.3878 165.992 58.0643 154.717 62.6869 149.644C64.3781 147.727 64.8291 147.84 71.3684 151.448C75.2018 153.477 82.192 156.408 86.8146 157.761Z" fill="black"/>
<path d="M281.978 78.9517C271.267 107.702 259.542 139.158 255.821 148.967C252.213 158.663 249.169 167.007 249.169 167.345C249.169 167.57 255.596 167.683 263.375 167.57L277.581 167.232L279.498 162.158C280.625 159.34 283.106 152.688 285.248 147.163L288.969 137.354L317.832 137.58L346.695 137.918L352.219 152.801L357.744 167.796H372.288C380.18 167.796 386.72 167.57 386.72 167.345C386.72 166.556 339.366 40.0543 336.66 33.6277L334.067 27.4267L317.832 27.0885L301.483 26.7502L281.978 78.9517ZM327.528 86.0547C332.714 100.261 336.886 111.986 336.66 112.212C336.435 112.437 327.753 112.437 317.268 112.325L298.214 111.986L307.684 85.7165C312.871 71.285 317.381 59.6721 317.493 59.8976C317.719 60.1231 322.229 71.8487 327.528 86.0547Z" fill="black"/>
<path d="M400.475 96.9911L400.813 167.232L414.568 167.57L428.436 167.909L428.661 119.766L429 71.6232L444.784 94.8489C453.465 107.702 468.123 129.349 477.48 142.992L494.28 167.909L506.794 167.57L519.197 167.232V97.3294V27.4267L505.442 27.0884L491.574 26.7502L491.348 72.6379L491.01 118.413L460.569 72.6379L430.127 26.9757L415.132 26.8629H400.249L400.475 96.9911Z" fill="black"/>
<path d="M544.001 28.2159C543.662 29.0051 543.55 60.574 543.662 98.4568L544.001 167.232L571.06 167.57C604.094 167.908 613.791 166.556 627.997 159.678C650.997 148.516 662.948 127.32 662.948 97.3293C662.948 62.2652 646.149 38.7013 614.918 29.5688C605.898 26.9757 544.903 25.7354 544.001 28.2159ZM609.732 54.824C619.09 58.4319 625.065 64.0692 629.801 73.6526C633.408 81.0939 633.972 83.3488 634.536 92.8195C635.551 111.761 630.364 125.967 619.428 134.197C610.859 140.737 605.898 142.09 587.746 142.766L571.623 143.217V97.3293V51.4416L587.746 51.8926C600.487 52.3436 604.996 52.9073 609.732 54.824Z" fill="black"/>
<path d="M678.958 75.5693C679.409 116.947 679.747 125.403 681.326 130.928C686.963 150.207 699.252 162.384 718.306 167.345C727.664 169.825 745.816 169.825 755.062 167.458C776.032 161.933 789.336 148.178 793.17 127.658C794.523 121.006 794.861 108.717 794.861 72.9762V26.8629H780.88H766.9L766.449 73.8781C765.998 114.692 765.66 121.683 764.081 125.967C759.684 137.467 752.13 142.992 739.615 143.894C729.017 144.57 723.154 142.653 717.066 136.452C708.723 127.771 708.723 128.222 708.385 74.4419L707.934 26.8629H693.277H678.62L678.958 75.5693Z" fill="black"/>
<path d="M817.41 97.2166V167.909L831.842 167.57L846.16 167.232L846.499 141.526L846.724 115.932L856.646 116.045H866.455L882.239 141.639L898.024 167.232L914.146 167.57C923.392 167.683 930.156 167.458 930.156 166.781C930.156 165.879 918.656 147.501 903.548 124.163C900.166 118.977 897.347 114.241 897.235 113.565C897.009 112.888 899.489 111.423 902.534 110.182C909.524 107.589 917.98 100.374 921.7 93.947C925.647 87.4077 928.24 74.3291 927.225 66.4369C924.97 47.4955 915.499 35.9954 897.46 30.0198C890.695 27.7649 887.313 27.5394 853.827 27.0884L817.41 26.6375V97.2166ZM889.117 54.7113C895.994 58.4319 898.024 62.0398 898.024 71.3977C898.024 80.6429 896.107 84.138 889.004 88.0842C884.945 90.2263 882.352 90.5646 865.666 90.9028L846.724 91.3538V71.3977V51.4416L865.666 51.8926C882.465 52.2309 884.945 52.5691 889.117 54.7113Z" fill="black"/>
<path d="M947.068 97.3294V167.796H961.162H975.255V97.3294V26.863H961.162H947.068V97.3294Z" fill="black"/>
<path d="M1000.06 97.3294V167.796L1046.62 167.57L1093.07 167.232L1093.41 155.168L1093.75 142.992L1061.28 142.766L1028.81 142.428L1028.47 84.5891L1028.25 26.863H1014.15H1000.06V97.3294Z" fill="black"/>
</g>
<defs>
<clipPath id="clip0_4_270">
<rect width="1093.75" height="200" fill="white"/>
</clipPath>
</defs>
</svg>
