<svg width="788" height="200" viewBox="0 0 788 200" fill="none" xmlns="http://www.w3.org/2000/svg">
<g clip-path="url(#clip0_4_275)">
<path opacity="0.977" fill-rule="evenodd" clip-rule="evenodd" d="M60.4844 0.0963287C72.9908 -0.164092 85.4346 0.103514 97.8158 0.899155C117.73 53.8211 137.399 106.808 156.824 159.859C144.502 160.126 132.192 159.858 119.894 159.056C115.721 147.609 111.707 136.102 107.851 124.534C88.316 123.464 68.7802 123.464 49.2448 124.534C45.0671 136.231 40.7854 147.872 36.3996 159.457C24.3483 160.126 12.3059 159.992 0.272461 159.056C20.664 106.175 40.7346 53.1888 60.4844 0.0963287ZM78.1466 41.0405C78.6419 41.1293 79.0433 41.3969 79.3508 41.8433C85.5607 60.0707 91.8492 78.2683 98.2172 96.4354C85.1047 97.5056 71.9913 97.5056 58.8788 96.4354C65.6272 78.0628 72.0499 59.5978 78.1466 41.0405Z" fill="white"/>
<path opacity="0.98" fill-rule="evenodd" clip-rule="evenodd" d="M646.547 2.50478C658.602 2.23768 670.644 2.50535 682.674 3.30761C702.405 55.0738 721.673 106.99 740.478 159.056C728.424 159.323 716.381 159.055 704.351 158.253C700.119 147.163 696.372 135.923 693.111 124.534C673.842 124.4 654.574 124.534 635.308 124.936C631.219 135.998 627.205 147.103 623.265 158.253C611.232 159.189 599.189 159.323 587.138 158.654C607.279 106.732 627.082 54.6825 646.547 2.50478ZM663.407 43.4489C664.207 43.4249 664.743 43.8263 665.012 44.6531C671.013 62.3889 677.168 80.0513 683.477 97.6397C670.634 98.0411 657.789 98.1751 644.942 98.0411C651.097 79.8434 657.251 61.6463 663.407 43.4489Z" fill="white"/>
<path opacity="0.974" fill-rule="evenodd" clip-rule="evenodd" d="M751.717 2.50476C763.493 2.50476 775.267 2.50476 787.042 2.50476C787.042 54.6884 787.042 106.872 787.042 159.056C775.267 159.056 763.493 159.056 751.717 159.056C751.717 106.872 751.717 54.6884 751.717 2.50476Z" fill="white"/>
<path opacity="0.974" fill-rule="evenodd" clip-rule="evenodd" d="M232.289 40.2376C263.416 40.9862 281.479 56.7752 286.48 87.6043C290.154 108.577 286.139 127.844 274.438 145.408C260.894 160.474 244.168 165.692 224.261 161.063C214.93 158.484 207.571 153.266 202.183 145.408C201.782 163.603 201.648 181.801 201.782 200C191.078 200 180.373 200 169.669 200C169.669 147.816 169.669 95.6326 169.669 43.4489C180.105 43.4489 190.542 43.4489 200.979 43.4489C200.846 47.739 200.98 52.0208 201.38 56.2941C209.331 46.3648 219.634 41.0127 232.289 40.2376ZM223.458 65.1252C238.371 64.3498 248.139 71.04 252.761 85.1959C255.831 95.5828 256.099 106.02 253.564 116.506C247.702 135.597 235.258 141.886 216.233 135.372C206.828 129.017 201.876 120.051 201.38 108.478C200.198 97.2166 202.071 86.5125 207 76.3648C211.108 70.5035 216.595 66.757 223.458 65.1252Z" fill="white"/>
<path opacity="0.977" fill-rule="evenodd" clip-rule="evenodd" d="M357.53 40.2376C391.122 40.7753 410.791 57.6347 416.538 90.8156C417.292 96.4258 417.559 102.046 417.341 107.675C389.821 109.272 362.124 109.807 334.248 109.281C334.906 129.611 345.343 139.111 365.558 137.781C375.034 136.72 381.991 132.037 386.432 123.732C396.066 122.661 405.7 122.661 415.333 123.732C406.73 149.86 388.667 162.706 361.143 162.267C334.383 162.684 315.918 150.641 305.748 126.14C300.506 108.551 301.042 91.156 307.353 73.9563C317.728 53.1861 334.454 41.9465 357.53 40.2376ZM355.924 65.1252C365.76 63.828 373.654 67.0393 379.608 74.7591C382.202 78.9868 383.942 83.5364 384.826 88.4072C367.976 89.21 351.116 89.4773 334.248 89.21C335.901 76.0549 343.126 68.0265 355.924 65.1252Z" fill="white"/>
<path opacity="0.966" fill-rule="evenodd" clip-rule="evenodd" d="M424.165 45.0546C435.801 44.1226 447.576 43.9887 459.489 44.6532C465.893 54.3944 472.583 63.8946 479.56 73.1535C486.536 63.8946 493.226 54.3944 499.63 44.6532C511.134 44.2518 522.642 44.118 534.152 44.2517C534.065 46.0849 533.396 47.6906 532.145 49.0687C520.207 65.584 508.566 82.3097 497.222 99.2453C503.644 108.612 510.067 117.978 516.49 127.344C512.533 138.064 508.252 148.634 503.644 159.056C495.616 147.816 487.588 136.577 479.56 125.337C471.612 136.138 463.851 147.11 456.278 158.253C444.503 159.323 432.728 159.323 420.953 158.253C434.503 138.514 448.151 118.845 461.897 99.2453C449.203 81.1986 436.625 63.1349 424.165 45.0546Z" fill="white"/>
<path opacity="0.964" fill-rule="evenodd" clip-rule="evenodd" d="M542.983 126.943C552.617 126.943 562.251 126.943 571.885 126.943C568.463 137.473 564.716 147.91 560.645 158.253C551.025 159.055 541.392 159.322 531.743 159.056C535.331 148.291 539.078 137.587 542.983 126.943Z" fill="white"/>
</g>
<defs>
<clipPath id="clip0_4_275">
<rect width="786.769" height="200" fill="white" transform="translate(0.272461)"/>
</clipPath>
</defs>
</svg>
