<svg width="788" height="200" viewBox="0 0 788 200" fill="none" xmlns="http://www.w3.org/2000/svg">
<g clip-path="url(#clip0_4_273)">
<path opacity="0.984" fill-rule="evenodd" clip-rule="evenodd" d="M60.7149 0.0963288C73.2213 -0.164092 85.6651 0.103514 98.0463 0.899155C117.96 53.8211 137.63 106.808 157.054 159.859C144.732 160.126 132.423 159.858 120.124 159.056C115.952 147.609 111.938 136.102 108.082 124.534C88.5465 123.464 69.0107 123.464 49.4753 124.534C45.2976 136.231 41.0159 147.872 36.6301 159.457C24.5788 160.126 12.5364 159.992 0.50293 159.056C20.8945 106.175 40.9651 53.1888 60.7149 0.0963288ZM78.3771 41.0405C78.8724 41.1293 79.2738 41.3969 79.5813 41.8433C85.7912 60.0707 92.0797 78.2683 98.4477 96.4355C85.3352 97.5056 72.2218 97.5056 59.1092 96.4355C65.8576 78.0628 72.2804 59.5978 78.3771 41.0405Z" fill="#0F152C"/>
<path opacity="0.98" fill-rule="evenodd" clip-rule="evenodd" d="M646.778 2.50478C658.832 2.2377 670.875 2.50531 682.905 3.30761C702.635 55.0738 721.903 106.99 740.709 159.056C728.654 159.323 716.612 159.055 704.582 158.253C700.35 147.163 696.603 135.923 693.342 124.534C674.073 124.4 654.805 124.534 635.538 124.936C631.45 135.998 627.436 147.103 623.496 158.253C611.463 159.189 599.42 159.323 587.369 158.654C607.509 106.732 627.313 54.6825 646.778 2.50478ZM663.637 43.4489C664.438 43.4249 664.973 43.8263 665.243 44.6532C671.244 62.389 677.399 80.0514 683.708 97.6397C670.865 98.0411 658.02 98.1752 645.172 98.0411C651.328 79.8434 657.482 61.6463 663.637 43.4489Z" fill="#68C49F"/>
<path opacity="0.974" fill-rule="evenodd" clip-rule="evenodd" d="M751.948 2.50476C763.723 2.50476 775.498 2.50476 787.273 2.50476C787.273 54.6885 787.273 106.872 787.273 159.056C775.498 159.056 763.723 159.056 751.948 159.056C751.948 106.872 751.948 54.6885 751.948 2.50476Z" fill="#68C49F"/>
<path opacity="0.98" fill-rule="evenodd" clip-rule="evenodd" d="M232.52 40.2376C263.646 40.9862 281.71 56.7752 286.71 87.6044C290.384 108.577 286.37 127.844 274.668 145.408C261.124 160.474 244.398 165.692 224.491 161.063C215.16 158.484 207.801 153.266 202.414 145.408C202.012 163.603 201.878 181.801 202.012 200C191.308 200 180.603 200 169.899 200C169.899 147.816 169.899 95.6326 169.899 43.4489C180.336 43.4489 190.773 43.4489 201.209 43.4489C201.076 47.739 201.21 52.0208 201.611 56.2941C209.561 46.3648 219.865 41.0127 232.52 40.2376ZM223.689 65.1252C238.602 64.3498 248.37 71.04 252.992 85.1959C256.062 95.5828 256.329 106.02 253.795 116.506C247.932 135.597 235.488 141.886 216.463 135.373C207.058 129.017 202.107 120.051 201.611 108.478C200.428 97.2166 202.301 86.5125 207.231 76.3648C211.339 70.5035 216.825 66.757 223.689 65.1252Z" fill="#0F152C"/>
<path opacity="0.985" fill-rule="evenodd" clip-rule="evenodd" d="M357.761 40.2376C391.352 40.7753 411.022 57.6347 416.768 90.8157C417.522 96.4258 417.79 102.046 417.571 107.675C390.052 109.272 362.354 109.807 334.479 109.281C335.137 129.611 345.574 139.111 365.789 137.781C375.265 136.72 382.222 132.037 386.662 123.732C396.296 122.661 405.93 122.661 415.564 123.732C406.961 149.86 388.897 162.706 361.373 162.267C334.614 162.684 316.149 150.641 305.978 126.14C300.737 108.551 301.272 91.1561 307.584 73.9563C317.959 53.1861 334.685 41.9465 357.761 40.2376ZM356.155 65.1252C365.99 63.828 373.885 67.0393 379.838 74.7591C382.433 78.9868 384.173 83.5364 385.057 88.4072C368.206 89.21 351.347 89.4774 334.479 89.21C336.132 76.0549 343.357 68.0266 356.155 65.1252Z" fill="#0F152C"/>
<path opacity="0.979" fill-rule="evenodd" clip-rule="evenodd" d="M424.395 45.0546C436.031 44.1226 447.806 43.9888 459.719 44.6532C466.124 54.3945 472.814 63.8946 479.79 73.1535C486.767 63.8946 493.457 54.3945 499.861 44.6532C511.365 44.2519 522.872 44.1181 534.382 44.2518C534.296 46.085 533.627 47.6906 532.375 49.0688C520.437 65.5841 508.796 82.3098 497.452 99.2454C503.875 108.612 510.298 117.978 516.72 127.344C512.764 138.064 508.482 148.634 503.875 159.056C495.847 147.816 487.818 136.577 479.79 125.337C471.842 136.138 464.081 147.11 456.508 158.253C444.733 159.323 432.959 159.323 421.184 158.253C434.733 138.514 448.381 118.845 462.128 99.2454C449.434 81.1987 436.856 63.135 424.395 45.0546Z" fill="#0F152C"/>
<path opacity="0.964" fill-rule="evenodd" clip-rule="evenodd" d="M543.213 126.943C552.847 126.943 562.481 126.943 572.115 126.943C568.694 137.474 564.947 147.91 560.876 158.253C551.256 159.055 541.622 159.322 531.974 159.056C535.562 148.291 539.308 137.587 543.213 126.943Z" fill="#68C49F"/>
</g>
<defs>
<clipPath id="clip0_4_273">
<rect width="786.77" height="200" fill="white" transform="translate(0.50293)"/>
</clipPath>
</defs>
</svg>
