<?xml version="1.0" encoding="UTF-8"?>
<!DOCTYPE svg PUBLIC "-//W3C//DTD SVG 1.1//EN" "http://www.w3.org/Graphics/SVG/1.1/DTD/svg11.dtd">
<svg xmlns="http://www.w3.org/2000/svg" version="1.1" width="1005" height="265" viewBox="0 0 1005 265" style="shape-rendering:geometricPrecision; text-rendering:geometricPrecision; image-rendering:optimizeQuality; fill-rule:evenodd; clip-rule:evenodd" xmlns:xlink="http://www.w3.org/1999/xlink">
<g><path style="opacity:0.984" fill="#0f152c" d="M 87.5,6.5 C 103.078,6.17562 118.578,6.50895 134,7.5C 158.805,73.4196 183.305,139.42 207.5,205.5C 192.152,205.833 176.819,205.499 161.5,204.5C 156.303,190.242 151.303,175.909 146.5,161.5C 122.167,160.167 97.8333,160.167 73.5,161.5C 68.2962,176.069 62.9629,190.569 57.5,205C 42.4889,205.833 27.4889,205.666 12.5,204.5C 37.8997,138.632 62.8997,72.632 87.5,6.5 Z M 109.5,57.5 C 110.117,57.6107 110.617,57.944 111,58.5C 118.735,81.2041 126.568,103.871 134.5,126.5C 118.167,127.833 101.833,127.833 85.5,126.5C 93.9058,103.615 101.906,80.615 109.5,57.5 Z"/></g>
<g><path style="opacity:0.98" fill="#68c49f" d="M 817.5,9.5 C 832.515,9.16732 847.515,9.50066 862.5,10.5C 887.076,74.98 911.076,139.647 934.5,204.5C 919.485,204.833 904.485,204.499 889.5,203.5C 884.229,189.686 879.562,175.686 875.5,161.5C 851.498,161.333 827.498,161.5 803.5,162C 798.407,175.779 793.407,189.612 788.5,203.5C 773.511,204.666 758.511,204.833 743.5,204C 768.587,139.326 793.254,74.4926 817.5,9.5 Z M 838.5,60.5 C 839.497,60.4701 840.164,60.9701 840.5,62C 847.975,84.0917 855.641,106.092 863.5,128C 847.503,128.5 831.503,128.667 815.5,128.5C 823.167,105.833 830.833,83.1667 838.5,60.5 Z"/></g>
<g><path style="opacity:0.974" fill="#68c49f" d="M 948.5,9.5 C 963.167,9.5 977.833,9.5 992.5,9.5C 992.5,74.5 992.5,139.5 992.5,204.5C 977.833,204.5 963.167,204.5 948.5,204.5C 948.5,139.5 948.5,74.5 948.5,9.5 Z"/></g>
<g><path style="opacity:0.98" fill="#0f152c" d="M 301.5,56.5 C 340.271,57.4325 362.771,77.0992 369,115.5C 373.576,141.623 368.576,165.623 354,187.5C 337.13,206.266 316.296,212.766 291.5,207C 279.877,203.788 270.711,197.288 264,187.5C 263.5,210.164 263.333,232.831 263.5,255.5C 250.167,255.5 236.833,255.5 223.5,255.5C 223.5,190.5 223.5,125.5 223.5,60.5C 236.5,60.5 249.5,60.5 262.5,60.5C 262.334,65.8437 262.501,71.1771 263,76.5C 272.903,64.132 285.737,57.4654 301.5,56.5 Z M 290.5,87.5 C 309.076,86.5341 321.243,94.8674 327,112.5C 330.824,125.438 331.157,138.438 328,151.5C 320.698,175.28 305.198,183.113 281.5,175C 269.785,167.083 263.618,155.916 263,141.5C 261.527,127.473 263.86,114.14 270,101.5C 275.117,94.1992 281.951,89.5326 290.5,87.5 Z"/></g>
<g><path style="opacity:0.985" fill="#0f152c" d="M 457.5,56.5 C 499.342,57.1698 523.842,78.1698 531,119.5C 531.939,126.488 532.272,133.488 532,140.5C 497.722,142.489 463.222,143.156 428.5,142.5C 429.32,167.823 442.32,179.657 467.5,178C 479.303,176.678 487.969,170.845 493.5,160.5C 505.5,159.167 517.5,159.167 529.5,160.5C 518.784,193.046 496.284,209.046 462,208.5C 428.668,209.019 405.668,194.019 393,163.5C 386.471,141.591 387.138,119.924 395,98.5C 407.923,72.6286 428.757,58.6286 457.5,56.5 Z M 455.5,87.5 C 467.751,85.8842 477.584,89.8842 485,99.5C 488.232,104.766 490.399,110.433 491.5,116.5C 470.511,117.5 449.511,117.833 428.5,117.5C 430.559,101.114 439.559,91.1139 455.5,87.5 Z"/></g>
<g><path style="opacity:0.979" fill="#0f152c" d="M 540.5,62.5 C 554.994,61.3391 569.661,61.1724 584.5,62C 592.477,74.1337 600.81,85.9671 609.5,97.5C 618.19,85.9671 626.523,74.1337 634.5,62C 648.829,61.5001 663.163,61.3334 677.5,61.5C 677.392,63.7834 676.559,65.7834 675,67.5C 660.13,88.0715 645.63,108.905 631.5,130C 639.5,141.667 647.5,153.333 655.5,165C 650.572,178.352 645.239,191.518 639.5,204.5C 629.5,190.5 619.5,176.5 609.5,162.5C 599.6,175.954 589.933,189.62 580.5,203.5C 565.833,204.833 551.167,204.833 536.5,203.5C 553.377,178.913 570.377,154.413 587.5,130C 571.688,107.521 556.021,85.0209 540.5,62.5 Z"/></g>
<g><path style="opacity:0.964" fill="#68c49f" d="M 688.5,164.5 C 700.5,164.5 712.5,164.5 724.5,164.5C 720.238,177.617 715.571,190.617 710.5,203.5C 698.518,204.499 686.518,204.832 674.5,204.5C 678.969,191.091 683.636,177.758 688.5,164.5 Z"/></g>
</svg>
