<?xml version="1.0" encoding="UTF-8"?>
<!DOCTYPE svg PUBLIC "-//W3C//DTD SVG 1.1//EN" "http://www.w3.org/Graphics/SVG/1.1/DTD/svg11.dtd">
<svg xmlns="http://www.w3.org/2000/svg" version="1.1" width="1005px" height="265px" viewBox="0 0 1005 265" style="shape-rendering:geometricPrecision; text-rendering:geometricPrecision; image-rendering:optimizeQuality; fill-rule:evenodd; clip-rule:evenodd" xmlns:xlink="http://www.w3.org/1999/xlink">
<g><path style="opacity:0.977" fill="#fefffe" d="M 86.5,7.5 C 102.078,7.17562 117.578,7.50895 133,8.5C 157.805,74.4196 182.305,140.42 206.5,206.5C 191.152,206.833 175.819,206.499 160.5,205.5C 155.303,191.242 150.303,176.909 145.5,162.5C 121.167,161.167 96.8333,161.167 72.5,162.5C 67.2962,177.069 61.9629,191.569 56.5,206C 41.4889,206.833 26.4889,206.666 11.5,205.5C 36.8997,139.632 61.8997,73.632 86.5,7.5 Z M 108.5,58.5 C 109.117,58.6107 109.617,58.944 110,59.5C 117.735,82.2041 125.568,104.871 133.5,127.5C 117.167,128.833 100.833,128.833 84.5,127.5C 92.9058,104.615 100.906,81.615 108.5,58.5 Z"/></g>
<g><path style="opacity:0.98" fill="#68c49f" d="M 816.5,10.5 C 831.515,10.1673 846.515,10.5007 861.5,11.5C 886.076,75.98 910.076,140.647 933.5,205.5C 918.485,205.833 903.485,205.499 888.5,204.5C 883.229,190.686 878.562,176.686 874.5,162.5C 850.498,162.333 826.498,162.5 802.5,163C 797.407,176.779 792.407,190.612 787.5,204.5C 772.511,205.666 757.511,205.833 742.5,205C 767.587,140.326 792.254,75.4926 816.5,10.5 Z M 837.5,61.5 C 838.497,61.4701 839.164,61.9701 839.5,63C 846.975,85.0917 854.641,107.092 862.5,129C 846.503,129.5 830.503,129.667 814.5,129.5C 822.167,106.833 829.833,84.1667 837.5,61.5 Z"/></g>
<g><path style="opacity:0.974" fill="#68c49f" d="M 947.5,10.5 C 962.167,10.5 976.833,10.5 991.5,10.5C 991.5,75.5 991.5,140.5 991.5,205.5C 976.833,205.5 962.167,205.5 947.5,205.5C 947.5,140.5 947.5,75.5 947.5,10.5 Z"/></g>
<g><path style="opacity:0.974" fill="#fefffe" d="M 300.5,57.5 C 339.271,58.4325 361.771,78.0992 368,116.5C 372.576,142.623 367.576,166.623 353,188.5C 336.13,207.266 315.296,213.766 290.5,208C 278.877,204.788 269.711,198.288 263,188.5C 262.5,211.164 262.333,233.831 262.5,256.5C 249.167,256.5 235.833,256.5 222.5,256.5C 222.5,191.5 222.5,126.5 222.5,61.5C 235.5,61.5 248.5,61.5 261.5,61.5C 261.334,66.8437 261.501,72.1771 262,77.5C 271.903,65.132 284.737,58.4654 300.5,57.5 Z M 289.5,88.5 C 308.076,87.5341 320.243,95.8674 326,113.5C 329.824,126.438 330.157,139.438 327,152.5C 319.698,176.28 304.198,184.113 280.5,176C 268.785,168.083 262.618,156.916 262,142.5C 260.527,128.473 262.86,115.14 269,102.5C 274.117,95.1992 280.951,90.5326 289.5,88.5 Z"/></g>
<g><path style="opacity:0.977" fill="#fefffe" d="M 456.5,57.5 C 498.342,58.1698 522.842,79.1698 530,120.5C 530.939,127.488 531.272,134.488 531,141.5C 496.722,143.489 462.222,144.156 427.5,143.5C 428.32,168.823 441.32,180.657 466.5,179C 478.303,177.678 486.969,171.845 492.5,161.5C 504.5,160.167 516.5,160.167 528.5,161.5C 517.784,194.046 495.284,210.046 461,209.5C 427.668,210.019 404.668,195.019 392,164.5C 385.471,142.591 386.138,120.924 394,99.5C 406.923,73.6286 427.757,59.6286 456.5,57.5 Z M 454.5,88.5 C 466.751,86.8842 476.584,90.8842 484,100.5C 487.232,105.766 489.399,111.433 490.5,117.5C 469.511,118.5 448.511,118.833 427.5,118.5C 429.559,102.114 438.559,92.1139 454.5,88.5 Z"/></g>
<g><path style="opacity:0.966" fill="#fefffe" d="M 539.5,63.5 C 553.994,62.3391 568.661,62.1724 583.5,63C 591.477,75.1337 599.81,86.9671 608.5,98.5C 617.19,86.9671 625.523,75.1337 633.5,63C 647.829,62.5001 662.163,62.3334 676.5,62.5C 676.392,64.7834 675.559,66.7834 674,68.5C 659.13,89.0715 644.63,109.905 630.5,131C 638.5,142.667 646.5,154.333 654.5,166C 649.572,179.352 644.239,192.518 638.5,205.5C 628.5,191.5 618.5,177.5 608.5,163.5C 598.6,176.954 588.933,190.62 579.5,204.5C 564.833,205.833 550.167,205.833 535.5,204.5C 552.377,179.913 569.377,155.413 586.5,131C 570.688,108.521 555.021,86.0209 539.5,63.5 Z"/></g>
<g><path style="opacity:0.964" fill="#68c49f" d="M 687.5,165.5 C 699.5,165.5 711.5,165.5 723.5,165.5C 719.238,178.617 714.571,191.617 709.5,204.5C 697.518,205.499 685.518,205.832 673.5,205.5C 677.969,192.091 682.636,178.758 687.5,165.5 Z"/></g>
</svg>
