<svg width="890" height="200" viewBox="0 0 890 200" fill="none" xmlns="http://www.w3.org/2000/svg">
<g clip-path="url(#clip0_4_279)">
<path d="M117.265 0.00149536C142.013 0.00149536 171.874 6.29925 202.129 29.2565C196.625 37.0386 175.807 63.3336 170.304 71.1087C156.765 59.7585 139.306 53.4399 121.188 53.332C90.1528 53.332 68.5429 72.5898 68.5429 99.9973C68.5429 127.405 90.1528 147.034 121.188 147.034C131.409 147.034 152.233 144.443 170.304 129.255C175.807 137.032 196.625 163.329 202.129 171.107C171.874 194.071 142.013 199.996 117.265 199.996C47.7119 199.996 0.568359 156.294 0.568359 99.9956C0.568359 43.6961 47.7097 0.00149536 117.265 0.00149536Z" fill="white"/>
<path d="M325.346 200C262.086 200 210.612 155.556 210.612 99.9982C210.612 44.4409 262.087 0 325.346 0C388.999 0 440.07 44.8137 440.07 99.9982C440.07 155.183 388.999 200 325.346 200ZM325.346 147.408C354.418 147.408 374.852 127.779 374.852 99.9965C374.852 72.2149 354.418 52.2181 325.346 52.2181C296.274 52.2181 275.842 72.2196 275.842 99.9965C275.842 127.773 296.272 147.408 325.346 147.408Z" fill="white"/>
<path d="M573.575 0C598.333 0 628.191 6.29775 658.448 29.2551C652.942 37.0371 632.12 63.3321 626.617 71.1072C613.079 59.7579 595.623 53.4392 577.506 53.3305C546.469 53.3305 524.86 72.5883 524.86 99.9956C524.86 127.403 546.469 147.033 577.506 147.033C587.72 147.033 608.544 144.442 626.617 129.253C632.12 137.031 652.942 163.329 658.448 171.106C628.191 194.07 598.333 199.995 573.575 199.995C504.033 199.995 456.885 156.293 456.885 99.9938C456.885 43.6946 504.032 0 573.575 0Z" fill="white"/>
<path d="M774.413 200C711.154 200 659.686 155.556 659.686 99.9982C659.686 44.4409 711.157 0 774.413 0C838.065 0 889.137 44.8137 889.137 99.9982C889.137 155.183 838.066 200 774.413 200ZM774.413 147.408C803.488 147.408 823.919 127.779 823.919 99.9965C823.919 72.2149 803.488 52.2181 774.413 52.2181C745.338 52.2181 724.907 72.2196 724.907 99.9965C724.907 127.773 745.337 147.408 774.413 147.408Z" fill="white"/>
</g>
<defs>
<clipPath id="clip0_4_279">
<rect width="888.568" height="200" fill="white" transform="translate(0.568359)"/>
</clipPath>
</defs>
</svg>
