<svg width="1010" height="229" viewBox="0 0 1010 229" fill="none" xmlns="http://www.w3.org/2000/svg">
<path d="M132.644 0.686768C160.774 0.686768 194.716 7.84517 229.106 33.9398C222.85 42.7853 199.187 72.6738 192.932 81.5115C177.542 68.6102 157.698 61.4281 137.103 61.3054C101.827 61.3054 77.2639 83.195 77.2639 114.348C77.2639 145.501 101.827 167.813 137.103 167.813C148.721 167.813 172.391 164.868 192.932 147.604C199.187 156.444 222.85 186.335 229.106 195.175C194.716 221.278 160.774 228.013 132.644 228.013C53.5862 228.013 0 178.338 0 114.346C0 50.3527 53.5837 0.686768 132.644 0.686768Z" fill="white"/>
<path d="M369.162 228.017C297.257 228.017 238.748 177.499 238.748 114.349C238.748 51.1992 297.258 0.685059 369.162 0.685059C441.513 0.685059 499.564 51.623 499.564 114.349C499.564 177.075 441.513 228.017 369.162 228.017ZM369.162 168.238C402.207 168.238 425.433 145.926 425.433 114.347C425.433 82.7688 402.207 60.0393 369.162 60.0393C336.117 60.0393 312.892 82.7742 312.892 114.347C312.892 145.92 336.114 168.239 369.162 168.239V168.238Z" fill="white"/>
<path d="M651.313 0.685059C679.455 0.685059 713.393 7.84346 747.785 33.9381C741.527 42.7836 717.859 72.6721 711.604 81.5098C696.216 68.6094 676.375 61.4273 655.782 61.3037C620.503 61.3037 595.941 83.1933 595.941 114.346C595.941 145.499 620.503 167.811 655.782 167.811C667.392 167.811 691.061 164.867 711.604 147.602C717.859 156.443 741.527 186.334 747.785 195.174C713.393 221.277 679.455 228.011 651.313 228.011C572.268 228.011 518.677 178.337 518.677 114.344C518.677 50.351 572.267 0.685059 651.313 0.685059Z" fill="white"/>
<path d="M879.598 228.017C807.694 228.017 749.192 177.499 749.192 114.349C749.192 51.1992 807.697 0.685059 879.598 0.685059C951.949 0.685059 1010 51.623 1010 114.349C1010 177.075 951.95 228.017 879.598 228.017ZM879.598 168.238C912.646 168.238 935.869 145.926 935.869 114.347C935.869 82.7688 912.646 60.0393 879.598 60.0393C846.55 60.0393 823.327 82.7742 823.327 114.347C823.327 145.92 846.548 168.239 879.598 168.239V168.238Z" fill="white"/>
</svg>
