<svg width="889" height="200" viewBox="0 0 889 200" fill="none" xmlns="http://www.w3.org/2000/svg">
<g clip-path="url(#clip0_4_277)">
<path d="M116.696 0.000244141C141.444 0.000244141 171.305 6.298 201.561 29.2553C196.057 37.0373 175.239 63.3322 169.736 71.1074C156.196 59.7573 138.738 53.4387 120.619 53.3307C89.5844 53.3307 67.9745 72.5886 67.9745 99.9956C67.9745 127.403 89.5844 147.033 120.619 147.033C130.84 147.033 151.665 144.443 169.736 129.253C175.239 137.031 196.057 163.329 201.561 171.106C171.305 194.07 141.444 199.995 116.696 199.995C47.1436 199.995 0 156.293 0 99.9939C0 43.6949 47.1414 0.000244141 116.696 0.000244141Z" fill="url(#paint0_linear_4_277)"/>
<path d="M324.778 200C261.518 200 210.043 155.556 210.043 99.9982C210.043 44.4408 261.519 0 324.778 0C388.43 0 439.502 44.8138 439.502 99.9982C439.502 155.183 388.43 200 324.778 200ZM324.778 147.408C353.85 147.408 374.283 127.779 374.283 99.9965C374.283 72.2148 353.85 52.2181 324.778 52.2181C295.706 52.2181 275.273 72.2196 275.273 99.9965C275.273 127.773 295.703 147.409 324.778 147.409V147.408Z" fill="url(#paint1_linear_4_277)"/>
<path d="M573.006 0C597.764 0 627.622 6.29775 657.879 29.2551C652.374 37.037 631.551 63.332 626.048 71.1072C612.51 59.7579 595.055 53.4393 576.938 53.3305C545.9 53.3305 524.291 72.5883 524.291 99.9956C524.291 127.403 545.9 147.033 576.938 147.033C587.152 147.033 607.975 144.443 626.048 129.253C631.551 137.031 652.374 163.329 657.879 171.106C627.622 194.07 597.764 199.995 573.006 199.995C503.464 199.995 456.317 156.293 456.317 99.9938C456.317 43.6947 503.464 0 573.006 0Z" fill="url(#paint2_linear_4_277)"/>
<path d="M773.845 200C710.586 200 659.117 155.556 659.117 99.9982C659.117 44.4408 710.588 0 773.845 0C837.497 0 888.568 44.8138 888.568 99.9982C888.568 155.183 837.498 200 773.845 200ZM773.845 147.408C802.919 147.408 823.35 127.779 823.35 99.9965C823.35 72.2148 802.919 52.2181 773.845 52.2181C744.77 52.2181 724.339 72.2196 724.339 99.9965C724.339 127.773 744.768 147.409 773.845 147.409V147.408Z" fill="url(#paint3_linear_4_277)"/>
</g>
<defs>
<linearGradient id="paint0_linear_4_277" x1="145.929" y1="-270.792" x2="97.5041" y2="271.061" gradientUnits="userSpaceOnUse">
<stop stop-color="#FEBA03"/>
<stop offset="0.356" stop-color="#FE840A"/>
<stop offset="0.431" stop-color="#FF562E"/>
<stop offset="1" stop-color="#D56EE1"/>
</linearGradient>
<linearGradient id="paint1_linear_4_277" x1="376.171" y1="-270.8" x2="333.554" y2="272.049" gradientUnits="userSpaceOnUse">
<stop stop-color="#FEBA03"/>
<stop offset="0.356" stop-color="#FE840A"/>
<stop offset="0.431" stop-color="#FF562E"/>
<stop offset="1" stop-color="#D56EE1"/>
</linearGradient>
<linearGradient id="paint2_linear_4_277" x1="602.248" y1="-270.793" x2="553.822" y2="271.061" gradientUnits="userSpaceOnUse">
<stop stop-color="#FEBA03"/>
<stop offset="0.356" stop-color="#FE840A"/>
<stop offset="0.431" stop-color="#FF562E"/>
<stop offset="1" stop-color="#D56EE1"/>
</linearGradient>
<linearGradient id="paint3_linear_4_277" x1="825.24" y1="-270.8" x2="782.621" y2="272.049" gradientUnits="userSpaceOnUse">
<stop stop-color="#FEBA03"/>
<stop offset="0.356" stop-color="#FE840A"/>
<stop offset="0.431" stop-color="#FF562E"/>
<stop offset="1" stop-color="#D56EE1"/>
</linearGradient>
<clipPath id="clip0_4_277">
<rect width="888.568" height="200" fill="white"/>
</clipPath>
</defs>
</svg>
