<svg width="1010" height="228" viewBox="0 0 1010 228" fill="none" xmlns="http://www.w3.org/2000/svg">
<path d="M132.644 0.000244141C160.774 0.000244141 194.716 7.15865 229.106 33.2533C222.85 42.0988 199.187 71.9872 192.932 80.8249C177.542 67.9237 157.698 60.7416 137.103 60.6189C101.827 60.6189 77.2639 82.5085 77.2639 113.661C77.2639 144.814 101.827 167.126 137.103 167.126C148.721 167.126 172.391 164.182 192.932 146.917C199.187 155.758 222.85 185.649 229.106 194.489C194.716 220.592 160.774 227.326 132.644 227.326C53.5862 227.326 0 177.652 0 113.659C0 49.6662 53.5837 0.000244141 132.644 0.000244141Z" fill="url(#paint0_linear)"/>
<path d="M369.162 227.332C297.257 227.332 238.748 176.814 238.748 113.664C238.748 50.5141 297.258 0 369.162 0C441.513 0 499.564 50.938 499.564 113.664C499.564 176.39 441.513 227.332 369.162 227.332ZM369.162 167.553C402.207 167.553 425.433 145.241 425.433 113.662C425.433 82.0837 402.207 59.3542 369.162 59.3542C336.117 59.3542 312.892 82.0891 312.892 113.662C312.892 145.235 336.114 167.554 369.162 167.554V167.553Z" fill="url(#paint1_linear)"/>
<path d="M651.313 0C679.455 0 713.393 7.1584 747.785 33.2531C741.527 42.0985 717.859 71.987 711.604 80.8247C696.216 67.9244 676.375 60.7423 655.782 60.6187C620.503 60.6187 595.941 82.5082 595.941 113.661C595.941 144.814 620.503 167.126 655.782 167.126C667.392 167.126 691.061 164.182 711.604 146.917C717.859 155.758 741.527 185.649 747.785 194.489C713.393 220.592 679.455 227.326 651.313 227.326C572.268 227.326 518.677 177.652 518.677 113.659C518.677 49.666 572.267 0 651.313 0Z" fill="url(#paint2_linear)"/>
<path d="M879.598 227.332C807.694 227.332 749.192 176.814 749.192 113.664C749.192 50.5141 807.697 0 879.598 0C951.949 0 1010 50.938 1010 113.664C1010 176.39 951.95 227.332 879.598 227.332ZM879.598 167.553C912.646 167.553 935.869 145.241 935.869 113.662C935.869 82.0837 912.646 59.3542 879.598 59.3542C846.55 59.3542 823.327 82.0891 823.327 113.662C823.327 145.235 846.548 167.554 879.598 167.554V167.553Z" fill="url(#paint3_linear)"/>
<defs>
<linearGradient id="paint0_linear" x1="165.872" y1="-307.799" x2="110.829" y2="308.104" gradientUnits="userSpaceOnUse">
<stop stop-color="#FEBA03"/>
<stop offset="0.356" stop-color="#FE840A"/>
<stop offset="0.431" stop-color="#FF562E"/>
<stop offset="1" stop-color="#D56EE1"/>
</linearGradient>
<linearGradient id="paint1_linear" x1="427.578" y1="-307.807" x2="379.137" y2="309.227" gradientUnits="userSpaceOnUse">
<stop stop-color="#FEBA03"/>
<stop offset="0.356" stop-color="#FE840A"/>
<stop offset="0.431" stop-color="#FF562E"/>
<stop offset="1" stop-color="#D56EE1"/>
</linearGradient>
<linearGradient id="paint2_linear" x1="684.551" y1="-307.8" x2="629.508" y2="308.104" gradientUnits="userSpaceOnUse">
<stop stop-color="#FEBA03"/>
<stop offset="0.356" stop-color="#FE840A"/>
<stop offset="0.431" stop-color="#FF562E"/>
<stop offset="1" stop-color="#D56EE1"/>
</linearGradient>
<linearGradient id="paint3_linear" x1="938.017" y1="-307.807" x2="889.574" y2="309.227" gradientUnits="userSpaceOnUse">
<stop stop-color="#FEBA03"/>
<stop offset="0.356" stop-color="#FE840A"/>
<stop offset="0.431" stop-color="#FF562E"/>
<stop offset="1" stop-color="#D56EE1"/>
</linearGradient>
</defs>
</svg>
