<?xml version="1.0" standalone="no"?>
<!DOCTYPE svg PUBLIC "-//W3C//DTD SVG 20010904//EN"
 "http://www.w3.org/TR/2001/REC-SVG-20010904/DTD/svg10.dtd">
<svg version="1.0" xmlns="http://www.w3.org/2000/svg"
 width="767.000000pt" height="87.000000pt" viewBox="0 0 767.000000 87.000000"
 preserveAspectRatio="xMidYMid meet">

<g transform="translate(0.000000,87.000000) scale(0.100000,-0.100000)"
fill="#ffffff" stroke="none">
<path d="M88 854 c-14 -14 -8 -69 11 -100 30 -50 93 -74 189 -74 125 0 179
-15 229 -64 74 -74 95 -225 44 -323 -41 -82 -92 -105 -243 -111 l-118 -4 0
113 c0 92 -4 121 -19 149 -26 49 -62 72 -120 78 l-51 5 0 -263 0 -262 233 4
c212 3 237 6 288 26 104 42 190 136 229 253 29 85 25 234 -9 322 -42 108 -145
206 -251 238 -42 13 -402 25 -412 13z"/>
<path d="M1110 851 c-56 -12 -96 -38 -122 -78 -23 -38 -23 -40 -23 -343 0
-345 0 -347 77 -398 l41 -27 274 -3 273 -3 0 90 0 91 -223 0 c-160 0 -226 3
-235 12 -7 7 -12 42 -12 85 l0 73 185 0 185 0 0 85 0 85 -185 0 -185 0 0 70
c0 58 3 71 19 80 12 6 106 10 235 10 l216 0 0 90 0 90 -242 -1 c-134 -1 -259
-4 -278 -8z"/>
<path d="M1829 843 c5 -10 59 -105 120 -212 61 -106 111 -197 111 -202 0 -5
-57 -98 -126 -206 -70 -109 -129 -204 -131 -210 -4 -10 21 -13 103 -13 l109 0
104 166 c57 91 107 162 112 157 5 -5 53 -78 107 -163 l98 -155 112 -3 112 -3
-106 168 c-59 92 -120 189 -136 215 l-30 48 121 211 c67 116 121 213 121 215
0 2 -49 4 -108 4 l-109 0 -82 -144 c-46 -80 -89 -153 -95 -162 -11 -15 -25 4
-105 145 l-92 161 -110 0 c-101 0 -109 -1 -100 -17z"/>
<path d="M2780 765 l0 -95 145 0 145 0 0 -335 0 -335 100 0 100 0 0 335 0 335
145 0 145 0 0 95 0 95 -390 0 -390 0 0 -95z"/>
<path d="M3872 849 c-53 -10 -97 -41 -120 -82 -15 -28 -17 -69 -20 -314 -2
-190 1 -296 8 -324 15 -53 64 -104 115 -118 24 -7 140 -11 293 -11 l252 0 0
90 0 90 -223 0 c-160 0 -226 3 -235 12 -7 7 -12 42 -12 85 l0 73 185 0 185 0
0 85 0 85 -185 0 -185 0 0 70 c0 58 3 71 19 80 12 6 106 10 235 10 l216 0 0
90 0 90 -242 -1 c-134 -1 -262 -5 -286 -10z"/>
<path d="M4618 854 c-5 -4 -8 -198 -8 -431 l0 -423 100 0 100 0 0 120 0 120
58 0 58 0 94 -120 95 -120 117 0 c65 0 118 2 118 5 0 3 -45 62 -101 132 -91
115 -99 129 -83 138 47 25 112 104 130 156 54 159 -6 325 -141 394 l-59 30
-235 3 c-130 2 -239 0 -243 -4z m449 -200 c59 -44 63 -142 7 -195 -24 -22 -35
-24 -145 -27 l-119 -4 0 127 0 127 114 -3 c97 -4 119 -7 143 -25z"/>
<path d="M5540 430 l0 -430 95 0 95 0 0 430 0 430 -95 0 -95 0 0 -430z"/>
<path d="M5910 765 l0 -95 145 0 145 0 0 -335 0 -335 100 0 100 0 0 335 0 335
145 0 145 0 0 95 0 95 -390 0 -390 0 0 -95z"/>
<path d="M6870 856 c0 -2 68 -119 150 -260 l150 -257 0 -170 0 -169 95 0 95 0
0 166 0 166 154 264 155 264 -122 0 -122 0 -79 -157 -78 -157 -80 157 -80 157
-119 0 c-66 0 -119 -2 -119 -4z"/>
<path d="M30 680 c-26 -26 -26 -81 -2 -103 26 -24 85 -22 107 3 23 26 23 74 0
100 -24 26 -79 26 -105 0z"/>
</g>
</svg>
