<svg width="1778" height="200" viewBox="0 0 1778 200" fill="none" xmlns="http://www.w3.org/2000/svg">
<g clip-path="url(#clip0_4_281)">
<path d="M18.0974 1.39211C14.8492 4.64037 16.2413 17.4014 20.6497 24.594C27.6102 36.1949 42.2274 41.7633 64.5012 41.7633C93.5035 41.7633 106.032 45.2436 117.633 56.6125C134.803 73.7819 139.675 108.817 127.842 131.555C118.329 150.58 106.497 155.916 71.4617 157.309L44.0835 158.237V132.019C44.0835 110.673 43.1555 103.944 39.6752 97.4478C33.6427 86.0789 25.29 80.7425 11.8329 79.3503L0 78.1902V139.211V200L54.0603 199.072C103.248 198.376 109.049 197.68 120.882 193.039C145.012 183.295 164.965 161.485 174.014 134.339C180.742 114.617 179.814 80.0464 171.926 59.6288C162.181 34.5708 138.283 11.8329 113.689 4.40834C103.944 1.39211 20.4176 -1.39212 18.0974 1.39211Z" fill="white"/>
<path d="M255.22 2.08815C242.227 4.87238 232.947 10.9049 226.914 20.1856C221.578 29.0023 221.578 29.4663 221.578 99.768C221.578 179.814 221.578 180.278 239.443 192.111L248.956 198.376L312.529 199.072L375.87 199.768V178.886V157.773H324.13C287.007 157.773 271.694 157.077 269.605 154.988C267.981 153.364 266.821 145.244 266.821 135.267V118.329H309.745H352.668V98.6079V78.8863H309.745H266.821V62.645C266.821 49.1879 267.517 46.1717 271.23 44.0835C274.014 42.6914 295.824 41.7633 325.754 41.7633H375.87V20.8817V-1.52588e-05L319.721 0.231995C288.631 0.46402 259.629 1.16008 255.22 2.08815Z" fill="white"/>
<path d="M422.042 3.94429C423.202 6.26448 435.731 28.3062 449.884 53.1322C464.037 77.7262 475.638 98.8399 475.638 100C475.638 101.16 462.413 122.738 446.404 147.796C430.162 173.086 416.473 195.128 416.009 196.52C415.081 198.84 420.882 199.536 439.907 199.536H465.197L489.327 161.021C502.552 139.907 514.153 123.434 515.313 124.594C516.473 125.754 527.61 142.691 540.139 162.413L562.877 198.376L588.863 199.072L614.849 199.768L590.255 160.789C576.566 139.443 562.413 116.937 558.701 110.905L551.74 99.768L579.814 50.812C595.36 23.8979 607.889 1.39209 607.889 0.928055C607.889 0.46402 596.52 -1.52588e-05 582.831 -1.52588e-05H557.541L538.515 33.4107C527.842 51.9721 517.865 68.9095 516.473 70.9977C513.921 74.4779 510.673 70.0696 492.111 37.355L470.766 -1.52588e-05H445.244C421.81 -1.52588e-05 419.954 0.231995 422.042 3.94429Z" fill="white"/>
<path d="M642.691 22.0418V44.0835H676.334H709.977V121.81V199.536H733.179H756.38V121.81V44.0835H790.023H823.666V22.0418V1.52588e-05H733.179H642.691V22.0418Z" fill="white"/>
<path d="M896.056 2.55222C883.759 4.87241 873.55 12.065 868.213 21.5777C864.733 28.0743 864.269 37.587 863.573 94.4316C863.109 138.515 863.805 163.109 865.429 169.606C868.909 181.903 880.278 193.736 892.111 196.984C897.68 198.608 924.594 199.536 960.093 199.536H1018.56V178.654V157.773H966.821C929.698 157.773 914.385 157.077 912.297 154.988C910.673 153.364 909.513 145.244 909.513 135.267V118.329H952.436H995.36V98.6079V78.8863H952.436H909.513V62.645C909.513 49.188 910.209 46.1717 913.921 44.0835C916.705 42.6914 938.515 41.7634 968.445 41.7634H1018.56V20.8817V1.52588e-05L962.413 0.23204C931.322 0.46405 901.624 1.39214 896.056 2.55222Z" fill="white"/>
<path d="M1069.14 1.39212C1067.98 2.32019 1067.29 47.3318 1067.29 101.392V199.536H1090.49H1113.69V171.694V143.852H1127.15H1140.6L1162.41 171.694L1184.45 199.536H1211.6C1226.68 199.536 1238.98 199.072 1238.98 198.376C1238.98 197.68 1228.54 183.991 1215.55 167.749C1194.43 141.067 1192.58 137.819 1196.29 135.731C1207.19 129.93 1222.27 111.601 1226.45 99.536C1238.98 62.645 1225.06 24.1299 1193.74 8.12065L1180.05 1.1601L1125.52 0.46405C1095.36 0 1070.07 0.46405 1069.14 1.39212ZM1173.32 47.7958C1187.01 58.0047 1187.94 80.7425 1174.94 93.0395C1169.37 98.1439 1166.82 98.6079 1141.3 99.304L1113.69 100.232V70.7657V41.2993L1140.14 41.9954C1162.65 42.9234 1167.75 43.6195 1173.32 47.7958Z" fill="white"/>
<path d="M1283.06 99.768V199.536H1305.1H1327.15V99.768V1.52588e-05H1305.1H1283.06V99.768Z" fill="white"/>
<path d="M1368.91 22.0418V44.0835H1402.55H1436.2V121.81V199.536H1459.4H1482.6V121.81V44.0835H1516.24H1549.88V22.0418V1.52588e-05H1459.4H1368.91V22.0418Z" fill="white"/>
<path d="M1591.65 0.928085C1591.65 1.39214 1607.42 28.5383 1626.45 61.2529L1661.25 120.882V160.325V199.536H1683.29H1705.34V161.021V122.506L1741.07 61.2529L1777.03 1.52588e-05H1748.72H1720.42L1702.09 36.4269L1683.99 72.8538L1665.43 36.4269L1646.87 1.52588e-05H1619.26C1603.94 1.52588e-05 1591.65 0.46405 1591.65 0.928085Z" fill="white"/>
<path d="M4.64026 41.7633C-1.39222 47.7958 -1.39222 60.5568 4.17622 65.6612C10.2087 71.2297 23.8978 70.7657 29.0022 64.9652C34.3386 58.9327 34.3386 47.7958 29.0022 41.7633C23.4338 35.7308 10.6727 35.7308 4.64026 41.7633Z" fill="white"/>
</g>
<defs>
<clipPath id="clip0_4_281">
<rect width="1777.03" height="200" fill="white"/>
</clipPath>
</defs>
</svg>
