<svg width="1778" height="200" viewBox="0 0 1778 200" fill="none" xmlns="http://www.w3.org/2000/svg">
<g clip-path="url(#clip0_4_280)">
<path d="M18.2342 1.39211C14.9859 4.64037 16.378 17.4014 20.7864 24.594C27.7469 36.1949 42.3641 41.7633 64.6379 41.7633C93.6402 41.7633 106.169 45.2436 117.77 56.6125C134.939 73.7819 139.812 108.817 127.979 131.555C118.466 150.58 106.633 155.916 71.5984 157.309L44.2202 158.237V132.019C44.2202 110.673 43.2922 103.944 39.8119 97.4478C33.7794 86.0789 25.4267 80.7425 11.9697 79.3503L0.136719 78.1902V139.211V200L54.197 199.072C103.385 198.376 109.185 197.68 121.018 193.039C145.148 183.295 165.102 161.485 174.151 134.339C180.879 114.617 179.951 80.0464 172.062 59.6288C162.318 34.5708 138.42 11.8329 113.826 4.40834C104.081 1.39211 20.5544 -1.39212 18.2342 1.39211Z" fill="#03328F"/>
<path d="M255.357 2.08816C242.364 4.87238 233.083 10.9049 227.051 20.1856C221.714 29.0023 221.714 29.4663 221.714 99.768C221.714 179.814 221.714 180.278 239.58 192.111L249.093 198.376L312.666 199.072L376.007 199.768V178.886V157.773H324.267C287.144 157.773 271.83 157.077 269.742 154.988C268.118 153.364 266.958 145.244 266.958 135.267V118.329H309.882H352.805V98.6079V78.8863H309.882H266.958V62.645C266.958 49.1879 267.654 46.1717 271.366 44.0835C274.151 42.6914 295.96 41.7633 325.891 41.7633H376.007V20.8817V-7.62939e-06L319.858 0.232002C288.768 0.464027 259.766 1.16009 255.357 2.08816Z" fill="#03328F"/>
<path d="M422.178 3.9443C423.339 6.26449 435.868 28.3063 450.021 53.1322C464.174 77.7262 475.775 98.8399 475.775 100C475.775 101.16 462.55 122.738 446.54 147.796C430.299 173.086 416.61 195.128 416.146 196.52C415.218 198.84 421.018 199.536 440.044 199.536H465.334L489.464 161.021C502.689 139.907 514.29 123.434 515.45 124.594C516.61 125.754 527.747 142.691 540.276 162.413L563.014 198.376L589 199.072L614.986 199.768L590.392 160.789C576.703 139.443 562.55 116.937 558.837 110.905L551.877 99.768L579.951 50.812C595.496 23.8979 608.025 1.3921 608.025 0.928062C608.025 0.464027 596.656 -7.62939e-06 582.967 -7.62939e-06H557.677L538.652 33.4107C527.979 51.9721 518.002 68.9095 516.61 70.9977C514.058 74.478 510.81 70.0696 492.248 37.355L470.902 -7.62939e-06H445.38C421.946 -7.62939e-06 420.09 0.232002 422.178 3.9443Z" fill="#03328F"/>
<path d="M642.828 22.0418V44.0835H676.471H710.114V121.81V199.536H733.315H756.517V121.81V44.0835H790.16H823.803V22.0418V7.62939e-06H733.315H642.828V22.0418Z" fill="#03328F"/>
<path d="M896.192 2.55221C883.895 4.8724 873.687 12.065 868.35 21.5777C864.87 28.0743 864.406 37.587 863.71 94.4316C863.246 138.515 863.942 163.109 865.566 169.606C869.046 181.903 880.415 193.736 892.248 196.984C897.817 198.608 924.731 199.536 960.23 199.536H1018.7V178.654V157.773H966.958C929.835 157.773 914.522 157.077 912.434 154.988C910.81 153.364 909.649 145.244 909.649 135.267V118.329H952.573H995.496V98.6079V78.8863H952.573H909.649V62.645C909.649 49.188 910.346 46.1717 914.058 44.0835C916.842 42.6914 938.652 41.7634 968.582 41.7634H1018.7V20.8817V7.62939e-06L962.55 0.232033C931.459 0.464043 901.761 1.39213 896.192 2.55221Z" fill="#03328F"/>
<path d="M1069.28 1.39211C1068.12 2.32018 1067.42 47.3318 1067.42 101.392V199.536H1090.62H1113.83V171.694V143.852H1127.28H1140.74L1162.55 171.694L1184.59 199.536H1211.74C1226.82 199.536 1239.12 199.072 1239.12 198.376C1239.12 197.68 1228.68 183.991 1215.68 167.749C1194.57 141.067 1192.71 137.819 1196.42 135.731C1207.33 129.93 1222.41 111.601 1226.59 99.536C1239.12 62.645 1225.19 24.1299 1193.87 8.12064L1180.18 1.16009L1125.66 0.464043C1095.5 -7.62939e-06 1070.21 0.464043 1069.28 1.39211ZM1173.45 47.7958C1187.14 58.0046 1188.07 80.7425 1175.08 93.0394C1169.51 98.1439 1166.96 98.6079 1141.44 99.3039L1113.83 100.232V70.7657V41.2993L1140.28 41.9954C1162.78 42.9234 1167.89 43.6195 1173.45 47.7958Z" fill="#03328F"/>
<path d="M1283.2 99.768V199.536H1305.24H1327.28V99.768V7.62939e-06H1305.24H1283.2V99.768Z" fill="#03328F"/>
<path d="M1369.05 22.0418V44.0835H1402.69H1436.33V121.81V199.536H1459.53H1482.74V121.81V44.0835H1516.38H1550.02V22.0418V7.62939e-06H1459.53H1369.05V22.0418Z" fill="#03328F"/>
<path d="M1591.78 0.928078C1591.78 1.39213 1607.56 28.5383 1626.59 61.2529L1661.39 120.882V160.325V199.536H1683.43H1705.47V161.021V122.506L1741.2 61.2529L1777.17 7.62939e-06H1748.86H1720.55L1702.22 36.4269L1684.13 72.8538L1665.57 36.4269L1647 7.62939e-06H1619.39C1604.08 7.62939e-06 1591.78 0.464043 1591.78 0.928078Z" fill="#03328F"/>
<path d="M4.7771 41.7633C-1.25538 47.7958 -1.25538 60.5569 4.31306 65.6613C10.3455 71.2297 24.0346 70.7657 29.139 64.9652C34.4755 58.9327 34.4755 47.7958 29.139 41.7633C23.5706 35.7309 10.8096 35.7309 4.7771 41.7633Z" fill="#03328F"/>
</g>
<defs>
<clipPath id="clip0_4_280">
<rect width="1777.03" height="200" fill="white" transform="translate(0.136719)"/>
</clipPath>
</defs>
</svg>
