<svg width="1166" height="100" viewBox="0 0 1166 100" fill="none" xmlns="http://www.w3.org/2000/svg">
<g clip-path="url(#clip0_2372_15021)">
<path d="M1079 100V65L1022 0H1061L1095 41L1128 0H1166L1110 65V100H1079ZM936 100V25H896V0H1006V25H966V100H936ZM845 100V0H875V100H845ZM699 100V0H781C809 0 825 2 825 37.5C825 73 809 75 783 75H729V100H699ZM729 50H779C792 50 795 49 795 37.5C795 26 792 25 779 25H729V50Z" fill="black"/>
<path d="M746.044 62.926L747.255 64.072L781.454 100H821.224L784.322 62.926H746.044ZM568 0H678V23H598V40H672V60H598V77H678V100H568V0ZM477 100V25H437V0H547V25H507V100H477ZM272 100L322 50L275 0H315L347 36L379 0H419L372 50L422 100H381L347 64L313 100H272ZM146 0H256V23H176V40H250V60H176V77H256V100H146V0ZM0 100V0H79C119 0 126 11 126 50C126 89 119 100 79 100H0ZM30 75H75C93 75 96 71 96 50C96 29 93 25 75 25H30V75Z" fill="black"/>
</g>
<defs>
<clipPath id="clip0_2372_15021">
<rect width="1166" height="100" fill="white"/>
</clipPath>
</defs>
</svg>
