<svg width="1338" height="200" viewBox="0 0 1338 200" fill="none" xmlns="http://www.w3.org/2000/svg">
<path d="M13.5731 26.0441C11.1369 28.4803 12.181 38.051 15.4872 43.4455C20.7077 52.1462 31.6705 56.3225 48.3759 56.3225C70.1276 56.3225 79.5244 58.9327 88.2251 67.4594C101.102 80.3364 104.756 106.613 95.8817 123.666C88.7471 137.935 79.8724 141.937 53.5963 142.981L33.0626 143.677V124.014C33.0626 108.005 32.3666 102.958 29.7564 98.0858C25.232 89.5592 18.9675 85.5568 8.87471 84.5127L0 83.6427V129.408V175L40.5452 174.304C77.4362 173.782 81.7865 173.26 90.6612 169.78C108.759 162.471 123.724 146.114 130.51 125.754C135.557 110.963 134.861 85.0348 128.944 69.7216C121.636 50.9281 103.712 33.8747 85.2668 28.3062C77.9582 26.0441 15.3132 23.9559 13.5731 26.0441Z" fill="white"/>
<path d="M191.415 26.5663C181.67 28.6545 174.71 33.1788 170.185 40.1394C166.183 46.7519 166.183 47.0999 166.183 99.8262C166.183 159.861 166.183 160.209 179.582 169.084L186.717 173.782L234.397 174.304L281.902 174.826V159.165V143.33H243.097C215.255 143.33 203.77 142.808 202.204 141.241C200.986 140.023 200.116 133.933 200.116 126.45V113.747H232.308H264.501V98.9561V84.1649H232.308H200.116V71.9839C200.116 61.8911 200.638 59.629 203.422 58.0628C205.51 57.0187 221.868 56.3227 244.315 56.3227H281.902V40.6614V25.0002L239.791 25.1742C216.473 25.3482 194.721 25.8702 191.415 26.5663Z" fill="white"/>
<path d="M316.531 27.9584C317.401 29.6986 326.798 46.2299 337.413 64.8494C348.028 83.2948 356.729 99.1301 356.729 100C356.729 100.87 346.81 117.054 334.803 135.847C322.622 154.815 312.355 171.346 312.007 172.39C311.311 174.13 315.661 174.652 329.93 174.652H348.898L366.995 145.766C376.914 129.931 385.615 117.576 386.485 118.446C387.355 119.316 395.708 132.019 405.104 146.81L422.158 173.782L441.647 174.304L461.137 174.826L442.691 145.592C432.425 129.583 421.81 112.703 419.026 108.179L413.805 99.8262L434.861 63.1092C446.52 42.9236 455.916 26.0443 455.916 25.6962C455.916 25.3482 447.39 25.0002 437.123 25.0002H418.155L403.886 50.0582C395.882 63.9793 388.399 76.6823 387.355 78.2484C385.441 80.8587 383.005 77.5524 369.084 53.0164L353.074 25.0002H333.933C316.357 25.0002 314.965 25.1742 316.531 27.9584Z" fill="white"/>
<path d="M482.019 41.5312V58.0625H507.251H532.483V116.357V174.652H549.884H567.285V116.357V58.0625H592.517H617.749V41.5312V24.9999H549.884H482.019V41.5312Z" fill="white"/>
<path d="M672.042 26.914C662.819 28.6542 655.162 34.0486 651.16 41.1832C648.55 46.0556 648.202 53.1901 647.68 95.8235C647.332 128.886 647.854 147.332 649.072 152.204C651.682 161.427 660.209 170.302 669.084 172.738C673.26 173.956 693.445 174.652 720.07 174.652H763.921V158.991V143.329H725.116C697.274 143.329 685.789 142.807 684.223 141.241C683.005 140.023 682.135 133.933 682.135 126.45V113.747H714.327H746.52V98.9558V84.1646H714.327H682.135V71.9836C682.135 61.8908 682.657 59.6286 685.441 58.0625C687.529 57.0184 703.886 56.3224 726.334 56.3224H763.921V40.6611V24.9999L721.81 25.1739C698.492 25.3479 676.218 26.044 672.042 26.914Z" fill="white"/>
<path d="M801.856 26.0439C800.986 26.74 800.464 60.4987 800.464 101.044V174.652H817.865H835.267V153.77V132.889H845.359H855.452L871.81 153.77L888.341 174.652H908.701C920.011 174.652 929.234 174.304 929.234 173.782C929.234 173.26 921.404 162.993 911.659 150.812C895.823 130.8 894.431 128.364 897.216 126.798C905.394 122.448 916.705 108.701 919.837 99.6518C929.234 71.9836 918.793 43.0973 895.301 31.0904L885.035 25.8699L844.141 25.3479C821.52 24.9999 802.552 25.3479 801.856 26.0439ZM879.988 60.8467C890.255 68.5034 890.951 85.5567 881.206 94.7795C877.03 98.6078 875.116 98.9558 855.974 99.4778L835.267 100.174V78.0741V55.9743L855.104 56.4964C871.984 57.1924 875.812 57.7145 879.988 60.8467Z" fill="white"/>
<path d="M962.297 99.8259V174.652H978.828H995.36V99.8259V24.9999H978.828H962.297V99.8259Z" fill="white"/>
<path d="M1026.68 41.5312V58.0625H1051.91H1077.15V116.357V174.652H1094.55H1111.95V116.357V58.0625H1137.18H1162.41V41.5312V24.9999H1094.55H1026.68V41.5312Z" fill="white"/>
<path d="M1193.74 25.6959C1193.74 26.044 1205.57 46.4036 1219.84 70.9396L1245.94 115.661V145.244V174.652H1262.47H1279V145.766V116.879L1305.8 70.9396L1332.77 24.9999H1311.54H1290.31L1276.57 52.3201L1262.99 79.6403L1249.07 52.3201L1235.15 24.9999H1214.44C1202.96 24.9999 1193.74 25.3479 1193.74 25.6959Z" fill="white"/>
<path d="M3.48007 56.3224C-1.04429 60.8468 -1.04429 70.4176 3.13204 74.2459C7.6564 78.4222 17.9232 78.0742 21.7515 73.7238C25.7538 69.1995 25.7538 60.8468 21.7515 56.3224C17.5752 51.7981 8.00443 51.7981 3.48007 56.3224Z" fill="white"/>
</svg>
