<svg width="909" height="204" viewBox="0 0 909 204" fill="none" xmlns="http://www.w3.org/2000/svg">
<g clip-path="url(#clip0)">
<path d="M313.65 92.55H295.05V156H269.85V92.55H258.15V80.25L270.15 73.8V69.9C270.15 59.3 272.55 51.9 277.35 47.7C282.15 43.4 289.25 41.25 298.65 41.25C302.95 41.25 306.85 41.6 310.35 42.3C313.95 43 317.25 43.85 320.25 44.85L314.25 62.25C312.75 61.85 311.05 61.45 309.15 61.05C307.25 60.65 305.15 60.45 302.85 60.45C300.15 60.45 298.15 61.3 296.85 63C295.65 64.6 295.05 66.9 295.05 69.9V73.65H313.65V92.55ZM402.362 114.6C402.362 128.4 398.712 139 391.412 146.4C384.212 153.8 374.312 157.5 361.712 157.5C353.912 157.5 346.962 155.85 340.862 152.55C334.862 149.15 330.112 144.3 326.612 138C323.212 131.6 321.512 123.8 321.512 114.6C321.512 101 325.112 90.55 332.312 83.25C339.612 75.85 349.562 72.15 362.162 72.15C369.962 72.15 376.862 73.8 382.862 77.1C388.962 80.4 393.712 85.2 397.112 91.5C400.612 97.8 402.362 105.5 402.362 114.6ZM347.162 114.6C347.162 122.3 348.312 128.15 350.612 132.15C352.912 136.05 356.712 138 362.012 138C367.212 138 370.962 136.05 373.262 132.15C375.562 128.15 376.712 122.3 376.712 114.6C376.712 107 375.562 101.3 373.262 97.5C370.962 93.6 367.162 91.65 361.862 91.65C356.662 91.65 352.912 93.6 350.612 97.5C348.312 101.3 347.162 107 347.162 114.6ZM434.075 114L408.125 73.65H436.775L451.175 98.4L465.725 73.65H494.375L468.125 114L495.575 156H466.925L451.175 129.3L435.425 156H406.775L434.075 114ZM533.61 72.15C539.01 72.15 543.61 73.2 547.41 75.3C551.21 77.4 554.36 80.3 556.86 84H557.46L559.41 73.65H581.01V156.15C581.01 167.85 577.46 176.75 570.36 182.85C563.36 188.95 552.76 192 538.56 192C532.36 192 526.76 191.65 521.76 190.95C516.76 190.25 511.86 189 507.06 187.2V166.65C512.16 168.75 517.16 170.3 522.06 171.3C526.96 172.4 532.46 172.95 538.56 172.95C550.06 172.95 555.81 167.7 555.81 157.2V155.55C555.81 154.15 555.86 152.55 555.96 150.75C556.16 148.85 556.36 147.05 556.56 145.35H555.81C553.41 149.25 550.31 152.25 546.51 154.35C542.81 156.45 538.36 157.5 533.16 157.5C523.86 157.5 516.46 153.8 510.96 146.4C505.56 139 502.86 128.5 502.86 114.9C502.86 101.2 505.61 90.65 511.11 83.25C516.71 75.85 524.21 72.15 533.61 72.15ZM542.46 92.1C533.16 92.1 528.51 99.85 528.51 115.35C528.51 123.05 529.66 128.75 531.96 132.45C534.36 136.05 537.96 137.85 542.76 137.85C548.06 137.85 551.86 136.3 554.16 133.2C556.46 130.1 557.61 125 557.61 117.9V114.75C557.61 107.05 556.46 101.35 554.16 97.65C551.96 93.95 548.06 92.1 542.46 92.1ZM628.064 156H602.714V42H628.064V156ZM726.386 114.6C726.386 128.4 722.736 139 715.436 146.4C708.236 153.8 698.336 157.5 685.736 157.5C677.936 157.5 670.986 155.85 664.886 152.55C658.886 149.15 654.136 144.3 650.636 138C647.236 131.6 645.536 123.8 645.536 114.6C645.536 101 649.136 90.55 656.336 83.25C663.636 75.85 673.586 72.15 686.186 72.15C693.986 72.15 700.886 73.8 706.886 77.1C712.986 80.4 717.736 85.2 721.136 91.5C724.636 97.8 726.386 105.5 726.386 114.6ZM671.186 114.6C671.186 122.3 672.336 128.15 674.636 132.15C676.936 136.05 680.736 138 686.036 138C691.236 138 694.986 136.05 697.286 132.15C699.586 128.15 700.736 122.3 700.736 114.6C700.736 107 699.586 101.3 697.286 97.5C694.986 93.6 691.186 91.65 685.886 91.65C680.686 91.65 676.936 93.6 674.636 97.5C672.336 101.3 671.186 107 671.186 114.6ZM761.399 156L730.049 73.65H756.449L771.449 121.35C771.949 123.05 772.399 125.15 772.799 127.65C773.299 130.05 773.599 132.25 773.699 134.25H774.299C774.399 132.15 774.649 129.95 775.049 127.65C775.549 125.35 776.099 123.3 776.699 121.5L791.999 73.65H818.249L786.899 156H761.399ZM864.582 72.15C876.182 72.15 885.382 75.35 892.182 81.75C898.982 88.05 902.382 97.35 902.382 109.65V121.35H850.332C850.532 126.75 852.282 131.05 855.582 134.25C858.882 137.45 863.582 139.05 869.682 139.05C874.882 139.05 879.632 138.55 883.932 137.55C888.332 136.55 892.832 134.95 897.432 132.75V151.5C893.332 153.6 888.982 155.1 884.382 156C879.882 157 874.282 157.5 867.582 157.5C859.282 157.5 851.882 156 845.382 153C838.982 150 833.932 145.4 830.232 139.2C826.632 132.9 824.832 124.95 824.832 115.35C824.832 105.65 826.482 97.6 829.782 91.2C833.082 84.8 837.682 80.05 843.582 76.95C849.582 73.75 856.582 72.15 864.582 72.15ZM865.032 89.7C861.132 89.7 857.882 90.95 855.282 93.45C852.782 95.85 851.282 99.7 850.782 105H879.132C879.032 100.7 877.832 97.1 875.532 94.2C873.232 91.2 869.732 89.7 865.032 89.7Z" fill="white"/>
<circle cx="63.4983" cy="166" r="26" fill="white"/>
<circle opacity="0.5" cx="138.498" cy="166" r="26" fill="white"/>
<circle opacity="0.5" cx="175.498" cy="101" r="26" fill="white"/>
<path fill-rule="evenodd" clip-rule="evenodd" d="M63.5281 10C69.6242 10 75.2332 12.0853 79.6808 15.5814C85.4685 20.2924 92.8532 23.1167 100.898 23.1167C108.942 23.1167 116.327 20.2924 122.114 15.5814C126.562 12.0853 132.171 10 138.267 10C152.714 10 164.426 21.7116 164.426 36.1587C164.426 50.6057 152.714 62.3174 138.267 62.3174C132.171 62.3174 126.562 60.2321 122.114 56.736C116.327 52.0249 108.942 49.2007 100.898 49.2007C92.8532 49.2007 85.4685 52.0249 79.6808 56.736C75.2332 60.2321 69.6242 62.3174 63.5281 62.3174C49.081 62.3174 37.3694 50.6057 37.3694 36.1587C37.3694 21.7116 49.081 10 63.5281 10Z" fill="white"/>
<path fill-rule="evenodd" clip-rule="evenodd" d="M26.1587 75.023C32.2548 75.023 37.8638 77.1083 42.3114 80.6044C48.0991 85.3155 55.4838 88.1397 63.5282 88.1397C71.5726 88.1397 78.9574 85.3155 84.745 80.6044C89.1927 77.1083 94.8017 75.023 100.898 75.023C115.345 75.023 127.056 86.7347 127.056 101.182C127.056 115.629 115.345 127.34 100.898 127.34C94.8017 127.34 89.1927 125.255 84.745 121.759C78.9574 117.048 71.5726 114.224 63.5282 114.224C55.4838 114.224 48.0991 117.048 42.3114 121.759C37.8638 125.255 32.2548 127.34 26.1587 127.34C11.7116 127.34 0 115.629 0 101.182C0 86.7347 11.7116 75.023 26.1587 75.023Z" fill="white"/>
</g>
<defs>
<clipPath id="clip0">
<rect width="909" height="204" fill="white"/>
</clipPath>
</defs>
</svg>
