<?xml version="1.0" encoding="UTF-8"?>
<svg id="Layer_3" data-name="Layer 3" xmlns="http://www.w3.org/2000/svg" viewBox="0 0 1280 232.2097">
  <defs>
    <style>
      .cls-1 {
        fill: #fff;
      }
    </style>
  </defs>
  <g>
    <path class="cls-1" d="M266.0917,180.2429h24.6719c-.1456-7.0229-.1456-14.1914-.1456-23.8075v-27.1159h11.8768c11.8804,0,38.8884,0,51.3151.1581v-20.0822h-63.1919v-36.9476h23.2145c18.9195,0,35.3788,0,48.1541.1599v-20.6411h-95.8931c.1402,6.3948.1402,13.433.1402,22.1344v82.3342c0,9.697,0,16.9301-.142,23.8075Z"/>
    <g>
      <path class="cls-1" d="M439.4678,49.3672c-48.7283,0-63.5787,14.8871-63.5787,63.7626v5.9439c0,48.8755,14.8505,63.7626,63.5787,63.7626s63.5787-14.8871,63.5787-63.7626v-5.9439c0-48.8755-14.8505-63.7626-63.5787-63.7626ZM477.9277,116.8471c0,35.4237-7.9127,44.5878-38.4598,44.5878s-38.4601-9.1641-38.4601-44.5878v-1.4906c0-34.8532,8.2809-44.4039,38.4601-44.4039,30.5471,0,38.4598,9.1458,38.4598,44.4039v1.4906Z"/>
      <path class="cls-1" d="M439.4678,49.3672c-48.7283,0-63.5787,14.8871-63.5787,63.7626v5.9439c0,48.8755,14.8505,63.7626,63.5787,63.7626s63.5787-14.8871,63.5787-63.7626v-5.9439c0-48.8755-14.8505-63.7626-63.5787-63.7626ZM477.9277,116.8471c0,35.4237-7.9127,44.5878-38.4598,44.5878s-38.4601-9.1641-38.4601-44.5878v-1.4906c0-34.8532,8.2809-44.4039,38.4601-44.4039,30.5471,0,38.4598,9.1458,38.4598,44.4039v1.4906Z"/>
    </g>
    <path class="cls-1" d="M609.036,180.2429h30.2697c-10.3475-13.8877-25.0025-34.7714-44.675-63.661l-.6973-1.0225.6847-1.0297c14.1896-21.3797,30.2302-45.4001,42.6982-62.5629h-29.001l-17.2985,27.3926-3.1556,5.5116c-3.9122,6.8396-7.9574,13.9111-12.0691,20.6662l-1.6227,2.665-1.5473-2.7082c-3.4342-6.0094-6.9726-11.9774-10.3942-17.7478-1.7629-2.9741-3.5061-5.9141-5.2061-8.811l-17.4423-26.9685h-30.1996c13.8751,19.7282,34.0741,50.4094,42.4053,63.129l.6613,1.0099-.6649,1.0099c-12.0295,18.2869-29.4071,43.9975-43.2697,63.1272h28.8249l17.2985-27.3926,2.9508-4.9886c4.4136-7.4686,8.9781-15.1924,13.3863-22.4866l1.5688-2.5986,5.2834,8.7086c4.4657,7.3751,9.0824,15.0019,13.7439,22.2854l17.4675,26.4725Z"/>
    <path class="cls-1" d="M707.294,49.3646c-47.2879,0-62.4659,15.4952-62.4659,63.767v5.9465c0,48.2727,15.2229,63.767,62.651,63.767,49.1605,0,61.1648-10.29,61.1648-52.4293,0-4.2015,0-10.3313.1366-16.0028h-68.7538v17.879h45.1638v2.0271c.0791,9.3375-.7961,16.5024-5.3229,21.0706-5.4757,5.5224-15.8177,6.6024-31.8296,6.6024-30.2536,0-38.0834-9.2818-38.0834-45.144v-1.4862c0-34.8576,8.2252-44.4009,38.2685-44.4009,27.7988,0,35.6933,4.5618,36.1964,21.8981l24.0447-.4888c-.0629-14.9102-2.9472-24.4697-9.2657-30.8547-8.43-8.5172-23.9531-12.1508-51.9046-12.1508Z"/>
    <g>
      <path class="cls-1" d="M845.764,158.6563h-30.4737v-84.9249c0-8.7593,0-15.3104.1474-21.7695h-24.6588c.1289,6.4959.1289,13.2678.1289,22.3215v81.7782c0,9.9002,0,17.2794-.1289,24.1802h91.4577v-21.7511c-13.8933.1657-23.9225.1657-36.4725.1657Z"/>
      <path class="cls-1" d="M845.764,158.6563h-30.4737v-84.9249c0-8.7593,0-15.3104.1474-21.7695h-24.6588c.1289,6.4959.1289,13.2678.1289,22.3215v81.7782c0,9.9002,0,17.2794-.1289,24.1802h91.4577v-21.7511c-13.8933.1657-23.9225.1657-36.4725.1657Z"/>
    </g>
    <path class="cls-1" d="M957.6844,49.3672c-48.7283,0-63.5785,14.8871-63.5785,63.7626v5.9439c0,48.8755,14.8503,63.7626,63.5785,63.7626s63.5785-14.8871,63.5785-63.7626v-5.9439c0-48.8755-14.8503-63.7626-63.5785-63.7626ZM996.1445,116.8471c0,35.4237-7.9129,44.5878-38.4601,44.5878s-38.4601-9.1641-38.4601-44.5878v-1.4906c0-34.8532,8.2809-44.4039,38.4601-44.4039,30.5471,0,38.4601,9.1458,38.4601,44.4039v1.4906Z"/>
    <path class="cls-1" d="M1073.6882,180.2429h41.7799c9.5586-27.6604,35.8388-100.8476,46.0533-128.2761h-25.9406l-19.6563,59.5115c-6.243,19.4029-10.9819,34.4102-14.4843,45.8664l-.3972,1.3029h-11.2676l-.4007-1.2957c-1.3568-4.3812-2.8376-9.1111-4.3866-14.0584-3.0532-9.7509-6.5126-20.8046-9.7419-31.4881l-19.2807-59.8386h-27.2327c10.2864,27.7251,35.6573,100.321,44.9553,128.2761Z"/>
    <path class="cls-1" d="M1178.9008,180.2429h101.0992v-20.2727c-15.3505.1635-42.9929.1635-61.5368.1635h-15.036v-35.6465h16.1502c14.3837,0,37.918,0,49.2701.1563v-19.3364h-65.4203v-33.2313h14.1069c17.1296,0,45.2752,0,59.1198.1617v-20.2709h-97.7512c.1402,6.3948.1402,13.433.1402,22.1344v82.3342c0,9.776,0,17.0721-.142,23.8075Z"/>
  </g>
  <path class="cls-1" d="M219.2938,73.5355l-36.3242-20.974c-1.0289-.5941-2.2967-.594-3.3255.0002l-49.3411,28.4982V24.0789c0-1.1878-.6337-2.2854-1.6623-2.8794L92.3161.2252c-1.1083-.6399-2.4937.1599-2.4937,1.4397v79.3783l-49.3416-28.4823c-1.0287-.5938-2.2961-.5938-3.3248.0002L.8312,73.5356c-1.1082.6399-1.1082,2.2395,0,2.8794l68.7424,39.6893L.8312,155.7937c-1.1083.6399-1.1083,2.2395,0,2.8794l36.3248,20.9744c1.0287.594,2.2961.594,3.3248.0002l49.3416-28.4824v56.9803c0,1.1882.634,2.2861,1.6632,2.8799l36.3241,20.9592c1.1083.6395,2.4933-.1604,2.4933-1.4399v-79.3795l49.3414,28.4823c1.0287.5938,2.2961.5938,3.3248-.0002l36.3247-20.9743c1.1083-.6399,1.1082-2.2397-.0002-2.8795l-68.7588-39.6894,68.7588-39.6894c1.1084-.6398,1.1085-2.2395.0002-2.8795ZM133.046,129.3873l-22.9916,13.2663-22.9752-13.2663v-26.5494l22.9752-13.2663,22.9916,13.2663v26.5494Z"/>
</svg>