<svg width="892" height="200" viewBox="0 0 892 200" fill="none" xmlns="http://www.w3.org/2000/svg">
<g clip-path="url(#clip0_4_98)">
<mask id="mask0_4_98" style="mask-type:luminance" maskUnits="userSpaceOnUse" x="0" y="0" width="892" height="200">
<path d="M891.383 0H0.206543V200H891.383V0Z" fill="white"/>
</mask>
<g mask="url(#mask0_4_98)">
<path d="M307.707 90.7353H289.471V152.941H264.765V90.7353H253.295V78.6765L265.06 72.353V68.5294C265.06 58.1373 267.412 50.8824 272.118 46.7647C276.824 42.549 283.785 40.4412 293.001 40.4412C297.216 40.4412 301.04 40.7843 304.471 41.4706C308.001 42.1569 311.236 42.9902 314.177 43.9706L308.295 61.0294C306.824 60.6373 305.158 60.2451 303.295 59.853C301.432 59.4608 299.373 59.2647 297.118 59.2647C294.471 59.2647 292.51 60.0981 291.236 61.7647C290.06 63.3333 289.471 65.5883 289.471 68.5294V72.2059H307.707V90.7353ZM394.679 112.353C394.679 125.882 391.101 136.275 383.944 143.529C376.885 150.784 367.179 154.412 354.826 154.412C347.179 154.412 340.365 152.794 334.385 149.559C328.503 146.226 323.846 141.471 320.414 135.294C317.081 129.02 315.414 121.373 315.414 112.353C315.414 99.0196 318.944 88.7745 326.003 81.6177C333.16 74.3628 342.914 70.7353 355.267 70.7353C362.914 70.7353 369.679 72.353 375.561 75.5882C381.542 78.8235 386.199 83.5294 389.532 89.7059C392.963 95.8824 394.679 103.431 394.679 112.353ZM340.561 112.353C340.561 119.902 341.689 125.637 343.944 129.559C346.199 133.382 349.924 135.294 355.12 135.294C360.218 135.294 363.895 133.382 366.15 129.559C368.405 125.637 369.532 119.902 369.532 112.353C369.532 104.902 368.405 99.3137 366.15 95.5882C363.895 91.7647 360.169 89.853 354.973 89.853C349.875 89.853 346.199 91.7647 343.944 95.5882C341.689 99.3137 340.561 104.902 340.561 112.353ZM425.77 111.765L400.329 72.2059H428.417L442.535 96.4706L456.8 72.2059H484.888L459.153 111.765L486.064 152.941H457.976L442.535 126.765L427.094 152.941H399.006L425.77 111.765ZM523.354 70.7353C528.648 70.7353 533.158 71.7647 536.883 73.8235C540.608 75.8824 543.697 78.7255 546.148 82.353H546.736L548.648 72.2059H569.824V153.088C569.824 164.559 566.344 173.284 559.383 179.265C552.52 185.245 542.128 188.235 528.207 188.235C522.128 188.235 516.638 187.892 511.736 187.206C506.834 186.52 502.03 185.294 497.324 183.529V163.382C502.324 165.441 507.226 166.961 512.03 167.941C516.834 169.02 522.226 169.559 528.207 169.559C539.481 169.559 545.118 164.412 545.118 154.118V152.5C545.118 151.127 545.167 149.559 545.265 147.794C545.461 145.931 545.658 144.167 545.854 142.5H545.118C542.765 146.324 539.726 149.265 536.001 151.324C532.373 153.382 528.01 154.412 522.912 154.412C513.795 154.412 506.54 150.784 501.148 143.529C495.854 136.275 493.207 125.98 493.207 112.647C493.207 99.2157 495.903 88.8726 501.295 81.6177C506.785 74.3628 514.138 70.7353 523.354 70.7353ZM532.03 90.2941C522.912 90.2941 518.354 97.8922 518.354 113.088C518.354 120.637 519.481 126.226 521.736 129.853C524.089 133.382 527.618 135.147 532.324 135.147C537.52 135.147 541.246 133.627 543.501 130.588C545.756 127.549 546.883 122.549 546.883 115.588V112.5C546.883 104.951 545.756 99.3628 543.501 95.7353C541.344 92.1079 537.52 90.2941 532.03 90.2941ZM615.956 152.941H591.103V41.1765H615.956V152.941ZM712.35 112.353C712.35 125.882 708.771 136.275 701.614 143.529C694.556 150.784 684.85 154.412 672.497 154.412C664.85 154.412 658.036 152.794 652.056 149.559C646.173 146.226 641.516 141.471 638.085 135.294C634.752 129.02 633.085 121.373 633.085 112.353C633.085 99.0196 636.614 88.7745 643.673 81.6177C650.83 74.3628 660.585 70.7353 672.938 70.7353C680.585 70.7353 687.35 72.353 693.232 75.5882C699.212 78.8235 703.869 83.5294 707.203 89.7059C710.634 95.8824 712.35 103.431 712.35 112.353ZM658.232 112.353C658.232 119.902 659.359 125.637 661.614 129.559C663.869 133.382 667.595 135.294 672.791 135.294C677.889 135.294 681.565 133.382 683.82 129.559C686.075 125.637 687.203 119.902 687.203 112.353C687.203 104.902 686.075 99.3137 683.82 95.5882C681.565 91.7647 677.84 89.853 672.644 89.853C667.546 89.853 663.869 91.7647 661.614 95.5882C659.359 99.3137 658.232 104.902 658.232 112.353ZM746.676 152.941L715.941 72.2059H741.823L756.529 118.971C757.019 120.637 757.461 122.696 757.853 125.147C758.343 127.5 758.637 129.657 758.735 131.618H759.323C759.421 129.559 759.666 127.402 760.059 125.147C760.549 122.892 761.088 120.882 761.676 119.118L776.676 72.2059H802.411L771.676 152.941H746.676ZM847.836 70.7353C859.209 70.7353 868.228 73.8726 874.895 80.1471C881.561 86.3235 884.895 95.4412 884.895 107.5V118.971H833.865C834.061 124.265 835.777 128.48 839.012 131.618C842.248 134.755 846.856 136.324 852.836 136.324C857.934 136.324 862.591 135.833 866.807 134.853C871.12 133.873 875.532 132.304 880.042 130.147V148.529C876.022 150.588 871.758 152.059 867.248 152.941C862.836 153.922 857.346 154.412 850.777 154.412C842.64 154.412 835.385 152.941 829.013 150C822.738 147.059 817.787 142.549 814.16 136.471C810.63 130.294 808.865 122.5 808.865 113.088C808.865 103.578 810.483 95.6863 813.718 89.4118C816.954 83.1373 821.463 78.4804 827.248 75.4412C833.13 72.3039 839.993 70.7353 847.836 70.7353ZM848.277 87.9412C844.454 87.9412 841.267 89.1667 838.718 91.6177C836.267 93.9706 834.797 97.7451 834.307 102.941H862.101C862.003 98.7255 860.826 95.1961 858.571 92.353C856.316 89.4118 852.885 87.9412 848.277 87.9412Z" fill="white"/>
<path d="M62.4598 188.235C76.5376 188.235 87.95 176.823 87.95 162.745C87.95 148.667 76.5376 137.255 62.4598 137.255C48.382 137.255 36.9696 148.667 36.9696 162.745C36.9696 176.823 48.382 188.235 62.4598 188.235Z" fill="white"/>
<path opacity="0.5" d="M135.989 188.235C150.067 188.235 161.479 176.823 161.479 162.745C161.479 148.667 150.067 137.255 135.989 137.255C121.911 137.255 110.499 148.667 110.499 162.745C110.499 176.823 121.911 188.235 135.989 188.235Z" fill="white"/>
<path opacity="0.5" d="M172.263 124.51C186.341 124.51 197.754 113.097 197.754 99.0196C197.754 84.9418 186.341 73.5294 172.263 73.5294C158.186 73.5294 146.773 84.9418 146.773 99.0196C146.773 113.097 158.186 124.51 172.263 124.51Z" fill="white"/>
<path fill-rule="evenodd" clip-rule="evenodd" d="M62.489 9.80392C68.4656 9.80392 73.9646 11.8483 78.325 15.2759C83.9992 19.8945 91.2391 22.6634 99.1261 22.6634C107.012 22.6634 114.253 19.8945 119.926 15.2759C124.287 11.8483 129.786 9.80392 135.762 9.80392C149.926 9.80392 161.408 21.2859 161.408 35.4497C161.408 49.6134 149.926 61.0955 135.762 61.0955C129.786 61.0955 124.287 59.0511 119.926 55.6235C114.253 51.0048 107.012 48.236 99.1261 48.236C91.2391 48.236 83.9992 51.0048 78.325 55.6235C73.9646 59.0511 68.4656 61.0955 62.489 61.0955C48.3252 61.0955 36.8432 49.6134 36.8432 35.4497C36.8432 21.2859 48.3252 9.80392 62.489 9.80392Z" fill="white"/>
<path fill-rule="evenodd" clip-rule="evenodd" d="M25.8523 73.552C31.8289 73.552 37.3279 75.5964 41.6883 79.0239C47.3625 83.6427 54.6024 86.4115 62.4891 86.4115C70.3758 86.4115 77.6158 83.6427 83.2899 79.0239C87.6504 75.5964 93.1494 73.552 99.1262 73.552C113.29 73.552 124.771 85.034 124.771 99.198C124.771 113.362 113.29 124.843 99.1262 124.843C93.1494 124.843 87.6504 122.799 83.2899 119.372C77.6158 114.753 70.3758 111.984 62.4891 111.984C54.6024 111.984 47.3625 114.753 41.6883 119.372C37.3279 122.799 31.8289 124.843 25.8523 124.843C11.6885 124.843 0.206543 113.362 0.206543 99.198C0.206543 85.034 11.6885 73.552 25.8523 73.552Z" fill="white"/>
</g>
</g>
<defs>
<clipPath id="clip0_4_98">
<rect width="891.176" height="200" fill="white" transform="translate(0.206543)"/>
</clipPath>
</defs>
</svg>
