<?xml version="1.0" encoding="UTF-8"?>
<svg id="Layer_3" data-name="Layer 3" xmlns="http://www.w3.org/2000/svg" viewBox="0 0 1280 237.1105">
  <defs>
    <style>
      .cls-1 {
        fill: #121619;
      }

      .cls-2 {
        fill: #664fff;
      }
    </style>
  </defs>
  <path class="cls-2" d="M224.9153,75.9572l-39.0881-22.5716c-1.0294-.5944-2.2977-.5945-3.3272-.0001l-48.0015,27.7136V25.6782c0-1.1886-.6341-2.2868-1.6634-2.8812L93.7436.2254c-1.109-.6403-2.4953.16-2.4953,1.4406l-.0002,79.4332-47.9968-27.711c-1.0293-.5943-2.2975-.5943-3.3269,0L.8319,75.9571c-1.109.6403-1.109,2.241,0,2.8812l68.791,39.7166L.8317,158.2717c-1.109.6403-1.109,2.2409,0,2.8812l39.0898,22.5704c1.0294.5944,2.2977.5944,3.3271,0l47.9995-27.7124v55.4286c0,1.1887.6342,2.2871,1.6638,2.8814l39.0916,22.5643c1.109.6401,2.4951-.1602,2.4951-1.4407v-79.4336l47.9991,27.7124c1.0294.5943,2.2977.5943,3.327,0l39.0902-22.5703c1.1089-.6403,1.1089-2.2409,0-2.8812l-68.7911-39.7167,68.7915-39.7167c1.1089-.6402,1.109-2.2408.0001-2.8812ZM134.4985,131.0403l-21.6252,12.4853-21.6252-12.4853v-24.9705l21.6252-12.4853,21.6252,12.4853v24.9705Z"/>
  <g>
    <path class="cls-1" d="M268.9648,76.8167c0-9.6037,0-16.9913-.1848-23.8245h98.9916v24.1932c-12.9279-.1839-30.2888-.1839-49.6802-.1839h-21.2387v33.0585h62.7929v23.6396c-11.2662-.1848-40.0765-.1848-52.8204-.1848h-9.9725v25.1173c0,10.5269,0,17.9128.1848,25.4861h-28.2576c.1848-7.3876.1848-14.9591.1848-25.4861v-81.8155Z"/>
    <path class="cls-1" d="M377.9289,121.5102v-5.9099c0-49.865,16.252-65.1938,65.009-65.1938,48.9418,0,65.0081,15.3288,65.0081,65.1938v5.9099c0,49.6802-16.0663,65.1938-65.0081,65.1938-48.757,0-65.009-15.5136-65.009-65.1938ZM479.3205,119.2941v-1.4777c0-34.5362-7.2028-42.2926-36.3827-42.2926-28.9951,0-36.3827,8.4957-36.3827,42.2926v1.4777c0,34.5362,7.3876,42.4774,36.3827,42.4774,29.1799,0,36.3827-7.9412,36.3827-42.4774Z"/>
    <path class="cls-1" d="M553.0145,118.5548c-13.6663-20.8691-32.3201-48.9409-44.1399-65.5626h34.5362l17.9145,27.7022c4.9858,8.4957,10.3412,17.361,15.5127,26.4102,5.1715-8.4957,10.1573-17.3601,15.1449-26.0406l17.7288-28.0718h33.4291c-12.9288,17.5449-30.6576,44.1399-44.5096,65.009,14.5895,21.4235,33.4273,48.757,46.54,66.117h-34.7201l-17.9145-27.1486c-5.909-9.2341-11.6359-18.8378-17.361-28.2567-5.3554,8.8644-10.8966,18.2833-16.252,27.3334l-17.7288,28.0718h-33.2433c13.1127-17.9145,31.2112-44.5087,45.0632-65.5635Z"/>
    <path class="cls-1" d="M645.1729,121.5102v-5.9099c0-49.865,16.252-65.1938,63.9009-65.1938,48.0186,0,62.9777,10.3421,62.6081,46.356l-27.3325.5536h-.1857c0-16.8056-5.3554-21.7923-34.1666-21.7923s-36.1987,8.4957-36.1987,42.2926v1.4777c0,35.0898,7.3876,43.031,36.0148,43.031,29.9183,0,35.2737-4.0626,35.0898-25.6709v-.1848h-44.8792v-21.4235h72.0278c-.1857,6.0947-.1857,13.1127-.1857,17.7297,0,43.9551-14.4056,53.9285-62.6081,53.9285-47.8328,0-64.0849-15.5136-64.0849-65.1938Z"/>
    <path class="cls-1" d="M790.1536,184.1183c.1839-7.3876.1839-15.3288.1839-25.8557v-81.261c0-9.7885,0-16.9913-.1839-24.0093h28.2558c-.1839,7.018-.1839,14.0359-.1839,23.4548v82.5539h28.4415c12.927,0,23.3057,0,38.0809-.1848v25.3022h-94.5942Z"/>
    <path class="cls-1" d="M892.8783,121.5102v-5.9099c0-49.865,16.252-65.1938,65.0081-65.1938,48.9418,0,65.0099,15.3288,65.0099,65.1938v5.9099c0,49.6802-16.0681,65.1938-65.0099,65.1938-48.7561,0-65.0081-15.5136-65.0081-65.1938ZM994.2709,119.2941v-1.4777c0-34.5362-7.2037-42.2926-36.3845-42.2926-28.9951,0-36.3827,8.4957-36.3827,42.2926v1.4777c0,34.5362,7.3876,42.4774,36.3827,42.4774,29.1808,0,36.3845-7.9412,36.3845-42.4774Z"/>
    <path class="cls-1" d="M1071.8398,184.1183c-9.2341-27.887-36.5666-106.0087-45.9864-131.126h31.0272l19.5771,60.7616c4.8019,15.8824,9.9734,32.1344,14.0359,45.2471h8.4948c4.0643-13.2966,9.2358-29.5495,14.4056-45.6167l19.9467-60.3919h29.7344c-9.4198,25.1173-37.4916,103.239-47.0953,131.126h-44.1399Z"/>
    <path class="cls-1" d="M1176.0217,76.8167c0-9.6037,0-16.9913-.1839-23.8245h100.8372v23.8245c-12.927-.1848-42.2935-.1848-60.5759-.1848h-12.1895v29.3647h65.0081v22.9012c-10.3412-.1848-36.013-.1848-50.7882-.1848h-14.2198v31.7656h13.1127c19.2074,0,48.2025,0,62.9777-.1848v23.8245h-104.1622c.1839-7.2019.1839-14.9591.1839-25.4861v-81.8155Z"/>
  </g>
</svg>