<svg width="892" height="200" viewBox="0 0 892 200" fill="none" xmlns="http://www.w3.org/2000/svg">
<g clip-path="url(#clip0_4_87)">
<mask id="mask0_4_87" style="mask-type:luminance" maskUnits="userSpaceOnUse" x="0" y="0" width="892" height="200">
<path d="M891.206 0H0.0300293V200H891.206V0Z" fill="white"/>
</mask>
<g mask="url(#mask0_4_87)">
<path d="M307.53 90.7353H289.295V152.941H264.589V90.7353H253.118V78.6765L264.883 72.353V68.5294C264.883 58.1373 267.236 50.8824 271.942 46.7647C276.648 42.549 283.608 40.4412 292.824 40.4412C297.04 40.4412 300.863 40.7843 304.295 41.4706C307.824 42.1569 311.059 42.9902 314.001 43.9706L308.118 61.0294C306.648 60.6373 304.981 60.2451 303.118 59.853C301.256 59.4608 299.197 59.2647 296.942 59.2647C294.295 59.2647 292.334 60.0981 291.059 61.7647C289.883 63.3333 289.295 65.5883 289.295 68.5294V72.2059H307.53V90.7353ZM394.503 112.353C394.503 125.882 390.924 136.275 383.767 143.529C376.708 150.784 367.003 154.412 354.65 154.412C347.003 154.412 340.189 152.794 334.208 149.559C328.326 146.226 323.669 141.471 320.238 135.294C316.905 129.02 315.238 121.373 315.238 112.353C315.238 99.0196 318.767 88.7745 325.826 81.6177C332.983 74.3628 342.738 70.7353 355.091 70.7353C362.738 70.7353 369.503 72.353 375.385 75.5882C381.365 78.8235 386.022 83.5294 389.356 89.7059C392.787 95.8824 394.503 103.431 394.503 112.353ZM340.385 112.353C340.385 119.902 341.512 125.637 343.767 129.559C346.022 133.382 349.748 135.294 354.944 135.294C360.042 135.294 363.718 133.382 365.973 129.559C368.228 125.637 369.356 119.902 369.356 112.353C369.356 104.902 368.228 99.3137 365.973 95.5882C363.718 91.7647 359.993 89.853 354.797 89.853C349.699 89.853 346.022 91.7647 343.767 95.5882C341.512 99.3137 340.385 104.902 340.385 112.353ZM425.594 111.765L400.153 72.2059H428.241L442.358 96.4706L456.623 72.2059H484.711L458.976 111.765L485.888 152.941H457.8L442.358 126.765L426.917 152.941H398.829L425.594 111.765ZM523.177 70.7353C528.471 70.7353 532.981 71.7647 536.707 73.8235C540.432 75.8824 543.52 78.7255 545.971 82.353H546.559L548.471 72.2059H569.648V153.088C569.648 164.559 566.167 173.284 559.207 179.265C552.344 185.245 541.952 188.235 528.03 188.235C521.952 188.235 516.461 187.892 511.559 187.206C506.658 186.52 501.854 185.294 497.148 183.529V163.382C502.148 165.441 507.05 166.961 511.854 167.941C516.658 169.02 522.05 169.559 528.03 169.559C539.305 169.559 544.942 164.412 544.942 154.118V152.5C544.942 151.127 544.991 149.559 545.089 147.794C545.285 145.931 545.481 144.167 545.677 142.5H544.942C542.589 146.324 539.55 149.265 535.824 151.324C532.197 153.382 527.834 154.412 522.736 154.412C513.618 154.412 506.363 150.784 500.971 143.529C495.677 136.275 493.03 125.98 493.03 112.647C493.03 99.2157 495.726 88.8726 501.118 81.6177C506.608 74.3628 513.961 70.7353 523.177 70.7353ZM531.854 90.2941C522.736 90.2941 518.177 97.8922 518.177 113.088C518.177 120.637 519.305 126.226 521.559 129.853C523.912 133.382 527.442 135.147 532.148 135.147C537.344 135.147 541.069 133.627 543.324 130.588C545.579 127.549 546.707 122.549 546.707 115.588V112.5C546.707 104.951 545.579 99.3628 543.324 95.7353C541.167 92.1079 537.344 90.2941 531.854 90.2941ZM615.779 152.941H590.926V41.1765H615.779V152.941ZM712.173 112.353C712.173 125.882 708.595 136.275 701.438 143.529C694.379 150.784 684.673 154.412 672.32 154.412C664.673 154.412 657.859 152.794 651.879 149.559C645.997 146.226 641.34 141.471 637.908 135.294C634.575 129.02 632.909 121.373 632.909 112.353C632.909 99.0196 636.438 88.7745 643.497 81.6177C650.654 74.3628 660.408 70.7353 672.761 70.7353C680.408 70.7353 687.173 72.353 693.056 75.5882C699.036 78.8235 703.693 83.5294 707.026 89.7059C710.457 95.8824 712.173 103.431 712.173 112.353ZM658.056 112.353C658.056 119.902 659.183 125.637 661.438 129.559C663.693 133.382 667.418 135.294 672.614 135.294C677.712 135.294 681.389 133.382 683.644 129.559C685.899 125.637 687.026 119.902 687.026 112.353C687.026 104.902 685.899 99.3137 683.644 95.5882C681.389 91.7647 677.663 89.853 672.467 89.853C667.369 89.853 663.693 91.7647 661.438 95.5882C659.183 99.3137 658.056 104.902 658.056 112.353ZM746.5 152.941L715.764 72.2059H741.647L756.353 118.971C756.843 120.637 757.284 122.696 757.676 125.147C758.166 127.5 758.46 129.657 758.558 131.618H759.147C759.245 129.559 759.49 127.402 759.882 125.147C760.372 122.892 760.911 120.882 761.5 119.118L776.5 72.2059H802.235L771.5 152.941H746.5ZM847.659 70.7353C859.032 70.7353 868.052 73.8726 874.718 80.1471C881.385 86.3235 884.718 95.4412 884.718 107.5V118.971H833.689C833.885 124.265 835.601 128.48 838.836 131.618C842.071 134.755 846.679 136.324 852.659 136.324C857.758 136.324 862.414 135.833 866.63 134.853C870.944 133.873 875.356 132.304 879.865 130.147V148.529C875.846 150.588 871.581 152.059 867.071 152.941C862.66 153.922 857.169 154.412 850.601 154.412C842.463 154.412 835.209 152.941 828.836 150C822.561 147.059 817.61 142.549 813.983 136.471C810.454 130.294 808.689 122.5 808.689 113.088C808.689 103.578 810.306 95.6863 813.542 89.4118C816.777 83.1373 821.287 78.4804 827.071 75.4412C832.954 72.3039 839.816 70.7353 847.659 70.7353ZM848.101 87.9412C844.277 87.9412 841.091 89.1667 838.542 91.6177C836.091 93.9706 834.62 97.7451 834.13 102.941H861.924C861.826 98.7255 860.65 95.1961 858.395 92.353C856.14 89.4118 852.708 87.9412 848.101 87.9412Z" fill="#6F3BE8"/>
<path d="M62.2832 188.235C76.361 188.235 87.7734 176.823 87.7734 162.745C87.7734 148.667 76.361 137.255 62.2832 137.255C48.2053 137.255 36.793 148.667 36.793 162.745C36.793 176.823 48.2053 188.235 62.2832 188.235Z" fill="#6F3BE8"/>
<path opacity="0.5" d="M135.812 188.235C149.89 188.235 161.303 176.823 161.303 162.745C161.303 148.667 149.89 137.255 135.812 137.255C121.734 137.255 110.322 148.667 110.322 162.745C110.322 176.823 121.734 188.235 135.812 188.235Z" fill="#6F3BE8"/>
<path opacity="0.5" d="M172.087 124.51C186.165 124.51 197.577 113.097 197.577 99.0196C197.577 84.9418 186.165 73.5294 172.087 73.5294C158.009 73.5294 146.597 84.9418 146.597 99.0196C146.597 113.097 158.009 124.51 172.087 124.51Z" fill="#6F3BE8"/>
<path fill-rule="evenodd" clip-rule="evenodd" d="M62.3125 9.80392C68.2891 9.80392 73.7881 11.8483 78.1485 15.2759C83.8227 19.8945 91.0626 22.6634 98.9497 22.6634C106.836 22.6634 114.076 19.8945 119.75 15.2759C124.11 11.8483 129.609 9.80392 135.586 9.80392C149.75 9.80392 161.232 21.2859 161.232 35.4497C161.232 49.6134 149.75 61.0955 135.586 61.0955C129.609 61.0955 124.11 59.0511 119.75 55.6235C114.076 51.0048 106.836 48.236 98.9497 48.236C91.0626 48.236 83.8227 51.0048 78.1485 55.6235C73.7881 59.0511 68.2891 61.0955 62.3125 61.0955C48.1487 61.0955 36.6667 49.6134 36.6667 35.4497C36.6667 21.2859 48.1487 9.80392 62.3125 9.80392Z" fill="#6F3BE8"/>
<path fill-rule="evenodd" clip-rule="evenodd" d="M25.6758 73.552C31.6524 73.552 37.1514 75.5964 41.5118 79.0239C47.186 83.6427 54.4259 86.4115 62.3126 86.4115C70.1992 86.4115 77.4392 83.6427 83.1134 79.0239C87.4739 75.5964 92.9729 73.552 98.9496 73.552C113.113 73.552 124.595 85.034 124.595 99.198C124.595 113.362 113.113 124.843 98.9496 124.843C92.9729 124.843 87.4739 122.799 83.1134 119.372C77.4392 114.753 70.1992 111.984 62.3126 111.984C54.4259 111.984 47.186 114.753 41.5118 119.372C37.1514 122.799 31.6524 124.843 25.6758 124.843C11.512 124.843 0.0300293 113.362 0.0300293 99.198C0.0300293 85.034 11.512 73.552 25.6758 73.552Z" fill="#6F3BE8"/>
</g>
</g>
<defs>
<clipPath id="clip0_4_87">
<rect width="891.176" height="200" fill="white" transform="translate(0.0300293)"/>
</clipPath>
</defs>
</svg>
