<svg width="727" height="200" viewBox="0 0 727 200" fill="none" xmlns="http://www.w3.org/2000/svg">
<g clip-path="url(#clip0_5_282)">
<path d="M264.654 1.73399C264.246 2.79555 263.266 5.73524 262.449 8.26665C261.633 10.9614 260.49 13.1661 259.755 13.3295C259.02 13.4928 255.835 14.3093 252.569 15.1259L246.689 16.5958L241.3 11.9413C238.279 9.3282 235.584 7.45006 235.339 7.61337C216.639 17.8206 216.231 18.1473 216.721 19.8621C216.884 20.7603 217.537 23.8634 218.109 26.7214L219.089 31.8659L214.026 36.847L209.045 41.8282L202.757 40.7666C199.328 40.2766 196.061 39.6234 195.653 39.4601C195.163 39.2968 192.142 43.4613 188.957 48.7691L183.159 58.4048L187.977 63.6309C190.999 67.0605 192.55 69.347 192.223 70.1635C191.978 70.8168 191.08 73.9198 190.345 77.1045L188.875 82.8206L181.771 85.2703L174.749 87.72V98.7439V109.849L181.526 112.054L188.222 114.259L190.019 121.363L191.733 128.549L186.997 133.939L182.261 139.246L187.487 148.637C190.345 153.782 193.122 158.109 193.53 158.191C194.02 158.354 197.205 157.864 200.553 157.129L206.759 155.741L211.985 160.967L217.211 166.194L215.904 173.298C215.169 177.299 214.679 180.565 214.843 180.729C215.006 180.81 219.334 183.423 224.397 186.445L233.542 191.916L238.85 187.098L244.158 182.199L251.262 184.485L258.367 186.69L260.49 193.141L262.694 199.592H273.963H285.232L287.273 193.467C288.417 190.119 289.397 187.261 289.478 187.098C289.56 187.016 292.826 186.118 296.664 185.138L303.687 183.423L309.076 188.078C312.098 190.609 314.792 192.487 315.037 192.324C333.655 182.117 333.982 181.872 333.574 180.157C333.329 179.177 332.675 176.074 332.104 173.298L330.961 168.235L336.105 163.172L341.25 158.109L347.537 159.171C351.049 159.661 354.315 160.314 354.723 160.477C355.213 160.641 358.234 156.476 361.419 151.087L367.298 141.369L364.032 138.266C362.236 136.47 360.113 134.102 359.214 132.877C357.663 130.754 357.663 130.672 359.541 123.895L361.501 117.117L368.605 114.667L375.628 112.217V101.112V90.0065L368.85 87.8834L362.154 85.6786L360.358 78.5743L358.643 71.3884L363.379 65.999L368.115 60.6912L362.889 51.3005C360.031 46.156 357.255 41.8282 356.846 41.7465C356.356 41.5832 353.172 42.0731 349.742 42.808L343.618 44.1962L338.392 38.9701L333.165 33.744L334.472 26.5581C335.207 22.6385 335.697 19.3722 335.533 19.2088C335.37 19.1272 331.042 16.5141 325.979 13.4928L316.834 8.02167L311.526 12.8395L306.218 17.6573L299.522 15.6975C295.848 14.636 292.663 13.5744 292.418 13.3295C292.173 13.0845 290.948 10.0631 289.805 6.63348L287.682 0.345795L276.576 0.10083C265.552 -0.14415 265.389 -0.0624847 264.654 1.73399ZM290.948 17.6573C303.034 19.9438 312.424 23.8634 322.958 30.9676C329.164 35.1322 339.535 45.0945 342.719 49.8307C344.679 52.852 347.129 53.8319 352.927 53.8319C356.111 53.8319 356.275 54.8118 353.825 59.548L351.62 63.7942L353.988 70.8168C359.133 86.8218 360.276 97.9273 358.153 112.381C355.458 130.427 347.456 146.269 334.309 159.498C308.75 185.138 269.554 191.181 236.564 174.604C222.029 167.255 207.657 152.883 200.308 138.511C188.385 114.912 188.14 85.9236 199.736 62.7327C209.78 42.5631 228.235 26.8031 249.466 20.1071C264.083 15.5342 276.331 14.7993 290.948 17.6573Z" fill="#515151"/>
<path d="M270.697 19.3721C250.609 20.7603 231.909 29.1711 218.354 42.808C205.86 55.3834 198.266 70.0819 195.49 87.2301C189.773 122.016 208.473 157.701 240.32 172.645C276.331 189.629 319.202 178.279 341.576 145.861C347.782 136.797 351.293 128.549 354.478 115.076C357.091 104.46 355.458 84.2904 351.293 73.1849L349.823 69.3469L346.394 78.3293C339.29 96.6208 330.797 104.705 317.324 105.93C313.894 106.175 310.954 107.073 308.015 108.788L303.687 111.238L306.218 112.707L308.668 114.259L318.467 109.359C323.856 106.665 328.511 104.46 328.919 104.46C329.572 104.46 332.675 110.176 332.185 110.584C332.022 110.748 328.511 112.544 324.346 114.586C320.182 116.709 316.997 118.668 317.16 119.077C317.405 119.485 318.63 120.22 319.937 120.71C321.978 121.527 322.958 121.363 327.939 119.077C337.575 114.749 337.085 114.831 338.473 117.525C340.433 121.282 340.025 122.016 334.635 124.221L329.572 126.263L336.268 130.182C339.943 132.224 342.964 134.429 342.964 134.918C342.964 135.49 342.229 137.123 341.331 138.593L339.698 141.288L334.962 138.675C332.43 137.205 329.572 135.572 328.674 134.918C327.776 134.347 326.796 133.857 326.551 133.857C326.224 133.857 326.061 136.307 326.061 139.41L326.224 144.881L322.876 145.126L319.528 145.371L318.957 138.593C318.14 129.366 317.977 128.712 315.037 127.079L312.506 125.609L312.996 134.673L313.486 143.656H309.974C306.545 143.656 306.381 143.574 305.891 140.553C305.646 138.92 305.401 135.653 305.401 133.449C305.401 131.162 305.156 127.406 304.83 125.038C304.422 121.363 304.013 120.547 302.053 119.485L299.685 118.26V127.488C299.685 141.043 298.869 141.614 287.437 135.082C283.027 132.632 279.189 130.591 278.944 130.591C278.699 130.591 278.454 131.652 278.454 132.959C278.454 135.082 279.434 135.98 288.09 141.614C293.316 145.126 297.726 148.065 297.889 148.147C298.379 148.555 294.459 154.271 293.724 154.271C293.398 154.271 290.376 152.393 287.028 150.189C278.699 144.554 278.454 144.554 278.454 147.82C278.536 150.352 279.108 151.087 284.66 155.088C292.826 161.049 292.826 161.049 290.621 163.989C289.56 165.377 288.417 166.52 288.09 166.52C287.682 166.52 285.395 165.05 282.945 163.254L278.454 159.906V168.153V176.319H274.78H271.105V168.562C271.105 164.315 270.86 160.804 270.615 160.804C270.288 160.804 268.329 162.111 266.124 163.744C261.878 166.847 261.388 166.847 258.938 163.335L257.305 161.049L264.246 155.986C270.533 151.332 271.105 150.597 271.105 148.065C271.105 146.514 270.942 145.289 270.697 145.289C270.452 145.289 267.104 147.33 263.184 149.862L256.08 154.435L254.202 152.148C253.14 150.842 252.324 149.372 252.324 148.882C252.324 148.392 256.57 145.289 261.714 141.941C270.533 136.307 271.105 135.735 271.105 133.285C271.105 131.815 270.86 130.591 270.533 130.591C270.288 130.591 267.267 132.224 263.837 134.184C255.427 139.165 253.712 139.736 251.834 138.348C250.527 137.45 250.282 135.898 250.037 127.814L249.711 118.342L247.342 119.567C245.219 120.71 244.974 121.282 244.974 124.793C244.974 126.916 244.729 132.06 244.484 136.143L243.913 143.656H240.238H236.564L237.054 134.673C237.38 129.692 237.299 125.691 236.89 125.691C236.482 125.691 235.257 126.426 234.196 127.324C232.399 128.712 231.991 129.856 231.501 135.245C230.684 144.717 230.439 145.289 227.826 145.289C223.172 145.289 222.845 144.799 223.417 139.083C223.743 136.143 223.662 133.857 223.253 133.857C222.845 133.857 219.742 135.49 216.394 137.45L210.27 141.043L208.473 138.021C207.493 136.388 206.595 134.837 206.595 134.592C206.595 134.347 209.535 132.55 213.128 130.509C216.721 128.549 219.66 126.671 219.66 126.426C219.66 126.181 217.619 125.119 215.169 124.14C212.719 123.078 210.515 121.935 210.27 121.527C209.698 120.628 211.984 115.076 212.964 115.076C213.373 115.076 217.047 116.545 221.13 118.342L228.561 121.608L231.011 120.138L233.461 118.668L225.703 114.831C221.457 112.707 218.027 110.584 218.027 110.176C218.027 108.706 220.477 104.46 221.294 104.46C221.783 104.46 226.438 106.665 231.746 109.278C241.055 113.932 241.381 114.014 243.75 112.871C246.036 111.646 246.036 111.564 244.484 110.421C243.668 109.768 240.32 107.808 237.135 106.011C226.601 100.214 226.683 98.5806 237.788 92.2112C242.198 89.7615 245.791 87.4751 245.791 87.2301C245.791 86.9035 244.648 86.2502 243.26 85.5969C240.81 84.617 240.157 84.862 230.684 89.5982L220.722 94.4977L219.334 91.7213C218.599 90.1698 218.027 88.6183 218.027 88.2916C218.027 87.965 221.375 86.0052 225.376 84.0454C229.459 82.0856 232.726 80.2075 232.726 79.9625C232.726 79.7175 231.664 78.901 230.439 78.166C228.234 76.8595 227.989 76.9412 220.967 80.0442C216.966 81.759 213.536 83.2288 213.209 83.2288C212.719 83.2288 209.861 78.0844 209.861 77.1861C209.861 77.0228 212.229 75.8796 215.088 74.5731L220.395 72.2866L214.108 68.6937C210.678 66.7339 207.493 64.8558 207.085 64.4475C206.268 63.6309 209.535 57.9148 210.841 57.9148C211.331 57.9148 213.781 59.1397 216.312 60.6912C224.968 65.8356 224.315 65.9173 223.58 59.7929C223.253 56.7716 223.09 54.2402 223.172 54.1585C223.335 53.9952 224.886 53.6686 226.765 53.3419C230.031 52.852 230.031 52.852 230.521 55.5467C230.766 57.0982 231.256 60.9362 231.582 64.1208C232.154 70.2452 231.991 70.0002 237.054 72.45C237.38 72.6133 237.38 68.6937 237.135 63.7125L236.564 54.6485H240.238H243.913L244.484 62.161C244.729 66.2439 244.974 71.3884 244.974 73.5115C244.974 77.1045 245.219 77.5944 247.424 78.7376C248.731 79.3909 249.956 79.9625 250.282 79.9625C250.527 79.9625 250.69 75.553 250.69 70.2452C250.69 62.161 250.935 60.4462 251.997 60.0379C254.447 59.1397 255.835 59.548 262.939 63.6309C266.859 65.8356 270.288 67.7138 270.615 67.7138C270.86 67.7138 271.105 66.5706 271.105 65.264C271.105 62.9776 270.288 62.2427 261.714 56.6899C256.57 53.3419 252.324 50.3206 252.324 50.0756C252.324 49.3407 255.672 44.0329 256.08 44.0329C256.325 44.0329 259.755 46.2377 263.756 48.9324L271.105 53.9136V50.7289C271.105 47.7892 270.778 47.3809 264.164 42.5631L257.141 37.5003L259.346 34.6422C260.489 33.0907 261.714 31.7842 261.959 31.7842C262.204 31.7842 264.327 33.254 266.695 35.0505L271.023 38.3168L271.268 30.396L271.513 22.3935H275.188H278.863L279.108 30.396L279.352 38.3168L283.68 35.0505C286.048 33.254 288.172 31.7842 288.498 31.7842C289.478 31.7842 292.499 37.6636 291.846 38.2352C291.438 38.6435 288.417 40.8483 285.232 43.1347C279.597 47.2176 279.271 47.6259 279.271 50.6472V53.9136L286.702 48.8508C290.785 46.156 294.214 44.0329 294.296 44.1962C297.072 48.0342 298.052 49.9123 297.644 50.5656C297.399 50.9739 298.95 50.4839 301.074 49.504C306.626 46.9726 321.406 46.9726 331.859 49.5857C335.86 50.5656 339.29 51.2188 339.453 51.0555C340.106 50.4023 327.857 38.6435 322.55 34.7239C308.259 24.19 287.927 18.1473 270.697 19.3721Z" fill="#515151"/>
<path d="M305.401 50.4839C301.237 51.7904 296.582 54.6484 294.378 57.2615C290.295 62.161 289.07 66.1623 289.07 75.3896C289.07 81.6773 288.743 84.1271 287.763 85.5152C285.967 88.1283 286.538 88.3733 289.723 86.3318L292.336 84.6987V73.7565V62.8143H296.011H299.685V71.3884C299.685 76.1246 299.849 79.9625 300.094 79.9625C300.257 79.9625 301.319 79.5542 302.38 79.0642C304.585 78.0843 305.401 74.3281 305.401 65.264C305.401 62.8143 305.646 59.3846 305.973 57.6698C306.463 54.6484 306.463 54.5668 309.811 54.8118L313.159 55.0567L312.832 63.7942C312.669 69.3469 312.914 72.6132 313.404 72.6132C313.812 72.6132 315.037 71.96 316.017 71.1434C317.65 69.8369 317.977 68.367 318.712 61.2628L319.61 52.852L323.285 53.3419C325.244 53.5869 326.959 53.9135 327.041 54.0768C327.204 54.1585 326.959 56.6082 326.551 59.5479C326.224 62.4876 326.061 64.9374 326.143 65.019C326.224 65.1007 329.164 63.5492 332.675 61.5894C336.187 59.5479 339.29 57.9148 339.616 57.9148C339.861 57.9148 340.923 59.303 341.903 61.0994L343.699 64.2025L337.575 67.7138C334.227 69.5919 331.369 71.47 331.124 71.7967C330.879 72.1233 332.92 73.3482 335.615 74.4914L340.433 76.6145L339.126 79.8808C338.391 81.759 337.493 83.2288 337.003 83.2288C336.595 83.2288 333.002 81.759 328.919 79.9625L321.651 76.7778L319.12 78.3293L316.589 79.7992L324.264 83.6371C328.511 85.7602 332.022 87.6384 332.185 87.72C332.349 87.8833 331.695 89.4348 330.797 91.313L329.082 94.661L319.12 89.6798C310.954 85.5969 308.749 84.7803 307.116 85.3519C303.768 86.5768 304.34 87.5567 310.138 90.7414C318.875 95.5592 318.875 95.5592 317.324 98.5805C316.589 99.9687 315.69 101.275 315.2 101.602C314.792 101.847 310.301 99.7238 305.238 96.7841L296.011 91.4763L293.153 93.1911C288.825 95.8042 288.825 95.8858 292.744 95.6409C295.602 95.3959 297.236 95.8042 300.257 97.6007C308.504 102.418 310.464 103.072 316.589 102.99C321.488 102.99 323.285 102.5 326.714 100.704C334.717 96.2941 339.453 89.1082 345.904 71.5517C347.864 66.3256 350.068 60.8545 350.803 59.4663C351.457 58.0781 351.947 56.8532 351.783 56.7716C351.62 56.6899 347.292 55.7917 342.148 54.7301C337.003 53.6685 329.654 52.117 325.816 51.3005C318.712 49.749 309.076 49.4223 305.401 50.4839Z" fill="#515151"/>
<path d="M286.457 57.7514C279.924 61.9977 279.353 62.6509 279.271 65.019C279.271 66.4889 279.598 67.7137 279.924 67.7137C281.231 67.7137 288.253 62.8143 288.253 61.916C288.253 61.4261 289.56 59.1396 291.111 57.0165C292.663 54.8118 293.888 53.0153 293.724 53.0969C293.643 53.0969 290.377 55.22 286.457 57.7514Z" fill="#515151"/>
<path d="M258.04 77.5127V84.7803L264.001 88.21C267.186 90.0881 270.125 91.8029 270.533 91.9662C270.86 92.1296 271.105 88.8632 271.105 84.6987V77.1045L264.981 73.5931C261.633 71.715 258.693 70.1635 258.448 70.1635C258.203 70.1635 258.04 73.4298 258.04 77.5127Z" fill="#515151"/>
<path d="M282.374 75.1447L279.271 76.6962V83.2288C279.271 86.8218 279.598 89.7615 279.924 89.7615C281.067 89.7615 284.824 85.3519 285.722 82.9838C286.784 80.3708 286.947 73.4298 286.049 73.4298C285.64 73.5115 284.007 74.2464 282.374 75.1447Z" fill="#515151"/>
<path d="M247.588 95.0692C244.24 97.029 241.381 98.7439 241.218 98.9888C240.973 99.2338 243.75 101.112 247.343 103.153L253.957 106.91L260.49 103.153L267.022 99.3155L264.817 97.9273C263.511 97.1923 260.49 95.4775 258.04 94.0893L253.549 91.5579L247.588 95.0692Z" fill="#515151"/>
<path d="M288.09 98.9072C286.784 99.3155 285.804 99.9687 285.804 100.377C285.804 100.785 288.172 102.418 291.111 104.052L296.419 106.991L299.686 105.113C301.482 104.052 302.952 102.99 302.952 102.663C302.952 101.684 294.459 97.9273 292.418 98.0089C291.193 98.0089 289.315 98.4172 288.09 98.9072Z" fill="#515151"/>
<path d="M264.409 109.849L258.04 113.524V121.282V129.121L260.735 127.488C262.123 126.589 265.062 124.875 267.267 123.65L271.105 121.445V113.769C271.105 109.523 271.023 106.093 270.942 106.093C270.778 106.093 267.839 107.808 264.409 109.849Z" fill="#515151"/>
<path d="M278.454 113.606C278.454 121.037 278.536 121.2 280.741 122.425C281.966 123.16 285.069 124.956 287.682 126.426L292.336 129.039V121.445V113.769L289.723 112.381C288.253 111.646 285.069 109.931 282.782 108.543L278.454 105.93V113.606Z" fill="#515151"/>
<path d="M405.841 0.754059L389.101 1.16235V97.1107V193.059L394.735 193.304C399.308 193.467 400.452 193.304 401.431 192.079C402.493 190.691 402.493 190.691 402.575 191.997C402.575 193.304 403.636 193.467 413.68 193.467C423.398 193.467 425.031 193.304 425.929 191.997C426.99 190.691 426.99 190.691 427.072 192.079C427.072 193.304 427.644 193.549 429.767 193.304L432.38 193.059L432.543 97.274C432.707 21.9852 432.543 1.40733 431.727 1.16235C429.522 0.509094 421.764 0.345779 405.841 0.754059ZM430.747 59.5479C430.502 59.9562 429.93 60.3645 429.44 60.3645C429.032 60.3645 428.705 59.9562 428.705 59.5479C428.705 59.058 429.277 58.7314 430.012 58.7314C430.665 58.7314 430.992 59.058 430.747 59.5479ZM430.338 78.5743C430.338 79.2276 429.359 80.1258 428.134 80.6974C426.174 81.514 426.011 81.514 427.317 80.5341C428.052 79.8808 428.705 78.9826 428.705 78.411C428.705 77.921 429.114 77.5127 429.522 77.5127C430.012 77.5127 430.338 78.0027 430.338 78.5743ZM425.847 82.4122C426.092 82.8205 425.929 83.2288 425.521 83.2288C425.031 83.2288 424.622 82.8205 424.622 82.4122C424.622 81.9223 424.786 81.5957 424.949 81.5957C425.194 81.5957 425.602 81.9223 425.847 82.4122ZM415.885 107.563C415.558 108.788 414.823 109.359 413.435 109.359H411.475L413.762 107.4C416.375 105.113 416.538 105.113 415.885 107.563ZM429.93 106.093C429.685 106.501 428.869 106.91 428.215 106.91C427.562 106.91 427.072 106.501 427.072 106.093C427.072 105.603 427.807 105.277 428.787 105.277C429.685 105.277 430.175 105.603 429.93 106.093ZM422.173 112.217C422.173 112.871 421.438 113.442 420.539 113.442C418.906 113.442 418.416 112.544 419.478 111.564C420.458 110.503 422.173 110.993 422.173 112.217ZM427.889 143.166C427.889 143.819 427.562 144.636 427.072 144.881C426.664 145.126 426.256 144.636 426.256 143.738C426.256 142.758 426.664 142.023 427.072 142.023C427.562 142.023 427.889 142.513 427.889 143.166ZM423.887 148.31C422.418 148.964 421.029 149.29 420.784 149.045C420.213 148.474 424.949 146.351 425.847 146.841C426.256 147.004 425.357 147.739 423.887 148.31ZM415.64 166.602C415.64 168.562 413.762 168.317 413.354 166.275C413.19 165.459 413.599 164.887 414.333 164.887C415.15 164.887 415.64 165.622 415.64 166.602ZM418.498 168.97C418.743 169.378 418.661 169.786 418.171 169.786C417.763 169.786 417.11 169.378 416.865 168.97C416.62 168.48 416.702 168.153 417.191 168.153C417.6 168.153 418.253 168.48 418.498 168.97ZM396.859 175.503C396.859 175.911 396.532 176.319 396.042 176.319C395.634 176.319 395.225 175.911 395.225 175.503C395.225 175.013 395.634 174.686 396.042 174.686C396.532 174.686 396.859 175.013 396.859 175.503ZM411.23 179.177C409.434 180.484 407.474 180.81 407.474 179.749C407.474 178.524 408.536 177.952 410.659 177.952C412.7 178.034 412.7 178.034 411.23 179.177ZM400.697 184.158C400.452 184.403 399.717 184.485 399.145 184.24C398.492 183.995 398.737 183.75 399.635 183.75C400.533 183.668 401.023 183.913 400.697 184.158ZM420.131 185.302C420.376 185.71 420.213 186.118 419.805 186.118C419.315 186.118 418.906 185.71 418.906 185.302C418.906 184.812 419.07 184.485 419.233 184.485C419.478 184.485 419.886 184.812 420.131 185.302ZM396.859 186.118C396.859 186.526 396.532 186.935 396.042 186.935C395.634 186.935 395.225 186.526 395.225 186.118C395.225 185.628 395.634 185.302 396.042 185.302C396.532 185.302 396.859 185.628 396.859 186.118ZM418.09 186.853C418.09 187.343 417.763 187.915 417.273 188.16C416.865 188.405 416.457 188.078 416.457 187.425C416.457 186.69 416.865 186.118 417.273 186.118C417.763 186.118 418.09 186.445 418.09 186.853Z" fill="#515151"/>
<path d="M439.974 1.24403C438.831 2.30559 439.157 34.5606 440.301 35.7038C441.036 36.4387 446.18 36.6837 458.347 36.6837C467.656 36.6837 476.884 37.0103 478.762 37.4186C480.64 37.9086 483.58 38.4801 485.294 38.7251C489.704 39.4601 494.358 43.8696 496.563 49.5857C498.931 55.4651 499.095 67.2238 496.971 71.96C495.175 76.1246 490.765 80.3708 486.193 82.3306C478.19 85.9235 473.699 86.6585 457.286 87.0668C448.385 87.3117 440.872 87.8833 440.382 88.2916C439.647 88.8632 439.321 91.8029 439.321 97.6007V106.093H441.607H443.812L441.771 107.155C439.892 108.135 439.729 108.706 439.484 114.586C439.321 118.342 439.647 121.363 440.137 122.016C440.791 122.833 442.669 122.996 447.323 122.67C452.468 122.261 453.938 121.853 455.571 120.302C457.612 118.26 458.919 117.77 458.919 119.158C458.919 119.567 458.592 119.975 458.102 119.975C457.694 119.975 457.286 120.465 457.286 121.118C457.286 121.935 459.409 122.343 465.696 122.67C475.414 123.241 479.007 124.221 483.008 127.488C488.234 131.897 489.786 135.653 492.399 151.087C493.787 158.926 495.42 167.337 496.155 169.786C496.808 172.236 497.461 175.339 497.625 176.727C497.87 179.585 500.809 187.016 503.177 190.773C504.729 193.386 504.892 193.467 510.772 193.467C516.079 193.467 516.814 193.304 517.304 191.834C517.713 190.528 518.529 190.201 521.061 190.201C524.164 190.201 524.245 190.119 524.245 187.261C524.245 184.812 524.572 184.24 526.94 183.342C528.328 182.77 530.615 182.035 531.839 181.709C533.881 181.219 534.126 181.382 533.881 183.015C533.718 184.485 533.064 184.975 530.778 185.138C526.94 185.547 525.878 186.608 526.45 189.466C526.858 191.671 526.695 191.834 524.327 191.834C522.775 191.834 521.877 192.161 522.204 192.651C522.449 193.059 525.225 193.467 528.328 193.467H533.963L534.616 190.038C535.024 188.16 535.841 186.445 536.412 186.281C537.556 185.873 537.392 187.261 536.004 192.079C535.596 193.386 536.086 193.549 541.475 193.304C549.069 192.977 550.049 191.834 546.783 186.935C544.905 184.077 544.252 183.587 542.537 183.995C540.25 184.567 539.924 183.26 541.802 181.219C544.088 178.687 540.577 170.603 537.147 170.603C535.106 170.603 535.269 169.378 537.637 168.317L539.597 167.418L538.454 161.621C535.677 146.759 535.432 146.024 534.616 146.841C534.126 147.33 532.738 147.739 531.513 147.739C529.716 147.739 529.39 147.412 529.716 146.187C529.961 145.207 529.471 144.227 528.247 143.329C526.45 142.104 526.45 142.023 527.92 140.308C529.063 139.083 530.125 138.756 531.758 139.083C534.453 139.573 534.534 139.165 533.146 131.734C532.084 125.773 531.35 124.874 527.757 124.874C525.878 124.874 525.062 124.548 525.307 123.813C525.47 123.323 526.368 122.915 527.185 122.996C530.86 123.405 531.023 122.588 528.328 117.689C523.102 108.461 517.468 103.072 511.098 101.357L508.322 100.622L511.833 99.5605C513.793 98.9072 515.671 97.764 516.161 97.0291C516.569 96.2125 517.468 95.7225 518.121 95.9675C519.672 96.6208 525.715 92.2929 530.288 87.2301C537.719 78.9826 541.393 67.8771 541.393 53.4236C541.393 43.7063 539.842 35.7854 536.657 28.9261C533.799 22.8834 524.98 13.0845 521.714 12.4312C520.489 12.1862 518.774 11.043 517.876 9.81815C515.671 6.79678 511.67 5.00031 502.688 3.04051C496.318 1.65233 491.337 1.32568 467.901 0.999054C452.876 0.754089 440.301 0.835739 439.974 1.24403ZM507.995 76.1246C507.342 76.7778 507.097 76.4512 507.097 74.9814C507.097 72.2866 508.24 71.1434 508.567 73.4298C508.73 74.4097 508.485 75.6346 507.995 76.1246ZM500.564 82.4122C500.564 82.8205 499.666 83.2288 498.523 83.2288C497.38 83.2288 496.482 82.8205 496.482 82.4122C496.482 81.9223 497.38 81.5957 498.523 81.5957C499.666 81.5957 500.564 81.9223 500.564 82.4122ZM486.764 89.5165C487.417 91.313 487.254 91.9662 485.866 93.3544C484.478 94.7426 484.233 94.8243 484.233 93.6811C484.233 92.2929 482.6 91.3946 480.068 91.3946C479.007 91.3946 478.027 92.3745 477.21 94.2527C476.475 96.0492 475.332 97.274 473.944 97.6007C471.412 98.2539 471.249 98.009 471.739 95.4776C471.984 93.926 473.209 92.8645 476.23 91.4763C478.517 90.4147 481.211 89.5165 482.355 89.4348C483.498 89.4348 484.069 88.9449 483.824 88.2916C483.661 87.8017 483.988 87.3117 484.723 87.3117C485.376 87.3117 486.274 88.2916 486.764 89.5165ZM458.919 90.1698C458.919 90.823 458.347 91.3946 457.694 91.3946C456.387 91.3946 456.061 90.4147 457.041 89.5165C457.939 88.5366 458.919 88.8632 458.919 90.1698ZM503.831 91.8846C503.831 93.5994 503.504 94.5793 503.014 94.2527C502.606 94.0077 502.198 92.7012 502.198 91.313C502.198 90.0065 502.606 88.9449 503.014 88.9449C503.504 88.9449 503.831 90.2514 503.831 91.8846ZM453.693 90.5781C455.734 91.3946 455.816 91.558 454.509 92.9462C453.774 93.6811 453.448 94.661 453.774 94.9059C454.019 95.2326 453.529 95.4776 452.631 95.4776C451.243 95.4776 450.916 94.9876 450.916 92.6195C450.916 91.068 451.08 89.7615 451.161 89.7615C451.325 89.7615 452.468 90.1698 453.693 90.5781ZM498.441 101.357C500.728 104.542 500.156 105.44 496.726 104.052C492.97 102.5 492.889 102.337 493.46 100.785C494.195 98.9889 497.053 99.3155 498.441 101.357ZM470.923 103.97C470.433 105.358 468.391 105.032 468.064 103.48C467.901 102.5 468.228 102.255 469.534 102.582C470.433 102.827 471.086 103.48 470.923 103.97ZM452.386 106.91C452.386 107.318 453.856 107.726 455.571 107.726C457.367 107.726 459.082 108.053 459.327 108.543C460.062 109.686 453.774 109.604 451.161 108.38C448.711 107.318 448.467 106.093 450.753 106.093C451.651 106.093 452.386 106.42 452.386 106.91ZM465.288 109.931C465.451 110.584 464.798 110.993 463.492 110.993C461.368 110.993 460.225 110.013 461.124 109.033C462.022 108.135 464.88 108.869 465.288 109.931ZM502.198 110.911C502.198 111.319 501.626 111.809 500.973 112.136C499.748 112.544 499.34 111.728 500.319 110.748C501.054 109.931 502.198 110.013 502.198 110.911ZM491.337 121.2C491.419 126.753 490.52 128.386 489.704 123.813C489.459 122.425 488.969 119.975 488.642 118.505C488.234 116.3 488.316 115.892 489.622 115.892C490.929 115.892 491.174 116.627 491.337 121.2ZM525.878 120.792C525.878 121.2 525.552 121.608 525.144 121.608C524.654 121.608 524.082 121.2 523.837 120.792C523.592 120.302 523.919 119.975 524.572 119.975C525.307 119.975 525.878 120.302 525.878 120.792ZM531.595 131.162C531.595 134.02 531.595 134.02 529.716 132.795C528.655 132.142 526.94 131.407 525.797 131.244C524.735 131.162 523.755 130.427 523.592 129.692C523.429 128.712 524.245 128.467 527.512 128.386L531.595 128.304V131.162ZM511.588 131.325C511.343 131.815 510.69 132.224 510.2 132.224C509.71 132.224 509.71 131.734 510.363 130.999C511.507 129.611 512.487 129.937 511.588 131.325ZM498.931 131.979C498.931 132.387 498.523 133.204 498.115 133.857C497.461 134.837 497.298 134.755 497.298 133.204C497.298 132.224 497.706 131.407 498.115 131.407C498.605 131.407 498.931 131.652 498.931 131.979ZM527.512 136.062C527.512 136.633 527.185 137.123 526.695 137.123C526.287 137.123 525.878 136.143 525.878 134.837C525.878 133.122 526.042 132.877 526.695 133.857C527.103 134.51 527.512 135.572 527.512 136.062ZM522.612 138.266C522.612 138.43 521.877 138.756 520.979 139.001C520.081 139.246 519.346 139.083 519.346 138.675C519.346 138.266 520.081 137.94 520.979 137.94C521.877 137.94 522.612 138.103 522.612 138.266ZM525.062 142.839C525.062 143.248 524.327 143.982 523.429 144.472C521.632 145.452 521.224 144.554 522.775 143.003C523.919 141.859 525.062 141.696 525.062 142.839ZM502.851 145.371C503.422 146.351 503.749 147.33 503.504 147.575C503.014 148.065 500.646 145.371 500.564 144.227C500.564 143.084 501.789 143.656 502.851 145.371ZM517.223 147.657C517.794 148.555 515.426 149.535 514.365 148.882C513.956 148.637 513.63 148.147 513.63 147.657C513.63 146.677 516.651 146.677 517.223 147.657ZM520.979 149.617C520.979 151.168 517.794 152.312 514.201 151.985C511.67 151.74 511.262 151.495 511.997 150.597C512.731 149.699 513.303 149.699 514.365 150.352C515.426 151.005 516.406 150.923 518.203 149.944C521.142 148.31 520.979 148.31 520.979 149.617ZM505.464 153.455C505.464 153.863 505.056 154.271 504.566 154.271C504.157 154.271 503.994 153.863 504.239 153.455C504.484 152.965 504.892 152.638 505.137 152.638C505.301 152.638 505.464 152.965 505.464 153.455ZM498.768 157.701C500.074 159.008 499.993 160.804 498.605 160.804C497.543 160.804 496.482 159.171 496.482 157.456C496.482 156.395 497.625 156.558 498.768 157.701ZM515.671 159.089C515.916 159.579 515.426 160.314 514.528 160.722C512.405 161.947 512.242 161.866 511.752 159.987C511.425 158.681 511.752 158.354 513.221 158.354C514.283 158.354 515.345 158.681 515.671 159.089ZM525.878 159.171C525.878 159.579 525.307 159.987 524.654 159.987C524 159.987 523.429 159.579 523.429 159.171C523.429 158.681 524 158.354 524.654 158.354C525.307 158.354 525.878 158.681 525.878 159.171ZM504.402 162.111C504.157 162.356 503.422 162.437 502.851 162.192C502.198 161.947 502.443 161.702 503.341 161.702C504.239 161.621 504.729 161.866 504.402 162.111ZM526.532 168.807C526.695 169.297 526.368 169.786 525.715 169.786C524.245 169.705 520.979 166.928 520.979 165.704C520.979 164.479 526.042 167.337 526.532 168.807ZM506.852 172.236C508.322 173.543 510.118 174.686 510.772 174.686C511.425 174.686 511.997 175.258 511.997 175.993C511.997 177.462 509.465 176.972 506.362 174.768C505.301 174.033 503.586 172.889 502.524 172.155C501.463 171.42 500.809 170.603 501.136 170.358C502.198 169.215 504.076 169.868 506.852 172.236ZM531.595 172.563C531.595 173.461 530.043 173.788 529.553 173.053C529.308 172.645 529.635 172.236 530.288 172.236C531.023 172.236 531.595 172.4 531.595 172.563ZM519.019 182.525C518.774 183.178 517.958 183.668 517.223 183.668C516.324 183.668 516.079 183.26 516.488 182.199C516.814 181.464 517.141 180.157 517.304 179.34C517.468 178.606 517.876 177.462 518.284 176.891C519.019 175.748 519.672 180.729 519.019 182.525ZM538.944 177.136C538.944 177.544 538.372 177.952 537.719 177.952C537.066 177.952 536.494 177.544 536.494 177.136C536.494 176.646 537.066 176.319 537.719 176.319C538.372 176.319 538.944 176.646 538.944 177.136ZM513.63 188.078C513.63 189.384 510.608 190.691 509.71 189.793C509.139 189.221 511.752 186.935 512.976 186.935C513.303 186.935 513.63 187.425 513.63 188.078Z" fill="#515151"/>
<path d="M4.49125 10.3081C6.61437 14.2277 11.7588 22.9651 15.9234 29.7427C20.0063 36.4387 24.9875 44.6862 26.8656 47.9525C28.7437 51.2188 31.0302 54.3218 31.9284 54.8934C32.745 55.3834 33.4799 56.4449 33.4799 57.0982C33.4799 57.8331 33.8882 58.813 34.4598 59.3846C35.6847 60.6095 38.3794 60.6912 38.3794 59.5479C38.3794 59.058 38.951 58.7314 39.6043 58.7314C40.2575 58.7314 40.8291 59.058 40.8291 59.5479C40.8291 59.9562 41.4824 60.3645 42.299 60.3645C43.1972 60.3645 44.5038 61.0995 45.3203 61.9977C46.1369 62.8959 47.4435 63.7942 48.26 64.0391C50.8731 64.9374 49.9749 66.3256 47.1985 65.8356C45.7286 65.6723 43.8505 65.8356 43.0339 66.2439C41.9724 66.8155 40.9925 66.6522 39.5226 65.6723C37.0729 64.1208 37.0729 64.3658 39.6043 69.3469C41.7274 73.5115 43.3605 75.1447 43.9322 73.5932C44.3404 72.3683 47.0352 72.2866 47.7701 73.4298C48.0967 73.9198 48.5867 74.0831 48.9133 73.8381C49.3216 73.6748 50.7914 73.3482 52.3429 73.1032C57.6507 72.4499 65.7349 70.6535 66.2248 70.0002C66.4698 69.5919 69.4095 69.0203 72.7575 68.6937C78.2286 68.2037 78.8002 67.9587 79.0452 66.2439C79.3718 64.2025 77.167 61.1811 75.5339 61.1811C73.9824 61.1811 71.6959 57.2615 72.2675 55.6284C72.7575 53.9135 68.5113 46.4826 63.6934 40.8482C61.8969 38.6435 60.6721 36.6837 60.917 36.5203C61.4887 35.8671 53.2412 21.0053 46.8718 11.1247L41.7274 3.20381H21.1495H0.65332L4.49125 10.3081ZM57.0791 46.8093C57.7324 47.6259 57.814 48.1158 57.1608 48.5241C56.0992 49.1774 54.711 48.2791 54.711 46.8093C54.711 45.3394 55.8542 45.3394 57.0791 46.8093ZM58.7939 55.8733C60.1005 56.5266 63.2851 57.0982 65.8165 57.0982H70.5527L68.7562 58.813C67.7763 59.7113 67.1231 60.7728 67.368 61.1811C68.1846 62.4876 63.8567 64.6924 61.2437 64.2841C59.4472 64.0391 58.7939 64.2841 58.7939 65.1007C58.7939 66.0806 58.549 66.0806 57.5691 65.264C56.9158 64.6924 56.3442 63.7125 56.3442 63.1409C56.3442 62.4876 55.5276 61.9977 54.3027 61.9977C52.098 61.9977 51.4447 60.0379 53.4862 59.2213C54.2211 58.9763 54.711 57.7515 54.711 56.4449C54.711 53.9952 55.6909 52.2804 56.1809 53.8319C56.3442 54.3218 57.5691 55.2201 58.7939 55.8733Z" fill="#515151"/>
<path d="M62.9584 60.6912C62.2235 61.5894 62.2235 61.9977 62.9584 62.406C63.775 62.9776 65.2448 61.5894 65.3265 60.1196C65.3265 59.1397 63.9383 59.4663 62.9584 60.6912Z" fill="#515151"/>
<path d="M114.158 4.1837C113.995 4.51033 114.077 15.0442 114.322 27.4563L114.73 50.1573L117.996 51.7904C119.793 52.6887 121.344 53.4236 121.426 53.4236C121.507 53.4236 121.262 54.7301 120.936 56.2816C120.528 58.4864 119.874 59.1397 117.751 59.7113C115.383 60.3645 115.138 60.6912 115.138 63.6309C115.138 65.3457 115.546 67.0605 115.955 67.3055C116.608 67.7138 116.526 68.2037 115.873 69.0203C115.138 69.9185 114.975 75.308 115.383 90.7414L115.873 111.238L119.058 117.444C124.447 127.977 134.981 144.881 136.206 144.881C136.533 144.881 136.696 145.207 136.533 145.534C136.206 146.514 156.049 181.219 156.865 181.219C157.274 181.219 157.6 156.15 157.6 122.425C157.6 70.7351 157.437 63.6309 156.375 63.6309C155.722 63.6309 155.151 63.3042 155.151 62.8959C155.151 62.4876 155.722 61.9977 156.375 61.6711C157.437 61.2628 157.6 57.7515 157.6 36.602C157.6 12.7578 157.519 12.0229 155.967 11.6146C155.069 11.3696 154.334 10.8797 154.334 10.4714C154.334 10.0631 155.069 9.73645 155.967 9.73645C157.192 9.73645 157.6 9.16486 157.6 7.36836C157.6 6.06184 157.11 4.592 156.457 4.10204C155.232 3.04048 114.485 3.12215 114.158 4.1837ZM142.494 8.83821C142.739 9.24651 142.575 9.81812 142.085 10.1447C141.677 10.3897 141.269 10.0631 141.269 9.40982C141.269 7.93997 141.759 7.69501 142.494 8.83821ZM133.103 13.0028C133.103 13.4111 132.776 13.8194 132.286 13.8194C131.878 13.8194 131.47 13.4111 131.47 13.0028C131.47 12.5128 131.878 12.1862 132.286 12.1862C132.776 12.1862 133.103 12.5128 133.103 13.0028ZM145.76 20.352C145.515 20.7603 144.617 21.1686 143.882 21.1686C142.657 21.1686 142.657 21.0053 143.718 20.352C145.352 19.2905 146.413 19.2905 145.76 20.352ZM135.553 22.8018C135.553 23.2101 134.818 23.6183 133.919 23.6183C133.021 23.6183 132.286 23.2101 132.286 22.8018C132.286 22.3118 133.021 21.9852 133.919 21.9852C134.818 21.9852 135.553 22.3118 135.553 22.8018ZM128.53 26.1497C127.877 27.293 126.57 26.9663 126.57 25.6598C126.57 24.9249 127.06 24.6799 127.795 24.9249C128.448 25.2515 128.775 25.7415 128.53 26.1497ZM152.701 39.2967C152.701 40.6032 150.251 39.95 149.435 38.3168C148.618 36.847 148.7 36.7653 150.659 37.6636C151.803 38.1535 152.701 38.8884 152.701 39.2967ZM137.186 44.0329C137.186 44.4412 137.022 44.8495 136.859 44.8495C136.614 44.8495 136.206 44.4412 135.961 44.0329C135.716 43.5429 135.879 43.2163 136.288 43.2163C136.778 43.2163 137.186 43.5429 137.186 44.0329ZM153.926 55.465C154.171 55.8733 153.681 56.2816 152.783 56.2816C151.884 56.2816 150.904 55.8733 150.659 55.465C150.414 54.9751 150.904 54.6485 151.803 54.6485C152.701 54.6485 153.681 54.9751 153.926 55.465ZM122.487 77.8394C122.487 78.5743 121.916 78.8193 120.854 78.5743C119.956 78.3293 119.221 77.8394 119.221 77.4311C119.221 77.0228 119.956 76.6962 120.854 76.6962C121.752 76.6962 122.487 77.1861 122.487 77.8394ZM148.618 124.058C148.618 124.466 148.455 124.874 148.291 124.874C148.046 124.874 147.638 124.466 147.393 124.058C147.148 123.568 147.311 123.241 147.72 123.241C148.21 123.241 148.618 123.568 148.618 124.058Z" fill="#515151"/>
<path d="M0.571607 17.6573C0.244975 17.9023 0 28.4362 0 41.0116C0 62.8143 0.0816582 63.8758 1.71482 66.1623C2.85804 67.7954 3.75628 68.367 4.32788 67.8771C4.89949 67.4688 6.85929 66.7339 8.81908 66.1623C10.7789 65.5907 12.5754 64.6108 12.8203 63.9575C13.147 62.9776 13.9635 62.8143 16.005 63.2226C18.4547 63.6309 18.863 63.4676 19.5163 61.6711C20.0063 60.6095 21.0678 59.4663 21.966 59.1397C22.7826 58.8947 23.7625 58.1598 23.9258 57.5065C24.2525 56.6899 3.10301 19.1272 1.30653 17.3307C1.22487 17.1674 0.816582 17.3307 0.571607 17.6573Z" fill="#515151"/>
<path d="M114.648 53.4236C113.831 55.4651 114.975 57.2616 116.934 56.9349C119.221 56.6083 119.629 55.2201 117.996 53.5053C116.363 51.8721 115.22 51.8721 114.648 53.4236Z" fill="#515151"/>
<path d="M26.4575 65.6724C25.8858 67.1422 26.7024 68.5304 28.1723 68.5304C29.6421 68.5304 30.2954 67.3055 29.7238 65.754C29.0705 64.1209 27.0291 64.0392 26.4575 65.6724Z" fill="#515151"/>
<path d="M14.0452 68.2854C14.2085 70.1635 13.9636 70.6535 12.4121 70.8168C11.1872 70.9801 10.6156 71.5517 10.7789 72.45C10.9422 73.4299 10.1256 74.1648 8.16584 74.818C4.3279 76.2062 1.63318 76.1246 1.63318 74.7364C1.63318 74.0831 1.30655 73.3482 0.898259 73.1032C0.571627 72.8582 0.163336 74.9814 0.163336 77.8394C1.95354e-05 84.4537 1.14323 85.7602 5.38946 83.8004C6.94096 82.9839 9.63568 82.4123 11.4322 82.4123C13.147 82.4123 14.8618 82.004 15.1068 81.5957C15.3518 81.1057 16.3317 80.7791 17.2299 80.7791C18.0465 80.7791 18.7814 80.3708 18.7814 79.9625C18.7814 79.4726 20.4962 79.1459 22.5377 79.1459C25.6407 79.1459 30.9485 78.2477 34.8681 77.1045C36.3379 76.6145 34.5414 71.96 32.5 70.8985C31.1934 70.2452 30.2135 70.3268 28.0904 71.4701C25.2324 73.0216 23.5992 72.6133 25.2324 70.6535C26.5389 69.102 24.9874 68.2037 22.946 69.3469C22.0477 69.7552 20.5779 70.1635 19.6796 70.1635C18.6997 70.1635 17.9648 70.4902 17.9648 70.9801C17.9648 71.3884 17.6382 71.7967 17.2299 71.7967C16.9033 71.7967 16.7399 70.8168 16.9849 69.6736C17.2299 68.3671 16.9033 67.2238 16.25 66.8155C14.2902 65.5907 13.7186 65.999 14.0452 68.2854Z" fill="#515151"/>
<path d="M82.2299 73.1849C81.9032 73.6748 80.9233 73.9198 80.0251 73.6748C78.9635 73.4299 77.5753 74.0831 75.8605 75.7979C74.064 77.6761 73.0025 78.166 72.3492 77.5128C71.6143 76.9412 70.7977 77.1045 69.7362 77.9211C68.8379 78.5743 66.3065 79.1459 63.9384 79.1459C60.5088 79.1459 59.6105 79.3909 59.6105 80.4525C59.6105 81.514 59.0389 81.6773 56.1809 81.1874C54.2211 80.8607 52.343 80.2891 51.853 79.8809C50.6281 78.656 47.3618 79.0643 47.3618 80.3708C47.3618 82.5756 50.6281 88.1283 51.9347 88.1283C52.5879 88.1283 52.9146 88.455 52.6696 88.9449C52.098 89.8431 53.6495 92.7012 65 110.993C69.5728 118.424 80.8417 137.123 90.069 152.638C99.2964 168.153 109.177 184.322 112.035 188.568L117.18 196.325L126.979 196.57C132.94 196.734 137.431 196.407 138.411 195.917C139.636 195.264 140.779 195.264 142.412 195.835C143.637 196.325 147.393 196.734 150.823 196.734C156.294 196.734 156.947 196.57 156.539 195.264C155.804 192.732 90.1507 82.9022 89.1708 82.5756C88.5992 82.4123 88.1909 82.8205 88.1909 83.5555C88.1909 84.2904 87.7826 84.862 87.3743 84.862C85.9861 84.862 85.4145 82.3306 86.5577 81.5957C87.211 81.1874 87.3743 80.2075 87.0477 78.901C86.3944 76.1246 82.8831 72.0417 82.2299 73.1849ZM71.0427 85.6786C71.0427 86.0869 70.4711 86.4952 69.8178 86.4952C69.1645 86.4952 68.5929 86.0869 68.5929 85.6786C68.5929 85.1886 69.1645 84.862 69.8178 84.862C70.4711 84.862 71.0427 85.1886 71.0427 85.6786ZM78.2286 91.2313C78.3919 92.2112 78.0653 93.0278 77.5753 93.0278C77.0854 93.0278 76.9221 92.6195 77.167 92.2112C77.412 91.7213 77.0854 91.1497 76.4321 90.9047C75.6972 90.6597 75.3706 90.0881 75.6155 89.5982C76.4321 88.3733 77.9836 89.3532 78.2286 91.2313ZM90.6406 94.5793C89.6607 96.5391 88.1909 96.8658 88.1909 95.0693C88.1909 94.0077 90.7223 91.9663 91.2939 92.6195C91.4572 92.7828 91.2123 93.6811 90.6406 94.5793ZM86.966 96.2941C86.7211 96.7024 85.9045 97.1107 85.2512 97.1107C84.5979 97.1107 84.2713 96.7024 84.5163 96.2941C84.7613 95.8042 85.5778 95.4776 86.2311 95.4776C86.8844 95.4776 87.211 95.8042 86.966 96.2941ZM98.0715 106.338C96.765 107.645 95.9484 106.338 97.255 104.787C97.9899 103.888 98.4798 103.807 98.6431 104.46C98.8065 104.95 98.5615 105.848 98.0715 106.338ZM97.9899 114.259C97.9899 114.667 97.5816 115.076 97.0916 115.076C96.6833 115.076 96.52 114.667 96.765 114.259C97.01 113.769 97.4183 113.442 97.6632 113.442C97.8266 113.442 97.9899 113.769 97.9899 114.259ZM92.2738 130.101C92.2738 130.346 91.9472 130.754 91.4572 130.999C91.0489 131.244 90.6406 131.081 90.6406 130.672C90.6406 130.182 91.0489 129.774 91.4572 129.774C91.9472 129.774 92.2738 129.937 92.2738 130.101ZM142.085 186.935C142.085 187.343 141.759 187.751 141.269 187.751C140.86 187.751 140.452 187.343 140.452 186.935C140.452 186.445 140.86 186.118 141.269 186.118C141.759 186.118 142.085 186.445 142.085 186.935ZM117.996 191.018C118.241 191.426 117.751 191.834 116.853 191.834C115.955 191.834 114.975 191.426 114.73 191.018C114.485 190.528 114.975 190.201 115.873 190.201C116.771 190.201 117.751 190.528 117.996 191.018Z" fill="#515151"/>
<path d="M29.4786 81.514C28.8253 81.9223 28.5803 82.8205 28.8253 83.3921C29.1519 84.4537 28.0904 84.617 22.6193 84.5353C17.1482 84.4537 15.9233 84.6987 15.9233 85.6786C15.9233 86.4951 16.9032 86.9851 18.6997 87.1484C22.7826 87.5567 26.2939 92.6195 23.6808 94.2527C23.2725 94.4976 22.8642 94.2527 22.8642 93.5994C22.8642 92.2929 20.1695 89.5982 19.108 89.9248C18.6997 90.0064 16.8215 89.2715 14.8617 88.21C11.5954 86.5768 10.9421 86.4951 6.85924 87.3117C3.83789 87.965 2.04141 88.8632 1.22483 90.0881C0.16327 91.7213 -4.60595e-05 99.1522 0.16327 144.146L0.408245 196.325H22.0477H43.6871L43.4421 175.911C42.8705 118.097 42.2989 98.7439 41.1557 98.7439C40.5024 98.7439 40.0125 98.3356 40.0125 97.9273C40.0125 97.4373 40.5841 97.1107 41.2373 97.1107C42.1356 97.1107 42.4622 96.2125 42.4622 94.0077C42.4622 90.4147 41.8089 89.2715 39.6042 88.8632C38.6243 88.6183 37.726 87.475 37.2361 85.9235C36.6645 83.6371 36.2562 83.3105 34.5414 83.7188C32.9899 84.1271 32.4999 83.8821 32.0916 82.4939C31.6017 80.6158 31.1934 80.4524 29.4786 81.514ZM32.4999 89.5165C32.1733 92.2929 30.2135 93.0278 30.2135 90.3331C30.2135 88.2916 30.7851 87.3117 32.01 87.3117C32.4182 87.3117 32.6632 88.2916 32.4999 89.5165ZM13.8818 98.3356C14.4534 99.0705 14.7801 99.7238 14.6168 99.8054C14.4534 99.9687 13.3102 100.704 12.0854 101.439C9.96225 102.745 9.88059 102.745 8.65572 100.214C7.9208 98.8255 7.34919 97.519 7.34919 97.3557C7.34919 96.4574 13.0653 97.3557 13.8818 98.3356ZM26.6205 100.459C25.3956 102.255 20.9861 105.277 19.5979 105.277C19.108 105.277 18.7813 104.623 18.7813 103.725C18.7813 102.663 19.5979 102.01 21.5577 101.684C23.1092 101.357 24.7424 100.622 25.314 99.9687C26.8655 98.0906 28.0087 98.4989 26.6205 100.459ZM39.6042 103.643C39.8491 104.052 39.7675 104.46 39.2775 104.46C38.8692 104.46 38.216 104.052 37.971 103.643C37.726 103.153 37.8077 102.827 38.2976 102.827C38.7059 102.827 39.3592 103.153 39.6042 103.643ZM31.8466 104.46C31.8466 104.868 30.9484 105.277 29.8052 105.277C28.662 105.277 27.7637 104.868 27.7637 104.46C27.7637 103.97 28.662 103.643 29.8052 103.643C30.9484 103.643 31.8466 103.97 31.8466 104.46ZM15.9233 106.093C16.1683 106.501 15.8416 106.91 15.1884 106.91C14.4534 106.91 13.8818 106.501 13.8818 106.093C13.8818 105.603 14.2085 105.277 14.6168 105.277C15.1067 105.277 15.6783 105.603 15.9233 106.093ZM25.559 110.258C25.069 110.748 24.0075 110.993 23.1909 110.748C21.8027 110.503 21.8843 110.339 23.6808 109.604C25.9673 108.625 26.8655 108.951 25.559 110.258ZM8.98235 119.893C8.98235 121.282 7.51251 121.608 7.02256 120.383C6.77758 119.648 7.02256 119.158 7.75748 119.158C8.41075 119.158 8.98235 119.485 8.98235 119.893Z" fill="#515151"/>
<path d="M38.3794 83.4738C38.3794 84.9436 40.6658 86.9034 41.4007 86.1685C42.1357 85.5152 40.6658 83.0655 39.3593 82.5755C38.7877 82.4122 38.3794 82.8205 38.3794 83.4738Z" fill="#515151"/>
<path d="M678.416 110.748C676.456 111.238 675.966 113.197 677.436 114.667C678.253 115.402 680.213 115.892 682.744 115.892H686.745V155.006C686.745 187.996 686.909 194.202 687.888 195.019C689.848 196.652 692.461 194.692 692.461 191.671C692.461 189.303 692.543 189.221 693.931 190.364C699.647 195.509 709.609 196.815 716.55 193.467C723.246 190.201 727.003 183.423 727.003 174.278C727.166 160.151 720.062 151.822 707.895 151.822C703.077 151.822 699.157 153.455 695.401 156.966L692.461 159.743V136.225C692.461 108.869 692.788 110.094 684.867 110.258C682.091 110.339 679.233 110.503 678.416 110.748ZM713.121 157.864C719 160.232 722.511 168.317 721.368 176.237C719.408 189.793 708.303 194.447 696.381 186.771L692.461 184.322V175.503C692.461 167.01 692.543 166.683 694.993 163.335C699.157 157.538 706.915 155.251 713.121 157.864Z" fill="#515151"/>
<path d="M570.382 128.141C569.566 130.672 570.546 131.407 574.873 131.407H578.956L579.12 162.601L579.365 193.876L602.556 194.121C620.602 194.284 625.91 194.039 626.481 193.304C627.625 191.426 627.216 182.362 625.91 181.219C623.46 179.177 621.827 180.565 621.582 185.138L621.337 189.384H602.964H584.672V160.396V131.407H588.755C591.858 131.407 593.002 131.081 593.573 129.937C595.125 127.079 593.165 126.508 581.733 126.508C571.607 126.508 570.872 126.589 570.382 128.141Z" fill="#515151"/>
<path d="M641.098 153.373C638.73 154.19 636.444 155.415 636.036 155.986C635.056 157.538 635.137 164.642 636.117 166.602C636.607 167.418 637.424 168.153 637.995 168.153C640.282 168.072 641.425 166.439 641.833 162.274C642.16 158.599 642.487 157.946 644.283 157.456C647.876 156.476 656.532 156.721 659.39 157.864C662.983 159.416 663.881 161.294 663.881 167.418V172.4L661.676 171.828C660.37 171.501 656.123 171.093 652.204 170.848C645.671 170.44 644.691 170.603 640.527 172.645C635.301 175.176 633.667 177.789 633.667 183.423C633.667 191.181 638.159 195.427 646.243 195.346C652.286 195.264 656.777 193.549 660.86 189.548C663.636 186.853 663.881 186.771 663.881 188.405C663.881 189.466 664.779 191.181 665.922 192.243C667.637 193.957 668.617 194.284 673.19 194.284C678.743 194.284 679.804 193.712 678.988 191.018C678.579 189.793 677.6 189.384 674.252 189.221L670.005 188.976L669.597 174.686C669.107 158.763 668.617 156.966 663.963 154.108C659.798 151.495 647.386 151.087 641.098 153.373ZM660.288 176.401C662.248 176.891 663.881 177.789 663.881 178.279C663.881 179.422 661.84 182.525 659.063 185.547C652.939 192.243 640.363 191.834 639.547 184.893C638.73 178.524 642.405 175.503 651.061 175.503C654.164 175.503 658.247 175.911 660.288 176.401Z" fill="#515151"/>
<path d="M548.906 198.04C547.191 198.775 548.661 200 551.274 200C552.907 200 553.642 199.673 553.479 198.938C553.071 197.877 550.621 197.387 548.906 198.04Z" fill="#515151"/>
</g>
<defs>
<clipPath id="clip0_5_282">
<rect width="727.005" height="200" fill="white"/>
</clipPath>
</defs>
</svg>
