<?xml version="1.0" standalone="no"?>
<!DOCTYPE svg PUBLIC "-//W3C//DTD SVG 20010904//EN"
 "http://www.w3.org/TR/2001/REC-SVG-20010904/DTD/svg10.dtd">
<svg version="1.0" xmlns="http://www.w3.org/2000/svg"
 width="904.000000pt" height="246.000000pt" viewBox="0 0 904.000000 246.000000"
 preserveAspectRatio="xMidYMid meet">

<g transform="translate(0.000000,246.000000) scale(0.100000,-0.100000)"
fill="#515151" stroke="none">
<path d="M3301 2438 c-5 -13 -17 -49 -27 -80 -10 -33 -24 -60 -33 -62 -9 -2
-48 -12 -88 -22 l-72 -18 -66 57 c-37 32 -70 55 -73 53 -229 -125 -234 -129
-228 -150 2 -11 10 -49 17 -84 l12 -63 -62 -61 -61 -61 -77 13 c-42 6 -82 14
-87 16 -6 2 -43 -49 -82 -114 l-71 -118 59 -64 c37 -42 56 -70 52 -80 -3 -8
-14 -46 -23 -85 l-18 -70 -87 -30 -86 -30 0 -135 0 -136 83 -27 82 -27 22 -87
21 -88 -58 -66 -58 -65 64 -115 c35 -63 69 -116 74 -117 6 -2 45 4 86 13 l76
17 64 -64 64 -64 -16 -87 c-9 -49 -15 -89 -13 -91 2 -1 55 -33 117 -70 l112
-67 65 59 65 60 87 -28 87 -27 26 -79 27 -79 138 0 138 0 25 75 c14 41 26 76
27 78 1 1 41 12 88 24 l86 21 66 -57 c37 -31 70 -54 73 -52 228 125 232 128
227 149 -3 12 -11 50 -18 84 l-14 62 63 62 63 62 77 -13 c43 -6 83 -14 88 -16
6 -2 43 49 82 115 l72 119 -40 38 c-22 22 -48 51 -59 66 -19 26 -19 27 4 110
l24 83 87 30 86 30 0 136 0 136 -83 26 -82 27 -22 87 -21 88 58 66 58 65 -64
115 c-35 63 -69 116 -74 117 -6 2 -45 -4 -87 -13 l-75 -17 -64 64 -64 64 16
88 c9 48 15 88 13 90 -2 1 -55 33 -117 70 l-112 67 -65 -59 -65 -59 -82 24
c-45 13 -84 26 -87 29 -3 3 -18 40 -32 82 l-26 77 -136 3 c-135 3 -137 2 -146
-20z m322 -195 c148 -28 263 -76 392 -163 76 -51 203 -173 242 -231 24 -37 54
-49 125 -49 39 0 41 -12 11 -70 l-27 -52 29 -86 c63 -196 77 -332 51 -509 -33
-221 -131 -415 -292 -577 -313 -314 -793 -388 -1197 -185 -178 90 -354 266
-444 442 -146 289 -149 644 -7 928 123 247 349 440 609 522 179 56 329 65 508
30z"/>
<path d="M3375 2222 c-246 -17 -475 -120 -641 -287 -153 -154 -246 -334 -280
-544 -70 -426 159 -863 549 -1046 441 -208 966 -69 1240 328 76 111 119 212
158 377 32 130 12 377 -39 513 l-18 47 -42 -110 c-87 -224 -191 -323 -356
-338 -42 -3 -78 -14 -114 -35 l-53 -30 31 -18 30 -19 120 60 c66 33 123 60
128 60 8 0 46 -70 40 -75 -2 -2 -45 -24 -96 -49 -51 -26 -90 -50 -88 -55 3 -5
18 -14 34 -20 25 -10 37 -8 98 20 118 53 112 52 129 19 24 -46 19 -55 -47 -82
l-62 -25 82 -48 c45 -25 82 -52 82 -58 0 -7 -9 -27 -20 -45 l-20 -33 -58 32
c-31 18 -66 38 -77 46 -11 7 -23 13 -26 13 -4 0 -6 -30 -6 -68 l2 -67 -41 -3
-41 -3 -7 83 c-10 113 -12 121 -48 141 l-31 18 6 -111 6 -110 -43 0 c-42 0
-44 1 -50 38 -3 20 -6 60 -6 87 0 28 -3 74 -7 103 -5 45 -10 55 -34 68 l-29
15 0 -113 c0 -166 -10 -173 -150 -93 -54 30 -101 55 -104 55 -3 0 -6 -13 -6
-29 0 -26 12 -37 118 -106 64 -43 118 -79 120 -80 6 -5 -42 -75 -51 -75 -4 0
-41 23 -82 50 -102 69 -105 69 -105 29 1 -31 8 -40 76 -89 100 -73 100 -73 73
-109 -13 -17 -27 -31 -31 -31 -5 0 -33 18 -63 40 l-55 41 0 -101 0 -100 -45 0
-45 0 0 95 c0 52 -3 95 -6 95 -4 0 -28 -16 -55 -36 -52 -38 -58 -38 -88 5
l-20 28 85 62 c77 57 84 66 84 97 0 19 -2 34 -5 34 -3 0 -44 -25 -92 -56 l-87
-56 -23 28 c-13 16 -23 34 -23 40 0 6 52 44 115 85 108 69 115 76 115 106 0
18 -3 33 -7 33 -3 0 -40 -20 -82 -44 -103 -61 -124 -68 -147 -51 -16 11 -19
30 -22 129 l-4 116 -29 -15 c-26 -14 -29 -21 -29 -64 0 -26 -3 -89 -6 -139
l-7 -92 -45 0 -45 0 6 110 c4 61 3 110 -2 110 -5 0 -20 -9 -33 -20 -22 -17
-27 -31 -33 -97 -10 -116 -13 -123 -45 -123 -57 0 -61 6 -54 76 4 36 3 64 -2
64 -5 0 -43 -20 -84 -44 l-75 -44 -22 37 c-12 20 -23 39 -23 42 0 3 36 25 80
50 44 24 80 47 80 50 0 3 -25 16 -55 28 -30 13 -57 27 -60 32 -7 11 21 79 33
79 5 0 50 -18 100 -40 l91 -40 30 18 30 18 -95 47 c-52 26 -94 52 -94 57 0 18
30 70 40 70 6 0 63 -27 128 -59 114 -57 118 -58 147 -44 28 15 28 16 9 30 -10
8 -51 32 -90 54 -129 71 -128 91 8 169 54 30 98 58 98 61 0 4 -14 12 -31 20
-30 12 -38 9 -154 -49 l-122 -60 -17 34 c-9 19 -16 38 -16 42 0 4 41 28 90 52
50 24 90 47 90 50 0 3 -13 13 -28 22 -27 16 -30 15 -116 -23 -49 -21 -91 -39
-95 -39 -6 0 -41 63 -41 74 0 2 29 16 64 32 l65 28 -77 44 c-42 24 -81 47 -86
52 -10 10 30 80 46 80 6 0 36 -15 67 -34 106 -63 98 -64 89 11 -4 37 -6 68 -5
69 2 2 21 6 44 10 40 6 40 6 46 -27 3 -19 9 -66 13 -105 7 -75 5 -72 67 -102
4 -2 4 46 1 107 l-7 111 45 0 45 0 7 -92 c3 -50 6 -113 6 -139 0 -44 3 -50 30
-64 16 -8 31 -15 35 -15 3 0 5 54 5 119 0 99 3 120 16 125 30 11 47 6 134 -44
48 -27 90 -50 94 -50 3 0 6 14 6 30 0 28 -10 37 -115 105 -63 41 -115 78 -115
81 0 9 41 74 46 74 3 0 45 -27 94 -60 l90 -61 0 39 c0 36 -4 41 -85 100 l-86
62 27 35 c14 19 29 35 32 35 3 0 29 -18 58 -40 l53 -40 3 97 3 98 45 0 45 0 3
-98 3 -97 53 40 c29 22 55 40 59 40 12 0 49 -72 41 -79 -5 -5 -42 -32 -81 -60
-69 -50 -73 -55 -73 -92 l0 -40 91 62 c50 33 92 59 93 57 34 -47 46 -70 41
-78 -3 -5 16 1 42 13 68 31 249 31 377 -1 49 -12 91 -20 93 -18 8 8 -142 152
-207 200 -175 129 -424 203 -635 188z"/>
<path d="M3800 1841 c-51 -16 -108 -51 -135 -83 -50 -60 -65 -109 -65 -222 0
-77 -4 -107 -16 -124 -22 -32 -15 -35 24 -10 l32 20 0 134 0 134 45 0 45 0 0
-105 c0 -58 2 -105 5 -105 2 0 15 5 28 11 27 12 37 58 37 169 0 30 3 72 7 93
6 37 6 38 47 35 l41 -3 -4 -107 c-2 -68 1 -108 7 -108 5 0 20 8 32 18 20 16
24 34 33 121 l11 103 45 -6 c24 -3 45 -7 46 -9 2 -1 -1 -31 -6 -67 -4 -36 -6
-66 -5 -67 1 -1 37 18 80 42 43 25 81 45 85 45 3 0 16 -17 28 -39 l22 -38 -75
-43 c-41 -23 -76 -46 -79 -50 -3 -4 22 -19 55 -33 l59 -26 -16 -40 c-9 -23
-20 -41 -26 -41 -5 0 -49 18 -99 40 l-89 39 -31 -19 -31 -18 94 -47 c52 -26
95 -49 97 -50 2 -2 -6 -21 -17 -44 l-21 -41 -122 61 c-100 50 -127 60 -147 53
-41 -15 -34 -27 37 -66 107 -59 107 -59 88 -96 -9 -17 -20 -33 -26 -37 -5 -3
-60 23 -122 59 l-113 65 -35 -21 c-53 -32 -53 -33 -5 -30 35 3 55 -2 92 -24
101 -59 125 -67 200 -66 60 0 82 6 124 28 98 54 156 142 235 357 24 64 51 131
60 148 8 17 14 32 12 33 -2 1 -55 12 -118 25 -63 13 -153 32 -200 42 -87 19
-205 23 -250 10z"/>
<path d="M3568 1752 c-80 -52 -87 -60 -88 -89 0 -18 4 -33 8 -33 16 0 102 60
102 71 0 6 16 34 35 60 19 27 34 49 32 48 -1 0 -41 -26 -89 -57z"/>
<path d="M3220 1510 l0 -89 73 -42 c39 -23 75 -44 80 -46 4 -2 7 38 7 89 l0
93 -75 43 c-41 23 -77 42 -80 42 -3 0 -5 -40 -5 -90z"/>
<path d="M3518 1539 l-38 -19 0 -80 c0 -44 4 -80 8 -80 14 0 60 54 71 83 13
32 15 117 4 117 -5 -1 -25 -10 -45 -21z"/>
<path d="M3092 1295 c-41 -24 -76 -45 -78 -48 -3 -3 31 -26 75 -51 l81 -46 80
46 80 47 -27 17 c-16 9 -53 30 -83 47 l-55 31 -73 -43z"/>
<path d="M3588 1248 c-16 -5 -28 -13 -28 -18 0 -5 29 -25 65 -45 l65 -36 40
23 c22 13 40 26 40 30 0 12 -104 58 -129 57 -15 0 -38 -5 -53 -11z"/>
<path d="M3298 1114 l-78 -45 0 -95 0 -96 33 20 c17 11 53 32 80 47 l47 27 0
94 c0 52 -1 94 -2 94 -2 0 -38 -21 -80 -46z"/>
<path d="M3470 1068 c0 -91 1 -93 28 -108 15 -9 53 -31 85 -49 l57 -32 0 93 0
94 -32 17 c-18 9 -57 30 -85 47 l-53 32 0 -94z"/>
<path d="M5030 2450 l-205 -5 0 -1175 0 -1175 69 -3 c56 -2 70 0 82 15 13 17
13 17 14 1 0 -16 13 -18 136 -18 119 0 139 2 150 18 13 16 13 16 14 -1 0 -15
7 -18 33 -15 l32 3 2 1173 c2 922 0 1174 -10 1177 -27 8 -122 10 -317 5z m305
-720 c-3 -5 -10 -10 -16 -10 -5 0 -9 5 -9 10 0 6 7 10 16 10 8 0 12 -4 9 -10z
m-5 -233 c0 -8 -12 -19 -27 -26 -24 -10 -26 -10 -10 2 9 8 17 19 17 26 0 6 5
11 10 11 6 0 10 -6 10 -13z m-55 -47 c3 -5 1 -10 -4 -10 -6 0 -11 5 -11 10 0
6 2 10 4 10 3 0 8 -4 11 -10z m-122 -308 c-4 -15 -13 -22 -30 -22 l-24 0 28
24 c32 28 34 28 26 -2z m172 18 c-3 -5 -13 -10 -21 -10 -8 0 -14 5 -14 10 0 6
9 10 21 10 11 0 17 -4 14 -10z m-95 -75 c0 -8 -9 -15 -20 -15 -20 0 -26 11
-13 23 12 13 33 7 33 -8z m70 -379 c0 -8 -4 -18 -10 -21 -5 -3 -10 3 -10 14 0
12 5 21 10 21 6 0 10 -6 10 -14z m-49 -63 c-18 -8 -35 -12 -38 -9 -7 7 51 33
62 27 5 -2 -6 -11 -24 -18z m-101 -224 c0 -24 -23 -21 -28 4 -2 10 3 17 12 17
10 0 16 -9 16 -21z m35 -29 c3 -5 2 -10 -4 -10 -5 0 -13 5 -16 10 -3 6 -2 10
4 10 5 0 13 -4 16 -10z m-265 -80 c0 -5 -4 -10 -10 -10 -5 0 -10 5 -10 10 0 6
5 10 10 10 6 0 10 -4 10 -10z m176 -45 c-22 -16 -46 -20 -46 -7 0 15 13 22 39
22 25 -1 25 -1 7 -15z m-129 -61 c-3 -3 -12 -4 -19 -1 -8 3 -5 6 6 6 11 1 17
-2 13 -5z m238 -14 c3 -5 1 -10 -4 -10 -6 0 -11 5 -11 10 0 6 2 10 4 10 3 0 8
-4 11 -10z m-285 -10 c0 -5 -4 -10 -10 -10 -5 0 -10 5 -10 10 0 6 5 10 10 10
6 0 10 -4 10 -10z m260 -9 c0 -6 -4 -13 -10 -16 -5 -3 -10 1 -10 9 0 9 5 16
10 16 6 0 10 -4 10 -9z"/>
<path d="M5448 2444 c-14 -13 -10 -408 4 -422 9 -9 72 -12 221 -12 114 0 227
-4 250 -9 23 -6 59 -13 80 -16 54 -9 111 -63 138 -133 29 -72 31 -216 5 -274
-22 -51 -76 -103 -132 -127 -98 -44 -153 -53 -354 -58 -109 -3 -201 -10 -207
-15 -9 -7 -13 -43 -13 -114 l0 -104 28 0 27 0 -25 -13 c-23 -12 -25 -19 -28
-91 -2 -46 2 -83 8 -91 8 -10 31 -12 88 -8 63 5 81 10 101 29 25 25 41 31 41
14 0 -5 -4 -10 -10 -10 -5 0 -10 -6 -10 -14 0 -10 26 -15 103 -19 119 -7 163
-19 212 -59 64 -54 83 -100 115 -289 17 -96 37 -199 46 -229 8 -30 16 -68 18
-85 3 -35 39 -126 68 -172 19 -32 21 -33 93 -33 65 0 74 2 80 20 5 16 15 20
46 20 38 0 39 1 39 36 0 30 4 37 33 48 17 7 45 16 60 20 25 6 28 4 25 -16 -2
-18 -10 -24 -38 -26 -47 -5 -60 -18 -53 -53 5 -27 3 -29 -26 -29 -19 0 -30 -4
-26 -10 3 -5 37 -10 75 -10 l69 0 8 42 c5 23 15 44 22 46 14 5 12 -12 -5 -71
-5 -16 1 -18 67 -15 93 4 105 18 65 78 -23 35 -31 41 -52 36 -28 -7 -32 9 -9
34 28 31 -15 130 -57 130 -25 0 -23 15 6 28 l24 11 -14 71 c-34 182 -37 191
-47 181 -6 -6 -23 -11 -38 -11 -22 0 -26 4 -22 19 3 12 -3 24 -18 35 -22 15
-22 16 -4 37 14 15 27 19 47 15 33 -6 34 -1 17 90 -13 73 -22 84 -66 84 -23 0
-33 4 -30 13 2 6 13 11 23 10 45 -5 47 5 14 65 -64 113 -133 179 -211 200
l-34 9 43 13 c24 8 47 22 53 31 5 10 16 16 24 13 19 -8 93 45 149 107 91 101
136 237 136 414 0 119 -19 216 -58 300 -35 74 -143 194 -183 202 -15 3 -36 17
-47 32 -27 37 -76 59 -186 83 -78 17 -139 21 -426 25 -184 3 -338 2 -342 -3z
m833 -917 c-8 -8 -11 -4 -11 14 0 33 14 47 18 19 2 -12 -1 -27 -7 -33z m-91
-77 c0 -5 -11 -10 -25 -10 -14 0 -25 5 -25 10 0 6 11 10 25 10 14 0 25 -4 25
-10z m-169 -87 c8 -22 6 -30 -11 -47 -17 -17 -20 -18 -20 -4 0 17 -20 28 -51
28 -13 0 -25 -12 -35 -35 -9 -22 -23 -37 -40 -41 -31 -8 -33 -5 -27 26 3 19
18 32 55 49 28 13 61 24 75 25 14 0 21 6 18 14 -2 6 2 12 11 12 8 0 19 -12 25
-27z m-341 -8 c0 -8 -7 -15 -15 -15 -16 0 -20 12 -8 23 11 12 23 8 23 -8z
m550 -21 c0 -21 -4 -33 -10 -29 -5 3 -10 19 -10 36 0 16 5 29 10 29 6 0 10
-16 10 -36z m-614 16 c25 -10 26 -12 10 -29 -9 -9 -13 -21 -9 -24 3 -4 -3 -7
-14 -7 -17 0 -21 6 -21 35 0 19 2 35 3 35 2 0 16 -5 31 -10z m548 -132 c28
-39 21 -50 -21 -33 -46 19 -47 21 -40 40 9 22 44 18 61 -7z m-337 -32 c-6 -17
-31 -13 -35 6 -2 12 2 15 18 11 11 -3 19 -11 17 -17z m-227 -36 c0 -5 18 -10
39 -10 22 0 43 -4 46 -10 9 -14 -68 -13 -100 2 -30 13 -33 28 -5 28 11 0 20
-4 20 -10z m158 -37 c2 -8 -6 -13 -22 -13 -26 0 -40 12 -29 24 11 11 46 2 51
-11z m452 -12 c0 -5 -7 -11 -15 -15 -15 -5 -20 5 -8 17 9 10 23 9 23 -2z
m-133 -126 c1 -68 -10 -88 -20 -32 -3 17 -9 47 -13 65 -5 27 -4 32 12 32 16 0
19 -9 21 -65z m423 5 c0 -5 -4 -10 -9 -10 -6 0 -13 5 -16 10 -3 6 1 10 9 10 9
0 16 -4 16 -10z m70 -127 c0 -35 0 -35 -23 -20 -13 8 -34 17 -48 19 -13 1 -25
10 -27 19 -2 12 8 15 48 16 l50 1 0 -35z m-245 -2 c-3 -6 -11 -11 -17 -11 -6
0 -6 6 2 15 14 17 26 13 15 -4z m-155 -8 c0 -5 -5 -15 -10 -23 -8 -12 -10 -11
-10 8 0 12 5 22 10 22 6 0 10 -3 10 -7z m350 -50 c0 -7 -4 -13 -10 -13 -5 0
-10 12 -10 28 0 21 2 24 10 12 5 -8 10 -21 10 -27z m-60 -27 c0 -2 -9 -6 -20
-9 -11 -3 -20 -1 -20 4 0 5 9 9 20 9 11 0 20 -2 20 -4z m30 -56 c0 -5 -9 -14
-20 -20 -22 -12 -27 -1 -8 18 14 14 28 16 28 2z m-272 -31 c7 -12 11 -24 8
-27 -6 -6 -35 27 -36 41 0 14 15 7 28 -14z m176 -28 c7 -11 -22 -23 -35 -15
-5 3 -9 9 -9 15 0 12 37 12 44 0z m46 -24 c0 -19 -39 -33 -83 -29 -31 3 -36 6
-27 17 9 11 16 11 29 3 13 -8 25 -7 47 5 36 20 34 20 34 4z m-190 -47 c0 -5
-5 -10 -11 -10 -5 0 -7 5 -4 10 3 6 8 10 11 10 2 0 4 -4 4 -10z m-82 -52 c16
-16 15 -38 -2 -38 -13 0 -26 20 -26 41 0 13 14 11 28 -3z m207 -17 c3 -6 -3
-15 -14 -20 -26 -15 -28 -14 -34 9 -4 16 0 20 18 20 13 0 26 -4 30 -9z m125
-1 c0 -5 -7 -10 -15 -10 -8 0 -15 5 -15 10 0 6 7 10 15 10 8 0 15 -4 15 -10z
m-263 -36 c-3 -3 -12 -4 -19 -1 -8 3 -5 6 6 6 11 1 17 -2 13 -5z m271 -82 c2
-6 -2 -12 -10 -12 -18 1 -58 35 -58 50 0 15 62 -20 68 -38z m-241 -42 c18 -16
40 -30 48 -30 8 0 15 -7 15 -16 0 -18 -31 -12 -69 15 -13 9 -34 23 -47 32 -13
9 -21 19 -17 22 13 14 36 6 70 -23z m303 -4 c0 -11 -19 -15 -25 -6 -3 5 1 10
9 10 9 0 16 -2 16 -4z m-154 -122 c-3 -8 -13 -14 -22 -14 -11 0 -14 5 -9 18 4
9 8 25 10 35 2 9 7 23 12 30 9 14 17 -47 9 -69z m244 66 c0 -5 -7 -10 -15 -10
-8 0 -15 5 -15 10 0 6 7 10 15 10 8 0 15 -4 15 -10z m-310 -134 c0 -16 -37
-32 -48 -21 -7 7 25 35 40 35 4 0 8 -6 8 -14z"/>
<path d="M115 2333 c26 -48 89 -155 140 -238 50 -82 111 -183 134 -223 23 -40
51 -78 62 -85 10 -6 19 -19 19 -27 0 -9 5 -21 12 -28 15 -15 48 -16 48 -2 0 6
7 10 15 10 8 0 15 -4 15 -10 0 -5 8 -10 18 -10 11 0 27 -9 37 -20 10 -11 26
-22 36 -25 32 -11 21 -28 -13 -22 -18 2 -41 0 -51 -5 -13 -7 -25 -5 -43 7 -30
19 -30 16 1 -45 26 -51 46 -71 53 -52 5 15 38 16 47 2 4 -6 10 -8 14 -5 5 2
23 6 42 9 65 8 164 30 170 38 3 5 39 12 80 16 67 6 74 9 77 30 4 25 -23 62
-43 62 -19 0 -47 48 -40 68 6 21 -46 112 -105 181 -22 27 -37 51 -34 53 7 8
-94 190 -172 311 l-63 97 -252 0 -251 0 47 -87z m644 -447 c8 -10 9 -16 1 -21
-13 -8 -30 3 -30 21 0 18 14 18 29 0z m21 -111 c16 -8 55 -15 86 -15 l58 0
-22 -21 c-12 -11 -20 -24 -17 -29 10 -16 -43 -43 -75 -38 -22 3 -30 0 -30 -10
0 -12 -3 -12 -15 -2 -8 7 -15 19 -15 26 0 8 -10 14 -25 14 -27 0 -35 24 -10
34 9 3 15 18 15 34 0 30 12 51 18 32 2 -6 17 -17 32 -25z"/>
<path d="M831 1716 c-9 -11 -9 -16 0 -21 10 -7 28 10 29 28 0 12 -17 8 -29 -7z"/>
<path d="M1458 2408 c-2 -4 -1 -133 2 -285 l5 -278 40 -20 c22 -11 41 -20 42
-20 1 0 -2 -16 -6 -35 -5 -27 -13 -35 -39 -42 -29 -8 -32 -12 -32 -48 0 -21 5
-42 10 -45 8 -5 7 -11 -1 -21 -9 -11 -11 -77 -6 -266 l6 -251 39 -76 c66 -129
195 -336 210 -336 4 0 6 -4 4 -8 -4 -12 239 -437 249 -437 5 0 9 307 9 720 0
633 -2 720 -15 720 -8 0 -15 4 -15 9 0 5 7 11 15 15 13 5 15 48 15 307 0 292
-1 301 -20 306 -11 3 -20 9 -20 14 0 5 9 9 20 9 15 0 20 7 20 29 0 16 -6 34
-14 40 -15 13 -514 12 -518 -1z m347 -57 c3 -5 1 -12 -5 -16 -5 -3 -10 1 -10
9 0 18 6 21 15 7z m-115 -51 c0 -5 -4 -10 -10 -10 -5 0 -10 5 -10 10 0 6 5 10
10 10 6 0 10 -4 10 -10z m155 -90 c-3 -5 -14 -10 -23 -10 -15 0 -15 2 -2 10
20 13 33 13 25 0z m-125 -30 c0 -5 -9 -10 -20 -10 -11 0 -20 5 -20 10 0 6 9
10 20 10 11 0 20 -4 20 -10z m-86 -41 c-8 -14 -24 -10 -24 6 0 9 6 12 15 9 8
-4 12 -10 9 -15z m296 -161 c0 -16 -30 -8 -40 12 -10 18 -9 19 15 8 14 -6 25
-15 25 -20z m-190 -58 c0 -5 -2 -10 -4 -10 -3 0 -8 5 -11 10 -3 6 -1 10 4 10
6 0 11 -4 11 -10z m205 -140 c3 -5 -3 -10 -14 -10 -11 0 -23 5 -26 10 -3 6 3
10 14 10 11 0 23 -4 26 -10z m-385 -274 c0 -9 -7 -12 -20 -9 -11 3 -20 9 -20
14 0 5 9 9 20 9 11 0 20 -6 20 -14z m320 -566 c0 -5 -2 -10 -4 -10 -3 0 -8 5
-11 10 -3 6 -1 10 4 10 6 0 11 -4 11 -10z"/>
<path d="M67 2243 c-4 -3 -7 -132 -7 -286 0 -267 1 -280 21 -308 14 -20 25
-27 32 -21 7 5 31 14 55 21 24 7 46 19 49 27 4 12 14 14 39 9 30 -5 35 -3 43
19 6 13 19 27 30 31 10 3 22 12 24 20 4 10 -255 470 -277 492 -1 2 -6 0 -9 -4z"/>
<path d="M1464 1805 c-10 -25 4 -47 28 -43 28 4 33 21 13 42 -20 20 -34 20
-41 1z"/>
<path d="M384 1655 c-7 -18 3 -35 21 -35 18 0 26 15 19 34 -8 20 -33 21 -40 1z"/>
<path d="M232 1623 c2 -23 -1 -29 -20 -31 -15 -2 -22 -9 -20 -20 2 -12 -8 -21
-32 -29 -47 -17 -80 -16 -80 1 0 8 -4 17 -9 20 -4 3 -9 -23 -9 -58 -2 -81 12
-97 64 -73 19 10 52 17 74 17 21 0 42 5 45 10 3 6 15 10 26 10 10 0 19 5 19
10 0 6 21 10 46 10 38 0 103 11 151 25 18 6 -4 63 -29 76 -16 8 -28 7 -54 -7
-35 -19 -55 -14 -35 10 16 19 -3 30 -28 16 -11 -5 -29 -10 -40 -10 -12 0 -21
-4 -21 -10 0 -5 -4 -10 -9 -10 -4 0 -6 12 -3 26 3 16 -1 30 -9 35 -24 15 -31
10 -27 -18z"/>
<path d="M1067 1563 c-4 -6 -16 -9 -27 -6 -13 3 -30 -5 -51 -26 -22 -23 -35
-29 -43 -21 -9 7 -19 5 -32 -5 -11 -8 -42 -15 -71 -15 -42 0 -53 -3 -53 -16 0
-13 -7 -15 -42 -9 -24 4 -47 11 -53 16 -15 15 -55 10 -55 -6 0 -27 40 -95 56
-95 8 0 12 -4 9 -10 -7 -11 12 -46 151 -270 56 -91 194 -320 307 -510 113
-190 234 -388 269 -440 l63 -95 120 -3 c73 -2 128 2 140 8 15 8 29 8 49 1 15
-6 61 -11 103 -11 67 0 75 2 70 18 -9 31 -813 1376 -825 1380 -7 2 -12 -3 -12
-12 0 -9 -5 -16 -10 -16 -17 0 -24 31 -10 40 8 5 10 17 6 33 -8 34 -51 84 -59
70z m-137 -153 c0 -5 -7 -10 -15 -10 -8 0 -15 5 -15 10 0 6 7 10 15 10 8 0 15
-4 15 -10z m88 -68 c2 -12 -2 -22 -8 -22 -6 0 -8 5 -5 10 3 6 -1 13 -9 16 -9
3 -13 10 -10 16 10 15 29 3 32 -20z m152 -41 c-12 -24 -30 -28 -30 -6 0 13 31
38 38 30 2 -2 -1 -13 -8 -24z m-45 -21 c-3 -5 -13 -10 -21 -10 -8 0 -12 5 -9
10 3 6 13 10 21 10 8 0 12 -4 9 -10z m136 -123 c-16 -16 -26 0 -10 19 9 11 15
12 17 4 2 -6 -1 -17 -7 -23z m-1 -97 c0 -5 -5 -10 -11 -10 -5 0 -7 5 -4 10 3
6 8 10 11 10 2 0 4 -4 4 -10z m-70 -194 c0 -3 -4 -8 -10 -11 -5 -3 -10 -1 -10
4 0 6 5 11 10 11 6 0 10 -2 10 -4z m610 -696 c0 -5 -4 -10 -10 -10 -5 0 -10 5
-10 10 0 6 5 10 10 10 6 0 10 -4 10 -10z m-295 -50 c3 -5 -3 -10 -14 -10 -11
0 -23 5 -26 10 -3 6 3 10 14 10 11 0 23 -4 26 -10z"/>
<path d="M421 1461 c-8 -5 -11 -16 -8 -23 4 -13 -9 -15 -76 -14 -67 1 -82 -2
-82 -14 0 -10 12 -16 34 -18 50 -5 93 -67 61 -87 -5 -3 -10 0 -10 8 0 16 -33
49 -46 45 -5 -1 -28 8 -52 21 -40 20 -48 21 -98 11 -37 -8 -59 -19 -69 -34
-13 -20 -15 -111 -13 -662 l3 -639 265 0 265 0 -3 250 c-7 708 -14 945 -28
945 -8 0 -14 5 -14 10 0 6 7 10 15 10 11 0 15 11 15 38 0 44 -8 58 -35 63 -12
3 -23 17 -29 36 -7 28 -12 32 -33 27 -19 -5 -25 -2 -30 15 -6 23 -11 25 -32
12z m37 -98 c-4 -34 -28 -43 -28 -10 0 25 7 37 22 37 5 0 8 -12 6 -27z m-228
-108 c7 -9 11 -17 9 -18 -2 -2 -16 -11 -31 -20 -26 -16 -27 -16 -42 15 -9 17
-16 33 -16 35 0 11 70 0 80 -12z m156 -26 c-15 -22 -69 -59 -86 -59 -6 0 -10
8 -10 19 0 13 10 21 34 25 19 4 39 13 46 21 19 23 33 18 16 -6z m159 -39 c3
-5 2 -10 -4 -10 -5 0 -13 5 -16 10 -3 6 -2 10 4 10 5 0 13 -4 16 -10z m-95
-10 c0 -5 -11 -10 -25 -10 -14 0 -25 5 -25 10 0 6 11 10 25 10 14 0 25 -4 25
-10z m-195 -20 c3 -5 -1 -10 -9 -10 -9 0 -16 5 -16 10 0 6 4 10 9 10 6 0 13
-4 16 -10z m118 -51 c-6 -6 -19 -9 -29 -6 -17 3 -16 5 6 14 28 12 39 8 23 -8z
m-203 -118 c0 -17 -18 -21 -24 -6 -3 9 0 15 9 15 8 0 15 -4 15 -9z"/>
<path d="M530 1437 c0 -18 28 -42 37 -33 9 8 -9 38 -25 44 -7 2 -12 -3 -12
-11z"/>
<path d="M8368 1103 c-24 -6 -30 -30 -12 -48 10 -9 34 -15 65 -15 l49 0 0
-479 c0 -404 2 -480 14 -490 24 -20 56 4 56 41 0 29 1 30 18 16 70 -63 192
-79 277 -38 82 40 128 123 128 235 2 173 -85 275 -234 275 -59 0 -107 -20
-153 -63 l-36 -34 0 288 c0 335 4 320 -93 318 -34 -1 -69 -3 -79 -6z m425
-577 c72 -29 115 -128 101 -225 -24 -166 -160 -223 -306 -129 l-48 30 0 108
c0 104 1 108 31 149 51 71 146 99 222 67z"/>
<path d="M7045 890 c-10 -31 2 -40 55 -40 l50 0 2 -382 3 -383 284 -3 c221 -2
286 1 293 10 14 23 9 134 -7 148 -30 25 -50 8 -53 -48 l-3 -52 -225 0 -224 0
0 355 0 355 50 0 c38 0 52 4 59 18 19 35 -5 42 -145 42 -124 0 -133 -1 -139
-20z"/>
<path d="M7911 581 c-29 -10 -57 -25 -62 -32 -12 -19 -11 -106 1 -130 6 -10
16 -19 23 -19 28 1 42 21 47 72 4 45 8 53 30 59 44 12 150 9 185 -5 44 -19 55
-42 55 -117 l0 -61 -27 7 c-16 4 -68 9 -116 12 -80 5 -92 3 -143 -22 -64 -31
-84 -63 -84 -132 0 -95 55 -147 154 -146 74 1 129 22 179 71 34 33 37 34 37
14 0 -13 11 -34 25 -47 21 -21 33 -25 89 -25 68 0 81 7 71 40 -5 15 -17 20
-58 22 l-52 3 -5 175 c-6 195 -12 217 -69 252 -51 32 -203 37 -280 9z m235
-282 c24 -6 44 -17 44 -23 0 -14 -25 -52 -59 -89 -75 -82 -229 -77 -239 8 -10
78 35 115 141 115 38 0 88 -5 113 -11z"/>
<path d="M6782 34 c-21 -9 -3 -24 29 -24 20 0 29 4 27 13 -5 13 -35 19 -56 11z"/>
</g>
</svg>
