<svg width="728" height="200" viewBox="0 0 728 200" fill="none" xmlns="http://www.w3.org/2000/svg">
<g clip-path="url(#clip0_5_283)">
<path d="M264.66 1.73399C264.251 2.79555 263.271 5.73524 262.455 8.26665C261.638 10.9614 260.495 13.1661 259.76 13.3295C259.025 13.4928 255.84 14.3093 252.574 15.1259L246.695 16.5958L241.305 11.9413C238.284 9.3282 235.589 7.45006 235.344 7.61337C216.645 17.8206 216.236 18.1473 216.726 19.8621C216.89 20.7603 217.543 23.8634 218.114 26.7214L219.094 31.8659L214.031 36.847L209.05 41.8282L202.763 40.7666C199.333 40.2766 196.067 39.6234 195.658 39.4601C195.168 39.2968 192.147 43.4613 188.962 48.7691L183.165 58.4048L187.983 63.6309C191.004 67.0605 192.555 69.347 192.229 70.1635C191.984 70.8168 191.086 73.9198 190.351 77.1045L188.881 82.8206L181.777 85.2703L174.754 87.72V98.7439V109.849L181.532 112.054L188.228 114.259L190.024 121.363L191.739 128.549L187.003 133.939L182.266 139.246L187.493 148.637C190.351 153.782 193.127 158.109 193.535 158.191C194.025 158.354 197.21 157.864 200.558 157.129L206.764 155.741L211.99 160.967L217.216 166.194L215.91 173.298C215.175 177.299 214.685 180.565 214.848 180.729C215.011 180.81 219.339 183.423 224.402 186.445L233.548 191.916L238.856 187.098L244.163 182.199L251.268 184.485L258.372 186.69L260.495 193.141L262.7 199.592H273.969H285.237L287.279 193.467C288.422 190.119 289.402 187.261 289.484 187.098C289.565 187.016 292.832 186.118 296.67 185.138L303.692 183.423L309.082 188.078C312.103 190.609 314.798 192.487 315.043 192.324C333.661 182.117 333.987 181.872 333.579 180.157C333.334 179.177 332.681 176.074 332.109 173.298L330.966 168.235L336.11 163.172L341.255 158.109L347.543 159.171C351.054 159.661 354.32 160.314 354.729 160.477C355.218 160.641 358.24 156.476 361.424 151.087L367.304 141.369L364.038 138.266C362.241 136.47 360.118 134.102 359.22 132.877C357.668 130.754 357.668 130.672 359.546 123.895L361.506 117.117L368.61 114.667L375.633 112.217V101.112V90.0065L368.855 87.8834L362.159 85.6786L360.363 78.5743L358.648 71.3884L363.384 65.999L368.12 60.6912L362.894 51.3005C360.036 46.156 357.26 41.8282 356.852 41.7465C356.362 41.5832 353.177 42.0731 349.747 42.808L343.623 44.1962L338.397 38.9701L333.171 33.744L334.477 26.5581C335.212 22.6385 335.702 19.3722 335.539 19.2088C335.376 19.1272 331.048 16.5141 325.985 13.4928L316.839 8.02167L311.531 12.8395L306.224 17.6573L299.528 15.6975C295.853 14.636 292.668 13.5744 292.423 13.3295C292.178 13.0845 290.953 10.0631 289.81 6.63348L287.687 0.345795L276.582 0.10083C265.558 -0.14415 265.394 -0.0624847 264.66 1.73399ZM290.953 17.6573C303.039 19.9438 312.43 23.8634 322.963 30.9676C329.17 35.1322 339.54 45.0945 342.725 49.8307C344.685 52.852 347.134 53.8319 352.932 53.8319C356.117 53.8319 356.28 54.8118 353.83 59.548L351.626 63.7942L353.994 70.8168C359.138 86.8218 360.281 97.9273 358.158 112.381C355.463 130.427 347.461 146.269 334.314 159.498C308.755 185.138 269.559 191.181 236.569 174.604C222.034 167.255 207.662 152.883 200.313 138.511C188.391 114.912 188.146 85.9236 199.741 62.7327C209.785 42.5631 228.24 26.8031 249.471 20.1071C264.088 15.5342 276.337 14.7993 290.953 17.6573Z" fill="white"/>
<path d="M270.702 19.3721C250.614 20.7603 231.914 29.1711 218.359 42.808C205.866 55.3834 198.271 70.0819 195.495 87.2301C189.779 122.016 208.479 157.701 240.325 172.645C276.337 189.629 319.207 178.279 341.581 145.861C347.787 136.797 351.299 128.549 354.483 115.076C357.096 104.46 355.463 84.2904 351.299 73.1849L349.829 69.3469L346.399 78.3293C339.295 96.6208 330.803 104.705 317.329 105.93C313.899 106.175 310.96 107.073 308.02 108.788L303.692 111.238L306.223 112.707L308.673 114.259L318.472 109.359C323.862 106.665 328.516 104.46 328.924 104.46C329.578 104.46 332.681 110.176 332.191 110.584C332.027 110.748 328.516 112.544 324.352 114.586C320.187 116.709 317.002 118.668 317.166 119.077C317.411 119.485 318.635 120.22 319.942 120.71C321.983 121.527 322.963 121.363 327.944 119.077C337.58 114.749 337.09 114.831 338.478 117.525C340.438 121.282 340.03 122.016 334.64 124.221L329.578 126.263L336.274 130.182C339.948 132.224 342.97 134.429 342.97 134.918C342.97 135.49 342.235 137.123 341.336 138.593L339.703 141.288L334.967 138.675C332.436 137.205 329.578 135.572 328.679 134.918C327.781 134.347 326.801 133.857 326.556 133.857C326.23 133.857 326.066 136.307 326.066 139.41L326.23 144.881L322.882 145.126L319.534 145.371L318.962 138.593C318.145 129.366 317.982 128.712 315.042 127.079L312.511 125.609L313.001 134.673L313.491 143.656H309.98C306.55 143.656 306.387 143.574 305.897 140.553C305.652 138.92 305.407 135.653 305.407 133.449C305.407 131.162 305.162 127.406 304.835 125.038C304.427 121.363 304.019 120.547 302.059 119.485L299.691 118.26V127.488C299.691 141.043 298.874 141.614 287.442 135.082C283.032 132.632 279.195 130.591 278.95 130.591C278.705 130.591 278.46 131.652 278.46 132.959C278.46 135.082 279.44 135.98 288.095 141.614C293.321 145.126 297.731 148.065 297.894 148.147C298.384 148.555 294.465 154.271 293.73 154.271C293.403 154.271 290.382 152.393 287.034 150.189C278.705 144.554 278.46 144.554 278.46 147.82C278.541 150.352 279.113 151.087 284.666 155.088C292.831 161.049 292.831 161.049 290.627 163.989C289.565 165.377 288.422 166.52 288.095 166.52C287.687 166.52 285.401 165.05 282.951 163.254L278.46 159.906V168.153V176.319H274.785H271.11V168.562C271.11 164.315 270.865 160.804 270.62 160.804C270.294 160.804 268.334 162.111 266.129 163.744C261.883 166.847 261.393 166.847 258.943 163.335L257.31 161.049L264.251 155.986C270.539 151.332 271.11 150.597 271.11 148.065C271.11 146.514 270.947 145.289 270.702 145.289C270.457 145.289 267.109 147.33 263.19 149.862L256.085 154.435L254.207 152.148C253.146 150.842 252.329 149.372 252.329 148.882C252.329 148.392 256.575 145.289 261.72 141.941C270.539 136.307 271.11 135.735 271.11 133.285C271.11 131.815 270.865 130.591 270.539 130.591C270.294 130.591 267.272 132.224 263.843 134.184C255.432 139.165 253.717 139.736 251.839 138.348C250.533 137.45 250.288 135.898 250.043 127.814L249.716 118.342L247.348 119.567C245.225 120.71 244.98 121.282 244.98 124.793C244.98 126.916 244.735 132.06 244.49 136.143L243.918 143.656H240.244H236.569L237.059 134.673C237.386 129.692 237.304 125.691 236.896 125.691C236.487 125.691 235.262 126.426 234.201 127.324C232.404 128.712 231.996 129.856 231.506 135.245C230.69 144.717 230.445 145.289 227.832 145.289C223.177 145.289 222.85 144.799 223.422 139.083C223.749 136.143 223.667 133.857 223.259 133.857C222.85 133.857 219.747 135.49 216.399 137.45L210.275 141.043L208.479 138.021C207.499 136.388 206.6 134.837 206.6 134.592C206.6 134.347 209.54 132.55 213.133 130.509C216.726 128.549 219.666 126.671 219.666 126.426C219.666 126.181 217.624 125.119 215.175 124.14C212.725 123.078 210.52 121.935 210.275 121.527C209.703 120.628 211.99 115.076 212.97 115.076C213.378 115.076 217.053 116.545 221.136 118.342L228.566 121.608L231.016 120.138L233.466 118.668L225.708 114.831C221.462 112.707 218.033 110.584 218.033 110.176C218.033 108.706 220.482 104.46 221.299 104.46C221.789 104.46 226.443 106.665 231.751 109.278C241.06 113.932 241.387 114.014 243.755 112.871C246.041 111.646 246.041 111.564 244.49 110.421C243.673 109.768 240.325 107.808 237.141 106.011C226.607 100.214 226.688 98.5806 237.794 92.2112C242.203 89.7615 245.796 87.4751 245.796 87.2301C245.796 86.9035 244.653 86.2502 243.265 85.5969C240.815 84.617 240.162 84.862 230.69 89.5982L220.727 94.4977L219.339 91.7213C218.604 90.1698 218.033 88.6183 218.033 88.2916C218.033 87.965 221.381 86.0052 225.382 84.0454C229.465 82.0856 232.731 80.2075 232.731 79.9625C232.731 79.7175 231.669 78.901 230.445 78.166C228.24 76.8595 227.995 76.9412 220.972 80.0442C216.971 81.759 213.541 83.2288 213.215 83.2288C212.725 83.2288 209.867 78.0844 209.867 77.1861C209.867 77.0228 212.235 75.8796 215.093 74.5731L220.401 72.2866L214.113 68.6937C210.683 66.7339 207.499 64.8558 207.09 64.4475C206.274 63.6309 209.54 57.9148 210.847 57.9148C211.337 57.9148 213.786 59.1397 216.318 60.6912C224.974 65.8356 224.32 65.9173 223.585 59.7929C223.259 56.7716 223.095 54.2402 223.177 54.1585C223.34 53.9952 224.892 53.6686 226.77 53.3419C230.036 52.852 230.036 52.852 230.526 55.5467C230.771 57.0982 231.261 60.9362 231.588 64.1208C232.159 70.2452 231.996 70.0002 237.059 72.45C237.386 72.6133 237.386 68.6937 237.141 63.7125L236.569 54.6485H240.244H243.918L244.49 62.161C244.735 66.2439 244.98 71.3884 244.98 73.5115C244.98 77.1045 245.225 77.5944 247.43 78.7376C248.736 79.3909 249.961 79.9625 250.288 79.9625C250.533 79.9625 250.696 75.553 250.696 70.2452C250.696 62.161 250.941 60.4462 252.002 60.0379C254.452 59.1397 255.84 59.548 262.945 63.6309C266.864 65.8356 270.294 67.7138 270.62 67.7138C270.865 67.7138 271.11 66.5706 271.11 65.264C271.11 62.9776 270.294 62.2427 261.72 56.6899C256.575 53.3419 252.329 50.3206 252.329 50.0756C252.329 49.3407 255.677 44.0329 256.085 44.0329C256.33 44.0329 259.76 46.2377 263.761 48.9324L271.11 53.9136V50.7289C271.11 47.7892 270.784 47.3809 264.169 42.5631L257.147 37.5003L259.352 34.6422C260.495 33.0907 261.72 31.7842 261.965 31.7842C262.21 31.7842 264.333 33.254 266.701 35.0505L271.029 38.3168L271.274 30.396L271.519 22.3935H275.193H278.868L279.113 30.396L279.358 38.3168L283.686 35.0505C286.054 33.254 288.177 31.7842 288.504 31.7842C289.483 31.7842 292.505 37.6636 291.852 38.2352C291.443 38.6435 288.422 40.8483 285.237 43.1347C279.603 47.2176 279.276 47.6259 279.276 50.6472V53.9136L286.707 48.8508C290.79 46.156 294.22 44.0329 294.301 44.1962C297.078 48.0342 298.058 49.9123 297.649 50.5656C297.404 50.9739 298.956 50.4839 301.079 49.504C306.632 46.9726 321.412 46.9726 331.864 49.5857C335.865 50.5656 339.295 51.2188 339.458 51.0555C340.112 50.4023 327.863 38.6435 322.555 34.7239C308.265 24.19 287.932 18.1473 270.702 19.3721Z" fill="white"/>
<path d="M305.407 50.4839C301.242 51.7904 296.588 54.6484 294.383 57.2615C290.3 62.161 289.075 66.1623 289.075 75.3896C289.075 81.6773 288.749 84.1271 287.769 85.5152C285.972 88.1283 286.544 88.3733 289.728 86.3318L292.342 84.6987V73.7565V62.8143H296.016H299.691V71.3884C299.691 76.1246 299.854 79.9625 300.099 79.9625C300.262 79.9625 301.324 79.5542 302.385 79.0642C304.59 78.0843 305.407 74.3281 305.407 65.264C305.407 62.8143 305.652 59.3846 305.978 57.6698C306.468 54.6484 306.468 54.5668 309.816 54.8118L313.164 55.0567L312.838 63.7942C312.674 69.3469 312.919 72.6132 313.409 72.6132C313.818 72.6132 315.042 71.96 316.022 71.1434C317.656 69.8369 317.982 68.367 318.717 61.2628L319.615 52.852L323.29 53.3419C325.25 53.5869 326.965 53.9135 327.046 54.0768C327.21 54.1585 326.965 56.6082 326.556 59.5479C326.23 62.4876 326.066 64.9374 326.148 65.019C326.23 65.1007 329.169 63.5492 332.681 61.5894C336.192 59.5479 339.295 57.9148 339.622 57.9148C339.867 57.9148 340.928 59.303 341.908 61.0994L343.705 64.2025L337.58 67.7138C334.232 69.5919 331.374 71.47 331.129 71.7967C330.884 72.1233 332.926 73.3482 335.62 74.4914L340.438 76.6145L339.132 79.8808C338.397 81.759 337.498 83.2288 337.009 83.2288C336.6 83.2288 333.007 81.759 328.924 79.9625L321.657 76.7778L319.125 78.3293L316.594 79.7992L324.27 83.6371C328.516 85.7602 332.027 87.6384 332.191 87.72C332.354 87.8833 331.701 89.4348 330.803 91.313L329.088 94.661L319.125 89.6798C310.96 85.5969 308.755 84.7803 307.122 85.3519C303.774 86.5768 304.345 87.5567 310.143 90.7414C318.88 95.5592 318.88 95.5592 317.329 98.5805C316.594 99.9687 315.696 101.275 315.206 101.602C314.798 101.847 310.306 99.7238 305.244 96.7841L296.016 91.4763L293.158 93.1911C288.83 95.8042 288.83 95.8858 292.75 95.6409C295.608 95.3959 297.241 95.8042 300.262 97.6007C308.51 102.418 310.47 103.072 316.594 102.99C321.493 102.99 323.29 102.5 326.72 100.704C334.722 96.2941 339.458 89.1082 345.909 71.5517C347.869 66.3256 350.074 60.8545 350.809 59.4663C351.462 58.0781 351.952 56.8532 351.789 56.7716C351.625 56.6899 347.297 55.7917 342.153 54.7301C337.009 53.6685 329.659 52.117 325.821 51.3005C318.717 49.749 309.081 49.4223 305.407 50.4839Z" fill="white"/>
<path d="M286.462 57.7514C279.93 61.9977 279.358 62.6509 279.276 65.019C279.276 66.4889 279.603 67.7137 279.93 67.7137C281.236 67.7137 288.259 62.8143 288.259 61.916C288.259 61.4261 289.565 59.1396 291.117 57.0165C292.668 54.8118 293.893 53.0153 293.73 53.0969C293.648 53.0969 290.382 55.22 286.462 57.7514Z" fill="white"/>
<path d="M258.045 77.5127V84.7803L264.006 88.21C267.191 90.0881 270.131 91.8029 270.539 91.9662C270.865 92.1296 271.11 88.8632 271.11 84.6987V77.1045L264.986 73.5931C261.638 71.715 258.698 70.1635 258.453 70.1635C258.208 70.1635 258.045 73.4298 258.045 77.5127Z" fill="white"/>
<path d="M282.379 75.1447L279.276 76.6962V83.2288C279.276 86.8218 279.603 89.7615 279.93 89.7615C281.073 89.7615 284.829 85.3519 285.727 82.9838C286.789 80.3708 286.952 73.4298 286.054 73.4298C285.646 73.5115 284.013 74.2464 282.379 75.1447Z" fill="white"/>
<path d="M247.593 95.0692C244.245 97.029 241.387 98.7439 241.224 98.9888C240.979 99.2338 243.755 101.112 247.348 103.153L253.962 106.91L260.495 103.153L267.028 99.3155L264.823 97.9273C263.516 97.1923 260.495 95.4775 258.045 94.0893L253.554 91.5579L247.593 95.0692Z" fill="white"/>
<path d="M288.096 98.9072C286.789 99.3155 285.809 99.9687 285.809 100.377C285.809 100.785 288.177 102.418 291.117 104.052L296.425 106.991L299.691 105.113C301.487 104.052 302.957 102.99 302.957 102.663C302.957 101.684 294.465 97.9273 292.423 98.0089C291.199 98.0089 289.32 98.4172 288.096 98.9072Z" fill="white"/>
<path d="M264.415 109.849L258.045 113.524V121.282V129.121L260.74 127.488C262.128 126.589 265.068 124.875 267.273 123.65L271.11 121.445V113.769C271.11 109.523 271.029 106.093 270.947 106.093C270.784 106.093 267.844 107.808 264.415 109.849Z" fill="white"/>
<path d="M278.46 113.606C278.46 121.037 278.541 121.2 280.746 122.425C281.971 123.16 285.074 124.956 287.687 126.426L292.342 129.039V121.445V113.769L289.729 112.381C288.259 111.646 285.074 109.931 282.788 108.543L278.46 105.93V113.606Z" fill="white"/>
<path d="M405.846 0.754059L389.106 1.16235V97.1107V193.059L394.741 193.304C399.314 193.467 400.457 193.304 401.437 192.079C402.498 190.691 402.498 190.691 402.58 191.997C402.58 193.304 403.642 193.467 413.686 193.467C423.403 193.467 425.036 193.304 425.934 191.997C426.996 190.691 426.996 190.691 427.077 192.079C427.077 193.304 427.649 193.549 429.772 193.304L432.385 193.059L432.549 97.274C432.712 21.9852 432.549 1.40733 431.732 1.16235C429.527 0.509094 421.77 0.345779 405.846 0.754059ZM430.752 59.5479C430.507 59.9562 429.936 60.3645 429.446 60.3645C429.037 60.3645 428.711 59.9562 428.711 59.5479C428.711 59.058 429.282 58.7314 430.017 58.7314C430.67 58.7314 430.997 59.058 430.752 59.5479ZM430.344 78.5743C430.344 79.2276 429.364 80.1258 428.139 80.6974C426.179 81.514 426.016 81.514 427.322 80.5341C428.057 79.8808 428.711 78.9826 428.711 78.411C428.711 77.921 429.119 77.5127 429.527 77.5127C430.017 77.5127 430.344 78.0027 430.344 78.5743ZM425.853 82.4122C426.098 82.8205 425.934 83.2288 425.526 83.2288C425.036 83.2288 424.628 82.8205 424.628 82.4122C424.628 81.9223 424.791 81.5957 424.954 81.5957C425.199 81.5957 425.608 81.9223 425.853 82.4122ZM415.89 107.563C415.564 108.788 414.829 109.359 413.441 109.359H411.481L413.767 107.4C416.38 105.113 416.544 105.113 415.89 107.563ZM429.936 106.093C429.691 106.501 428.874 106.91 428.221 106.91C427.567 106.91 427.077 106.501 427.077 106.093C427.077 105.603 427.812 105.277 428.792 105.277C429.691 105.277 430.181 105.603 429.936 106.093ZM422.178 112.217C422.178 112.871 421.443 113.442 420.545 113.442C418.912 113.442 418.422 112.544 419.483 111.564C420.463 110.503 422.178 110.993 422.178 112.217ZM427.894 143.166C427.894 143.819 427.567 144.636 427.077 144.881C426.669 145.126 426.261 144.636 426.261 143.738C426.261 142.758 426.669 142.023 427.077 142.023C427.567 142.023 427.894 142.513 427.894 143.166ZM423.893 148.31C422.423 148.964 421.035 149.29 420.79 149.045C420.218 148.474 424.954 146.351 425.853 146.841C426.261 147.004 425.363 147.739 423.893 148.31ZM415.645 166.602C415.645 168.562 413.767 168.317 413.359 166.275C413.196 165.459 413.604 164.887 414.339 164.887C415.155 164.887 415.645 165.622 415.645 166.602ZM418.503 168.97C418.748 169.378 418.667 169.786 418.177 169.786C417.768 169.786 417.115 169.378 416.87 168.97C416.625 168.48 416.707 168.153 417.197 168.153C417.605 168.153 418.258 168.48 418.503 168.97ZM396.864 175.503C396.864 175.911 396.537 176.319 396.047 176.319C395.639 176.319 395.231 175.911 395.231 175.503C395.231 175.013 395.639 174.686 396.047 174.686C396.537 174.686 396.864 175.013 396.864 175.503ZM411.236 179.177C409.439 180.484 407.48 180.81 407.48 179.749C407.48 178.524 408.541 177.952 410.664 177.952C412.706 178.034 412.706 178.034 411.236 179.177ZM400.702 184.158C400.457 184.403 399.722 184.485 399.15 184.24C398.497 183.995 398.742 183.75 399.64 183.75C400.539 183.668 401.029 183.913 400.702 184.158ZM420.137 185.302C420.382 185.71 420.218 186.118 419.81 186.118C419.32 186.118 418.912 185.71 418.912 185.302C418.912 184.812 419.075 184.485 419.238 184.485C419.483 184.485 419.892 184.812 420.137 185.302ZM396.864 186.118C396.864 186.526 396.537 186.935 396.047 186.935C395.639 186.935 395.231 186.526 395.231 186.118C395.231 185.628 395.639 185.302 396.047 185.302C396.537 185.302 396.864 185.628 396.864 186.118ZM418.095 186.853C418.095 187.343 417.768 187.915 417.279 188.16C416.87 188.405 416.462 188.078 416.462 187.425C416.462 186.69 416.87 186.118 417.279 186.118C417.768 186.118 418.095 186.445 418.095 186.853Z" fill="white"/>
<path d="M439.979 1.24403C438.836 2.30559 439.163 34.5606 440.306 35.7038C441.041 36.4387 446.185 36.6837 458.353 36.6837C467.662 36.6837 476.889 37.0103 478.767 37.4186C480.645 37.9086 483.585 38.4801 485.3 38.7251C489.709 39.4601 494.364 43.8696 496.569 49.5857C498.937 55.4651 499.1 67.2238 496.977 71.96C495.18 76.1246 490.771 80.3708 486.198 82.3306C478.195 85.9235 473.704 86.6585 457.291 87.0668C448.39 87.3117 440.878 87.8833 440.388 88.2916C439.653 88.8632 439.326 91.8029 439.326 97.6007V106.093H441.613H443.817L441.776 107.155C439.898 108.135 439.734 108.706 439.489 114.586C439.326 118.342 439.653 121.363 440.143 122.016C440.796 122.833 442.674 122.996 447.329 122.67C452.473 122.261 453.943 121.853 455.576 120.302C457.618 118.26 458.924 117.77 458.924 119.158C458.924 119.567 458.597 119.975 458.108 119.975C457.699 119.975 457.291 120.465 457.291 121.118C457.291 121.935 459.414 122.343 465.702 122.67C475.419 123.241 479.012 124.221 483.013 127.488C488.239 131.897 489.791 135.653 492.404 151.087C493.792 158.926 495.425 167.337 496.16 169.786C496.814 172.236 497.467 175.339 497.63 176.727C497.875 179.585 500.815 187.016 503.183 190.773C504.734 193.386 504.898 193.467 510.777 193.467C516.085 193.467 516.82 193.304 517.31 191.834C517.718 190.528 518.535 190.201 521.066 190.201C524.169 190.201 524.251 190.119 524.251 187.261C524.251 184.812 524.577 184.24 526.945 183.342C528.334 182.77 530.62 182.035 531.845 181.709C533.886 181.219 534.131 181.382 533.886 183.015C533.723 184.485 533.07 184.975 530.783 185.138C526.945 185.547 525.884 186.608 526.455 189.466C526.864 191.671 526.7 191.834 524.332 191.834C522.781 191.834 521.883 192.161 522.209 192.651C522.454 193.059 525.231 193.467 528.334 193.467H533.968L534.621 190.038C535.03 188.16 535.846 186.445 536.418 186.281C537.561 185.873 537.398 187.261 536.009 192.079C535.601 193.386 536.091 193.549 541.481 193.304C549.075 192.977 550.055 191.834 546.788 186.935C544.91 184.077 544.257 183.587 542.542 183.995C540.256 184.567 539.929 183.26 541.807 181.219C544.094 178.687 540.582 170.603 537.153 170.603C535.111 170.603 535.274 169.378 537.643 168.317L539.602 167.418L538.459 161.621C535.683 146.759 535.438 146.024 534.621 146.841C534.131 147.33 532.743 147.739 531.518 147.739C529.722 147.739 529.395 147.412 529.722 146.187C529.967 145.207 529.477 144.227 528.252 143.329C526.455 142.104 526.455 142.023 527.925 140.308C529.068 139.083 530.13 138.756 531.763 139.083C534.458 139.573 534.54 139.165 533.151 131.734C532.09 125.773 531.355 124.874 527.762 124.874C525.884 124.874 525.067 124.548 525.312 123.813C525.476 123.323 526.374 122.915 527.19 122.996C530.865 123.405 531.028 122.588 528.334 117.689C523.107 108.461 517.473 103.072 511.104 101.357L508.327 100.622L511.839 99.5605C513.798 98.9072 515.677 97.764 516.166 97.0291C516.575 96.2125 517.473 95.7225 518.126 95.9675C519.678 96.6208 525.72 92.2929 530.293 87.2301C537.724 78.9826 541.399 67.8771 541.399 53.4236C541.399 43.7063 539.847 35.7854 536.663 28.9261C533.805 22.8834 524.986 13.0845 521.719 12.4312C520.494 12.1862 518.78 11.043 517.881 9.81815C515.677 6.79678 511.675 5.00031 502.693 3.04051C496.324 1.65233 491.342 1.32568 467.907 0.999054C452.881 0.754089 440.306 0.835739 439.979 1.24403ZM508.001 76.1246C507.347 76.7778 507.102 76.4512 507.102 74.9814C507.102 72.2866 508.246 71.1434 508.572 73.4298C508.736 74.4097 508.491 75.6346 508.001 76.1246ZM500.57 82.4122C500.57 82.8205 499.672 83.2288 498.528 83.2288C497.385 83.2288 496.487 82.8205 496.487 82.4122C496.487 81.9223 497.385 81.5957 498.528 81.5957C499.672 81.5957 500.57 81.9223 500.57 82.4122ZM486.77 89.5165C487.423 91.313 487.26 91.9662 485.871 93.3544C484.483 94.7426 484.238 94.8243 484.238 93.6811C484.238 92.2929 482.605 91.3946 480.074 91.3946C479.012 91.3946 478.032 92.3745 477.216 94.2527C476.481 96.0492 475.337 97.274 473.949 97.6007C471.418 98.2539 471.255 98.009 471.744 95.4776C471.989 93.926 473.214 92.8645 476.236 91.4763C478.522 90.4147 481.217 89.5165 482.36 89.4348C483.503 89.4348 484.075 88.9449 483.83 88.2916C483.667 87.8017 483.993 87.3117 484.728 87.3117C485.381 87.3117 486.28 88.2916 486.77 89.5165ZM458.924 90.1698C458.924 90.823 458.353 91.3946 457.699 91.3946C456.393 91.3946 456.066 90.4147 457.046 89.5165C457.944 88.5366 458.924 88.8632 458.924 90.1698ZM503.836 91.8846C503.836 93.5994 503.509 94.5793 503.02 94.2527C502.611 94.0077 502.203 92.7012 502.203 91.313C502.203 90.0065 502.611 88.9449 503.02 88.9449C503.509 88.9449 503.836 90.2514 503.836 91.8846ZM453.698 90.5781C455.739 91.3946 455.821 91.558 454.515 92.9462C453.78 93.6811 453.453 94.661 453.78 94.9059C454.025 95.2326 453.535 95.4776 452.636 95.4776C451.248 95.4776 450.922 94.9876 450.922 92.6195C450.922 91.068 451.085 89.7615 451.167 89.7615C451.33 89.7615 452.473 90.1698 453.698 90.5781ZM498.447 101.357C500.733 104.542 500.161 105.44 496.732 104.052C492.976 102.5 492.894 102.337 493.466 100.785C494.2 98.9889 497.058 99.3155 498.447 101.357ZM470.928 103.97C470.438 105.358 468.396 105.032 468.07 103.48C467.907 102.5 468.233 102.255 469.54 102.582C470.438 102.827 471.091 103.48 470.928 103.97ZM452.391 106.91C452.391 107.318 453.861 107.726 455.576 107.726C457.373 107.726 459.087 108.053 459.332 108.543C460.067 109.686 453.78 109.604 451.167 108.38C448.717 107.318 448.472 106.093 450.758 106.093C451.657 106.093 452.391 106.42 452.391 106.91ZM465.293 109.931C465.457 110.584 464.804 110.993 463.497 110.993C461.374 110.993 460.231 110.013 461.129 109.033C462.027 108.135 464.885 108.869 465.293 109.931ZM502.203 110.911C502.203 111.319 501.631 111.809 500.978 112.136C499.753 112.544 499.345 111.728 500.325 110.748C501.06 109.931 502.203 110.013 502.203 110.911ZM491.342 121.2C491.424 126.753 490.526 128.386 489.709 123.813C489.464 122.425 488.974 119.975 488.648 118.505C488.239 116.3 488.321 115.892 489.628 115.892C490.934 115.892 491.179 116.627 491.342 121.2ZM525.884 120.792C525.884 121.2 525.557 121.608 525.149 121.608C524.659 121.608 524.087 121.2 523.842 120.792C523.597 120.302 523.924 119.975 524.577 119.975C525.312 119.975 525.884 120.302 525.884 120.792ZM531.6 131.162C531.6 134.02 531.6 134.02 529.722 132.795C528.66 132.142 526.945 131.407 525.802 131.244C524.741 131.162 523.761 130.427 523.597 129.692C523.434 128.712 524.251 128.467 527.517 128.386L531.6 128.304V131.162ZM511.594 131.325C511.349 131.815 510.695 132.224 510.205 132.224C509.715 132.224 509.715 131.734 510.369 130.999C511.512 129.611 512.492 129.937 511.594 131.325ZM498.937 131.979C498.937 132.387 498.528 133.204 498.12 133.857C497.467 134.837 497.303 134.755 497.303 133.204C497.303 132.224 497.712 131.407 498.12 131.407C498.61 131.407 498.937 131.652 498.937 131.979ZM527.517 136.062C527.517 136.633 527.19 137.123 526.7 137.123C526.292 137.123 525.884 136.143 525.884 134.837C525.884 133.122 526.047 132.877 526.7 133.857C527.109 134.51 527.517 135.572 527.517 136.062ZM522.617 138.266C522.617 138.43 521.883 138.756 520.984 139.001C520.086 139.246 519.351 139.083 519.351 138.675C519.351 138.266 520.086 137.94 520.984 137.94C521.883 137.94 522.617 138.103 522.617 138.266ZM525.067 142.839C525.067 143.248 524.332 143.982 523.434 144.472C521.638 145.452 521.229 144.554 522.781 143.003C523.924 141.859 525.067 141.696 525.067 142.839ZM502.856 145.371C503.428 146.351 503.754 147.33 503.509 147.575C503.02 148.065 500.651 145.371 500.57 144.227C500.57 143.084 501.795 143.656 502.856 145.371ZM517.228 147.657C517.8 148.555 515.432 149.535 514.37 148.882C513.962 148.637 513.635 148.147 513.635 147.657C513.635 146.677 516.656 146.677 517.228 147.657ZM520.984 149.617C520.984 151.168 517.8 152.312 514.207 151.985C511.675 151.74 511.267 151.495 512.002 150.597C512.737 149.699 513.308 149.699 514.37 150.352C515.432 151.005 516.411 150.923 518.208 149.944C521.148 148.31 520.984 148.31 520.984 149.617ZM505.469 153.455C505.469 153.863 505.061 154.271 504.571 154.271C504.163 154.271 503.999 153.863 504.244 153.455C504.489 152.965 504.898 152.638 505.143 152.638C505.306 152.638 505.469 152.965 505.469 153.455ZM498.773 157.701C500.08 159.008 499.998 160.804 498.61 160.804C497.548 160.804 496.487 159.171 496.487 157.456C496.487 156.395 497.63 156.558 498.773 157.701ZM515.677 159.089C515.922 159.579 515.432 160.314 514.533 160.722C512.41 161.947 512.247 161.866 511.757 159.987C511.43 158.681 511.757 158.354 513.227 158.354C514.288 158.354 515.35 158.681 515.677 159.089ZM525.884 159.171C525.884 159.579 525.312 159.987 524.659 159.987C524.006 159.987 523.434 159.579 523.434 159.171C523.434 158.681 524.006 158.354 524.659 158.354C525.312 158.354 525.884 158.681 525.884 159.171ZM504.408 162.111C504.163 162.356 503.428 162.437 502.856 162.192C502.203 161.947 502.448 161.702 503.346 161.702C504.244 161.621 504.734 161.866 504.408 162.111ZM526.537 168.807C526.7 169.297 526.374 169.786 525.72 169.786C524.251 169.705 520.984 166.928 520.984 165.704C520.984 164.479 526.047 167.337 526.537 168.807ZM506.857 172.236C508.327 173.543 510.124 174.686 510.777 174.686C511.43 174.686 512.002 175.258 512.002 175.993C512.002 177.462 509.471 176.972 506.368 174.768C505.306 174.033 503.591 172.889 502.53 172.155C501.468 171.42 500.815 170.603 501.141 170.358C502.203 169.215 504.081 169.868 506.857 172.236ZM531.6 172.563C531.6 173.461 530.048 173.788 529.558 173.053C529.313 172.645 529.64 172.236 530.293 172.236C531.028 172.236 531.6 172.4 531.6 172.563ZM519.025 182.525C518.78 183.178 517.963 183.668 517.228 183.668C516.33 183.668 516.085 183.26 516.493 182.199C516.82 181.464 517.146 180.157 517.31 179.34C517.473 178.606 517.881 177.462 518.29 176.891C519.025 175.748 519.678 180.729 519.025 182.525ZM538.949 177.136C538.949 177.544 538.378 177.952 537.724 177.952C537.071 177.952 536.499 177.544 536.499 177.136C536.499 176.646 537.071 176.319 537.724 176.319C538.378 176.319 538.949 176.646 538.949 177.136ZM513.635 188.078C513.635 189.384 510.614 190.691 509.715 189.793C509.144 189.221 511.757 186.935 512.982 186.935C513.308 186.935 513.635 187.425 513.635 188.078Z" fill="white"/>
<path d="M4.49663 10.3081C6.61974 14.2277 11.7642 22.9651 15.9288 29.7427C20.0117 36.4387 24.9928 44.6862 26.871 47.9525C28.7491 51.2188 31.0355 54.3218 31.9338 54.8934C32.7504 55.3834 33.4853 56.4449 33.4853 57.0982C33.4853 57.8331 33.8936 58.813 34.4652 59.3846C35.69 60.6095 38.3848 60.6912 38.3848 59.5479C38.3848 59.058 38.9564 58.7314 39.6096 58.7314C40.2629 58.7314 40.8345 59.058 40.8345 59.5479C40.8345 59.9562 41.4878 60.3645 42.3044 60.3645C43.2026 60.3645 44.5091 61.0995 45.3257 61.9977C46.1423 62.8959 47.4488 63.7942 48.2654 64.0391C50.8785 64.9374 49.9802 66.3256 47.2038 65.8356C45.734 65.6723 43.8559 65.8356 43.0393 66.2439C41.9777 66.8155 40.9978 66.6522 39.528 65.6723C37.0782 64.1208 37.0782 64.3658 39.6096 69.3469C41.7327 73.5115 43.3659 75.1447 43.9375 73.5932C44.3458 72.3683 47.0405 72.2866 47.7755 73.4298C48.1021 73.9198 48.592 74.0831 48.9187 73.8381C49.327 73.6748 50.7968 73.3482 52.3483 73.1032C57.6561 72.4499 65.7402 70.6535 66.2302 70.0002C66.4752 69.5919 69.4149 69.0203 72.7629 68.6937C78.234 68.2037 78.8056 67.9587 79.0505 66.2439C79.3772 64.2025 77.1724 61.1811 75.5392 61.1811C73.9877 61.1811 71.7013 57.2615 72.2729 55.6284C72.7629 53.9135 68.5166 46.4826 63.6988 40.8482C61.9023 38.6435 60.6774 36.6837 60.9224 36.5203C61.494 35.8671 53.2466 21.0053 46.8772 11.1247L41.7327 3.20381H21.1549H0.658691L4.49663 10.3081ZM57.0845 46.8093C57.7378 47.6259 57.8194 48.1158 57.1661 48.5241C56.1046 49.1774 54.7164 48.2791 54.7164 46.8093C54.7164 45.3394 55.8596 45.3394 57.0845 46.8093ZM58.7993 55.8733C60.1058 56.5266 63.2905 57.0982 65.8219 57.0982H70.5581L68.7616 58.813C67.7817 59.7113 67.1284 60.7728 67.3734 61.1811C68.19 62.4876 63.8621 64.6924 61.2491 64.2841C59.4526 64.0391 58.7993 64.2841 58.7993 65.1007C58.7993 66.0806 58.5543 66.0806 57.5744 65.264C56.9212 64.6924 56.3496 63.7125 56.3496 63.1409C56.3496 62.4876 55.533 61.9977 54.3081 61.9977C52.1033 61.9977 51.4501 60.0379 53.4915 59.2213C54.2265 58.9763 54.7164 57.7515 54.7164 56.4449C54.7164 53.9952 55.6963 52.2804 56.1862 53.8319C56.3496 54.3218 57.5744 55.2201 58.7993 55.8733Z" fill="white"/>
<path d="M62.9638 60.6912C62.2289 61.5894 62.2289 61.9977 62.9638 62.406C63.7804 62.9776 65.2502 61.5894 65.3319 60.1196C65.3319 59.1397 63.9437 59.4663 62.9638 60.6912Z" fill="white"/>
<path d="M114.164 4.1837C114 4.51033 114.082 15.0442 114.327 27.4563L114.735 50.1573L118.002 51.7904C119.798 52.6887 121.349 53.4236 121.431 53.4236C121.513 53.4236 121.268 54.7301 120.941 56.2816C120.533 58.4864 119.88 59.1397 117.757 59.7113C115.388 60.3645 115.143 60.6912 115.143 63.6309C115.143 65.3457 115.552 67.0605 115.96 67.3055C116.613 67.7138 116.532 68.2037 115.878 69.0203C115.143 69.9185 114.98 75.308 115.388 90.7414L115.878 111.238L119.063 117.444C124.453 127.977 134.986 144.881 136.211 144.881C136.538 144.881 136.701 145.207 136.538 145.534C136.211 146.514 156.054 181.219 156.871 181.219C157.279 181.219 157.606 156.15 157.606 122.425C157.606 70.7351 157.442 63.6309 156.381 63.6309C155.728 63.6309 155.156 63.3042 155.156 62.8959C155.156 62.4876 155.728 61.9977 156.381 61.6711C157.442 61.2628 157.606 57.7515 157.606 36.602C157.606 12.7578 157.524 12.0229 155.973 11.6146C155.074 11.3696 154.339 10.8797 154.339 10.4714C154.339 10.0631 155.074 9.73645 155.973 9.73645C157.197 9.73645 157.606 9.16486 157.606 7.36836C157.606 6.06184 157.116 4.592 156.463 4.10204C155.238 3.04048 114.49 3.12215 114.164 4.1837ZM142.499 8.83821C142.744 9.24651 142.581 9.81812 142.091 10.1447C141.682 10.3897 141.274 10.0631 141.274 9.40982C141.274 7.93997 141.764 7.69501 142.499 8.83821ZM133.108 13.0028C133.108 13.4111 132.782 13.8194 132.292 13.8194C131.883 13.8194 131.475 13.4111 131.475 13.0028C131.475 12.5128 131.883 12.1862 132.292 12.1862C132.782 12.1862 133.108 12.5128 133.108 13.0028ZM145.765 20.352C145.52 20.7603 144.622 21.1686 143.887 21.1686C142.662 21.1686 142.662 21.0053 143.724 20.352C145.357 19.2905 146.419 19.2905 145.765 20.352ZM135.558 22.8018C135.558 23.2101 134.823 23.6183 133.925 23.6183C133.027 23.6183 132.292 23.2101 132.292 22.8018C132.292 22.3118 133.027 21.9852 133.925 21.9852C134.823 21.9852 135.558 22.3118 135.558 22.8018ZM128.535 26.1497C127.882 27.293 126.576 26.9663 126.576 25.6598C126.576 24.9249 127.066 24.6799 127.8 24.9249C128.454 25.2515 128.78 25.7415 128.535 26.1497ZM152.706 39.2967C152.706 40.6032 150.256 39.95 149.44 38.3168C148.623 36.847 148.705 36.7653 150.665 37.6636C151.808 38.1535 152.706 38.8884 152.706 39.2967ZM137.191 44.0329C137.191 44.4412 137.028 44.8495 136.865 44.8495C136.62 44.8495 136.211 44.4412 135.966 44.0329C135.721 43.5429 135.885 43.2163 136.293 43.2163C136.783 43.2163 137.191 43.5429 137.191 44.0329ZM153.931 55.465C154.176 55.8733 153.686 56.2816 152.788 56.2816C151.89 56.2816 150.91 55.8733 150.665 55.465C150.42 54.9751 150.91 54.6485 151.808 54.6485C152.706 54.6485 153.686 54.9751 153.931 55.465ZM122.493 77.8394C122.493 78.5743 121.921 78.8193 120.86 78.5743C119.961 78.3293 119.226 77.8394 119.226 77.4311C119.226 77.0228 119.961 76.6962 120.86 76.6962C121.758 76.6962 122.493 77.1861 122.493 77.8394ZM148.623 124.058C148.623 124.466 148.46 124.874 148.297 124.874C148.052 124.874 147.643 124.466 147.398 124.058C147.153 123.568 147.317 123.241 147.725 123.241C148.215 123.241 148.623 123.568 148.623 124.058Z" fill="white"/>
<path d="M0.576978 17.6573C0.250346 17.9023 0.00537109 28.4362 0.00537109 41.0116C0.00537109 62.8143 0.0870293 63.8758 1.72019 66.1623C2.86341 67.7954 3.76165 68.367 4.33325 67.8771C4.90486 67.4688 6.86466 66.7339 8.82445 66.1623C10.7842 65.5907 12.5807 64.6108 12.8257 63.9575C13.1523 62.9776 13.9689 62.8143 16.0104 63.2226C18.4601 63.6309 18.8684 63.4676 19.5217 61.6711C20.0116 60.6095 21.0732 59.4663 21.9714 59.1397C22.788 58.8947 23.7679 58.1598 23.9312 57.5065C24.2578 56.6899 3.10838 19.1272 1.3119 17.3307C1.23024 17.1674 0.821953 17.3307 0.576978 17.6573Z" fill="white"/>
<path d="M114.653 53.4236C113.837 55.4651 114.98 57.2616 116.94 56.9349C119.226 56.6083 119.634 55.2201 118.001 53.5053C116.368 51.8721 115.225 51.8721 114.653 53.4236Z" fill="white"/>
<path d="M26.4626 65.6724C25.891 67.1422 26.7076 68.5304 28.1774 68.5304C29.6473 68.5304 30.3005 67.3055 29.7289 65.754C29.0756 64.1209 27.0342 64.0392 26.4626 65.6724Z" fill="white"/>
<path d="M14.0506 68.2854C14.2139 70.1635 13.9689 70.6535 12.4174 70.8168C11.1926 70.9801 10.621 71.5517 10.7843 72.45C10.9476 73.4299 10.131 74.1648 8.17121 74.818C4.33327 76.2062 1.63855 76.1246 1.63855 74.7364C1.63855 74.0831 1.31192 73.3482 0.90363 73.1032C0.576998 72.8582 0.168707 74.9814 0.168707 77.8394C0.00539063 84.4537 1.14861 85.7602 5.39483 83.8004C6.94634 82.9839 9.64106 82.4123 11.4375 82.4123C13.1524 82.4123 14.8672 82.004 15.1122 81.5957C15.3571 81.1057 16.337 80.7791 17.2353 80.7791C18.0518 80.7791 18.7868 80.3708 18.7868 79.9625C18.7868 79.4726 20.5016 79.1459 22.543 79.1459C25.6461 79.1459 30.9538 78.2477 34.8734 77.1045C36.3433 76.6145 34.5468 71.96 32.5053 70.8985C31.1988 70.2452 30.2189 70.3268 28.0958 71.4701C25.2378 73.0216 23.6046 72.6133 25.2378 70.6535C26.5443 69.102 24.9928 68.2037 22.9513 69.3469C22.0531 69.7552 20.5833 70.1635 19.685 70.1635C18.7051 70.1635 17.9702 70.4902 17.9702 70.9801C17.9702 71.3884 17.6436 71.7967 17.2353 71.7967C16.9086 71.7967 16.7453 70.8168 16.9903 69.6736C17.2353 68.3671 16.9086 67.2238 16.2554 66.8155C14.2956 65.5907 13.724 65.999 14.0506 68.2854Z" fill="white"/>
<path d="M82.2352 73.1849C81.9086 73.6748 80.9287 73.9198 80.0305 73.6748C78.9689 73.4299 77.5807 74.0831 75.8659 75.7979C74.0694 77.6761 73.0079 78.166 72.3546 77.5128C71.6197 76.9412 70.8031 77.1045 69.7415 77.9211C68.8433 78.5743 66.3119 79.1459 63.9438 79.1459C60.5142 79.1459 59.6159 79.3909 59.6159 80.4525C59.6159 81.514 59.0443 81.6773 56.1863 81.1874C54.2265 80.8607 52.3483 80.2891 51.8584 79.8809C50.6335 78.656 47.3672 79.0643 47.3672 80.3708C47.3672 82.5756 50.6335 88.1283 51.94 88.1283C52.5933 88.1283 52.9199 88.455 52.675 88.9449C52.1034 89.8431 53.6549 92.7012 65.0054 110.993C69.5782 118.424 80.847 137.123 90.0744 152.638C99.3018 168.153 109.182 184.322 112.04 188.568L117.185 196.325L126.984 196.57C132.945 196.734 137.436 196.407 138.416 195.917C139.641 195.264 140.784 195.264 142.417 195.835C143.642 196.325 147.398 196.734 150.828 196.734C156.299 196.734 156.952 196.57 156.544 195.264C155.809 192.732 90.1561 82.9022 89.1762 82.5756C88.6046 82.4123 88.1963 82.8205 88.1963 83.5555C88.1963 84.2904 87.788 84.862 87.3797 84.862C85.9915 84.862 85.4199 82.3306 86.5631 81.5957C87.2164 81.1874 87.3797 80.2075 87.0531 78.901C86.3998 76.1246 82.8885 72.0417 82.2352 73.1849ZM71.0481 85.6786C71.0481 86.0869 70.4764 86.4952 69.8232 86.4952C69.1699 86.4952 68.5983 86.0869 68.5983 85.6786C68.5983 85.1886 69.1699 84.862 69.8232 84.862C70.4764 84.862 71.0481 85.1886 71.0481 85.6786ZM78.234 91.2313C78.3973 92.2112 78.0707 93.0278 77.5807 93.0278C77.0908 93.0278 76.9274 92.6195 77.1724 92.2112C77.4174 91.7213 77.0908 91.1497 76.4375 90.9047C75.7026 90.6597 75.3759 90.0881 75.6209 89.5982C76.4375 88.3733 77.989 89.3532 78.234 91.2313ZM90.646 94.5793C89.6661 96.5391 88.1963 96.8658 88.1963 95.0693C88.1963 94.0077 90.7277 91.9663 91.2993 92.6195C91.4626 92.7828 91.2176 93.6811 90.646 94.5793ZM86.9714 96.2941C86.7264 96.7024 85.9098 97.1107 85.2566 97.1107C84.6033 97.1107 84.2767 96.7024 84.5217 96.2941C84.7666 95.8042 85.5832 95.4776 86.2365 95.4776C86.8897 95.4776 87.2164 95.8042 86.9714 96.2941ZM98.0769 106.338C96.7704 107.645 95.9538 106.338 97.2603 104.787C97.9953 103.888 98.4852 103.807 98.6485 104.46C98.8118 104.95 98.5669 105.848 98.0769 106.338ZM97.9953 114.259C97.9953 114.667 97.587 115.076 97.097 115.076C96.6887 115.076 96.5254 114.667 96.7704 114.259C97.0154 113.769 97.4236 113.442 97.6686 113.442C97.8319 113.442 97.9953 113.769 97.9953 114.259ZM92.2792 130.101C92.2792 130.346 91.9525 130.754 91.4626 130.999C91.0543 131.244 90.646 131.081 90.646 130.672C90.646 130.182 91.0543 129.774 91.4626 129.774C91.9525 129.774 92.2792 129.937 92.2792 130.101ZM142.091 186.935C142.091 187.343 141.764 187.751 141.274 187.751C140.866 187.751 140.458 187.343 140.458 186.935C140.458 186.445 140.866 186.118 141.274 186.118C141.764 186.118 142.091 186.445 142.091 186.935ZM118.002 191.018C118.246 191.426 117.757 191.834 116.858 191.834C115.96 191.834 114.98 191.426 114.735 191.018C114.49 190.528 114.98 190.201 115.878 190.201C116.777 190.201 117.757 190.528 118.002 191.018Z" fill="white"/>
<path d="M29.4839 81.514C28.8307 81.9223 28.5857 82.8205 28.8307 83.3921C29.1573 84.4537 28.0957 84.617 22.6246 84.5353C17.1535 84.4537 15.9287 84.6987 15.9287 85.6786C15.9287 86.4951 16.9086 86.9851 18.705 87.1484C22.788 87.5567 26.2993 92.6195 23.6862 94.2527C23.2779 94.4976 22.8696 94.2527 22.8696 93.5994C22.8696 92.2929 20.1749 89.5982 19.1133 89.9248C18.705 90.0064 16.8269 89.2715 14.8671 88.21C11.6008 86.5768 10.9475 86.4951 6.86461 87.3117C3.84326 87.965 2.04678 88.8632 1.2302 90.0881C0.168641 91.7213 0.00532503 99.1522 0.168641 144.146L0.413616 196.325H22.053H43.6924L43.4475 175.911C42.8759 118.097 42.3043 98.7439 41.161 98.7439C40.5078 98.7439 40.0178 98.3356 40.0178 97.9273C40.0178 97.4373 40.5894 97.1107 41.2427 97.1107C42.1409 97.1107 42.4676 96.2125 42.4676 94.0077C42.4676 90.4147 41.8143 89.2715 39.6095 88.8632C38.6296 88.6183 37.7314 87.475 37.2415 85.9235C36.6698 83.6371 36.2616 83.3105 34.5467 83.7188C32.9952 84.1271 32.5053 83.8821 32.097 82.4939C31.607 80.6158 31.1987 80.4524 29.4839 81.514ZM32.5053 89.5165C32.1786 92.2929 30.2188 93.0278 30.2188 90.3331C30.2188 88.2916 30.7905 87.3117 32.0153 87.3117C32.4236 87.3117 32.6686 88.2916 32.5053 89.5165ZM13.8872 98.3356C14.4588 99.0705 14.7855 99.7238 14.6221 99.8054C14.4588 99.9687 13.3156 100.704 12.0907 101.439C9.96762 102.745 9.88596 102.745 8.66109 100.214C7.92617 98.8255 7.35456 97.519 7.35456 97.3557C7.35456 96.4574 13.0706 97.3557 13.8872 98.3356ZM26.6259 100.459C25.401 102.255 20.9915 105.277 19.6033 105.277C19.1133 105.277 18.7867 104.623 18.7867 103.725C18.7867 102.663 19.6033 102.01 21.5631 101.684C23.1146 101.357 24.7477 100.622 25.3194 99.9687C26.8709 98.0906 28.0141 98.4989 26.6259 100.459ZM39.6095 103.643C39.8545 104.052 39.7729 104.46 39.2829 104.46C38.8746 104.46 38.2213 104.052 37.9764 103.643C37.7314 103.153 37.8131 102.827 38.303 102.827C38.7113 102.827 39.3646 103.153 39.6095 103.643ZM31.852 104.46C31.852 104.868 30.9538 105.277 29.8106 105.277C28.6673 105.277 27.7691 104.868 27.7691 104.46C27.7691 103.97 28.6673 103.643 29.8106 103.643C30.9538 103.643 31.852 103.97 31.852 104.46ZM15.9287 106.093C16.1736 106.501 15.847 106.91 15.1937 106.91C14.4588 106.91 13.8872 106.501 13.8872 106.093C13.8872 105.603 14.2138 105.277 14.6221 105.277C15.1121 105.277 15.6837 105.603 15.9287 106.093ZM25.5643 110.258C25.0744 110.748 24.0128 110.993 23.1962 110.748C21.8081 110.503 21.8897 110.339 23.6862 109.604C25.9726 108.625 26.8709 108.951 25.5643 110.258ZM8.98772 119.893C8.98772 121.282 7.51788 121.608 7.02793 120.383C6.78295 119.648 7.02793 119.158 7.76285 119.158C8.41612 119.158 8.98772 119.485 8.98772 119.893Z" fill="white"/>
<path d="M38.3848 83.4738C38.3848 84.9436 40.6712 86.9034 41.4061 86.1685C42.141 85.5152 40.6712 83.0655 39.3647 82.5755C38.7931 82.4122 38.3848 82.8205 38.3848 83.4738Z" fill="white"/>
<path d="M678.421 110.748C676.462 111.238 675.972 113.197 677.442 114.667C678.258 115.402 680.218 115.892 682.749 115.892H686.751V155.006C686.751 187.996 686.914 194.202 687.894 195.019C689.854 196.652 692.467 194.692 692.467 191.671C692.467 189.303 692.548 189.221 693.936 190.364C699.653 195.509 709.615 196.815 716.556 193.467C723.252 190.201 727.008 183.423 727.008 174.278C727.171 160.151 720.067 151.822 707.9 151.822C703.082 151.822 699.163 153.455 695.406 156.966L692.467 159.743V136.225C692.467 108.869 692.793 110.094 684.872 110.258C682.096 110.339 679.238 110.503 678.421 110.748ZM713.126 157.864C719.006 160.232 722.517 168.317 721.374 176.237C719.414 189.793 708.308 194.447 696.386 186.771L692.467 184.322V175.503C692.467 167.01 692.548 166.683 694.998 163.335C699.163 157.538 706.92 155.251 713.126 157.864Z" fill="white"/>
<path d="M570.388 128.141C569.571 130.672 570.551 131.407 574.879 131.407H578.962L579.125 162.601L579.37 193.876L602.561 194.121C620.607 194.284 625.915 194.039 626.487 193.304C627.63 191.426 627.222 182.362 625.915 181.219C623.465 179.177 621.832 180.565 621.587 185.138L621.342 189.384H602.969H584.678V160.396V131.407H588.761C591.864 131.407 593.007 131.081 593.579 129.937C595.13 127.079 593.17 126.508 581.738 126.508C571.613 126.508 570.878 126.589 570.388 128.141Z" fill="white"/>
<path d="M641.104 153.373C638.736 154.19 636.449 155.415 636.041 155.986C635.061 157.538 635.143 164.642 636.123 166.602C636.613 167.418 637.429 168.153 638.001 168.153C640.287 168.072 641.43 166.439 641.839 162.274C642.165 158.599 642.492 157.946 644.288 157.456C647.881 156.476 656.537 156.721 659.395 157.864C662.988 159.416 663.886 161.294 663.886 167.418V172.4L661.682 171.828C660.375 171.501 656.129 171.093 652.209 170.848C645.677 170.44 644.697 170.603 640.532 172.645C635.306 175.176 633.673 177.789 633.673 183.423C633.673 191.181 638.164 195.427 646.248 195.346C652.291 195.264 656.782 193.549 660.865 189.548C663.641 186.853 663.886 186.771 663.886 188.405C663.886 189.466 664.785 191.181 665.928 192.243C667.643 193.957 668.623 194.284 673.195 194.284C678.748 194.284 679.81 193.712 678.993 191.018C678.585 189.793 677.605 189.384 674.257 189.221L670.011 188.976L669.602 174.686C669.112 158.763 668.623 156.966 663.968 154.108C659.803 151.495 647.391 151.087 641.104 153.373ZM660.293 176.401C662.253 176.891 663.886 177.789 663.886 178.279C663.886 179.422 661.845 182.525 659.069 185.547C652.944 192.243 640.369 191.834 639.552 184.893C638.736 178.524 642.41 175.503 651.066 175.503C654.169 175.503 658.252 175.911 660.293 176.401Z" fill="white"/>
<path d="M548.911 198.04C547.197 198.775 548.667 200 551.28 200C552.913 200 553.648 199.673 553.484 198.938C553.076 197.877 550.626 197.387 548.911 198.04Z" fill="white"/>
</g>
<defs>
<clipPath id="clip0_5_283">
<rect width="727.005" height="200" fill="white" transform="translate(0.00537109)"/>
</clipPath>
</defs>
</svg>
