<?xml version="1.0" standalone="no"?>
<!DOCTYPE svg PUBLIC "-//W3C//DTD SVG 20010904//EN"
 "http://www.w3.org/TR/2001/REC-SVG-20010904/DTD/svg10.dtd">
<svg version="1.0" xmlns="http://www.w3.org/2000/svg"
 width="1359.000000pt" height="373.000000pt" viewBox="0 0 1359.000000 373.000000"
 preserveAspectRatio="xMidYMid meet">

<g transform="translate(0.000000,373.000000) scale(0.100000,-0.100000)"
fill="#000000" stroke="none">
<path d="M525 2779 l-528 -951 21 -36 c11 -21 232 -419 491 -887 260 -467 475
-853 479 -856 4 -4 154 237 334 536 l326 542 -58 51 c-115 102 -208 255 -251
417 -18 64 -22 107 -22 215 0 167 20 247 96 399 42 83 734 1342 818 1489 l18
32 -598 0 -599 0 -527 -951z"/>
<path d="M2143 3163 c-172 -312 -311 -568 -310 -569 1 -2 34 7 72 18 95 28
300 30 394 4 152 -42 273 -117 390 -242 57 -61 84 -101 126 -188 69 -143 90
-234 88 -391 -1 -86 -7 -142 -22 -199 -42 -159 -149 -334 -257 -419 -29 -23
-52 -45 -51 -48 8 -28 653 -1087 658 -1081 4 4 228 406 498 894 l492 887 -527
950 -528 951 -355 0 -356 0 -312 -567z"/>
<path d="M5252 3719 c-235 -35 -399 -189 -473 -441 -26 -91 -37 -330 -20 -434
40 -235 155 -407 326 -484 90 -41 159 -55 270 -54 286 2 485 164 567 460 31
115 31 383 0 499 -63 231 -207 388 -405 439 -75 20 -191 26 -265 15z m233
-238 c145 -64 225 -230 225 -466 0 -233 -75 -392 -219 -462 -48 -24 -68 -28
-141 -28 -76 0 -93 3 -152 33 -145 71 -211 214 -211 457 0 268 90 433 263 482
64 18 174 11 235 -16z"/>
<path d="M6825 3723 c-97 -14 -204 -62 -250 -113 -28 -31 -35 -24 -35 30 l0
50 -115 0 -115 0 0 -944 0 -945 55 25 c31 13 82 38 115 54 l60 30 0 271 0 271
48 -40 c124 -103 293 -136 456 -87 187 56 320 212 378 440 32 127 32 390 0
509 -63 228 -195 377 -382 430 -60 16 -168 26 -215 19z m172 -246 c91 -47 162
-147 194 -277 18 -72 18 -307 0 -380 -44 -180 -145 -280 -298 -296 -109 -12
-241 47 -318 141 l-35 42 0 310 0 310 29 40 c46 64 120 113 198 133 64 16 174
5 230 -23z"/>
<path d="M8232 3719 c-169 -25 -310 -119 -401 -264 -77 -123 -118 -344 -100
-537 31 -328 215 -555 489 -604 178 -32 381 19 503 126 l47 42 -72 78 -71 79
-36 -31 c-19 -17 -60 -43 -91 -57 -48 -23 -68 -26 -160 -26 -96 0 -110 3 -158
28 -97 51 -159 132 -196 256 -9 30 -16 67 -16 83 l0 28 455 0 455 0 6 26 c11
44 -3 296 -20 359 -40 146 -123 269 -226 335 -103 66 -274 99 -408 79z m226
-229 c113 -50 192 -181 192 -322 l0 -48 -345 0 -345 0 6 43 c23 162 83 260
195 318 86 43 210 47 297 9z"/>
<path d="M9730 3719 c-78 -14 -152 -50 -210 -105 l-50 -47 0 62 0 61 -120 0
-120 0 2 -677 3 -678 115 0 115 0 5 480 c5 460 6 482 26 525 49 105 128 158
248 167 173 13 284 -72 315 -242 7 -37 11 -223 11 -497 l0 -438 115 0 115 0 0
465 c0 513 -4 562 -61 683 -55 120 -127 185 -244 221 -76 24 -193 32 -265 20z"/>
<path d="M10090 1931 l-115 -56 -3 -222 -2 -222 -108 -3 -107 -3 0 -100 0
-100 107 -3 107 -3 3 -477 c3 -474 3 -477 27 -536 32 -79 85 -131 158 -152 80
-23 215 -15 303 18 l65 25 12 99 c18 146 21 137 -43 102 -39 -22 -75 -32 -120
-36 -84 -6 -121 9 -145 62 -17 38 -19 74 -19 469 l0 427 165 0 165 0 0 105 0
105 -165 0 -165 0 -2 278 -3 279 -115 -56z"/>
<path d="M7200 1931 l-105 -50 -3 -905 -2 -906 120 0 120 0 0 50 c0 55 7 61
36 29 56 -62 188 -109 308 -109 267 0 447 150 523 438 23 85 26 117 26 262 1
138 -3 179 -21 255 -61 243 -200 397 -407 450 -148 38 -323 1 -424 -90 l-41
-37 0 331 c0 258 -3 331 -12 331 -7 0 -60 -22 -118 -49z m588 -722 c135 -67
195 -206 196 -454 0 -200 -32 -311 -119 -404 -65 -69 -132 -94 -240 -89 -101
4 -175 37 -245 107 l-50 50 0 331 0 331 49 49 c81 81 146 108 267 109 71 1 88
-3 142 -30z"/>
<path d="M10876 1960 c-65 -20 -100 -79 -94 -157 4 -41 11 -60 33 -83 102
-106 278 -19 251 125 -8 43 -50 94 -93 111 -36 16 -55 16 -97 4z"/>
<path d="M5195 1447 c-82 -28 -122 -57 -178 -131 l-37 -48 0 81 0 81 -115 0
-115 0 0 -680 0 -680 115 0 115 0 0 413 c0 316 4 428 14 478 25 119 71 187
158 234 46 26 63 30 133 29 65 0 90 -4 136 -26 l57 -26 16 103 c9 57 16 108
16 114 0 5 -25 22 -56 37 -67 33 -192 43 -259 21z"/>
<path d="M6073 1445 c-204 -44 -360 -201 -423 -425 -31 -114 -43 -251 -30
-373 20 -195 73 -327 176 -436 105 -112 216 -160 389 -168 129 -6 200 8 311
62 81 40 181 137 226 220 130 242 126 637 -7 860 -48 80 -136 167 -206 205
-121 64 -293 86 -436 55z m306 -240 c83 -45 139 -125 177 -250 26 -85 26 -325
0 -410 -40 -131 -100 -210 -192 -256 -42 -21 -63 -24 -149 -24 -115 0 -166 18
-232 85 -91 90 -127 205 -127 400 1 221 52 358 164 435 66 45 106 56 210 52
83 -2 102 -6 149 -32z"/>
<path d="M8895 1450 c-301 -65 -475 -321 -475 -699 0 -173 28 -300 94 -426 38
-73 143 -181 213 -218 76 -41 192 -67 292 -67 315 1 523 187 587 526 24 132
15 338 -21 459 -82 278 -262 422 -540 431 -60 2 -128 -1 -150 -6z m270 -238
c91 -43 143 -108 187 -231 29 -81 37 -301 14 -404 -32 -143 -94 -234 -198
-289 -37 -20 -58 -23 -148 -23 -95 0 -110 3 -156 27 -93 49 -163 151 -190 277
-18 85 -18 277 1 364 28 133 120 256 218 290 24 9 79 16 127 16 74 1 93 -3
145 -27z"/>
<path d="M11732 1440 c-41 -11 -98 -33 -127 -50 -75 -43 -167 -145 -209 -233
-100 -207 -111 -525 -27 -755 86 -237 262 -362 511 -362 155 0 278 47 373 141
51 52 117 161 117 196 0 6 -47 27 -105 46 l-105 36 -25 -49 c-51 -101 -158
-157 -281 -147 -142 11 -234 102 -281 280 -23 85 -23 316 0 410 32 128 83 205
169 252 48 27 62 30 143 30 73 0 98 -4 131 -22 45 -24 88 -70 112 -119 l15
-32 101 35 c56 20 105 40 111 45 15 13 -37 108 -93 169 -119 130 -331 181
-530 129z"/>
<path d="M12862 1440 c-143 -38 -242 -118 -279 -223 -27 -80 -24 -188 9 -259
54 -117 148 -184 401 -288 160 -65 185 -78 235 -124 45 -42 62 -76 62 -129 0
-56 -31 -104 -90 -137 -40 -22 -57 -25 -150 -25 -99 0 -110 2 -172 33 -36 18
-89 53 -117 78 l-51 45 -80 -68 c-44 -37 -80 -73 -80 -80 0 -22 116 -114 192
-153 109 -55 204 -74 337 -67 295 14 456 166 438 414 -7 99 -33 159 -99 229
-68 72 -129 107 -319 183 -180 73 -225 97 -268 146 -26 30 -31 44 -31 85 0 41
5 55 31 85 87 99 314 83 448 -31 l41 -35 80 67 81 68 -38 38 c-55 56 -127 102
-213 133 -104 38 -262 44 -368 15z"/>
<path d="M10807 1423 c-4 -3 -7 -309 -7 -680 l0 -673 120 0 120 0 0 680 0 680
-113 0 c-63 0 -117 -3 -120 -7z"/>
</g>
</svg>
