<svg width="1023" height="200" viewBox="0 0 1023 200" fill="none" xmlns="http://www.w3.org/2000/svg">
<g clip-path="url(#clip0_5_285)">
<path d="M127.162 78.1735V156.347H133.14H139.118V78.1735V-1.52588e-05H133.14H127.162V78.1735Z" fill="white"/>
<path d="M818.308 78.1735V156.347H824.286H830.264V78.1735V-1.52588e-05H824.286H818.308V78.1735Z" fill="white"/>
<path d="M0.244629 82.2661V156.347H6.45253H12.6604V125.997V95.6476H34.9629C58.4609 95.6476 62.0017 95.4177 69.6811 93.3944C81.2692 90.3134 90.742 83.3238 95.2025 74.4948C98.5593 67.827 100.031 61.0213 100.077 52.4222C100.077 31.9132 89.9603 17.658 70.8307 11.2662C62.9214 8.59906 63.1513 8.59906 30.5024 8.41513L0.244629 8.23119V82.2661ZM55.196 18.8536C72.4402 20.3711 82.6947 28.0965 86.9713 42.7655C88.2128 46.9961 88.2128 58.2623 86.9713 62.5388C83.1086 75.7823 73.6818 83.1398 58.185 85.0712C56.0237 85.3011 45.0335 85.531 33.4914 85.531H12.6604V51.9624V18.3938H31.4221C41.7226 18.3938 52.437 18.6237 55.196 18.8536Z" fill="#1177FF"/>
<path d="M424.589 64.0103L424.451 119.789L423.439 123.468C420.68 133.309 415.208 140.528 407.667 144.299C402.149 147.058 398.378 147.748 390.423 147.472C383.203 147.196 380.214 146.552 375.018 144.069C372.489 142.828 370.695 141.54 368.35 139.149C363.338 134.091 360.993 128.389 360.441 119.651L360.165 115.421H353.957H347.749L348.025 119.881C349.037 136.068 357.268 148.76 370.419 154.278C382.973 159.612 401.321 159.428 413.323 153.91C424.773 148.622 431.855 139.701 435.809 125.675C436.821 122.089 436.821 122.043 436.959 65.1599L437.143 8.27719H430.935H424.727L424.589 64.0103Z" fill="#FF00A8"/>
<path d="M295.925 32.1891V46.4443H285.808H275.691V51.2727V56.101H285.808H295.879L296.017 96.8892C296.2 137.31 296.2 137.769 297.212 141.31C299.143 148.208 302.96 153.542 307.467 155.749C311.099 157.543 316.204 158.324 322.136 158.049C325.033 157.911 328.619 157.543 330.137 157.221L332.85 156.669L332.528 151.795C332.344 149.128 332.16 146.874 332.068 146.828C332.022 146.736 330.735 146.92 329.217 147.196C325.86 147.84 317.813 147.518 315.928 146.644C311.513 144.667 309.076 140.666 308.34 134.275C308.064 132.067 307.881 114.409 307.881 93.2105V56.101H319.377H330.873V51.2727V46.4443L319.515 46.3523L308.11 46.2144L307.972 32.0512L307.881 17.934H301.903H295.925V32.1891Z" fill="white"/>
<path d="M206.715 44.7888C196.138 46.4903 187.999 50.7668 180.642 58.5842C173.008 66.6315 168.364 76.6561 166.478 88.9799C165.559 95.0498 165.559 107.696 166.524 113.903C169.191 131.883 177.79 144.851 192.46 152.99C202.852 158.738 219.176 159.842 231.362 155.611C248.607 149.679 260.608 133.263 263.276 112.11C263.873 107.144 263.873 95.1418 263.23 89.8996C262.126 80.8866 258.953 72.0116 254.493 65.2519C247.457 54.7675 237.386 47.9158 225.108 45.2487C220.694 44.283 211.359 44.0531 206.715 44.7888ZM219.912 54.9514C228.005 55.7331 236.559 60.7454 241.985 67.827C246.537 73.805 249.802 82.0362 251.182 90.8193C252.147 97.1651 251.779 110.822 250.492 116.387C246.767 132.389 237.11 143.425 223.729 147.012C219.452 148.162 209.428 148.162 205.335 146.966C196.23 144.345 188.091 137.401 183.585 128.435C179.86 121.123 178.204 113.857 177.882 103.465C177.285 83.3698 183.722 68.011 196.138 60.0097C198.989 58.1703 203.634 56.101 206.347 55.4112C208.278 54.9054 214.164 54.3536 215.682 54.5375C216.463 54.6295 218.349 54.8135 219.912 54.9514Z" fill="white"/>
<path d="M617.356 44.6509C611.01 45.4326 605.86 47.4559 600.617 51.2267C590.501 58.4462 584.063 70.7241 581.672 87.2325C580.844 93.1645 580.706 107.925 581.442 113.582C583.373 128.067 588.294 139.425 595.927 146.92C601.353 152.3 605.998 155.06 612.803 156.899C616.068 157.819 617.724 157.957 623.794 157.957C631.473 157.911 634.6 157.359 640.302 155.151C644.808 153.358 650.419 149.449 654.097 145.495L657.362 142V148.438C657.362 155.795 656.718 163.153 655.707 167.153C654.051 173.821 648.763 181.501 643.705 184.765C636.899 189.134 626.92 190.835 617.586 189.226C610.044 187.892 604.342 184.765 597.766 178.328L593.582 174.235L590.317 177.776L587.006 181.317L588.707 183.386C595.375 191.525 605.538 197.181 617.448 199.389C622.46 200.308 630.691 200.078 636.439 198.883C654.557 195.066 666.421 181.501 668.858 161.865C669.134 159.382 669.318 138.045 669.318 102.223V46.4443H663.846H658.42L658.098 48.1457C657.96 49.1114 657.822 52.5142 657.822 55.7332C657.822 58.998 657.638 61.6192 657.408 61.6192C657.178 61.6192 656.351 60.7455 655.569 59.6418C647.108 48.1917 633.036 42.6276 617.356 44.6509ZM636.439 56.285C640.624 57.6185 644.624 59.8717 647.659 62.6308C650.648 65.3439 654.511 70.5401 656.075 73.897L657.362 76.794V102.085C657.362 127.055 657.362 127.423 656.397 129.354C652.58 136.804 646.05 142.828 638.968 145.449C632.485 147.84 623.058 148.346 616.942 146.69C612.849 145.541 611.01 144.621 607.469 141.954C600.617 136.804 596.157 127.975 593.812 114.961C593.444 112.754 593.214 107.834 593.214 101.396C593.214 91.0952 593.536 88.0602 595.375 80.7027C598.732 67.1373 607.101 57.9864 618.413 55.3653C622.92 54.3536 631.841 54.8135 636.439 56.285Z" fill="white"/>
<path d="M733.144 44.6049C717.832 46.3983 705.646 57.4805 700.22 74.4948C697.69 82.5421 696.449 91.1871 696.449 101.12C696.449 125.262 703.944 143.104 717.97 152.254C723.626 155.979 729.19 157.681 736.731 158.048C746.572 158.554 755.861 156.255 762.391 151.795C765.334 149.771 769.15 146.368 771.128 144.023L772.783 142V150.921C772.737 163.383 771.541 169.223 767.633 175.844C761.977 185.455 750.94 190.651 737.927 189.732C732.133 189.364 729.052 188.582 724.407 186.329C719.717 184.03 715.348 180.811 711.946 176.994C710.428 175.339 709.141 174.281 708.957 174.557C708.727 174.787 707.255 176.35 705.646 178.052L702.749 181.179L704.036 183.018C706.565 186.697 712.911 191.663 718.751 194.652C730.201 200.492 743.721 201.596 756.505 197.733C768.92 194.008 778.761 183.846 782.67 170.786C784.923 163.291 784.877 165.268 785.061 104.017L785.245 46.4443H779.497H773.703L773.657 50.215C773.611 52.3303 773.473 55.8711 773.289 58.1243L773.013 62.1709L771.587 60.1936C763.126 48.3756 749.193 42.7655 733.144 44.6049ZM752.642 56.4689C759.494 58.7681 764.598 62.7688 769.012 69.2985C773.013 75.2305 772.783 73.1152 772.783 102.177V127.929L770.622 131.561C767.955 136.068 763.034 141.126 759.31 143.196C754.113 146.093 749.837 147.242 743.261 147.518C739.582 147.656 736.317 147.518 734.524 147.15C724.361 145.173 716.728 137.999 712.313 126.273C708.543 116.295 707.531 97.8549 710.014 84.8873C711.44 77.5757 714.613 69.8963 717.97 65.6198C721.602 61.0673 727.856 56.9747 733.466 55.5492C738.571 54.2616 747.354 54.6755 752.642 56.4689Z" fill="white"/>
<path d="M896.941 44.7889C887.376 46.5363 879.697 50.7668 872.477 58.3083C868.247 62.7688 865.718 66.4475 863.051 72.0116C859.188 80.1509 857.532 87.6004 857.119 98.6366C856.337 117.996 861.027 132.619 871.604 143.609C880.801 153.174 892.756 158.186 906.414 158.186C921.957 158.186 933.775 152.99 942.512 142.276L945.225 138.965L941.5 136.114L937.821 133.263L934.51 136.666C930.694 140.62 928.072 142.506 923.474 144.621C918.784 146.736 914.967 147.61 908.897 147.932C898.229 148.484 889.905 145.495 882.548 138.459C874.225 130.55 868.983 117.214 868.891 103.787V102.085H908.253H947.662L947.386 93.2105C947.064 82.864 946.144 77.6217 943.339 70.6321C938.005 57.2966 927.383 48.0537 914.185 45.2947C909.173 44.237 901.218 44.0071 896.941 44.7889ZM912.07 55.4572C924.578 58.2163 934.05 71.3219 935.384 87.6463L935.706 91.509H902.551H869.396L869.672 89.7616C870.27 85.577 872.293 78.6334 873.949 75.0466C881.352 59.228 895.745 51.8705 912.07 55.4572Z" fill="white"/>
<path d="M1009.24 44.6049C999.44 45.9844 992.037 50.9047 986.013 59.9637L983.622 63.5964L983.484 54.9974L983.392 46.4443H977.414H971.436V101.396V156.347H977.644H983.852V118.272C983.852 82.2661 983.898 80.0129 984.725 77.6677C988.496 66.6774 995.992 59.2739 1005.92 56.6988C1009.1 55.917 1017.6 55.6411 1020.78 56.2849L1022.48 56.6068V50.9047V45.1567L1021.01 44.8808C1018.29 44.329 1012.13 44.191 1009.24 44.6049Z" fill="white"/>
<path d="M470.803 85.623C470.941 119.835 471.079 125.4 471.723 129.124C474.712 145.587 483.587 154.876 498.854 157.543C503.958 158.462 514.075 158.186 519.409 157.037C527.64 155.243 535.963 150.139 540.654 143.977L541.849 142.414L542.171 149.357L542.539 156.347H548.195H553.897V101.396V46.4443H547.919H541.941V86.2208C541.941 124.112 541.895 126.043 541.068 128.159C538.492 134.734 533.526 140.39 527.686 143.425C522.168 146.322 518.397 147.196 510.672 147.472C504.74 147.702 503.59 147.61 500.187 146.69C491.45 144.345 486.254 138.229 483.725 127.377C483.035 124.296 482.897 119.881 482.759 85.1631L482.575 46.4443H476.597H470.619L470.803 85.623Z" fill="white"/>
</g>
<defs>
<clipPath id="clip0_5_285">
<rect width="1022.23" height="200" fill="white" transform="translate(0.244629)"/>
</clipPath>
</defs>
</svg>
