<svg width="1023" height="200" viewBox="0 0 1023 200" fill="none" xmlns="http://www.w3.org/2000/svg">
<g clip-path="url(#clip0_5_284)">
<path d="M126.928 78.1735V156.347H132.906H138.884V78.1735V-1.52588e-05H132.906H126.928V78.1735Z" fill="black"/>
<path d="M818.074 78.1735V156.347H824.052H830.03V78.1735V-1.52588e-05H824.052H818.074V78.1735Z" fill="black"/>
<path d="M0.0107422 82.2661V156.347H6.21864H12.4265V125.997V95.6476H34.729C58.227 95.6476 61.7678 95.4177 69.4472 93.3944C81.0353 90.3134 90.5081 83.3238 94.9686 74.4948C98.3255 67.827 99.797 61.0213 99.8429 52.4222C99.8429 31.9132 89.7264 17.658 70.5968 11.2662C62.6875 8.59906 62.9174 8.59906 30.2685 8.41513L0.0107422 8.23119V82.2661ZM54.9621 18.8536C72.2063 20.3711 82.4608 28.0965 86.7374 42.7655C87.979 46.9961 87.979 58.2623 86.7374 62.5388C82.8747 75.7823 73.4479 83.1398 57.9511 85.0712C55.7899 85.3011 44.7996 85.531 33.2575 85.531H12.4265V51.9624V18.3938H31.1882C41.4887 18.3938 52.2031 18.6237 54.9621 18.8536Z" fill="#1177FF"/>
<path d="M424.355 64.0103L424.217 119.789L423.206 123.468C420.446 133.309 414.974 140.528 407.433 144.299C401.915 147.058 398.144 147.748 390.189 147.472C382.969 147.196 379.98 146.552 374.784 144.069C372.255 142.828 370.461 141.54 368.116 139.149C363.104 134.091 360.759 128.389 360.207 119.651L359.931 115.421H353.723H347.515L347.791 119.881C348.803 136.068 357.034 148.76 370.185 154.278C382.739 159.612 401.087 159.428 413.089 153.91C424.539 148.622 431.621 139.701 435.575 125.675C436.587 122.089 436.587 122.043 436.725 65.1599L436.909 8.27719H430.701H424.493L424.355 64.0103Z" fill="#FF00A8"/>
<path d="M295.691 32.1891V46.4443H285.574H275.458V51.2727V56.101H285.574H295.645L295.783 96.8892C295.967 137.31 295.967 137.769 296.978 141.31C298.91 148.208 302.726 153.542 307.233 155.749C310.866 157.543 315.97 158.324 321.902 158.049C324.799 157.911 328.386 157.543 329.903 157.221L332.616 156.669L332.294 151.795C332.11 149.128 331.926 146.874 331.834 146.828C331.788 146.736 330.501 146.92 328.983 147.196C325.627 147.84 317.579 147.518 315.694 146.644C311.279 144.667 308.842 140.666 308.106 134.275C307.831 132.067 307.647 114.409 307.647 93.2105V56.101H319.143H330.639V51.2727V46.4443L319.281 46.3523L307.877 46.2144L307.739 32.0512L307.647 17.934H301.669H295.691V32.1891Z" fill="black"/>
<path d="M206.481 44.7888C195.904 46.4903 187.765 50.7668 180.408 58.5842C172.774 66.6315 168.13 76.6561 166.244 88.9799C165.325 95.0498 165.325 107.696 166.29 113.903C168.958 131.883 177.557 144.851 192.226 152.99C202.618 158.738 218.943 159.842 231.128 155.611C248.373 149.679 260.375 133.263 263.042 112.11C263.639 107.144 263.639 95.1418 262.996 89.8996C261.892 80.8866 258.719 72.0116 254.259 65.2519C247.223 54.7675 237.152 47.9158 224.875 45.2487C220.46 44.283 211.125 44.0531 206.481 44.7888ZM219.678 54.9514C227.772 55.7331 236.325 60.7454 241.751 67.827C246.303 73.805 249.568 82.0362 250.948 90.8193C251.913 97.1651 251.546 110.822 250.258 116.387C246.533 132.389 236.877 143.425 223.495 147.012C219.218 148.162 209.194 148.162 205.101 146.966C195.996 144.345 187.857 137.401 183.351 128.435C179.626 121.123 177.97 113.857 177.649 103.465C177.051 83.3698 183.489 68.011 195.904 60.0097C198.755 58.1703 203.4 56.101 206.113 55.4112C208.044 54.9054 213.93 54.3536 215.448 54.5375C216.23 54.6295 218.115 54.8135 219.678 54.9514Z" fill="black"/>
<path d="M617.122 44.6509C610.776 45.4326 605.626 47.4559 600.383 51.2267C590.267 58.4462 583.829 70.7241 581.438 87.2325C580.61 93.1645 580.472 107.925 581.208 113.582C583.139 128.067 588.06 139.425 595.693 146.92C601.119 152.3 605.764 155.06 612.569 156.899C615.834 157.819 617.49 157.957 623.56 157.957C631.239 157.911 634.366 157.359 640.068 155.151C644.574 153.358 650.185 149.449 653.863 145.495L657.128 142V148.438C657.128 155.795 656.484 163.153 655.473 167.153C653.817 173.821 648.529 181.501 643.471 184.765C636.665 189.134 626.687 190.835 617.352 189.226C609.81 187.892 604.108 184.765 597.532 178.328L593.348 174.235L590.083 177.776L586.772 181.317L588.473 183.386C595.141 191.525 605.304 197.181 617.214 199.389C622.226 200.308 630.457 200.078 636.205 198.883C654.323 195.066 666.187 181.501 668.624 161.865C668.9 159.382 669.084 138.045 669.084 102.223V46.4443H663.612H658.186L657.864 48.1457C657.726 49.1114 657.588 52.5142 657.588 55.7332C657.588 58.998 657.404 61.6192 657.174 61.6192C656.944 61.6192 656.117 60.7455 655.335 59.6418C646.874 48.1917 632.802 42.6276 617.122 44.6509ZM636.205 56.285C640.39 57.6185 644.391 59.8717 647.426 62.6308C650.415 65.3439 654.277 70.5401 655.841 73.897L657.128 76.794V102.085C657.128 127.055 657.128 127.423 656.163 129.354C652.346 136.804 645.816 142.828 638.734 145.449C632.251 147.84 622.824 148.346 616.708 146.69C612.615 145.541 610.776 144.621 607.235 141.954C600.383 136.804 595.923 127.975 593.578 114.961C593.21 112.754 592.98 107.834 592.98 101.396C592.98 91.0952 593.302 88.0602 595.141 80.7027C598.498 67.1373 606.867 57.9864 618.179 55.3653C622.686 54.3536 631.607 54.8135 636.205 56.285Z" fill="black"/>
<path d="M732.911 44.6049C717.598 46.3983 705.412 57.4805 699.986 74.4948C697.457 82.5421 696.215 91.1871 696.215 101.12C696.215 125.262 703.71 143.104 717.736 152.254C723.392 155.979 728.956 157.681 736.497 158.048C746.338 158.554 755.627 156.255 762.157 151.795C765.1 149.771 768.916 146.368 770.894 144.023L772.549 142V150.921C772.503 163.383 771.308 169.223 767.399 175.844C761.743 185.455 750.707 190.651 737.693 189.732C731.899 189.364 728.818 188.582 724.174 186.329C719.483 184.03 715.115 180.811 711.712 176.994C710.194 175.339 708.907 174.281 708.723 174.557C708.493 174.787 707.021 176.35 705.412 178.052L702.515 181.179L703.802 183.018C706.332 186.697 712.677 191.663 718.517 194.652C729.968 200.492 743.487 201.596 756.271 197.733C768.686 194.008 778.527 183.846 782.436 170.786C784.689 163.291 784.643 165.268 784.827 104.017L785.011 46.4443H779.263H773.469L773.423 50.215C773.377 52.3303 773.239 55.8711 773.055 58.1243L772.779 62.1709L771.354 60.1936C762.892 48.3756 748.959 42.7655 732.911 44.6049ZM752.408 56.4689C759.26 58.7681 764.364 62.7688 768.778 69.2985C772.779 75.2305 772.549 73.1152 772.549 102.177V127.929L770.388 131.561C767.721 136.068 762.8 141.126 759.076 143.196C753.879 146.093 749.603 147.242 743.027 147.518C739.348 147.656 736.083 147.518 734.29 147.15C724.128 145.173 716.494 137.999 712.08 126.273C708.309 116.295 707.297 97.8549 709.78 84.8873C711.206 77.5757 714.379 69.8963 717.736 65.6198C721.368 61.0673 727.622 56.9747 733.232 55.5492C738.337 54.2616 747.12 54.6755 752.408 56.4689Z" fill="black"/>
<path d="M896.707 44.7889C887.142 46.5363 879.463 50.7668 872.243 58.3083C868.013 62.7688 865.484 66.4475 862.817 72.0116C858.954 80.1509 857.298 87.6004 856.885 98.6366C856.103 117.996 860.793 132.619 871.37 143.609C880.567 153.174 892.523 158.186 906.18 158.186C921.723 158.186 933.541 152.99 942.278 142.276L944.991 138.965L941.266 136.114L937.587 133.263L934.276 136.666C930.46 140.62 927.839 142.506 923.24 144.621C918.55 146.736 914.733 147.61 908.663 147.932C897.995 148.484 889.672 145.495 882.314 138.459C873.991 130.55 868.749 117.214 868.657 103.787V102.085H908.019H947.428L947.152 93.2105C946.83 82.864 945.91 77.6217 943.105 70.6321C937.771 57.2966 927.149 48.0537 913.951 45.2947C908.939 44.237 900.984 44.0071 896.707 44.7889ZM911.836 55.4572C924.344 58.2163 933.817 71.3219 935.15 87.6463L935.472 91.509H902.317H869.162L869.438 89.7616C870.036 85.577 872.059 78.6334 873.715 75.0466C881.118 59.228 895.512 51.8705 911.836 55.4572Z" fill="black"/>
<path d="M1009 44.6049C999.206 45.9844 991.803 50.9047 985.779 59.9637L983.388 63.5964L983.25 54.9974L983.158 46.4443H977.18H971.202V101.396V156.347H977.41H983.618V118.272C983.618 82.2661 983.664 80.0129 984.491 77.6677C988.262 66.6774 995.758 59.2739 1005.69 56.6988C1008.86 55.917 1017.37 55.6411 1020.54 56.2849L1022.24 56.6068V50.9047V45.1567L1020.77 44.8808C1018.06 44.329 1011.9 44.191 1009 44.6049Z" fill="black"/>
<path d="M470.569 85.623C470.707 119.835 470.845 125.4 471.489 129.124C474.478 145.587 483.353 154.876 498.62 157.543C503.724 158.462 513.841 158.186 519.175 157.037C527.406 155.243 535.729 150.139 540.42 143.977L541.615 142.414L541.937 149.357L542.305 156.347H547.961H553.663V101.396V46.4443H547.685H541.707V86.2208C541.707 124.112 541.661 126.043 540.834 128.159C538.259 134.734 533.292 140.39 527.452 143.425C521.934 146.322 518.163 147.196 510.438 147.472C504.506 147.702 503.356 147.61 499.953 146.69C491.216 144.345 486.02 138.229 483.491 127.377C482.801 124.296 482.663 119.881 482.525 85.1631L482.341 46.4443H476.363H470.385L470.569 85.623Z" fill="black"/>
</g>
<defs>
<clipPath id="clip0_5_284">
<rect width="1022.23" height="200" fill="white" transform="translate(0.0107422)"/>
</clipPath>
</defs>
</svg>
