<?xml version="1.0" standalone="no"?>
<!DOCTYPE svg PUBLIC "-//W3C//DTD SVG 20010904//EN"
 "http://www.w3.org/TR/2001/REC-SVG-20010904/DTD/svg10.dtd">
<svg version="1.0" xmlns="http://www.w3.org/2000/svg"
 width="2230.000000pt" height="441.000000pt" viewBox="0 0 2230.000000 441.000000"
 preserveAspectRatio="xMidYMid meet">

<g transform="translate(0.000000,441.000000) scale(0.100000,-0.100000)"
fill="#ffffff" stroke="none">
<path d="M2800 2690 l0 -1700 130 0 130 0 0 1700 0 1700 -130 0 -130 0 0
-1700z"/>
<path d="M17830 2690 l0 -1700 130 0 130 0 0 1700 0 1700 -130 0 -130 0 0
-1700z"/>
<path d="M40 2601 l0 -1611 135 0 135 0 0 660 0 660 485 0 c511 0 588 5 755
49 252 67 458 219 555 411 73 145 105 293 106 480 0 446 -220 756 -636 895
-172 58 -167 58 -877 62 l-658 4 0 -1610z m1195 1379 c375 -33 598 -201 691
-520 27 -92 27 -337 0 -430 -84 -288 -289 -448 -626 -490 -47 -5 -286 -10
-537 -10 l-453 0 0 730 0 730 408 0 c224 0 457 -5 517 -10z" fill="#1177ff"/>
<path d="M9268 2998 l-3 -1213 -22 -80 c-60 -214 -179 -371 -343 -453 -120
-60 -202 -75 -375 -69 -157 6 -222 20 -335 74 -55 27 -94 55 -145 107 -109
110 -160 234 -172 424 l-6 92 -135 0 -135 0 6 -97 c22 -352 201 -628 487 -748
273 -116 672 -112 933 8 249 115 403 309 489 614 22 78 22 79 25 1316 l4 1237
-135 0 -135 0 -3 -1212z" fill="#FF00A8"/>
<path d="M6470 3690 l0 -310 -220 0 -220 0 0 -105 0 -105 220 0 219 0 3 -887
c4 -879 4 -889 26 -966 42 -150 125 -266 223 -314 79 -39 190 -56 319 -50 63
3 141 11 174 18 l59 12 -7 106 c-4 58 -8 107 -10 108 -1 2 -29 -2 -62 -8 -73
-14 -248 -7 -289 12 -96 43 -149 130 -165 269 -6 48 -10 432 -10 893 l0 807
250 0 250 0 0 105 0 105 -247 2 -248 3 -3 308 -2 307 -130 0 -130 0 0 -310z"/>
<path d="M4530 3416 c-230 -37 -407 -130 -567 -300 -166 -175 -267 -393 -308
-661 -20 -132 -20 -407 1 -542 58 -391 245 -673 564 -850 226 -125 581 -149
846 -57 375 129 636 486 694 946 13 108 13 369 -1 483 -24 196 -93 389 -190
536 -153 228 -372 377 -639 435 -96 21 -299 26 -400 10z m287 -221 c176 -17
362 -126 480 -280 99 -130 170 -309 200 -500 21 -138 13 -435 -15 -556 -81
-348 -291 -588 -582 -666 -93 -25 -311 -25 -400 1 -198 57 -375 208 -473 403
-81 159 -117 317 -124 543 -13 437 127 771 397 945 62 40 163 85 222 100 42
11 170 23 203 19 17 -2 58 -6 92 -9z"/>
<path d="M13460 3419 c-138 -17 -250 -61 -364 -143 -220 -157 -360 -424 -412
-783 -18 -129 -21 -450 -5 -573 42 -315 149 -562 315 -725 118 -117 219 -177
367 -217 71 -20 107 -23 239 -23 167 1 235 13 359 61 98 39 220 124 300 210
l71 76 0 -140 c0 -160 -14 -320 -36 -407 -36 -145 -151 -312 -261 -383 -148
-95 -365 -132 -568 -97 -164 29 -288 97 -431 237 l-91 89 -71 -77 -72 -77 37
-45 c145 -177 366 -300 625 -348 109 -20 288 -15 413 11 394 83 652 378 705
805 6 54 10 518 10 1297 l0 1213 -119 0 -118 0 -7 -37 c-3 -21 -6 -95 -6 -165
0 -71 -4 -128 -9 -128 -5 0 -23 19 -40 43 -184 249 -490 370 -831 326z m415
-253 c91 -29 178 -78 244 -138 65 -59 149 -172 183 -245 l28 -63 0 -550 c0
-543 0 -551 -21 -593 -83 -162 -225 -293 -379 -350 -141 -52 -346 -63 -479
-27 -89 25 -129 45 -206 103 -149 112 -246 304 -297 587 -8 48 -13 155 -13
295 0 224 7 290 47 450 73 295 255 494 501 551 98 22 292 12 392 -20z"/>
<path d="M15978 3420 c-333 -39 -598 -280 -716 -650 -55 -175 -82 -363 -82
-579 0 -525 163 -913 468 -1112 123 -81 244 -118 408 -126 214 -11 416 39 558
136 64 44 147 118 190 169 l36 44 0 -194 c-1 -271 -27 -398 -112 -542 -123
-209 -363 -322 -646 -302 -126 8 -193 25 -294 74 -102 50 -197 120 -271 203
-33 36 -61 59 -65 53 -5 -5 -37 -39 -72 -76 l-63 -68 28 -40 c55 -80 193 -188
320 -253 249 -127 543 -151 821 -67 270 81 484 302 569 586 49 163 48 120 52
1452 l4 1252 -125 0 -126 0 -1 -82 c-1 -46 -4 -123 -8 -172 l-6 -88 -31 43
c-184 257 -487 379 -836 339z m424 -258 c149 -50 260 -137 356 -279 87 -129
82 -83 82 -715 l0 -560 -47 -79 c-58 -98 -165 -208 -246 -253 -113 -63 -206
-88 -349 -94 -80 -3 -151 0 -190 8 -221 43 -387 199 -483 454 -82 217 -104
618 -50 900 31 159 100 326 173 419 79 99 215 188 337 219 111 28 302 19 417
-20z"/>
<path d="M19540 3416 c-208 -38 -375 -130 -532 -294 -92 -97 -147 -177 -205
-298 -84 -177 -120 -339 -129 -579 -17 -421 85 -739 315 -978 200 -208 460
-317 757 -317 338 0 595 113 785 346 l59 72 -81 62 -80 62 -72 -74 c-83 -86
-140 -127 -240 -173 -102 -46 -185 -65 -317 -72 -232 -12 -413 53 -573 206
-181 172 -295 462 -297 754 l0 37 856 0 857 0 -6 193 c-7 225 -27 339 -88 491
-116 290 -347 491 -634 551 -109 23 -282 28 -375 11z m329 -232 c272 -60 478
-345 507 -700 l7 -84 -721 0 -721 0 6 38 c13 91 57 242 93 320 161 344 474
504 829 426z"/>
<path d="M21982 3420 c-213 -30 -374 -137 -505 -334 l-52 -79 -3 187 -2 186
-130 0 -130 0 0 -1195 0 -1195 135 0 135 0 0 828 c0 783 1 832 19 883 82 239
245 400 461 456 69 17 254 23 323 9 l37 -7 0 124 0 125 -32 6 c-59 12 -193 15
-256 6z"/>
<path d="M10273 2528 c3 -744 6 -865 20 -946 65 -358 258 -560 590 -618 111
-20 331 -14 447 11 179 39 360 150 462 284 l26 34 7 -151 8 -152 123 0 124 0
0 1195 0 1195 -130 0 -130 0 0 -865 c0 -824 -1 -866 -19 -912 -56 -143 -164
-266 -291 -332 -120 -63 -202 -82 -370 -88 -129 -5 -154 -3 -228 17 -190 51
-303 184 -358 420 -15 67 -18 163 -21 918 l-4 842 -130 0 -130 0 4 -852z"/>
</g>
</svg>
