<svg width="757" height="200" viewBox="0 0 757 200" fill="none" xmlns="http://www.w3.org/2000/svg">
<g clip-path="url(#clip0_5_286)">
<path d="M42.7808 24.6705C42.7808 36.8785 33.2027 46.7754 21.3893 46.7754C9.57701 46.7754 0 36.8785 0 24.6705C0 12.4648 9.5781 2.56567 21.3893 2.56567C33.2027 2.56567 42.7808 12.4648 42.7808 24.6705Z" fill="white"/>
<path d="M42.7808 100.001C42.7808 112.209 33.2027 122.105 21.3893 122.105C9.57701 122.105 0 112.209 0 100.001C0 87.7926 9.5781 77.8958 21.3893 77.8958C33.2027 77.8958 42.7808 87.7926 42.7808 100.001Z" fill="white"/>
<path d="M42.7808 175.332C42.7808 187.537 33.2027 197.437 21.3893 197.437C9.57701 197.437 0 187.537 0 175.332C0 163.126 9.5781 153.227 21.3893 153.227C33.2027 153.227 42.7808 163.125 42.7808 175.332Z" fill="white"/>
<path d="M117.423 100.001C117.423 112.209 107.845 122.105 96.0319 122.105C84.2196 122.105 74.6426 112.209 74.6426 100.001C74.6426 87.7926 84.2207 77.8958 96.0319 77.8958C107.845 77.8958 117.423 87.7926 117.423 100.001Z" fill="white"/>
<path d="M117.423 24.6705C117.423 36.8785 107.845 46.7754 96.0319 46.7754C84.2196 46.7754 74.6426 36.8785 74.6426 24.6705C74.6426 12.4648 84.2207 2.56567 96.0319 2.56567C107.845 2.56567 117.423 12.4648 117.423 24.6705Z" fill="white"/>
<path d="M192.065 100.001C192.065 112.209 182.486 122.105 170.673 122.105C158.861 122.105 149.284 112.209 149.284 100.001C149.284 87.7926 158.862 77.8958 170.673 77.8958C182.487 77.8958 192.065 87.7926 192.065 100.001Z" fill="white"/>
<path d="M192.065 24.6705C192.065 36.8785 182.486 46.7754 170.673 46.7754C158.861 46.7754 149.284 36.8785 149.284 24.6705C149.284 12.4648 158.862 2.56567 170.673 2.56567C182.487 2.56567 192.065 12.4648 192.065 24.6705Z" fill="white"/>
<path d="M192.065 175.332C192.065 187.537 182.486 197.437 170.673 197.437C158.861 197.437 149.284 187.537 149.284 175.332C149.284 163.126 158.862 153.227 170.673 153.227C182.487 153.227 192.065 163.125 192.065 175.332Z" fill="white"/>
<path d="M117.423 175.332C117.423 187.537 107.845 197.437 96.0319 197.437C84.2196 197.437 74.6426 187.537 74.6426 175.332C74.6426 163.126 84.2207 153.227 96.0319 153.227C107.845 153.227 117.423 163.125 117.423 175.332Z" fill="white"/>
<path d="M355.18 117.728L393.509 196.951H361.077L323.819 120.223H281.469V196.951H253.861V3.04663H336.149C368.851 3.04663 396.458 21.053 396.458 60.9411C396.458 91.9662 380.644 111.078 355.18 117.728ZM336.149 30.47H281.47V92.7971H336.149C354.913 92.7971 368.047 82.8239 368.047 61.772C368.045 41.5499 355.18 30.47 336.149 30.47Z" fill="white"/>
<path d="M510.382 200C461.868 200 431.043 158.725 431.043 99.9994C431.043 41.2741 461.868 0 510.382 0C559.166 0 589.99 41.2741 589.99 99.9994C589.99 158.725 559.166 200 510.382 200ZM510.382 29.0852C477.682 29.0852 459.724 56.5085 459.724 99.9994C459.724 143.49 477.682 170.914 510.382 170.914C543.353 170.914 561.31 143.49 561.31 99.9994C561.31 56.5085 543.352 29.0852 510.382 29.0852Z" fill="white"/>
<path d="M686.762 200C659.42 200 635.834 187.811 620.018 168.698L640.123 148.475C652.721 162.604 671.214 171.468 688.904 171.468C715.171 171.468 727.77 162.048 727.77 143.212C727.77 128.254 716.782 120.774 685.419 111.078C645.75 98.8916 626.721 88.6426 626.721 54.0169C626.721 20.4991 654.06 0 688.636 0C714.1 0 733.397 9.69506 750.016 26.3155L730.184 47.0915C718.389 34.6268 704.988 28.5323 686.494 28.5323C664.511 28.5323 655.131 39.6122 655.131 52.632C655.131 66.2058 663.708 72.8542 696.143 82.8251C733.13 94.4601 756.184 106.648 756.184 141.273C756.183 176.177 734.74 200 686.762 200Z" fill="white"/>
</g>
<defs>
<clipPath id="clip0_5_286">
<rect width="756.184" height="200" fill="white"/>
</clipPath>
</defs>
</svg>
