<svg width="757" height="200" viewBox="0 0 757 200" fill="none" xmlns="http://www.w3.org/2000/svg">
<g clip-path="url(#clip0_5_287)">
<path d="M42.9646 24.6705C42.9646 36.8785 33.3865 46.7754 21.5732 46.7754C9.76085 46.7754 0.183838 36.8785 0.183838 24.6705C0.183838 12.4648 9.76194 2.56567 21.5732 2.56567C33.3865 2.56567 42.9646 12.4648 42.9646 24.6705Z" fill="#22314E"/>
<path d="M42.9646 100.001C42.9646 112.209 33.3865 122.105 21.5732 122.105C9.76085 122.105 0.183838 112.209 0.183838 100.001C0.183838 87.7926 9.76194 77.8958 21.5732 77.8958C33.3865 77.8958 42.9646 87.7926 42.9646 100.001Z" fill="#22314E"/>
<path d="M42.9646 175.332C42.9646 187.537 33.3865 197.437 21.5732 197.437C9.76085 197.437 0.183838 187.537 0.183838 175.332C0.183838 163.126 9.76194 153.227 21.5732 153.227C33.3865 153.227 42.9646 163.125 42.9646 175.332Z" fill="#22314E"/>
<path d="M117.607 100.001C117.607 112.209 108.029 122.105 96.2155 122.105C84.4032 122.105 74.8262 112.209 74.8262 100.001C74.8262 87.7926 84.4043 77.8958 96.2155 77.8958C108.029 77.8958 117.607 87.7926 117.607 100.001Z" fill="#22314E"/>
<path d="M117.607 24.6705C117.607 36.8785 108.029 46.7754 96.2155 46.7754C84.4032 46.7754 74.8262 36.8785 74.8262 24.6705C74.8262 12.4648 84.4043 2.56567 96.2155 2.56567C108.029 2.56567 117.607 12.4648 117.607 24.6705Z" fill="#22314E"/>
<path d="M192.248 100.001C192.248 112.209 182.67 122.105 170.857 122.105C159.045 122.105 149.468 112.209 149.468 100.001C149.468 87.7926 159.046 77.8958 170.857 77.8958C182.671 77.8958 192.248 87.7926 192.248 100.001Z" fill="#22314E"/>
<path d="M192.248 24.6705C192.248 36.8785 182.67 46.7754 170.857 46.7754C159.045 46.7754 149.468 36.8785 149.468 24.6705C149.468 12.4648 159.046 2.56567 170.857 2.56567C182.671 2.56567 192.248 12.4648 192.248 24.6705Z" fill="#22314E"/>
<path d="M192.248 175.332C192.248 187.537 182.67 197.437 170.857 197.437C159.045 197.437 149.468 187.537 149.468 175.332C149.468 163.126 159.046 153.227 170.857 153.227C182.671 153.227 192.248 163.125 192.248 175.332Z" fill="#22314E"/>
<path d="M117.607 175.332C117.607 187.537 108.029 197.437 96.2155 197.437C84.4032 197.437 74.8262 187.537 74.8262 175.332C74.8262 163.126 84.4043 153.227 96.2155 153.227C108.029 153.227 117.607 163.125 117.607 175.332Z" fill="#22314E"/>
<path d="M355.364 117.728L393.693 196.951H361.261L324.003 120.223H281.653V196.951H254.045V3.04663H336.333C369.035 3.04663 396.642 21.053 396.642 60.9411C396.642 91.9662 380.829 111.078 355.364 117.728ZM336.333 30.47H281.654V92.7971H336.333C355.097 92.7971 368.231 82.8239 368.231 61.772C368.23 41.5499 355.364 30.47 336.333 30.47Z" fill="#22314E"/>
<path d="M510.566 200C462.052 200 431.227 158.725 431.227 99.9994C431.227 41.2741 462.052 0 510.566 0C559.35 0 590.174 41.2741 590.174 99.9994C590.174 158.725 559.35 200 510.566 200ZM510.566 29.0852C477.866 29.0852 459.908 56.5085 459.908 99.9994C459.908 143.49 477.866 170.914 510.566 170.914C543.537 170.914 561.494 143.49 561.494 99.9994C561.494 56.5085 543.536 29.0852 510.566 29.0852Z" fill="#22314E"/>
<path d="M686.946 200C659.604 200 636.018 187.811 620.202 168.698L640.306 148.475C652.904 162.604 671.398 171.468 689.088 171.468C715.355 171.468 727.954 162.048 727.954 143.212C727.954 128.254 716.966 120.774 685.602 111.078C645.934 98.8916 626.904 88.6426 626.904 54.0169C626.904 20.4991 654.243 0 688.82 0C714.284 0 733.581 9.69506 750.2 26.3155L730.368 47.0915C718.573 34.6268 705.172 28.5323 686.678 28.5323C664.695 28.5323 655.314 39.6122 655.314 52.632C655.314 66.2058 663.892 72.8542 696.326 82.8251C733.314 94.4601 756.368 106.648 756.368 141.273C756.367 176.177 734.924 200 686.946 200Z" fill="#22314E"/>
</g>
<defs>
<clipPath id="clip0_5_287">
<rect width="756.184" height="200" fill="white" transform="translate(0.183838)"/>
</clipPath>
</defs>
</svg>
