<svg width="800" height="160" viewBox="0 0 800 160" fill="none" xmlns="http://www.w3.org/2000/svg">
<g clip-path="url(#clip0_710_26989)">
<path d="M29.9959 115H0L2.6228e-06 85.0001L120 0L29.9959 115Z" fill="#162029"/>
<path d="M90.0041 45H120V74.9999L0 160L90.0041 45Z" fill="#162029"/>
<path d="M209.511 116H202.733C164.421 116 160 100.291 160 91.1273V90.0987H183.872C184.166 94.3065 186.72 101.132 205.582 101.132H206.957C226.212 101.132 228.373 97.4857 228.373 93.7455C228.373 89.7247 226.113 87.2 209.217 86.7325L196.642 86.452C169.333 85.7039 160.982 76.9143 160.982 66.0675V65.226C160.982 54.8468 167.466 44 200.768 44H207.547C242.126 44 249.985 55.5013 249.985 65.974V66.9091H226.212C225.72 64.2909 224.247 58.587 205.091 58.587H203.519C185.836 58.587 184.559 61.5792 184.559 64.5714C184.559 67.5636 186.524 70.2753 201.456 70.5558L213.736 70.7429C241.242 71.2104 252.343 77.5688 252.343 91.4078V92.7169C252.343 104.218 246.252 116 209.511 116Z" fill="#162029"/>
<path d="M314.429 86.3586L300.283 60.2703L286.726 86.3586H314.429ZM329.754 114.784L322.877 102.068H278.573L271.991 114.784H248.709L285.646 45.2158H315.313L354.411 114.784H329.754Z" fill="#162029"/>
<path d="M379.358 61.0184V74.6703H414.036C420.618 74.6703 423.27 71.6781 423.27 67.8444V67.7509C423.27 64.1041 420.716 61.0184 414.036 61.0184H379.358ZM379.358 90.0989V114.784H356.469V45.2158H415.411C439.774 45.2158 447.142 53.2573 447.142 63.2625V64.3846C447.142 74.3898 438.399 78.1301 433.585 79.6262C441.051 81.6833 447.436 86.6392 447.436 95.6158V105.808C447.436 111.418 448.124 113.195 448.812 114.317V114.784H425.53C424.842 113.943 424.449 112.914 424.449 110.39V102.348C424.449 93.8392 420.52 90.0989 409.222 90.0989H379.358Z" fill="#162029"/>
<path d="M502.997 44H507.221C553.196 44 558.599 65.974 558.599 78.4104V81.2156C558.599 93.4649 553.294 116 507.221 116H502.997C456.727 116 451.521 93.4649 451.521 81.2156V78.4104C451.521 65.974 456.727 44 502.997 44ZM534.629 80.374V79.0649C534.629 71.1169 529.816 60.8312 505.06 60.8312C479.911 60.8312 475.491 71.1169 475.491 79.0649V80.187C475.491 88.1351 480.304 99.0753 505.06 99.0753C529.619 99.0753 534.629 88.4156 534.629 80.374Z" fill="#162029"/>
<path d="M564.842 45.2158H590.384L637.047 88.9768V45.2158H659.641V114.784H637.047L587.437 68.6859V114.784H564.842V45.2158Z" fill="#162029"/>
<path d="M691.774 45.2158V114.784H668.885V45.2158H691.774Z" fill="#162029"/>
<path d="M750.98 116H746.952C704.612 116 698.03 93.4649 698.03 81.1221V78.4104C698.03 65.787 703.728 44 746.952 44H750.98C793.32 44 799.902 63.2623 799.902 71.3974V72.426H775.637C775.048 70.5558 772.101 60.8312 748.917 60.8312C727.01 60.8312 722 70.1818 722 78.8779V80C722 88.2286 727.796 99.0753 749.113 99.0753C772.788 99.0753 775.146 88.3221 775.735 86.7325H800V87.761C800 96.5507 792.73 116 750.98 116Z" fill="#162029"/>
</g>
<defs>
<clipPath id="clip0_710_26989">
<rect width="800" height="160" fill="white"/>
</clipPath>
</defs>
</svg>
