<svg width="1029" height="200" viewBox="0 0 1029 200" fill="none" xmlns="http://www.w3.org/2000/svg">
<g clip-path="url(#clip0_5_288)">
<path fill-rule="evenodd" clip-rule="evenodd" d="M1028.97 99.5865L929.388 199.173L829.802 99.5865L929.388 0L1028.97 99.5865Z" fill="black" stroke="white" stroke-width="1.6"/>
<path d="M929.388 199.173V0" stroke="white" stroke-width="1.6"/>
<path d="M1028.97 99.5865H829.802" stroke="white" stroke-width="1.6"/>
<path fill-rule="evenodd" clip-rule="evenodd" d="M875.089 145.866H926.668L881.88 100.361" fill="black"/>
<path d="M875.089 145.866H926.668L881.88 100.361" stroke="white" stroke-width="1.6" stroke-linejoin="bevel"/>
<path d="M46.6505 123.393V21.4414H78.0452V6.39134H0.367676V21.4414H30.9532V123.393H46.6505ZM81.9394 123.393L94.501 92.6457H139.605L151.687 123.393H169.65L118.674 1.5365H117.703L66.5657 123.393H81.9394ZM134.269 79.0522H100.061L117.505 36.3627L134.269 79.0522ZM292.619 127.115V6.39134H277.083L277.392 91.0689L191.638 2.83112H190.829V123.393H206.526L206.212 39.9645L292.133 127.115H292.619ZM374.439 124.688C377.676 124.688 381.155 124.364 384.877 123.717C388.599 123.069 392.214 122.206 395.72 121.127C399.226 120.049 402.436 118.835 405.349 117.486C408.262 116.138 410.527 114.762 412.145 113.36V66.1059H373.145V81.1559H396.448V104.459C393.643 105.97 390.299 107.129 386.415 107.938C382.531 108.748 378.593 109.152 374.601 109.152C367.912 109.152 361.79 108.1 356.234 105.997C350.678 103.893 345.904 100.926 341.912 97.096C337.92 93.2661 334.845 88.7079 332.688 83.4215C330.53 78.1352 329.451 72.3093 329.451 65.9441C329.451 59.0394 330.53 52.809 332.688 47.2529C334.845 41.6968 337.92 36.9499 341.912 33.0121C345.904 29.0743 350.705 26.0535 356.315 23.9497C361.925 21.8459 368.182 20.794 375.087 20.794C378 20.794 381.128 21.1447 384.473 21.8459C387.817 22.5472 391.081 23.4372 394.263 24.5161C397.446 25.5949 400.116 26.7817 402.274 28.0763L407.614 13.6736C403.191 11.1922 398.066 9.14242 392.241 7.52414C386.415 5.90586 380.103 5.09672 373.307 5.09672C365.215 5.09672 357.555 6.47226 350.327 9.22334C343.099 11.9744 336.707 16.0201 331.15 21.3604C325.594 26.7008 321.225 33.2278 318.042 40.9417C314.86 48.6555 313.268 57.3672 313.268 67.0769C313.268 75.2762 314.698 82.8821 317.557 89.8947C320.416 96.9072 324.515 103.003 329.856 108.181C335.196 113.36 341.615 117.405 349.113 120.318C356.611 123.231 365.053 124.688 374.439 124.688ZM452.052 123.393V80.3468H469.368C470.285 80.3468 471.184 80.3295 472.065 80.295L473.22 80.2306L500.763 123.393H518.888L489.569 76.2389L489.99 76.0385C493.38 74.3157 496.289 72.235 498.717 69.7966L500.115 68.2906C503.244 64.6764 505.483 60.6577 506.831 56.2344C508.18 51.8111 508.854 47.2799 508.854 42.6408C508.854 36.7071 507.802 31.5017 505.699 27.0244C503.595 22.5472 500.682 18.7712 496.96 15.6965C493.238 12.6217 488.868 10.3022 483.852 8.73785C478.835 7.17351 473.36 6.39134 467.426 6.39134H436.355V123.393H452.052ZM469.044 65.2968H452.052V21.4414H470.177C474.277 21.4414 477.756 22.1426 480.615 23.5451C483.474 24.9476 485.794 26.7277 487.574 28.8855C489.354 31.0432 490.648 33.3897 491.458 35.925C492.267 38.4603 492.671 40.9147 492.671 43.2882C492.671 45.5538 492.294 47.9812 491.539 50.5704C490.783 53.1597 489.543 55.5601 487.816 57.7718C486.09 59.9834 483.69 61.7905 480.615 63.193C477.54 64.5955 473.684 65.2968 469.044 65.2968ZM549.292 123.393L561.852 92.6457H606.965L619.04 123.393H637.003L586.027 1.5365H585.056L533.918 123.393H549.292ZM601.629 79.0522H567.413L584.857 36.3544L601.629 79.0522ZM667.584 123.393L667.58 50.031L709.66 108.667H709.983L753.191 47.5745L753.191 123.393H768.727V2.6693H768.403L710.112 84.405L652.534 2.6693H652.373V123.393H667.584Z" fill="black"/>
<path d="M586.173 200L604.704 156.082H598.14L586.45 186.423L574.38 156.082H567.699L586.173 200ZM618.762 198.083V156.082H613.127V198.083H618.762ZM641.476 198.548C644.303 198.548 646.743 198.025 648.796 196.979C650.848 195.934 652.427 194.501 653.53 192.68C654.634 190.86 655.186 188.846 655.186 186.639C655.186 184.625 654.886 182.94 654.285 181.585C653.685 180.229 652.872 179.087 651.846 178.157C650.819 177.228 649.667 176.453 648.389 175.834C647.111 175.214 645.814 174.652 644.497 174.149C642.987 173.568 641.534 172.948 640.14 172.29C638.746 171.632 637.623 170.847 636.771 169.937C635.919 169.027 635.493 167.914 635.493 166.597C635.493 164.854 636.161 163.46 637.497 162.414C638.833 161.369 640.624 160.846 642.87 160.846C644.497 160.846 646.162 161.117 647.866 161.659C649.57 162.201 651.139 162.84 652.572 163.576L654.721 159.219C653.133 158.29 651.303 157.496 649.231 156.838C647.159 156.179 644.768 155.85 642.057 155.85C639.656 155.927 637.526 156.441 635.667 157.389C633.808 158.338 632.346 159.636 631.281 161.282C630.216 162.928 629.683 164.854 629.683 167.062C629.683 168.882 630.032 170.431 630.729 171.709C631.426 172.987 632.356 174.062 633.518 174.933C634.679 175.805 635.938 176.54 637.294 177.141C638.649 177.741 639.985 178.293 641.302 178.796C642.696 179.339 644.013 179.949 645.252 180.626C646.491 181.304 647.489 182.117 648.244 183.066C648.999 184.015 649.377 185.206 649.377 186.639C649.377 188.304 648.951 189.64 648.099 190.647C647.247 191.654 646.172 192.4 644.875 192.884C643.577 193.368 642.27 193.61 640.953 193.61C639.714 193.61 638.436 193.426 637.119 193.058C635.803 192.69 634.544 192.206 633.343 191.606C632.143 191.005 631.078 190.376 630.148 189.718L627.65 194.133C628.773 194.869 630.051 195.575 631.484 196.253C632.917 196.931 634.476 197.483 636.161 197.909C637.845 198.335 639.617 198.548 641.476 198.548ZM670.29 198.083V156.082H664.655V198.083H670.29ZM701.195 198.548C704.138 198.548 706.907 197.996 709.502 196.892C712.097 195.788 714.382 194.259 716.357 192.303C718.332 190.347 719.881 188.072 721.004 185.477C722.127 182.882 722.689 180.094 722.689 177.112C722.689 174.207 722.127 171.467 721.004 168.892C719.881 166.316 718.322 164.031 716.328 162.037C714.333 160.042 712.048 158.474 709.473 157.331C706.897 156.189 704.138 155.618 701.195 155.618C698.213 155.618 695.434 156.189 692.859 157.331C690.283 158.474 688.008 160.042 686.033 162.037C684.058 164.031 682.518 166.316 681.414 168.892C680.311 171.467 679.759 174.207 679.759 177.112C679.759 180.171 680.311 182.998 681.414 185.593C682.518 188.188 684.058 190.454 686.033 192.39C688.008 194.326 690.283 195.837 692.859 196.921C695.434 198.006 698.213 198.548 701.195 198.548ZM701.311 193.145C699.103 193.145 697.051 192.729 695.153 191.896C693.255 191.064 691.59 189.911 690.157 188.44C688.724 186.968 687.601 185.274 686.788 183.357C685.975 181.44 685.568 179.377 685.568 177.17C685.568 174.962 685.955 172.881 686.73 170.925C687.504 168.969 688.608 167.255 690.041 165.784C691.474 164.312 693.139 163.15 695.037 162.298C696.935 161.446 698.987 161.02 701.195 161.02C703.363 161.02 705.397 161.437 707.294 162.269C709.192 163.102 710.857 164.254 712.29 165.726C713.723 167.197 714.846 168.911 715.66 170.867C716.473 172.823 716.88 174.904 716.88 177.112C716.88 179.358 716.473 181.44 715.66 183.357C714.846 185.274 713.743 186.968 712.348 188.44C710.954 189.911 709.308 191.064 707.411 191.896C705.513 192.729 703.48 193.145 701.311 193.145ZM768.698 199.419V156.082H763.121L763.233 186.481L732.448 154.804H732.158V198.083H737.793L737.681 168.132L768.524 199.419H768.698Z" fill="black"/>
</g>
<defs>
<clipPath id="clip0_5_288">
<rect width="1028.61" height="200" fill="white" transform="translate(0.367676)"/>
</clipPath>
</defs>
</svg>
