<?xml version="1.0" encoding="UTF-8"?>
<svg width="129px" height="27px" viewBox="0 0 129 27" version="1.1" xmlns="http://www.w3.org/2000/svg" xmlns:xlink="http://www.w3.org/1999/xlink">
    <title>tangram-logo-color</title>
    <g id="Symbols" stroke="none" stroke-width="1" fill="#000000" fill-rule="evenodd">
        <g id="NAV" transform="translate(0.000000, -15.000000)">
            <g id="tangram-logo-color" transform="translate(0.500000, 15.000000)">
                <g id="Group-9" transform="translate(101.500000, 0.000000)" stroke="#FFFFFF" stroke-width="1.5999999">
                    <g id="Group-7" transform="translate(0.000000, 0.662720)">
                        <polygon id="Stroke-1" points="24.3314385 12.4686393 12.3314393 24.4686385 0.33143998 12.4686393 12.3314393 0.468639972"></polygon>
                        <line x1="12.3314393" y1="24.4686385" x2="12.3314393" y2="0.468639972" id="Stroke-3"></line>
                        <line x1="24.3314385" y1="12.4686393" x2="0.33143998" y2="12.4686393" id="Stroke-5"></line>
                    </g>
                    <polyline id="Stroke-8" stroke-linejoin="bevel" points="5.78839965 18.7079189 12.0035993 18.7079189 6.60679961 13.2247192"></polyline>
                </g>
                <path d="M7.46310517,16 L7.46310517,3.715 L11.2461052,3.715 L11.2461052,1.9015 L1.88610517,1.9015 L1.88610517,3.715 L5.57160517,3.715 L5.57160517,16 L7.46310517,16 Z M11.7153482,16 L13.229,12.295 L18.664,12.295 L20.1198482,16 L22.2843482,16 L16.1418482,1.3165 L16.0248482,1.3165 L9.86284821,16 L11.7153482,16 Z M18.021,10.657 L13.899,10.657 L16.001,5.513 L18.021,10.657 Z M37.1018559,16.4485 L37.1018559,1.9015 L35.2298559,1.9015 L35.267,12.105 L24.9338559,1.4725 L24.8363559,1.4725 L24.8363559,16 L26.7278559,16 L26.69,5.947 L37.0433559,16.4485 L37.1018559,16.4485 Z M46.961082,16.156 C47.351082,16.156 47.770332,16.117 48.218832,16.039 C48.667332,15.961 49.102832,15.857 49.525332,15.727 C49.947832,15.597 50.334582,15.45075 50.685582,15.28825 C51.036582,15.12575 51.309582,14.96 51.504582,14.791 L51.504582,14.791 L51.504582,9.097 L46.805082,9.097 L46.805082,10.9105 L49.613082,10.9105 L49.613082,13.7185 C49.275082,13.9005 48.872082,14.04025 48.404082,14.13775 C47.936082,14.23525 47.461582,14.284 46.980582,14.284 C46.174582,14.284 45.436832,14.15725 44.767332,13.90375 C44.097832,13.65025 43.522582,13.29275 43.041582,12.83125 C42.560582,12.36975 42.190082,11.8205 41.930082,11.1835 C41.670082,10.5465 41.540082,9.8445 41.540082,9.0775 C41.540082,8.2455 41.670082,7.49475 41.930082,6.82525 C42.190082,6.15575 42.560582,5.58375 43.041582,5.10925 C43.522582,4.63475 44.101082,4.27075 44.777082,4.01725 C45.453082,3.76375 46.207082,3.637 47.039082,3.637 C47.390082,3.637 47.767082,3.67925 48.170082,3.76375 C48.573082,3.84825 48.966332,3.9555 49.349832,4.0855 C49.733332,4.2155 50.055082,4.3585 50.315082,4.5145 L50.315082,4.5145 L50.958582,2.779 C50.425582,2.48 49.808082,2.233 49.106082,2.038 C48.404082,1.843 47.643582,1.7455 46.824582,1.7455 C45.849582,1.7455 44.926582,1.91125 44.055582,2.24275 C43.184582,2.57425 42.414332,3.06175 41.744832,3.70525 C41.075332,4.34875 40.548832,5.13525 40.165332,6.06475 C39.781832,6.99425 39.590082,8.044 39.590082,9.214 C39.590082,10.202 39.762332,11.1185 40.106832,11.9635 C40.451332,12.8085 40.945332,13.543 41.588832,14.167 C42.232332,14.791 43.005832,15.2785 43.909332,15.6295 C44.812832,15.9805 45.830082,16.156 46.961082,16.156 Z M56.3133157,16 L56.3133157,10.813 L58.3998157,10.813 C58.5103157,10.813 58.6186321,10.810918 58.724765,10.8067539 L58.864,10.799 L62.1828157,16 L64.3668157,16 L60.834,10.318 L60.8846729,10.2938622 C61.2932443,10.0862602 61.64378,9.83554592 61.93628,9.54171939 L62.1048157,9.36025 C62.4818157,8.92475 62.7515657,8.4405 62.9140657,7.9075 C63.0765657,7.3745 63.1578157,6.8285 63.1578157,6.2695 C63.1578157,5.5545 63.0310657,4.92725 62.7775657,4.38775 C62.5240657,3.84825 62.1730657,3.39325 61.7245657,3.02275 C61.2760657,2.65225 60.7495657,2.37275 60.1450657,2.18425 C59.5405657,1.99575 58.8808157,1.9015 58.1658157,1.9015 L58.1658157,1.9015 L54.4218157,1.9015 L54.4218157,16 L56.3133157,16 Z M58.3608157,8.9995 L56.3133157,8.9995 L56.3133157,3.715 L58.4973157,3.715 C58.9913157,3.715 59.4105657,3.7995 59.7550657,3.9685 C60.0995657,4.1375 60.3790657,4.352 60.5935657,4.612 C60.8080657,4.872 60.9640657,5.15475 61.0615657,5.46025 C61.1590657,5.76575 61.2078157,6.0615 61.2078157,6.3475 C61.2078157,6.6205 61.1623157,6.913 61.0713157,7.225 C60.9803157,7.537 60.8308157,7.82625 60.6228157,8.09275 C60.4148157,8.35925 60.1255657,8.577 59.7550657,8.746 C59.3845657,8.915 58.9198157,8.9995 58.3608157,8.9995 L58.3608157,8.9995 Z M68.0305247,16 L69.544,12.295 L74.98,12.295 L76.4350247,16 L78.5995247,16 L72.4570247,1.3165 L72.3400247,1.3165 L66.1780247,16 L68.0305247,16 Z M74.337,10.657 L70.214,10.657 L72.316,5.512 L74.337,10.657 Z M82.2845325,16 L82.284,7.16 L87.3545325,14.2255 L87.3935325,14.2255 L92.6,6.864 L92.6000325,16 L94.4720325,16 L94.4720325,1.453 L94.4330325,1.453 L87.409,11.302 L80.4710325,1.453 L80.4515325,1.453 L80.4515325,16 L82.2845325,16 Z" id="TANGRAM" fill="#000000" fill-rule="nonzero"></path>
                <path d="M72.4745491,25.231 L74.7075491,19.939 L73.9165491,19.939 L72.508,23.595 L71.0535491,19.939 L70.2485491,19.939 L72.4745491,25.231 Z M76.4015397,25 L76.4015397,19.939 L75.7225397,19.939 L75.7225397,25 L76.4015397,25 Z M79.138523,25.056 C79.4791897,25.056 79.7731897,24.993 80.020523,24.867 C80.2678564,24.741 80.458023,24.5683333 80.591023,24.349 C80.724023,24.1296667 80.790523,23.887 80.790523,23.621 C80.790523,23.3783333 80.7543564,23.1753333 80.682023,23.012 C80.6096897,22.8486667 80.5116897,22.711 80.388023,22.599 C80.2643564,22.487 80.125523,22.3936667 79.971523,22.319 C79.817523,22.2443333 79.6611897,22.1766667 79.502523,22.116 C79.320523,22.046 79.145523,21.9713333 78.977523,21.892 C78.809523,21.8126667 78.6741897,21.7181667 78.571523,21.6085 C78.4688564,21.4988333 78.417523,21.3646667 78.417523,21.206 C78.417523,20.996 78.498023,20.828 78.659023,20.702 C78.820023,20.576 79.0358564,20.513 79.306523,20.513 C79.502523,20.513 79.7031897,20.5456667 79.908523,20.611 C80.1138564,20.6763333 80.3028564,20.7533333 80.475523,20.842 L80.475523,20.842 L80.734523,20.317 C80.5431897,20.205 80.3226897,20.1093333 80.073023,20.03 C79.8233564,19.9506667 79.5351897,19.911 79.208523,19.911 C78.9191897,19.9203333 78.662523,19.9821667 78.438523,20.0965 C78.214523,20.2108333 78.0383564,20.3671667 77.910023,20.5655 C77.7816897,20.7638333 77.717523,20.996 77.717523,21.262 C77.717523,21.4813333 77.759523,21.668 77.843523,21.822 C77.927523,21.976 78.039523,22.1055 78.179523,22.2105 C78.319523,22.3155 78.4711897,22.4041667 78.634523,22.4765 C78.7978564,22.5488333 78.9588564,22.6153333 79.117523,22.676 C79.285523,22.7413333 79.4441897,22.8148333 79.593523,22.8965 C79.7428564,22.9781667 79.863023,23.0761667 79.954023,23.1905 C80.045023,23.3048333 80.090523,23.4483333 80.090523,23.621 C80.090523,23.8216667 80.0391897,23.9826667 79.936523,24.104 C79.8338564,24.2253333 79.7043564,24.3151667 79.548023,24.3735 C79.3916897,24.4318333 79.2341897,24.461 79.075523,24.461 C78.9261897,24.461 78.7721897,24.4388333 78.613523,24.3945 C78.4548564,24.3501667 78.3031897,24.2918333 78.158523,24.2195 C78.0138564,24.1471667 77.885523,24.0713333 77.773523,23.992 L77.773523,23.992 L77.472523,24.524 C77.6078564,24.6126667 77.7618564,24.6978333 77.934523,24.7795 C78.1071897,24.8611667 78.295023,24.9276667 78.498023,24.979 C78.701023,25.0303333 78.914523,25.056 79.138523,25.056 Z M82.6105225,25 L82.6105225,19.939 L81.9315225,19.939 L81.9315225,25 L82.6105225,25 Z M86.3345058,25.056 C86.6891725,25.056 87.0228392,24.9895 87.3355058,24.8565 C87.6481725,24.7235 87.9235058,24.5391667 88.1615058,24.3035 C88.3995058,24.0678333 88.5861725,23.7936667 88.7215058,23.481 C88.8568392,23.1683333 88.9245058,22.8323333 88.9245058,22.473 C88.9245058,22.123 88.8568392,21.7928333 88.7215058,21.4825 C88.5861725,21.1721667 88.3983392,20.8968333 88.1580058,20.6565 C87.9176725,20.4161667 87.6423392,20.2271667 87.3320058,20.0895 C87.0216725,19.9518333 86.6891725,19.883 86.3345058,19.883 C85.9751725,19.883 85.6403392,19.9518333 85.3300058,20.0895 C85.0196725,20.2271667 84.7455058,20.4161667 84.5075058,20.6565 C84.2695058,20.8968333 84.0840058,21.1721667 83.9510058,21.4825 C83.8180058,21.7928333 83.7515058,22.123 83.7515058,22.473 C83.7515058,22.8416667 83.8180058,23.1823333 83.9510058,23.495 C84.0840058,23.8076667 84.2695058,24.0806667 84.5075058,24.314 C84.7455058,24.5473333 85.0196725,24.7293333 85.3300058,24.86 C85.6403392,24.9906667 85.9751725,25.056 86.3345058,25.056 Z M86.3485058,24.405 C86.0825058,24.405 85.8351725,24.3548333 85.6065058,24.2545 C85.3778392,24.1541667 85.1771725,24.0153333 85.0045058,23.838 C84.8318392,23.6606667 84.6965058,23.4565 84.5985058,23.2255 C84.5005058,22.9945 84.4515058,22.746 84.4515058,22.48 C84.4515058,22.214 84.4981725,21.9631667 84.5915058,21.7275 C84.6848392,21.4918333 84.8178392,21.2853333 84.9905058,21.108 C85.1631725,20.9306667 85.3638392,20.7906667 85.5925058,20.688 C85.8211725,20.5853333 86.0685058,20.534 86.3345058,20.534 C86.5958392,20.534 86.8408392,20.5841667 87.0695058,20.6845 C87.2981725,20.7848333 87.4988392,20.9236667 87.6715058,21.101 C87.8441725,21.2783333 87.9795058,21.4848333 88.0775058,21.7205 C88.1755058,21.9561667 88.2245058,22.207 88.2245058,22.473 C88.2245058,22.7436667 88.1755058,22.9945 88.0775058,23.2255 C87.9795058,23.4565 87.8465058,23.6606667 87.6785058,23.838 C87.5105058,24.0153333 87.3121725,24.1541667 87.0835058,24.2545 C86.8548392,24.3548333 86.6098392,24.405 86.3485058,24.405 Z M94.4685086,25.161 L94.4685086,19.939 L93.7965086,19.939 L93.81,23.602 L90.1005086,19.785 L90.0655086,19.785 L90.0655086,25 L90.7445086,25 L90.731,21.391 L94.4475086,25.161 L94.4685086,25.161 Z" id="VISION" fill="#000000" fill-rule="nonzero"></path>
            </g>
        </g>
    </g>
</svg>
