<svg width="1030" height="200" viewBox="0 0 1030 200" fill="none" xmlns="http://www.w3.org/2000/svg">
<g clip-path="url(#clip0_5_290)">
<path fill-rule="evenodd" clip-rule="evenodd" d="M1029.58 99.5865L929.996 199.173L830.409 99.5865L929.996 0L1029.58 99.5865Z" stroke="white" stroke-width="1.6"/>
<path d="M929.996 199.173V0" stroke="white" stroke-width="1.6"/>
<path d="M1029.58 99.5865H830.409" stroke="white" stroke-width="1.6"/>
<path d="M875.696 145.866H927.275L882.488 100.361" stroke="white" stroke-width="1.6" stroke-linejoin="bevel"/>
<path d="M47.2579 123.393V21.4414H78.6526V6.39134H0.975098V21.4414H31.5606V123.393H47.2579ZM82.5468 123.393L95.1084 92.6457H140.213L152.295 123.393H170.258L119.282 1.5365H118.311L67.1731 123.393H82.5468ZM134.877 79.0522H100.669L118.113 36.3627L134.877 79.0522ZM293.226 127.115V6.39134H277.691L277.999 91.0689L192.246 2.83112H191.436V123.393H207.134L206.82 39.9645L292.741 127.115H293.226ZM375.047 124.688C378.283 124.688 381.763 124.364 385.485 123.717C389.207 123.069 392.821 122.206 396.327 121.127C399.834 120.049 403.043 118.835 405.956 117.486C408.869 116.138 411.135 114.762 412.753 113.36V66.1059H373.752V81.1559H397.056V104.459C394.25 105.97 390.906 107.129 387.022 107.938C383.138 108.748 379.2 109.152 375.209 109.152C368.52 109.152 362.397 108.1 356.841 105.997C351.285 103.893 346.511 100.926 342.519 97.096C338.528 93.2661 335.453 88.7079 333.295 83.4215C331.137 78.1352 330.059 72.3093 330.059 65.9441C330.059 59.0394 331.137 52.809 333.295 47.2529C335.453 41.6968 338.528 36.9499 342.519 33.0121C346.511 29.0743 351.312 26.0535 356.922 23.9497C362.532 21.8459 368.79 20.794 375.694 20.794C378.607 20.794 381.736 21.1447 385.08 21.8459C388.425 22.5472 391.688 23.4372 394.871 24.5161C398.053 25.5949 400.724 26.7817 402.881 28.0763L408.222 13.6736C403.798 11.1922 398.674 9.14242 392.848 7.52414C387.022 5.90586 380.711 5.09672 373.914 5.09672C365.823 5.09672 358.163 6.47226 350.934 9.22334C343.706 11.9744 337.314 16.0201 331.758 21.3604C326.202 26.7008 321.832 33.2278 318.65 40.9417C315.467 48.6555 313.876 57.3672 313.876 67.0769C313.876 75.2762 315.305 82.8821 318.164 89.8947C321.023 96.9072 325.123 103.003 330.463 108.181C335.804 113.36 342.223 117.405 349.721 120.318C357.219 123.231 365.661 124.688 375.047 124.688ZM452.66 123.393V80.3468H469.976C470.893 80.3468 471.791 80.3295 472.672 80.295L473.828 80.2306L501.37 123.393H519.495L490.177 76.2389L490.597 76.0385C493.988 74.3157 496.897 72.235 499.324 69.7966L500.723 68.2906C503.852 64.6764 506.09 60.6577 507.439 56.2344C508.787 51.8111 509.462 47.2799 509.462 42.6408C509.462 36.7071 508.41 31.5017 506.306 27.0244C504.202 22.5472 501.289 18.7712 497.567 15.6965C493.845 12.6217 489.476 10.3022 484.459 8.73785C479.442 7.17351 473.967 6.39134 468.034 6.39134H436.963V123.393H452.66ZM469.652 65.2968H452.66V21.4414H470.785C474.884 21.4414 478.364 22.1426 481.223 23.5451C484.082 24.9476 486.401 26.7277 488.181 28.8855C489.961 31.0432 491.256 33.3897 492.065 35.925C492.874 38.4603 493.279 40.9147 493.279 43.2882C493.279 45.5538 492.901 47.9812 492.146 50.5704C491.391 53.1597 490.15 55.5601 488.424 57.7718C486.698 59.9834 484.297 61.7905 481.223 63.193C478.148 64.5955 474.291 65.2968 469.652 65.2968ZM549.9 123.393L562.46 92.6457H607.572L619.648 123.393H637.61L586.635 1.5365H585.664L534.526 123.393H549.9ZM602.236 79.0522H568.02L585.464 36.3544L602.236 79.0522ZM668.192 123.393L668.187 50.031L710.267 108.667H710.591L753.799 47.5745L753.799 123.393H769.334V2.6693H769.011L710.719 84.405L653.142 2.6693H652.98V123.393H668.192Z" fill="white"/>
<path d="M586.78 200L605.311 156.082H598.747L587.058 186.423L574.987 156.082H568.307L586.78 200ZM619.37 198.083V156.082H613.735V198.083H619.37ZM642.084 198.548C644.911 198.548 647.351 198.025 649.403 196.979C651.456 195.934 653.034 194.501 654.138 192.68C655.241 190.86 655.793 188.846 655.793 186.639C655.793 184.625 655.493 182.94 654.893 181.585C654.293 180.229 653.479 179.087 652.453 178.157C651.427 177.228 650.275 176.453 648.997 175.834C647.718 175.214 646.421 174.652 645.104 174.149C643.594 173.568 642.142 172.948 640.747 172.29C639.353 171.632 638.23 170.847 637.378 169.937C636.526 169.027 636.1 167.914 636.1 166.597C636.1 164.854 636.768 163.46 638.104 162.414C639.44 161.369 641.232 160.846 643.478 160.846C645.104 160.846 646.77 161.117 648.474 161.659C650.178 162.201 651.746 162.84 653.179 163.576L655.329 159.219C653.741 158.29 651.911 157.496 649.839 156.838C647.767 156.179 645.375 155.85 642.665 155.85C640.263 155.927 638.133 156.441 636.274 157.389C634.415 158.338 632.953 159.636 631.888 161.282C630.823 162.928 630.291 164.854 630.291 167.062C630.291 168.882 630.639 170.431 631.337 171.709C632.034 172.987 632.963 174.062 634.125 174.933C635.287 175.805 636.545 176.54 637.901 177.141C639.256 177.741 640.593 178.293 641.909 178.796C643.304 179.339 644.62 179.949 645.86 180.626C647.099 181.304 648.096 182.117 648.851 183.066C649.607 184.015 649.984 185.206 649.984 186.639C649.984 188.304 649.558 189.64 648.706 190.647C647.854 191.654 646.779 192.4 645.482 192.884C644.185 193.368 642.878 193.61 641.561 193.61C640.321 193.61 639.043 193.426 637.727 193.058C636.41 192.69 635.151 192.206 633.951 191.606C632.75 191.005 631.685 190.376 630.756 189.718L628.258 194.133C629.381 194.869 630.659 195.575 632.092 196.253C633.525 196.931 635.083 197.483 636.768 197.909C638.453 198.335 640.225 198.548 642.084 198.548ZM670.897 198.083V156.082H665.262V198.083H670.897ZM701.802 198.548C704.745 198.548 707.515 197.996 710.109 196.892C712.704 195.788 714.989 194.259 716.964 192.303C718.939 190.347 720.488 188.072 721.612 185.477C722.735 182.882 723.296 180.094 723.296 177.112C723.296 174.207 722.735 171.467 721.612 168.892C720.488 166.316 718.93 164.031 716.935 162.037C714.941 160.042 712.656 158.474 710.08 157.331C707.505 156.189 704.745 155.618 701.802 155.618C698.82 155.618 696.041 156.189 693.466 157.331C690.891 158.474 688.615 160.042 686.64 162.037C684.665 164.031 683.126 166.316 682.022 168.892C680.918 171.467 680.366 174.207 680.366 177.112C680.366 180.171 680.918 182.998 682.022 185.593C683.126 188.188 684.665 190.454 686.64 192.39C688.615 194.326 690.891 195.837 693.466 196.921C696.041 198.006 698.82 198.548 701.802 198.548ZM701.918 193.145C699.711 193.145 697.658 192.729 695.761 191.896C693.863 191.064 692.198 189.911 690.765 188.44C689.332 186.968 688.209 185.274 687.395 183.357C686.582 181.44 686.175 179.377 686.175 177.17C686.175 174.962 686.563 172.881 687.337 170.925C688.112 168.969 689.216 167.255 690.649 165.784C692.081 164.312 693.747 163.15 695.644 162.298C697.542 161.446 699.595 161.02 701.802 161.02C703.971 161.02 706.004 161.437 707.902 162.269C709.8 163.102 711.465 164.254 712.898 165.726C714.331 167.197 715.454 168.911 716.267 170.867C717.08 172.823 717.487 174.904 717.487 177.112C717.487 179.358 717.08 181.44 716.267 183.357C715.454 185.274 714.35 186.968 712.956 188.44C711.562 189.911 709.916 191.064 708.018 191.896C706.12 192.729 704.087 193.145 701.918 193.145ZM769.305 199.419V156.082H763.728L763.84 186.481L733.056 154.804H732.765V198.083H738.4L738.288 168.132L769.131 199.419H769.305Z" fill="white"/>
</g>
<defs>
<clipPath id="clip0_5_290">
<rect width="1028.61" height="200" fill="white" transform="translate(0.975098)"/>
</clipPath>
</defs>
</svg>
