<svg width="705" height="200" viewBox="0 0 705 200" fill="none" xmlns="http://www.w3.org/2000/svg">
<path d="M502.376 63.1858C502.376 98.0531 503.261 131.327 504.146 137.168C508.039 160.885 524.146 182.478 546.093 193.274C557.597 198.761 559.013 199.115 578.482 199.115C597.951 199.115 599.367 198.938 610.871 193.274C658.659 169.734 668.747 107.08 630.694 70.9734C607.685 49.2035 573.172 43.3628 546.27 56.8141C542.553 58.761 538.836 60.177 537.774 60.177C536.712 60.177 536.004 49.7345 536.004 30.0885V-3.05176e-05H519.19H502.376V63.1858ZM597.42 88.3185C613.703 96.4601 623.261 116.46 619.367 133.451C614.942 152.743 598.305 166.195 578.836 166.372C545.031 166.549 525.208 128.319 545.031 101.062C557.066 84.2477 579.013 78.938 597.42 88.3185Z" fill="#070D28"/>
<path d="M658.482 6.19467C647.862 13.8053 646.977 28.1416 656.535 36.1062C671.225 48.6725 693.349 33.2743 685.915 15.5752C684.5 12.3894 682.199 8.67255 680.606 7.25661C675.827 3.5398 663.261 2.83184 658.482 6.19467Z" fill="#FF0464"/>
<path d="M11.4023 24.4248C9.8094 26.9026 3.43772 62.8319 1.31382 81.2389C-1.16405 103.009 0.0748842 163.717 3.26073 185.31L5.56161 200H83.4377H161.137L160.075 195.929C159.544 193.805 157.243 184.071 155.119 174.336C149.986 150.265 149.455 102.832 154.411 77.3451C156.181 67.7876 157.243 59.646 157.066 59.469C155.65 58.4071 126.27 51.5044 125.739 52.2124C124.323 53.4513 121.845 67.0797 119.19 86.3717C116.358 107.788 115.827 135.044 118.128 154.336L119.367 166.372H106.624H93.8802L92.6413 149.027C90.8714 127.257 92.6413 88.3186 96.1811 69.9115C97.774 62.1239 99.3669 53.2743 99.8979 50.4425L100.96 45.1328L85.3846 41.062C76.8891 38.7611 69.4554 37.6991 68.7475 38.4071C66.8006 40.531 62.0218 67.6106 59.7209 88.4956C58.482 98.9381 58.128 120.177 58.482 136.814L59.3669 166.372H47.3315H35.4731L34.0572 154.513C31.0483 126.372 35.2961 71.8584 43.0837 36.1062L44.3227 30.6195L29.1014 26.7257C11.7563 22.4779 12.6413 22.6549 11.4023 24.4248Z" fill="#070D28"/>
<path d="M225.739 51.5044C217.774 53.4513 202.73 60.8849 194.765 66.9026C185.562 73.9823 175.119 89.9115 171.048 103.186C168.039 113.097 167.508 118.407 168.393 130.265C169.986 157.876 184.854 180 210.163 192.566C223.084 198.938 223.969 199.115 242.907 199.115C260.606 199.115 263.615 198.584 272.995 194.159C278.659 191.504 283.615 189.381 283.969 189.381C284.323 189.381 284.677 191.681 284.677 194.69V200H301.668H318.482L317.951 152.566L317.42 105.31L311.933 93.8053C301.668 72.5664 284.323 57.8761 262.553 52.2124C251.225 49.3805 236.358 49.0266 225.739 51.5044ZM256.181 85.8407C278.305 93.6283 289.278 115.752 282.553 138.761C279.721 148.319 266.623 161.416 257.066 164.248C234.234 170.973 211.756 160.177 203.969 138.584C198.482 122.832 202.73 106.549 215.65 95.0443C228.393 83.5398 241.491 80.531 256.181 85.8407Z" fill="#070D28"/>
<path d="M393.88 51.5044C372.464 56.4602 352.11 73.0974 342.553 93.2743C337.243 104.602 336.889 106.549 336.889 124.779C336.889 143.009 337.243 144.956 342.553 156.106C350.34 172.566 361.845 184.425 377.951 192.389C389.456 198.053 393.172 198.938 406.447 199.646C421.314 200.354 432.464 198.053 449.81 190.442C452.287 189.204 452.818 189.912 452.818 194.513V200H469.633H486.447V157.876C486.447 112.92 485.385 105.664 477.243 89.3805C471.933 79.1151 456.712 64.0708 446.093 58.5841C430.34 50.6195 409.81 47.7876 393.88 51.5044ZM432.995 89.7345C456.712 104.425 459.367 138.584 438.128 156.637C428.925 164.602 421.314 166.903 407.509 166.018C398.659 165.487 394.765 164.248 388.748 160C370.517 147.257 364.677 127.08 373.703 107.434C383.969 84.9558 411.933 76.6372 432.995 89.7345Z" fill="#FF0464"/>
<path d="M679.367 55.5752C668.925 58.4071 664.323 60.354 664.677 62.1239C664.677 63.5398 666.27 72.2124 667.863 81.4159C673.703 112.743 671.225 163.717 662.553 192.389L660.252 200H677.774H695.119L696.889 193.274C703.084 169.558 706.093 132.566 704.146 103.894C702.73 83.7168 697.42 51.1505 695.473 51.5044C694.942 51.5044 687.686 53.4513 679.367 55.5752Z" fill="#FF0464"/>
</svg>
