<svg width="706" height="200" viewBox="0 0 706 200" fill="none" xmlns="http://www.w3.org/2000/svg">
<path d="M503.109 63.1858C503.109 98.0531 503.994 131.327 504.879 137.168C508.773 160.885 524.879 182.478 546.826 193.274C558.33 198.761 559.746 199.115 579.215 199.115C598.684 199.115 600.1 198.938 611.605 193.274C659.392 169.734 669.481 107.08 631.428 70.9734C608.419 49.2035 573.906 43.3628 547.003 56.8141C543.286 58.761 539.569 60.177 538.507 60.177C537.445 60.177 536.737 49.7345 536.737 30.0885V-3.05176e-05H519.923H503.109V63.1858ZM598.153 88.3185C614.437 96.4601 623.994 116.46 620.1 133.451C615.675 152.743 599.038 166.195 579.569 166.372C545.764 166.549 525.941 128.319 545.764 101.062C557.799 84.2477 579.746 78.938 598.153 88.3185Z" fill="white"/>
<path d="M659.215 6.19467C648.596 13.8053 647.711 28.1416 657.268 36.1062C671.959 48.6725 694.082 33.2743 686.649 15.5752C685.233 12.3894 682.932 8.67255 681.339 7.25661C676.56 3.5398 663.994 2.83184 659.215 6.19467Z" fill="white"/>
<path d="M12.1357 24.4248C10.5428 26.9026 4.17111 62.8319 2.04722 81.2389C-0.430655 103.009 0.808283 163.717 3.99412 185.31L6.29501 200H84.1711H161.87L160.808 195.929C160.277 193.805 157.976 184.071 155.853 174.336C150.72 150.265 150.189 102.832 155.145 77.3451C156.914 67.7876 157.976 59.646 157.799 59.469C156.384 58.4071 127.003 51.5044 126.472 52.2124C125.056 53.4513 122.578 67.0797 119.923 86.3717C117.091 107.788 116.561 135.044 118.861 154.336L120.1 166.372H107.357H94.6136L93.3747 149.027C91.6048 127.257 93.3747 88.3186 96.9145 69.9115C98.5074 62.1239 100.1 53.2743 100.631 50.4425L101.693 45.1328L86.118 41.062C77.6225 38.7611 70.1888 37.6991 69.4809 38.4071C67.534 40.531 62.7552 67.6106 60.4543 88.4956C59.2154 98.9381 58.8614 120.177 59.2154 136.814L60.1003 166.372H48.0649H36.2065L34.7906 154.513C31.7817 126.372 36.0295 71.8584 43.8171 36.1062L45.0561 30.6195L29.8348 26.7257C12.4897 22.4779 13.3747 22.6549 12.1357 24.4248Z" fill="white"/>
<path d="M226.472 51.5044C218.507 53.4513 203.463 60.8849 195.498 66.9026C186.295 73.9823 175.852 89.9115 171.782 103.186C168.773 113.097 168.242 118.407 169.127 130.265C170.72 157.876 185.587 180 210.897 192.566C223.817 198.938 224.702 199.115 243.64 199.115C261.339 199.115 264.348 198.584 273.729 194.159C279.392 191.504 284.348 189.381 284.702 189.381C285.056 189.381 285.41 191.681 285.41 194.69V200H302.401H319.215L318.684 152.566L318.153 105.31L312.667 93.8053C302.401 72.5664 285.056 57.8761 263.286 52.2124C251.959 49.3805 237.091 49.0266 226.472 51.5044ZM256.914 85.8407C279.038 93.6283 290.012 115.752 283.286 138.761C280.454 148.319 267.357 161.416 257.799 164.248C234.968 170.973 212.49 160.177 204.702 138.584C199.215 122.832 203.463 106.549 216.383 95.0443C229.127 83.5398 242.224 80.531 256.914 85.8407Z" fill="white"/>
<path d="M394.614 51.5044C373.198 56.4602 352.844 73.0974 343.286 93.2743C337.977 104.602 337.623 106.549 337.623 124.779C337.623 143.009 337.977 144.956 343.286 156.106C351.074 172.566 362.578 184.425 378.685 192.389C390.189 198.053 393.906 198.938 407.18 199.646C422.047 200.354 433.198 198.053 450.543 190.442C453.021 189.204 453.552 189.912 453.552 194.513V200H470.366H487.18V157.876C487.18 112.92 486.118 105.664 477.977 89.3805C472.667 79.1151 457.446 64.0708 446.826 58.5841C431.074 50.6195 410.543 47.7876 394.614 51.5044ZM433.729 89.7345C457.446 104.425 460.1 138.584 438.861 156.637C429.658 164.602 422.047 166.903 408.242 166.018C399.392 165.487 395.499 164.248 389.481 160C371.251 147.257 365.41 127.08 374.437 107.434C384.702 84.9558 412.667 76.6372 433.729 89.7345Z" fill="white"/>
<path d="M680.1 55.5752C669.658 58.4071 665.056 60.354 665.41 62.1239C665.41 63.5398 667.003 72.2124 668.596 81.4159C674.437 112.743 671.959 163.717 663.286 192.389L660.985 200H678.507H695.853L697.623 193.274C703.817 169.558 706.826 132.566 704.879 103.894C703.463 83.7168 698.153 51.1505 696.207 51.5044C695.676 51.5044 688.419 53.4513 680.1 55.5752Z" fill="white"/>
</svg>
