<svg width="600" height="200" viewBox="0 0 600 200" fill="none" xmlns="http://www.w3.org/2000/svg">
<path d="M277.34 126.527L263.53 73.6958L263.449 73.381C263.449 72.9121 263.737 72.6777 264.306 72.6777H273.985C274.507 72.6777 274.842 72.9389 274.996 73.4614L282.41 105.222C282.464 105.429 282.538 105.536 282.645 105.536C282.752 105.536 282.826 105.429 282.879 105.222L290.059 73.5417C290.213 72.9724 290.555 72.6844 291.07 72.6844H300.514C301.083 72.6844 301.452 72.9456 301.606 73.4681L309.409 105.228C309.462 105.382 309.536 105.476 309.643 105.503C309.743 105.53 309.824 105.436 309.877 105.228L317.057 73.5484C317.211 72.9791 317.553 72.6911 318.069 72.6911H327.278C328.008 72.6911 328.289 73.0327 328.135 73.7025L315.336 126.534C315.182 127.056 314.814 127.317 314.244 127.317H304.961C304.439 127.317 304.104 127.056 303.95 126.534L295.993 92.7439C295.94 92.5363 295.866 92.4291 295.759 92.4291C295.652 92.4291 295.578 92.5363 295.524 92.7439L288.11 126.453C288.003 127.029 287.668 127.311 287.099 127.311H278.439C277.863 127.311 277.501 127.049 277.347 126.527H277.34Z" fill="#1A1731"/>
<path d="M385.507 126.527L383.163 118.878C383.055 118.671 382.928 118.564 382.774 118.564H363.579C363.425 118.564 363.291 118.671 363.19 118.878L360.926 126.527C360.772 127.049 360.431 127.311 359.915 127.311H350.003C349.688 127.311 349.453 127.224 349.299 127.036C349.145 126.855 349.118 126.581 349.219 126.219L366.077 73.4682C366.231 72.9458 366.573 72.6846 367.088 72.6846H379.338C379.861 72.6846 380.196 72.9458 380.35 73.4682L397.208 126.219C397.261 126.326 397.288 126.453 397.288 126.607C397.288 127.076 397 127.311 396.431 127.311H386.518C385.996 127.311 385.661 127.049 385.507 126.527ZM366.311 110.064H380.048C380.363 110.064 380.463 109.91 380.363 109.595L373.337 86.4215C373.284 86.2138 373.21 86.1201 373.103 86.1469C372.996 86.1736 372.922 86.2607 372.868 86.4215L366.003 109.595C365.95 109.91 366.057 110.064 366.318 110.064H366.311Z" fill="#1A1731"/>
<path d="M432.84 126.956C432.659 126.775 432.565 126.554 432.565 126.293V106.548C432.565 106.34 432.538 106.186 432.485 106.079L416.41 73.7763C416.303 73.5687 416.256 73.4146 416.256 73.3074C416.256 72.8922 416.544 72.6846 417.114 72.6846H426.946C427.468 72.6846 427.83 72.919 428.038 73.3878L437.789 94.1439C437.943 94.4586 438.104 94.4586 438.258 94.1439L448.01 73.3878C448.218 72.919 448.579 72.6846 449.102 72.6846H459.088C459.45 72.6846 459.697 72.7783 459.831 72.9592C459.959 73.14 459.945 73.4146 459.791 73.7763L443.563 106.079C443.509 106.186 443.482 106.34 443.482 106.548V126.293C443.482 126.554 443.389 126.775 443.208 126.956C443.027 127.137 442.806 127.23 442.545 127.23H433.496C433.235 127.23 433.014 127.143 432.833 126.956H432.84Z" fill="#1A1731"/>
<path d="M503.969 126.527L487.894 73.7761L487.814 73.4614C487.814 72.9389 488.102 72.6777 488.671 72.6777H498.503C499.073 72.6777 499.441 72.9389 499.595 73.4614L509.976 111.544C510.03 111.698 510.104 111.779 510.211 111.779C510.318 111.779 510.392 111.698 510.445 111.544L520.666 73.4614C520.82 72.9389 521.188 72.6777 521.758 72.6777H531.355C531.67 72.6777 531.905 72.7849 532.059 72.9925C532.213 73.2001 532.24 73.4614 532.139 73.7761L515.83 126.527C515.676 127.049 515.335 127.311 514.819 127.311H504.987C504.464 127.311 504.129 127.049 503.975 126.527H503.969Z" fill="#1A1731"/>
<path d="M598.848 81.8537C598.667 82.0345 598.446 82.1283 598.185 82.1283H572.593C572.332 82.1283 572.205 82.2622 572.205 82.5167V94.6127C572.205 94.8739 572.332 95.0012 572.593 95.0012H589.371C589.632 95.0012 589.853 95.0949 590.034 95.2758C590.215 95.4566 590.309 95.6776 590.309 95.9388V103.507C590.309 103.768 590.215 103.989 590.034 104.17C589.853 104.351 589.632 104.445 589.371 104.445H572.593C572.332 104.445 572.205 104.572 572.205 104.833V117.478C572.205 117.74 572.332 117.867 572.593 117.867H598.185C598.446 117.867 598.667 117.961 598.848 118.142C599.029 118.322 599.123 118.543 599.123 118.805V126.373C599.123 126.634 599.029 126.855 598.848 127.036C598.667 127.217 598.446 127.311 598.185 127.311H562.131C561.87 127.311 561.649 127.224 561.468 127.036C561.288 126.855 561.194 126.634 561.194 126.373V73.6222C561.194 73.361 561.281 73.14 561.468 72.9592C561.649 72.7783 561.87 72.6846 562.131 72.6846H598.185C598.446 72.6846 598.667 72.7783 598.848 72.9592C599.029 73.14 599.123 73.361 599.123 73.6222V81.1906C599.123 81.4518 599.029 81.6728 598.848 81.8537Z" fill="#1A1731"/>
<path d="M191.308 58.8536C187.919 51.2049 185.856 46.2285 180.806 39.6514C179.634 38.1243 178.65 36.9522 178.65 36.9522C173.714 35.3716 169.414 39.2897 170.438 44.4201C170.747 44.8019 171.068 45.1904 171.363 45.5788C182.99 60.6553 188.422 78.2299 188.422 100.727C188.422 119.179 177.9 140.759 148.242 140.84H148.115C126.375 140.84 108.9 124.832 107.481 103.601C107.213 99.5954 107.159 85.316 117.815 69.7172C126.924 56.0406 147.191 39.2295 172.535 28.2051C174.571 27.3545 176.64 26.524 178.75 25.7136C179.159 25.5662 179.346 25.4457 179.353 25.3385C165.268 22.6461 145.818 22.1035 122.296 27.609C110.816 30.134 99.8988 33.6637 89.8389 38.1042C53.1558 54.2858 24.1751 84.6329 12.6283 118.429C9.84877 105.228 10.0832 91.498 13.3517 78.4241C18.2744 58.7263 29.3791 41.7612 45.4736 29.3705C61.0925 17.3482 80.4622 10.7309 100.026 10.7309C107.286 10.7309 114.567 11.6284 121.666 13.4033L121.88 13.4569L122.088 13.5105C123.689 13.9257 128.866 15.3992 133.374 17.0468C133.662 17.1004 133.95 17.1808 134.238 17.2946C135.276 17.1473 136.475 16.9531 137.841 16.7789H137.881V16.7722C143.079 16.1761 148.423 15.7676 153.447 15.493C151.786 14.4548 150.098 13.4569 148.376 12.5125C140.828 8.33987 132.724 5.13839 124.251 3.02193C98.3315 -3.45471 71.4404 0.557188 48.5277 14.3075C25.6218 28.0578 9.44022 49.9055 2.96359 75.8321C0.867223 84.231 -0.110637 92.8241 0.00992063 101.377C0.72657 149.446 35.32 189.284 80.9645 198.145L80.9444 198.225C84.166 198.841 87.4478 199.297 90.7699 199.591C92.9265 199.819 95.3979 200 98.2377 200C98.5257 200 98.807 200 99.0816 199.993C99.3161 199.993 99.5505 200 99.7849 200C103.382 200 106.925 199.759 110.421 199.437C114.185 199.096 116.221 198.259 115.987 197.241C115.772 196.31 113.321 195.901 111.934 195.466C107.259 193.999 103.281 192.204 99.3295 189.753C98.4454 189.163 97.4943 188.507 96.4763 187.763C92.538 184.749 88.8878 181.307 85.6194 177.529C73.6841 163.712 67.683 146.734 67.7835 127.076C67.8974 105.282 75.2983 86.4546 89.7786 71.1103C98.8338 61.5193 110.91 53.0199 125.752 45.7865L131.056 41.6875C128.404 43.7571 125.484 46.1749 122.162 49.0214C107.313 61.2647 100.776 74.9079 98.0703 87.2383C96.5834 93.1121 95.9605 98.9457 96.3222 104.351C98.144 131.543 120.387 151.998 148.088 151.998C148.142 151.998 148.189 151.998 148.242 151.998C162.334 151.958 174.645 147.222 183.988 138.649C194.175 129.313 199.553 116.199 199.553 100.721C199.553 86.2001 197.162 72.1082 191.282 58.8469L191.308 58.8536ZM55.4732 127.009C55.3259 155.507 66.8659 174.763 76.5708 185.888C76.6914 186.029 76.8186 186.169 76.9459 186.31C76.2627 186.129 75.5796 185.942 74.9098 185.747C74.2668 185.56 73.7377 185.399 73.2555 185.252C71.1859 184.595 70.0406 184.22 68.7145 183.705C68.4131 183.584 68.0715 183.45 67.7098 183.303C66.1426 182.687 64.7762 182.117 63.5372 181.555C52.2449 176.438 42.2855 169.137 33.9335 159.861C33.3442 159.171 32.7414 158.461 32.1118 157.718C26.4054 150.946 23.2106 142.26 23.1101 133.244C23.0565 128.462 23.8603 123.761 25.4945 119.273C32.5337 99.9772 45.996 82.0476 64.428 67.44C76.9794 57.4873 90.1671 49.6443 103.328 44.246C71.7418 64.6203 55.6674 92.3888 55.4866 127.009H55.4732Z" fill="#1A1731"/>
</svg>
