<svg width="600" height="200" viewBox="0 0 600 200" fill="none" xmlns="http://www.w3.org/2000/svg">
<path d="M277.344 126.527L263.533 73.6958L263.453 73.381C263.453 72.9121 263.741 72.6777 264.31 72.6777H273.989C274.511 72.6777 274.846 72.9389 275 73.4614L282.414 105.222C282.468 105.429 282.541 105.536 282.649 105.536C282.756 105.536 282.829 105.429 282.883 105.222L290.063 73.5417C290.217 72.9724 290.559 72.6844 291.074 72.6844H300.518C301.087 72.6844 301.456 72.9456 301.61 73.4681L309.412 105.228C309.466 105.382 309.54 105.476 309.647 105.503C309.747 105.53 309.828 105.436 309.881 105.228L317.061 73.5484C317.215 72.9791 317.557 72.6911 318.073 72.6911H327.282C328.012 72.6911 328.293 73.0327 328.139 73.7025L315.34 126.534C315.186 127.056 314.817 127.317 314.248 127.317H304.965C304.443 127.317 304.108 127.056 303.954 126.534L295.997 92.7439C295.943 92.5363 295.87 92.4291 295.763 92.4291C295.655 92.4291 295.582 92.5363 295.528 92.7439L288.114 126.453C288.007 127.029 287.672 127.311 287.103 127.311H278.442C277.866 127.311 277.505 127.049 277.351 126.527H277.344Z" fill="white"/>
<path d="M385.511 126.527L383.167 118.878C383.06 118.671 382.933 118.564 382.779 118.564H363.583C363.429 118.564 363.295 118.671 363.195 118.878L360.931 126.527C360.777 127.049 360.435 127.311 359.92 127.311H350.007C349.692 127.311 349.458 127.224 349.304 127.036C349.15 126.855 349.123 126.581 349.224 126.219L366.082 73.4682C366.236 72.9458 366.577 72.6846 367.093 72.6846H379.343C379.865 72.6846 380.2 72.9458 380.354 73.4682L397.212 126.219C397.266 126.326 397.293 126.453 397.293 126.607C397.293 127.076 397.005 127.311 396.435 127.311H386.523C386 127.311 385.665 127.049 385.511 126.527ZM366.316 110.064H380.053C380.368 110.064 380.468 109.91 380.368 109.595L373.342 86.4215C373.288 86.2138 373.215 86.1201 373.107 86.1469C373 86.1736 372.927 86.2607 372.873 86.4215L366.008 109.595C365.954 109.91 366.061 110.064 366.323 110.064H366.316Z" fill="white"/>
<path d="M432.845 126.956C432.664 126.775 432.571 126.554 432.571 126.293V106.548C432.571 106.34 432.544 106.186 432.49 106.079L416.416 73.7763C416.309 73.5687 416.262 73.4146 416.262 73.3074C416.262 72.8922 416.55 72.6846 417.119 72.6846H426.951C427.474 72.6846 427.835 72.919 428.043 73.3878L437.795 94.1439C437.949 94.4586 438.109 94.4586 438.264 94.1439L448.015 73.3878C448.223 72.919 448.585 72.6846 449.107 72.6846H459.093C459.455 72.6846 459.703 72.7783 459.837 72.9592C459.964 73.14 459.951 73.4146 459.796 73.7763L443.568 106.079C443.514 106.186 443.488 106.34 443.488 106.548V126.293C443.488 126.554 443.394 126.775 443.213 126.956C443.032 127.137 442.811 127.23 442.55 127.23H433.501C433.24 127.23 433.019 127.143 432.838 126.956H432.845Z" fill="white"/>
<path d="M503.971 126.527L487.897 73.7761L487.816 73.4614C487.816 72.9389 488.104 72.6777 488.674 72.6777H498.506C499.075 72.6777 499.444 72.9389 499.598 73.4614L509.979 111.544C510.033 111.698 510.106 111.779 510.213 111.779C510.321 111.779 510.394 111.698 510.448 111.544L520.668 73.4614C520.822 72.9389 521.191 72.6777 521.76 72.6777H531.358C531.673 72.6777 531.907 72.7849 532.061 72.9925C532.215 73.2001 532.242 73.4614 532.141 73.7761L515.833 126.527C515.679 127.049 515.337 127.311 514.821 127.311H504.989C504.467 127.311 504.132 127.049 503.978 126.527H503.971Z" fill="white"/>
<path d="M598.853 81.8537C598.673 82.0345 598.452 82.1283 598.19 82.1283H572.599C572.337 82.1283 572.21 82.2622 572.21 82.5167V94.6127C572.21 94.8739 572.337 95.0012 572.599 95.0012H589.376C589.637 95.0012 589.858 95.0949 590.039 95.2758C590.22 95.4566 590.314 95.6776 590.314 95.9388V103.507C590.314 103.768 590.22 103.989 590.039 104.17C589.858 104.351 589.637 104.445 589.376 104.445H572.599C572.337 104.445 572.21 104.572 572.21 104.833V117.478C572.21 117.74 572.337 117.867 572.599 117.867H598.19C598.452 117.867 598.673 117.961 598.853 118.142C599.034 118.322 599.128 118.543 599.128 118.805V126.373C599.128 126.634 599.034 126.855 598.853 127.036C598.673 127.217 598.452 127.311 598.19 127.311H562.137C561.876 127.311 561.655 127.224 561.474 127.036C561.293 126.855 561.199 126.634 561.199 126.373V73.6222C561.199 73.361 561.286 73.14 561.474 72.9592C561.655 72.7783 561.876 72.6846 562.137 72.6846H598.19C598.452 72.6846 598.673 72.7783 598.853 72.9592C599.034 73.14 599.128 73.361 599.128 73.6222V81.1906C599.128 81.4518 599.034 81.6728 598.853 81.8537Z" fill="white"/>
<path d="M191.311 58.8536C187.922 51.2049 185.859 46.2285 180.809 39.6514C179.637 38.1243 178.653 36.9522 178.653 36.9522C173.717 35.3716 169.417 39.2897 170.441 44.4201C170.749 44.8019 171.071 45.1904 171.366 45.5788C182.993 60.6553 188.425 78.2299 188.425 100.727C188.425 119.179 177.903 140.759 148.245 140.84H148.118C126.378 140.84 108.903 124.832 107.483 103.601C107.216 99.5954 107.162 85.316 117.818 69.7172C126.927 56.0406 147.194 39.2295 172.538 28.2051C174.574 27.3545 176.643 26.524 178.753 25.7136C179.162 25.5662 179.349 25.4457 179.356 25.3385C165.271 22.6461 145.821 22.1035 122.299 27.609C110.819 30.134 99.9017 33.6637 89.8418 38.1042C53.1587 54.2858 24.178 84.6329 12.6312 118.429C9.8517 105.228 10.0861 91.498 13.3546 78.4241C18.2774 58.7263 29.3821 41.7612 45.4765 29.3705C61.0955 17.3482 80.4651 10.7309 100.029 10.7309C107.289 10.7309 114.57 11.6284 121.669 13.4033L121.883 13.4569L122.091 13.5105C123.692 13.9257 128.869 15.3992 133.377 17.0468C133.665 17.1004 133.953 17.1808 134.241 17.2946C135.279 17.1473 136.478 16.9531 137.844 16.7789H137.884V16.7722C143.081 16.1761 148.426 15.7676 153.449 15.493C151.788 14.4548 150.101 13.4569 148.379 12.5125C140.831 8.33987 132.727 5.13839 124.254 3.02193C98.3344 -3.45471 71.4434 0.557188 48.5307 14.3075C25.6247 28.0578 9.44315 49.9055 2.96652 75.8321C0.870153 84.231 -0.107707 92.8241 0.0128503 101.377C0.7295 149.446 35.3229 189.284 80.9674 198.145L80.9473 198.225C84.1689 198.841 87.4508 199.297 90.7728 199.591C92.9294 199.819 95.4009 200 98.2407 200C98.5287 200 98.81 200 99.0846 199.993C99.319 199.993 99.5534 200 99.7878 200C103.384 200 106.928 199.759 110.424 199.437C114.188 199.096 116.224 198.259 115.989 197.241C115.775 196.31 113.324 195.901 111.937 195.466C107.262 193.999 103.284 192.204 99.3324 189.753C98.4483 189.163 97.4972 188.507 96.4792 187.763C92.541 184.749 88.8907 181.307 85.6223 177.529C73.6871 163.712 67.686 146.734 67.7864 127.076C67.9003 105.282 75.3012 86.4546 89.7815 71.1103C98.8368 61.5193 110.913 53.0199 125.755 45.7865L131.059 41.6875C128.407 43.7571 125.487 46.1749 122.165 49.0214C107.316 61.2647 100.779 74.9079 98.0732 87.2383C96.5864 93.1121 95.9635 98.9457 96.3251 104.351C98.1469 131.543 120.39 151.998 148.091 151.998C148.145 151.998 148.192 151.998 148.245 151.998C162.337 151.958 174.648 147.222 183.991 138.649C194.178 129.313 199.556 116.199 199.556 100.721C199.556 86.2001 197.165 72.1082 191.284 58.8469L191.311 58.8536ZM55.4761 127.009C55.3288 155.507 66.8689 174.763 76.5738 185.888C76.6943 186.029 76.8216 186.169 76.9488 186.31C76.2657 186.129 75.5825 185.942 74.9127 185.747C74.2698 185.56 73.7406 185.399 73.2584 185.252C71.1888 184.595 70.0435 184.22 68.7174 183.705C68.416 183.584 68.0744 183.45 67.7128 183.303C66.1455 182.687 64.7792 182.117 63.5401 181.555C52.2479 176.438 42.2885 169.137 33.9365 159.861C33.3471 159.171 32.7443 158.461 32.1147 157.718C26.4083 150.946 23.2135 142.26 23.1131 133.244C23.0595 128.462 23.8632 123.761 25.4974 119.273C32.5367 99.9772 45.9989 82.0476 64.4309 67.44C76.9823 57.4873 90.17 49.6443 103.331 44.246C71.7448 64.6203 55.6704 92.3888 55.4895 127.009H55.4761Z" fill="white"/>
</svg>
