<svg viewBox="0 0 24 24" xmlns="http://www.w3.org/2000/svg"><path d="M10.5,14.369a1.971,1.971,0,0,0,1.358.5h.284a1.969,1.969,0,0,0,1.358-.5" fill="none" stroke="currentColor" stroke-linecap="round" stroke-linejoin="round"></path><path d="M5.711,11.943a1.67,1.67,0,0,0,.785.815,1,1,0,0,1,.572.746c.442,2.644,3.545,4.365,4.932,4.365s4.49-1.721,4.932-4.365a1,1,0,0,1,.572-.746,1.765,1.765,0,0,0,.8-.832" fill="none" stroke="currentColor" stroke-linecap="round" stroke-linejoin="round"></path><path d="M11,10.369a1.089,1.089,0,0,0-1-.5,1.089,1.089,0,0,0-1,.5" fill="none" stroke="currentColor" stroke-linecap="round" stroke-linejoin="round"></path><path d="M15,10.369a1.089,1.089,0,0,0-1-.5,1.089,1.089,0,0,0-1,.5" fill="none" stroke="currentColor" stroke-linecap="round" stroke-linejoin="round"></path><path d="M5.619,12.26a4.287,4.287,0,0,1-1.848,2.827.5.5,0,0,0-.041.831,4.433,4.433,0,0,0,2.915.932" fill="none" stroke="currentColor" stroke-linecap="round" stroke-linejoin="round"></path><path d="M5.619,7.191a26.365,26.365,0,0,1,6.389-.683,26.372,26.372,0,0,1,6.389.683,1.879,1.879,0,0,1,.506.21,6.9,6.9,0,0,0-13.791,0A1.9,1.9,0,0,1,5.619,7.191Z" fill="none" stroke="currentColor" stroke-linecap="round" stroke-linejoin="round"></path><path d="M18.367,12.152l1.538-.395a.985.985,0,0,0,.611-1.28L19.739,8.4A1.951,1.951,0,0,0,18.4,7.191a26.365,26.365,0,0,0-6.389-.683,26.358,26.358,0,0,0-6.389.683A1.951,1.951,0,0,0,4.276,8.4L3.5,10.476a.986.986,0,0,0,.611,1.281l1.509.5a11.594,11.594,0,0,0,.457-2.481A.479.479,0,0,1,6.4,9.353a18.386,18.386,0,0,1,11.209,0,.478.478,0,0,1,.327.426c.139,1.829.764,4.337,2.331,5.308a.5.5,0,0,1,.04.831,4.431,4.431,0,0,1-2.915.932" fill="none" stroke="currentColor" stroke-linecap="round" stroke-linejoin="round"></path><path d="M23.464,23.4a3.987,3.987,0,0,0-2.56-3.28l-4.325-1.452a5.512,5.512,0,0,1-4.6,2.232A5.52,5.52,0,0,1,7.38,18.686L3.1,20.124A3.989,3.989,0,0,0,.536,23.4" fill="none" stroke="currentColor" stroke-linecap="round" stroke-linejoin="round"></path><path d="M11.975 20.904L11.975 23.404" fill="none" stroke="currentColor" stroke-linecap="round" stroke-linejoin="round"></path><path d="M4.475 19.661L4.475 23.404" fill="none" stroke="currentColor" stroke-linecap="round" stroke-linejoin="round"></path><path d="M19.475 19.644L19.475 23.404" fill="none" stroke="currentColor" stroke-linecap="round" stroke-linejoin="round"></path></svg>
