<svg viewBox="0 0 24 24" xmlns="http://www.w3.org/2000/svg"><path d="M7.5,11.5h-2l-3,3v-3h-1a1,1,0,0,1-1-1v-9a1,1,0,0,1,1-1h12a1,1,0,0,1,1,1v9" fill="none" stroke="#000000" stroke-linecap="round" stroke-linejoin="round"></path><path d="M16.5,10.5h6a1,1,0,0,1,1,1v8a1,1,0,0,1-1,1h-1v3l-3-3h-8a1,1,0,0,1-1-1v-8a1,1,0,0,1,1-1h1" fill="none" stroke="#000000" stroke-linecap="round" stroke-linejoin="round"></path><path d="M5.5,8.5V4a1.5,1.5,0,0,1,3,0V8.5" fill="none" stroke="#000000" stroke-linecap="round" stroke-linejoin="round"></path><path d="M5.5 5.5L8.5 5.5" fill="none" stroke="#000000" stroke-linecap="round" stroke-linejoin="round"></path><path d="M17.5 13.5L17.5 12.5" fill="none" stroke="#000000" stroke-linecap="round" stroke-linejoin="round"></path><path d="M14.5 13.5L20.5 13.5" fill="none" stroke="#000000" stroke-linecap="round" stroke-linejoin="round"></path><path d="M16,13.5A4.868,4.868,0,0,0,20,18" fill="none" stroke="#000000" stroke-linecap="round" stroke-linejoin="round"></path><path d="M19,13.5A4.868,4.868,0,0,1,15,18" fill="none" stroke="#000000" stroke-linecap="round" stroke-linejoin="round"></path></svg>
