<svg xmlns="http://www.w3.org/2000/svg" viewBox="0 0 24 24"><defs></defs><title>drawer-envelope</title><path d="M22.5,21.5a2,2,0,0,1-2,2H3.5a2,2,0,0,1-2-2v-4h21Z" fill="none" stroke="currentColor" stroke-linecap="round" stroke-linejoin="round"></path><path d="M17.5.5,15,3c-.38.469-1.556.5-1.556.5H7.556S6.38,3.469,6,3L3.5.5" fill="none" stroke="currentColor" stroke-linecap="round" stroke-linejoin="round"></path><polyline points="3.5 17.5 3.5 0.5 17.5 0.5 17.5 6" fill="none" stroke="currentColor" stroke-linecap="round" stroke-linejoin="round"></polyline><line x1="10.5" y1="3.531" x2="10.5" y2="9" fill="none" stroke="currentColor" stroke-linecap="round" stroke-linejoin="round"></line><path d="M11.044,17.5,9.156,12.967a1.064,1.064,0,0,1,.573-1.393l9.836-4.1a1.067,1.067,0,0,1,1.394.574l2.459,5.9a1.066,1.066,0,0,1-.574,1.393L17.669,17.5" fill="none" stroke="currentColor" stroke-linecap="round" stroke-linejoin="round"></path><path d="M9.36,13.459l5.865.213a2.132,2.132,0,0,0,1.961-.817l3.978-4.314" fill="none" stroke="currentColor" stroke-linecap="round" stroke-linejoin="round"></path><line x1="23.5" y1="17.5" x2="0.5" y2="17.5" fill="none" stroke="currentColor" stroke-linecap="round" stroke-linejoin="round"></line></svg>
