<svg xmlns="http://www.w3.org/2000/svg" viewBox="0 0 24 24"><g><rect x="4.5" y="0.5" width="15" height="9" rx="1.5" fill="none" stroke="#000000" stroke-linecap="round" stroke-linejoin="round"></rect><circle cx="8" cy="5" r="1.5" fill="none" stroke="#000000" stroke-linecap="round" stroke-linejoin="round"></circle><circle cx="16" cy="5" r="1.5" fill="none" stroke="#000000" stroke-linecap="round" stroke-linejoin="round"></circle><line x1="10.5" y1="11.5" x2="13.5" y2="11.5" fill="none" stroke="#000000" stroke-linecap="round" stroke-linejoin="round"></line><line x1="10.5" y1="13.5" x2="13.5" y2="13.5" fill="none" stroke="#000000" stroke-linecap="round" stroke-linejoin="round"></line><path d="M15.34,15.5H8.66a3.66,3.66,0,0,0-3.58,4.43l.47,3.17a.49.49,0,0,0,.49.4H18a.49.49,0,0,0,.49-.4l.47-3.17A3.66,3.66,0,0,0,15.34,15.5Z" fill="none" stroke="#000000" stroke-linecap="round" stroke-linejoin="round"></path><path d="M19,18.78l1.71-1.61A3.64,3.64,0,0,0,22,13.5L22,13.31" fill="none" stroke="#000000" stroke-linecap="round" stroke-linejoin="round"></path><path d="M23,9.5a2.5,2.5,0,0,1-2,4,2.49,2.49,0,0,1-2-1" fill="none" stroke="#000000" stroke-linecap="round" stroke-linejoin="round"></path><path d="M5,18.78,3.31,17.17A3.64,3.64,0,0,1,2,13.5l0-.2" fill="none" stroke="#000000" stroke-linecap="round" stroke-linejoin="round"></path><path d="M1,9.5a2.5,2.5,0,0,0,2,4,2.49,2.49,0,0,0,2-1" fill="none" stroke="#000000" stroke-linecap="round" stroke-linejoin="round"></path><path d="M16,23.5V19a.5.5,0,0,0-.5-.5h-7A.5.5,0,0,0,8,19v4.5" fill="none" stroke="#000000" stroke-linecap="round" stroke-linejoin="round"></path></g></svg>
