<svg viewBox="0 0 24 24" xmlns="http://www.w3.org/2000/svg"><path d="M23.5,6.14a1,1,0,0,0-.6-.917L12.4.657a1.006,1.006,0,0,0-.8,0L1.1,5.223a1,1,0,0,0-.6.917V17.817a1,1,0,0,0,.615.923L12.1,23.317a1,1,0,0,0,.8-.013L22.914,18.75a1,1,0,0,0,.586-.91Z" fill="none" stroke="#000000" stroke-linecap="round" stroke-linejoin="round"></path><path d="M12.5 10.484L0.685 5.561" fill="none" stroke="#000000" stroke-linecap="round" stroke-linejoin="round"></path><path d="M12.5 10.484L23.319 5.566" fill="none" stroke="#000000" stroke-linecap="round" stroke-linejoin="round"></path><path d="M7.187 2.579L18.288 7.857" fill="none" stroke="#000000" stroke-linecap="round" stroke-linejoin="round"></path><path d="M9.5,12.936a.5.5,0,0,0-.3-.458l-5-2.188a.5.5,0,0,0-.7.459v3.908a.5.5,0,0,0,.3.458l5,2.188a.5.5,0,0,0,.7-.458Z" fill="none" stroke="#000000" stroke-linecap="round" stroke-linejoin="round"></path><path d="M12.5 23.426L12.5 10.484" fill="none" stroke="#000000" stroke-linecap="round" stroke-linejoin="round"></path></svg>
