<svg viewBox="0 0 24 24" xmlns="http://www.w3.org/2000/svg"><path d="M14.500 15.500 A2.500 2.500 0 1 0 19.500 15.500 A2.500 2.500 0 1 0 14.500 15.500 Z" fill="none" stroke="#000000" stroke-linecap="round" stroke-linejoin="round"></path><path d="M0.500 15.500 A2.500 2.500 0 1 0 5.500 15.500 A2.500 2.500 0 1 0 0.500 15.500 Z" fill="none" stroke="#000000" stroke-linecap="round" stroke-linejoin="round"></path><path d="M5 8L0.5 6" fill="none" stroke="#000000" stroke-linecap="round" stroke-linejoin="round"></path><path d="M17,13H12.5a2,2,0,0,1-2-2V8.6a.5.5,0,0,0-.6-.49c-1.156.25-3.639,1-4.4,2.891h-4a1,1,0,0,0-1,1v3.5" fill="none" stroke="#000000" stroke-linecap="round" stroke-linejoin="round"></path><path d="M15 17L4.999 17" fill="none" stroke="#000000" stroke-linecap="round" stroke-linejoin="round"></path><path d="M4 11L4 7.556" fill="none" stroke="#000000" stroke-linecap="round" stroke-linejoin="round"></path><path d="M2 11L2 6.667" fill="none" stroke="#000000" stroke-linecap="round" stroke-linejoin="round"></path><path d="M19,17h4.25a.25.25,0,0,0,.224-.362l-.714-1.427A4,4,0,0,0,19.182,13H17" fill="none" stroke="#000000" stroke-linecap="round" stroke-linejoin="round"></path><path d="M16.5,11a2,2,0,0,0-4,0" fill="none" stroke="#000000" stroke-linecap="round" stroke-linejoin="round"></path></svg>
