<svg xmlns="http://www.w3.org/2000/svg" fill="none" viewBox="0 0 24 24"><path stroke="#000000" stroke-linecap="round" stroke-linejoin="round" d="M19.5 0.5H4.5C3.39543 0.5 2.5 1.39543 2.5 2.5V21.5C2.5 22.6046 3.39543 23.5 4.5 23.5H19.5C20.6046 23.5 21.5 22.6046 21.5 21.5V2.5C21.5 1.39543 20.6046 0.5 19.5 0.5Z"></path><path stroke="#000000" stroke-linecap="round" stroke-linejoin="round" d="M12 16.5C15.5899 16.5 18.5 13.5899 18.5 10C18.5 6.41015 15.5899 3.5 12 3.5C8.41015 3.5 5.5 6.41015 5.5 10C5.5 13.5899 8.41015 16.5 12 16.5Z"></path><path stroke="#000000" stroke-linecap="round" stroke-linejoin="round" d="M9 14L5.5 17.5"></path><path stroke="#000000" stroke-linecap="round" stroke-linejoin="round" d="M11.5 20.6C11.5 20.8387 11.4052 21.0676 11.2364 21.2364C11.0676 21.4052 10.8387 21.5 10.6 21.5H6.5C6.23478 21.5 5.98043 21.3946 5.79289 21.2071C5.60536 21.0196 5.5 20.7652 5.5 20.5V17.5L10.946 19.769C11.1101 19.8373 11.2503 19.9527 11.3488 20.1006C11.4474 20.2485 11.5 20.4223 11.5 20.6V20.6Z"></path><path stroke="#000000" stroke-linecap="round" stroke-linejoin="round" d="M13.5 10C13.5 10.3978 13.342 10.7794 13.0607 11.0607C12.7794 11.342 12.3978 11.5 12 11.5C11.6022 11.5 11.2206 11.342 10.9393 11.0607C10.658 10.7794 10.5 10.3978 10.5 10C10.5 9.60218 10.658 9.22064 10.9393 8.93934C11.2206 8.65804 11.6022 8.5 12 8.5C12.3978 8.5 12.7794 8.65804 13.0607 8.93934C13.342 9.22064 13.5 9.60218 13.5 10Z"></path><path stroke="#000000" d="M18.25 20.5C18.1119 20.5 18 20.3881 18 20.25C18 20.1119 18.1119 20 18.25 20"></path><path stroke="#000000" d="M18.25 20.5C18.3881 20.5 18.5 20.3881 18.5 20.25C18.5 20.1119 18.3881 20 18.25 20"></path></svg>
