<svg viewBox="0 0 24 24" xmlns="http://www.w3.org/2000/svg"><path d="M4.427 4.250 A2.500 2.500 0 1 0 9.427 4.250 A2.500 2.500 0 1 0 4.427 4.250 Z" fill="none" stroke="currentColor" stroke-linecap="round" stroke-linejoin="round"></path><path d="M19.376,8.748l.666,1.831a.5.5,0,0,1-.47.672H15.661L13.489,8.458l1.338-1.094a.5.5,0,0,1,.315-.113h3.785a1.5,1.5,0,0,0,0-3H15.141a3.5,3.5,0,0,0-2.217.792L8.207,9.016a1,1,0,0,1-.644.235H2.428a1.5,1.5,0,1,0,0,3H7.464a4,4,0,0,0,2.583-.946l1.12-.948,2.261,2.908V20.75a1.5,1.5,0,0,0,3,0v-6.5h3.018a3.683,3.683,0,0,0,1.987-.532,3.5,3.5,0,0,0,1.428-4.164l-.839-2.307" fill="none" stroke="currentColor" stroke-linecap="round" stroke-linejoin="round"></path><path d="M13.427 13.265L15.66 11.25" fill="none" stroke="currentColor" stroke-linecap="round" stroke-linejoin="round"></path></svg>
