<svg xmlns="http://www.w3.org/2000/svg" fill="none" viewBox="0 0 24 24"><path stroke="currentColor" stroke-linecap="round" stroke-linejoin="round" d="M21.21 4.50002C21.3027 4.59346 21.376 4.70427 21.4258 4.82611C21.4755 4.94795 21.5008 5.07841 21.5 5.21002V22.5C21.5 22.7652 21.3946 23.0196 21.2071 23.2071C21.0196 23.3947 20.7652 23.5 20.5 23.5H3.5C3.23478 23.5 2.98043 23.3947 2.79289 23.2071C2.60536 23.0196 2.5 22.7652 2.5 22.5V1.50002C2.5 1.2348 2.60536 0.980446 2.79289 0.79291C2.98043 0.605374 3.23478 0.500017 3.5 0.500017H16.79C16.9216 0.499256 17.0521 0.524481 17.1739 0.574245C17.2957 0.62401 17.4066 0.697335 17.5 0.790017L21.21 4.50002Z"></path><path stroke="currentColor" stroke-linecap="round" stroke-linejoin="round" d="M11 4.11C11.0254 4.31782 11.0065 4.52867 10.9445 4.72863C10.8824 4.92859 10.7786 5.11311 10.64 5.27C10.4974 5.42844 10.3232 5.55513 10.1285 5.64185C9.93383 5.72857 9.72309 5.77339 9.50998 5.77339C9.29686 5.77339 9.08612 5.72857 8.89145 5.64185C8.69677 5.55513 8.52251 5.42844 8.37998 5.27C8.23779 5.11479 8.13034 4.93103 8.06481 4.731C7.99929 4.53097 7.97718 4.31926 7.99998 4.11L8.36997 0.5H10.5L11 4.11Z"></path><path stroke="currentColor" d="M9.5011 8.25C9.36303 8.25 9.2511 8.13807 9.2511 8C9.2511 7.86193 9.36303 7.75 9.5011 7.75"></path><path stroke="currentColor" d="M9.5011 8.25C9.63917 8.25 9.7511 8.13807 9.7511 8C9.7511 7.86193 9.63917 7.75 9.5011 7.75"></path><path stroke="currentColor" d="M9.5011 10.75C9.36303 10.75 9.2511 10.6381 9.2511 10.5C9.2511 10.3619 9.36303 10.25 9.5011 10.25"></path><path stroke="currentColor" d="M9.5011 10.75C9.63917 10.75 9.7511 10.6381 9.7511 10.5C9.7511 10.3619 9.63917 10.25 9.5011 10.25"></path><path stroke="currentColor" d="M9.5011 13.25C9.36303 13.25 9.2511 13.1381 9.2511 13C9.2511 12.8619 9.36303 12.75 9.5011 12.75"></path><path stroke="currentColor" d="M9.5011 13.25C9.63917 13.25 9.7511 13.1381 9.7511 13C9.7511 12.8619 9.63917 12.75 9.5011 12.75"></path><g><path stroke="currentColor" d="M9.5011 15.75C9.36303 15.75 9.2511 15.6381 9.2511 15.5C9.2511 15.3619 9.36303 15.25 9.5011 15.25"></path><path stroke="currentColor" d="M9.5011 15.75C9.63917 15.75 9.7511 15.6381 9.7511 15.5C9.7511 15.3619 9.63917 15.25 9.5011 15.25"></path></g><g><path stroke="currentColor" d="M9.5011 18.25C9.36303 18.25 9.2511 18.1381 9.2511 18C9.2511 17.8619 9.36303 17.75 9.5011 17.75"></path><path stroke="currentColor" d="M9.5011 18.25C9.63917 18.25 9.7511 18.1381 9.7511 18C9.7511 17.8619 9.63917 17.75 9.5011 17.75"></path></g><g><path stroke="currentColor" d="M9.5011 20.75C9.36303 20.75 9.2511 20.6381 9.2511 20.5C9.2511 20.3619 9.36303 20.25 9.5011 20.25"></path><path stroke="currentColor" d="M9.5011 20.75C9.63917 20.75 9.7511 20.6381 9.7511 20.5C9.7511 20.3619 9.63917 20.25 9.5011 20.25"></path></g></svg>
